<svg width="25" height="26" viewBox="0 0 25 26" fill="none" xmlns="http://www.w3.org/2000/svg">
<path fill-rule="evenodd" clip-rule="evenodd" d="M3.125 3.24048C3.47018 3.24048 3.75 3.5203 3.75 3.86548V22.6155C3.75 22.9607 3.47018 23.2405 3.125 23.2405C2.77982 23.2405 2.5 22.9607 2.5 22.6155V3.86548C2.5 3.5203 2.77982 3.24048 3.125 3.24048Z" fill="white" stroke="white" stroke-linecap="round" stroke-linejoin="round"/>
<path fill-rule="evenodd" clip-rule="evenodd" d="M2.5 22.6155C2.5 22.2703 2.77982 21.9905 3.125 21.9905H21.875C22.2202 21.9905 22.5 22.2703 22.5 22.6155C22.5 22.9607 22.2202 23.2405 21.875 23.2405H3.125C2.77982 23.2405 2.5 22.9607 2.5 22.6155Z" fill="white" stroke="white" stroke-linecap="round" stroke-linejoin="round"/>
<path fill-rule="evenodd" clip-rule="evenodd" d="M22.3169 9.67354C22.561 9.91761 22.561 10.3133 22.3169 10.5574L16.8482 16.0262C16.6041 16.2702 16.2084 16.2702 15.9643 16.0262L12.7604 12.8223L7.7336 17.8491C7.48952 18.0932 7.09379 18.0932 6.84971 17.8491C6.60564 17.605 6.60564 17.2093 6.84971 16.9652L12.3185 11.4965C12.5625 11.2524 12.9583 11.2524 13.2023 11.4965L16.4062 14.7003L21.433 9.67354C21.6771 9.42946 22.0729 9.42946 22.3169 9.67354Z" fill="white" stroke="white" stroke-linecap="round" stroke-linejoin="round"/>
</svg>
