<svg width="25" height="26" viewBox="0 0 25 26" fill="none" xmlns="http://www.w3.org/2000/svg">
<path fill-rule="evenodd" clip-rule="evenodd" d="M3.125 2.74023C3.47018 2.74023 3.75 3.02006 3.75 3.36523V22.1152C3.75 22.4604 3.47018 22.7402 3.125 22.7402C2.77982 22.7402 2.5 22.4604 2.5 22.1152V3.36523C2.5 3.02006 2.77982 2.74023 3.125 2.74023Z" fill="#76C757" stroke="#76C757" stroke-linecap="round" stroke-linejoin="round"/>
<path fill-rule="evenodd" clip-rule="evenodd" d="M2.5 22.1152C2.5 21.7701 2.77982 21.4902 3.125 21.4902H21.875C22.2202 21.4902 22.5 21.7701 22.5 22.1152C22.5 22.4604 22.2202 22.7402 21.875 22.7402H3.125C2.77982 22.7402 2.5 22.4604 2.5 22.1152Z" fill="#76C757" stroke="#76C757" stroke-linecap="round" stroke-linejoin="round"/>
<path fill-rule="evenodd" clip-rule="evenodd" d="M22.317 9.17329C22.5611 9.41737 22.5611 9.8131 22.317 10.0572L16.8483 15.5259C16.6042 15.77 16.2085 15.77 15.9644 15.5259L12.7605 12.322L7.73369 17.3488C7.48961 17.5929 7.09388 17.5929 6.84981 17.3488C6.60573 17.1048 6.60573 16.709 6.84981 16.465L12.3186 10.9962C12.5626 10.7521 12.9584 10.7521 13.2024 10.9962L16.4063 14.2001L21.4331 9.17329C21.6772 8.92921 22.0729 8.92921 22.317 9.17329Z" fill="#76C757" stroke="#76C757" stroke-linecap="round" stroke-linejoin="round"/>
</svg>
