<svg width="20" height="20" viewBox="0 0 20 20" fill="none" xmlns="http://www.w3.org/2000/svg">
<path d="M8.98958 0.438459C9.27196 0.199341 9.62998 0.0681152 10 0.0681152C10.37 0.0681152 10.728 0.199341 11.0104 0.438459L18.8229 7.06658C18.9959 7.21325 19.1349 7.39581 19.2302 7.6016C19.3256 7.80738 19.375 8.03145 19.375 8.25825V18.053C19.375 18.4674 19.2104 18.8649 18.9174 19.1579C18.6243 19.4509 18.2269 19.6155 17.8125 19.6155H11.8229C11.6157 19.6155 11.417 19.5332 11.2705 19.3867C11.124 19.2402 11.0417 19.0415 11.0417 18.8343V12.3239H8.95833V18.8343C8.95833 19.0415 8.87602 19.2402 8.72951 19.3867C8.583 19.5332 8.38428 19.6155 8.17708 19.6155H2.1875C1.7731 19.6155 1.37567 19.4509 1.08265 19.1579C0.78962 18.8649 0.625 18.4674 0.625 18.053V8.25825C0.625 7.79992 0.827083 7.36346 1.17708 7.06658L8.98958 0.438459ZM10 1.63013L2.1875 8.25825V18.053H7.39583V11.5426C7.39583 11.3354 7.47814 11.1367 7.62466 10.9902C7.77117 10.8437 7.96988 10.7614 8.17708 10.7614H11.8229C12.0301 10.7614 12.2288 10.8437 12.3753 10.9902C12.5219 11.1367 12.6042 11.3354 12.6042 11.5426V18.053H17.8125V8.25825L10 1.63013Z" fill="#76C757"/>
</svg>
