<svg width="26" height="26" viewBox="0 0 26 26" fill="none" xmlns="http://www.w3.org/2000/svg">
<path d="M11.9896 2.93821C12.272 2.6991 12.63 2.56787 13 2.56787C13.37 2.56787 13.728 2.6991 14.0104 2.93821L21.8229 9.56634C21.9959 9.713 22.1349 9.89557 22.2302 10.1014C22.3256 10.3071 22.375 10.5312 22.375 10.758V20.5528C22.375 20.9672 22.2104 21.3646 21.9174 21.6576C21.6243 21.9507 21.2269 22.1153 20.8125 22.1153H14.8229C14.6157 22.1153 14.417 22.033 14.2705 21.8865C14.124 21.74 14.0417 21.5412 14.0417 21.334V14.8236H11.9583V21.334C11.9583 21.5412 11.876 21.74 11.7295 21.8865C11.583 22.033 11.3843 22.1153 11.1771 22.1153H5.1875C4.7731 22.1153 4.37567 21.9507 4.08265 21.6576C3.78962 21.3646 3.625 20.9672 3.625 20.5528V10.758C3.625 10.2997 3.82708 9.86321 4.17708 9.56634L11.9896 2.93821ZM13 4.12988L5.1875 10.758V20.5528H10.3958V14.0424C10.3958 13.8352 10.4781 13.6365 10.6247 13.49C10.7712 13.3434 10.9699 13.2611 11.1771 13.2611H14.8229C15.0301 13.2611 15.2288 13.3434 15.3753 13.49C15.5219 13.6365 15.6042 13.8352 15.6042 14.0424V20.5528H20.8125V10.758L13 4.12988Z" fill="white"/>
</svg>
