<svg width="23" height="24" viewBox="0 0 23 24" fill="none" xmlns="http://www.w3.org/2000/svg">
<path fill-rule="evenodd" clip-rule="evenodd" d="M4.3125 5.05298C3.51859 5.05298 2.875 5.69657 2.875 6.49048V19.428C2.875 20.2219 3.51859 20.8655 4.3125 20.8655H18.6875C19.4814 20.8655 20.125 20.2219 20.125 19.428V6.49048C20.125 5.69657 19.4814 5.05298 18.6875 5.05298H4.3125ZM1.4375 6.49048C1.4375 4.90266 2.72468 3.61548 4.3125 3.61548H18.6875C20.2753 3.61548 21.5625 4.90266 21.5625 6.49048V19.428C21.5625 21.0158 20.2753 22.303 18.6875 22.303H4.3125C2.72468 22.303 1.4375 21.0158 1.4375 19.428V6.49048Z" fill="white"/>
<path fill-rule="evenodd" clip-rule="evenodd" d="M5.75 2.17798C6.14695 2.17798 6.46875 2.49977 6.46875 2.89673V4.33423C6.46875 4.73118 6.14695 5.05298 5.75 5.05298C5.35305 5.05298 5.03125 4.73118 5.03125 4.33423V2.89673C5.03125 2.49977 5.35305 2.17798 5.75 2.17798Z" fill="white"/>
<path fill-rule="evenodd" clip-rule="evenodd" d="M17.25 2.17798C17.647 2.17798 17.9688 2.49977 17.9688 2.89673V4.33423C17.9688 4.73118 17.647 5.05298 17.25 5.05298C16.853 5.05298 16.5312 4.73118 16.5312 4.33423V2.89673C16.5312 2.49977 16.853 2.17798 17.25 2.17798Z" fill="white"/>
<path fill-rule="evenodd" clip-rule="evenodd" d="M5.75 11.5217V14.3967H8.625V11.5217H5.75ZM4.3125 11.387C4.3125 10.6675 4.89575 10.0842 5.61523 10.0842H8.75977C9.47925 10.0842 10.0625 10.6675 10.0625 11.387V14.5315C10.0625 15.251 9.47925 15.8342 8.75977 15.8342H5.61523C4.89575 15.8342 4.3125 15.251 4.3125 14.5315V11.387Z" fill="white"/>
<path fill-rule="evenodd" clip-rule="evenodd" d="M1.4375 7.92798C1.4375 7.53102 1.7593 7.20923 2.15625 7.20923H20.8438C21.2407 7.20923 21.5625 7.53102 21.5625 7.92798C21.5625 8.32493 21.2407 8.64673 20.8438 8.64673H2.15625C1.7593 8.64673 1.4375 8.32493 1.4375 7.92798Z" fill="white"/>
</svg>
