<svg width="23" height="24" viewBox="0 0 23 24" fill="none" xmlns="http://www.w3.org/2000/svg">
<path fill-rule="evenodd" clip-rule="evenodd" d="M4.3125 4.55273C3.51859 4.55273 2.875 5.19633 2.875 5.99023V18.9277C2.875 19.7216 3.51859 20.3652 4.3125 20.3652H18.6875C19.4814 20.3652 20.125 19.7216 20.125 18.9277V5.99023C20.125 5.19633 19.4814 4.55273 18.6875 4.55273H4.3125ZM1.4375 5.99023C1.4375 4.40242 2.72468 3.11523 4.3125 3.11523H18.6875C20.2753 3.11523 21.5625 4.40242 21.5625 5.99023V18.9277C21.5625 20.5156 20.2753 21.8027 18.6875 21.8027H4.3125C2.72468 21.8027 1.4375 20.5156 1.4375 18.9277V5.99023Z" fill="#76C757"/>
<path fill-rule="evenodd" clip-rule="evenodd" d="M5.75 1.67773C6.14695 1.67773 6.46875 1.99953 6.46875 2.39648V3.83398C6.46875 4.23094 6.14695 4.55273 5.75 4.55273C5.35305 4.55273 5.03125 4.23094 5.03125 3.83398V2.39648C5.03125 1.99953 5.35305 1.67773 5.75 1.67773Z" fill="#76C757"/>
<path fill-rule="evenodd" clip-rule="evenodd" d="M17.25 1.67773C17.647 1.67773 17.9688 1.99953 17.9688 2.39648V3.83398C17.9688 4.23094 17.647 4.55273 17.25 4.55273C16.853 4.55273 16.5312 4.23094 16.5312 3.83398V2.39648C16.5312 1.99953 16.853 1.67773 17.25 1.67773Z" fill="#76C757"/>
<path fill-rule="evenodd" clip-rule="evenodd" d="M5.75 11.0215V13.8965H8.625V11.0215H5.75ZM4.3125 10.8867C4.3125 10.1672 4.89575 9.58398 5.61523 9.58398H8.75977C9.47925 9.58398 10.0625 10.1672 10.0625 10.8867V14.0312C10.0625 14.7507 9.47925 15.334 8.75977 15.334H5.61523C4.89575 15.334 4.3125 14.7507 4.3125 14.0312V10.8867Z" fill="#76C757"/>
<path fill-rule="evenodd" clip-rule="evenodd" d="M1.4375 7.42773C1.4375 7.03078 1.7593 6.70898 2.15625 6.70898H20.8438C21.2407 6.70898 21.5625 7.03078 21.5625 7.42773C21.5625 7.82469 21.2407 8.14648 20.8438 8.14648H2.15625C1.7593 8.14648 1.4375 7.82469 1.4375 7.42773Z" fill="#76C757"/>
</svg>
