<svg width="21" height="26" viewBox="0 0 21 26" fill="none" xmlns="http://www.w3.org/2000/svg">
<path fill-rule="evenodd" clip-rule="evenodd" d="M7.34339 1.54779C8.18061 0.710577 9.31612 0.240234 10.5001 0.240234C11.6841 0.240234 12.8196 0.710578 13.6568 1.54779C14.4941 2.38501 14.9644 3.52052 14.9644 4.70452C14.9644 5.88852 14.4941 7.02403 13.6568 7.86125C12.8196 8.69846 11.6841 9.16881 10.5001 9.16881C9.31612 9.16881 8.18061 8.69846 7.34339 7.86125C6.50617 7.02403 6.03583 5.88852 6.03583 4.70452C6.03583 3.52052 6.50617 2.38501 7.34339 1.54779ZM10.5001 2.02595C9.78972 2.02595 9.10841 2.30815 8.60608 2.81048C8.10375 3.31281 7.82155 3.99412 7.82155 4.70452C7.82155 5.41492 8.10375 6.09623 8.60608 6.59856C9.10841 7.10089 9.78972 7.38309 10.5001 7.38309C11.2105 7.38309 11.8918 7.10089 12.3942 6.59856C12.8965 6.09623 13.1787 5.41492 13.1787 4.70452C13.1787 3.99412 12.8965 3.31281 12.3942 2.81048C11.8918 2.30815 11.2105 2.02595 10.5001 2.02595ZM2.24261 11.3248C3.09537 10.5154 4.22622 10.0642 5.4019 10.0642C6.57759 10.0642 7.70844 10.5154 8.56119 11.3248C8.56683 11.3301 8.5724 11.3355 8.57789 11.341L10.5001 13.2633L12.4223 11.341C12.4278 11.3355 12.4334 11.3301 12.439 11.3248C13.2918 10.5154 14.4226 10.0642 15.5983 10.0642C16.774 10.0642 17.9049 10.5154 18.7576 11.3248L18.7578 11.3249C19.1812 11.727 19.5183 12.211 19.7487 12.7475C19.9791 13.284 20.0979 13.8617 20.0979 14.4456C20.0979 15.0295 19.9791 15.6072 19.7487 16.1437C19.519 16.6785 19.1833 17.1611 18.7618 17.5625L11.1224 24.9876C10.7759 25.3244 10.2243 25.3244 9.87781 24.9876L2.23845 17.5625C1.81694 17.1612 1.48119 16.6785 1.25153 16.1437C1.02115 15.6072 0.902344 15.0295 0.902344 14.4456C0.902344 13.8617 1.02115 13.284 1.25153 12.7475C1.48191 12.211 1.81905 11.727 2.24243 11.3249L2.24261 11.3248ZM3.47191 12.62C3.22429 12.8552 3.02711 13.1383 2.89235 13.4521C2.75757 13.766 2.68806 14.104 2.68806 14.4456C2.68806 14.7872 2.75757 15.1252 2.89235 15.4391C3.02714 15.753 3.22439 16.0361 3.47209 16.2714L3.47957 16.2785L10.5001 23.1023L17.5207 16.2785L17.5281 16.2714C17.7758 16.0361 17.9731 15.753 18.1079 15.4391C18.2427 15.1252 18.3122 14.7872 18.3122 14.4456C18.3122 14.104 18.2427 13.766 18.1079 13.4521C17.9731 13.1383 17.7759 12.8552 17.5283 12.62C17.0074 12.1256 16.3166 11.8499 15.5983 11.8499C14.8837 11.8499 14.1963 12.1228 13.6762 12.6125L11.1315 15.1573C10.7828 15.506 10.2175 15.506 9.86877 15.1573L7.32401 12.6125C6.80399 12.1228 6.1165 11.8499 5.4019 11.8499C4.68368 11.8499 3.99285 12.1256 3.47191 12.62Z" fill="#76C757"/>
</svg>
