<svg width="25" height="26" viewBox="0 0 25 26" fill="none" xmlns="http://www.w3.org/2000/svg">
<g clip-path="url(#clip0_182_8690)">
<path fill-rule="evenodd" clip-rule="evenodd" d="M9.34339 1.54779C10.1806 0.710577 11.3161 0.240234 12.5001 0.240234C13.6841 0.240234 14.8196 0.710578 15.6568 1.54779C16.4941 2.38501 16.9644 3.52052 16.9644 4.70452C16.9644 5.88852 16.4941 7.02403 15.6568 7.86125C14.8196 8.69846 13.6841 9.16881 12.5001 9.16881C11.3161 9.16881 10.1806 8.69846 9.34339 7.86125C8.50617 7.02403 8.03583 5.88852 8.03583 4.70452C8.03583 3.52052 8.50617 2.38501 9.34339 1.54779ZM12.5001 2.02595C11.7897 2.02595 11.1084 2.30815 10.6061 2.81048C10.1038 3.31281 9.82155 3.99412 9.82155 4.70452C9.82155 5.41492 10.1038 6.09623 10.6061 6.59856C11.1084 7.10089 11.7897 7.38309 12.5001 7.38309C13.2105 7.38309 13.8918 7.10089 14.3942 6.59856C14.8965 6.09623 15.1787 5.41492 15.1787 4.70452C15.1787 3.99412 14.8965 3.31281 14.3942 2.81048C13.8918 2.30815 13.2105 2.02595 12.5001 2.02595ZM4.24261 11.3248C5.09537 10.5154 6.22622 10.0642 7.4019 10.0642C8.57759 10.0642 9.70844 10.5154 10.5612 11.3248C10.5668 11.3301 10.5724 11.3355 10.5779 11.341L12.5001 13.2633L14.4223 11.341C14.4278 11.3355 14.4334 11.3301 14.439 11.3248C15.2918 10.5154 16.4226 10.0642 17.5983 10.0642C18.774 10.0642 19.9049 10.5154 20.7576 11.3248L20.7578 11.3249C21.1812 11.727 21.5183 12.211 21.7487 12.7475C21.9791 13.284 22.0979 13.8617 22.0979 14.4456C22.0979 15.0295 21.9791 15.6072 21.7487 16.1437C21.519 16.6785 21.1833 17.1611 20.7618 17.5625L13.1224 24.9876C12.7759 25.3244 12.2243 25.3244 11.8778 24.9876L4.23845 17.5625C3.81694 17.1612 3.48119 16.6785 3.25153 16.1437C3.02115 15.6072 2.90234 15.0295 2.90234 14.4456C2.90234 13.8617 3.02115 13.284 3.25153 12.7475C3.48191 12.211 3.81905 11.727 4.24243 11.3249L4.24261 11.3248ZM5.47191 12.62C5.22429 12.8552 5.02711 13.1383 4.89235 13.4521C4.75757 13.766 4.68806 14.104 4.68806 14.4456C4.68806 14.7872 4.75757 15.1252 4.89235 15.4391C5.02714 15.753 5.22439 16.0361 5.47209 16.2714L5.47957 16.2785L12.5001 23.1023L19.5207 16.2785L19.5281 16.2714C19.7758 16.0361 19.9731 15.753 20.1079 15.4391C20.2427 15.1252 20.3122 14.7872 20.3122 14.4456C20.3122 14.104 20.2427 13.766 20.1079 13.4521C19.9731 13.1383 19.7759 12.8552 19.5283 12.62C19.0074 12.1256 18.3166 11.8499 17.5983 11.8499C16.8837 11.8499 16.1963 12.1228 15.6762 12.6125L13.1315 15.1573C12.7828 15.506 12.2175 15.506 11.8688 15.1573L9.32401 12.6125C8.80399 12.1228 8.1165 11.8499 7.4019 11.8499C6.68368 11.8499 5.99285 12.1256 5.47191 12.62Z" fill="white"/>
</g>
<defs>
<clipPath id="clip0_182_8690">
<rect width="25" height="25" fill="white" transform="translate(0 0.240234)"/>
</clipPath>
</defs>
</svg>
