<svg width="406" height="406" viewBox="0 0 406 406" fill="none" xmlns="http://www.w3.org/2000/svg">
<path opacity="0.7" d="M358.823 257.331C358.823 287.732 354.673 310.143 346.708 326.66H56.4746C48.2896 309.9 43.9292 287.083 43.9292 256.007C43.9292 140.143 103.79 32.7805 199.906 32.7805C296.023 32.7805 358.823 141.467 358.823 257.331Z" fill="#76C757"/>
<path opacity="0.7" d="M358.823 257.331C358.823 287.732 354.673 310.143 346.708 326.66H56.4746C48.2896 309.9 43.9292 287.083 43.9292 256.007C43.9292 140.143 103.79 32.7805 199.906 32.7805C296.023 32.7805 358.823 141.467 358.823 257.331Z" fill="white"/>
<path d="M249.839 266.666H152.913C145.675 266.666 139.809 260.798 139.809 253.56V124.429C139.809 117.191 145.676 111.324 152.913 111.324H249.839C257.077 111.324 262.944 117.192 262.944 124.429V253.56C262.944 260.798 257.076 266.666 249.839 266.666Z" fill="#BFBFBF" stroke="#212121" stroke-miterlimit="10"/>
<path d="M241.175 249.034H154.257C149.464 249.034 145.579 245.149 145.579 240.355V126.164C145.579 121.371 149.464 117.485 154.257 117.485H241.175C245.969 117.485 249.854 121.371 249.854 126.164V240.355C249.854 245.149 245.969 249.034 241.175 249.034Z" fill="#212121"/>
<path opacity="0.1" d="M241.175 249.034H154.257C149.464 249.034 145.579 245.149 145.579 240.355V126.164C145.579 121.371 149.464 117.485 154.257 117.485H241.175C245.969 117.485 249.854 121.371 249.854 126.164V240.355C249.854 245.149 245.969 249.034 241.175 249.034Z" fill="white"/>
<path d="M172.208 136.951C171.799 136.851 171.358 137.107 171.222 137.525L170.808 139.525L164.503 138.519C164.109 138.456 163.706 138.711 163.577 139.105L162.745 142.049C162.608 142.466 162.828 142.885 163.236 142.985C163.643 143.085 164.085 142.829 164.222 142.412L164.827 140.164L166.193 140.381L165.086 144.355L165.108 144.349L163.156 151.248C163.037 151.669 163.276 152.076 163.69 152.159C163.843 152.189 163.999 152.171 164.141 152.114C164.381 152.017 164.58 151.811 164.654 151.546L166.342 145.58L166.391 145.41C166.481 145.145 166.721 144.675 167.277 144.781L168.549 145.022L166.472 147.649C166.196 148 166.238 148.484 166.567 148.73C166.896 148.977 167.388 148.893 167.664 148.542L170.521 144.927C170.692 144.711 170.748 144.432 170.67 144.188C170.592 143.943 170.39 143.766 170.135 143.718L168.988 143.5L169.619 140.928L171.133 141.169C171.278 141.192 171.424 141.172 171.556 141.119C171.786 141.026 171.978 140.832 172.06 140.583L172.701 137.886C172.836 137.469 172.615 137.05 172.208 136.951Z" fill="#76C757"/>
<path d="M169.028 138.626C169.833 138.302 170.278 137.409 170.021 136.633C169.764 135.857 168.905 135.49 168.1 135.814C167.295 136.138 166.85 137.03 167.107 137.806C167.363 138.583 168.223 138.95 169.028 138.626Z" fill="#76C757"/>
<path d="M167.262 156.023C174.097 156.023 179.638 150.482 179.638 143.647C179.638 136.812 174.097 131.271 167.262 131.271C160.428 131.271 154.887 136.812 154.887 143.647C154.887 150.482 160.428 156.023 167.262 156.023Z" stroke="#8D8D8D" stroke-width="2" stroke-miterlimit="10"/>
<path d="M167.262 156.023C160.428 156.023 154.887 150.482 154.887 143.647C154.887 136.812 160.428 131.271 167.262 131.271C174.097 131.271 179.638 136.812 179.638 143.647" stroke="#76C757" stroke-width="2" stroke-miterlimit="10" stroke-linecap="round" stroke-linejoin="round"/>
<path d="M220.262 173.531C220.181 173.531 220.1 173.498 220.042 173.433L217.923 171.071C217.813 170.95 217.824 170.762 217.946 170.653C218.068 170.544 218.255 170.554 218.364 170.676L220.482 173.037C220.592 173.159 220.582 173.347 220.46 173.455C220.404 173.506 220.332 173.531 220.262 173.531Z" fill="#76C757"/>
<path d="M218.593 166.405V166.027H217.384V166.431C215.04 166.768 213.198 168.785 213.232 171.22C213.269 173.922 215.448 176.1 218.075 176.063C220.746 176.026 222.919 173.891 222.919 171.22C222.918 168.724 221.021 166.664 218.593 166.405ZM218.075 175.47C215.731 175.47 213.825 173.563 213.825 171.219C213.825 168.875 215.732 166.968 218.075 166.968C220.42 166.968 222.326 168.875 222.326 171.219C222.326 173.563 220.419 175.47 218.075 175.47Z" fill="#76C757"/>
<path d="M218.793 165.05H217.183V165.868H218.793V165.05Z" fill="#76C757"/>
<g opacity="0.6">
<path d="M220.262 173.531C220.181 173.531 220.1 173.498 220.042 173.433L217.923 171.071C217.813 170.95 217.824 170.762 217.946 170.653C218.068 170.544 218.255 170.554 218.364 170.676L220.482 173.037C220.592 173.159 220.582 173.347 220.46 173.455C220.404 173.506 220.332 173.531 220.262 173.531Z" fill="#76C757"/>
<path d="M218.593 166.405V166.027H217.384V166.431C215.04 166.768 213.198 168.785 213.232 171.22C213.269 173.922 215.448 176.1 218.075 176.063C220.746 176.026 222.919 173.891 222.919 171.22C222.918 168.724 221.021 166.664 218.593 166.405ZM218.075 175.47C215.731 175.47 213.825 173.563 213.825 171.219C213.825 168.875 215.732 166.968 218.075 166.968C220.42 166.968 222.326 168.875 222.326 171.219C222.326 173.563 220.419 175.47 218.075 175.47Z" fill="#76C757"/>
<path d="M218.793 165.05H217.183V165.868H218.793V165.05Z" fill="#76C757"/>
</g>
<path d="M157.577 222.833C156.831 222.833 156.363 223.237 156.363 224.304V225.902H154.146V224.453C154.146 222.067 155.339 220.702 157.641 220.702C159.942 220.702 161.136 222.067 161.136 224.453C161.136 229.142 156.468 230.89 156.468 233.34C156.468 233.447 156.468 233.553 156.489 233.659H160.922V235.79H154.145V233.957C154.145 229.567 158.791 228.843 158.791 224.537C158.792 223.195 158.323 222.833 157.577 222.833Z" fill="white"/>
<path d="M162.03 230.952L166.292 220.872H168.849V230.952H169.956V233.084H168.849V235.79H166.547V233.084H162.029V230.952H162.03ZM166.548 230.952V225.348L164.182 230.952H166.548Z" fill="white"/>
<path d="M173.13 230.973V232.359C173.13 233.425 173.6 233.808 174.345 233.808C175.091 233.808 175.56 233.424 175.56 232.359V229.077C175.56 228.011 175.091 227.606 174.345 227.606C173.6 227.606 173.13 228.011 173.13 229.077V229.525H170.914L171.34 220.872H177.52V223.004H173.449L173.258 226.563C173.684 225.859 174.366 225.475 175.304 225.475C177.03 225.475 177.904 226.69 177.904 228.885V232.21C177.904 234.596 176.71 235.961 174.409 235.961C172.108 235.961 170.914 234.596 170.914 232.21V230.974L173.13 230.973Z" fill="white"/>
<path d="M183.152 227.387H182.121L181.944 226.207H180.689L180.513 227.387H179.574L180.615 220.882H182.111L183.152 227.387ZM180.819 225.323H181.804L181.312 222.034L180.819 225.323Z" fill="#76C757"/>
<path d="M186.588 224.961V225.826C186.588 226.867 186.068 227.462 185.064 227.462C184.061 227.462 183.541 226.868 183.541 225.826V222.443C183.541 221.403 184.062 220.808 185.064 220.808C186.068 220.808 186.588 221.402 186.588 222.443V223.075H185.622V222.378C185.622 221.914 185.418 221.738 185.093 221.738C184.767 221.738 184.563 221.914 184.563 222.378V225.891C184.563 226.355 184.767 226.523 185.093 226.523C185.418 226.523 185.622 226.355 185.622 225.891V224.961H186.588Z" fill="#76C757"/>
<path d="M186.911 220.882H190.07V221.812H189.002V227.387H187.979V221.812H186.911V220.882Z" fill="#76C757"/>
<path d="M190.514 220.882H191.536V227.387H190.514V220.882Z" fill="#76C757"/>
<path d="M193.822 226.188L194.602 220.883H195.541L194.537 227.387H193.013L192.009 220.883H193.041L193.822 226.188Z" fill="#76C757"/>
<path d="M197.035 223.623H198.438V224.553H197.035V226.458H198.8V227.387H196.012V220.883H198.8V221.812H197.035V223.623Z" fill="#76C757"/>
<path d="M182.808 233.474V234.338C182.808 235.379 182.287 235.974 181.284 235.974C180.28 235.974 179.76 235.38 179.76 234.338V230.956C179.76 229.915 180.281 229.32 181.284 229.32C182.287 229.32 182.808 229.914 182.808 230.956V231.588H181.841V230.891C181.841 230.427 181.637 230.25 181.312 230.25C180.986 230.25 180.783 230.427 180.783 230.891V234.403C180.783 234.868 180.986 235.035 181.312 235.035C181.637 235.035 181.841 234.868 181.841 234.403V233.473H182.808V233.474Z" fill="#76C757"/>
<path d="M186.736 235.9H185.705L185.528 234.721H184.273L184.097 235.9H183.158L184.199 229.396H185.695L186.736 235.9ZM184.404 233.837H185.389L184.897 230.548L184.404 233.837Z" fill="#76C757"/>
<path d="M187.208 229.396H188.23V234.971H189.912V235.9H187.207V229.396H187.208Z" fill="#76C757"/>
<path d="M210.044 190.221L211.019 190.164C210.045 191.055 208.884 192.148 207.551 193.038L206.645 193.621C206.64 193.625 206.631 193.629 206.625 193.634L205.744 192.986C204.619 192.131 203.865 191.167 203.027 190.279L204.291 190.35L205.034 188.509L206.143 192.405L207.175 190.204L207.819 191.431L208.578 189.283L209.228 191.38L210.044 190.221Z" fill="#76C757"/>
<path d="M211.502 189.252H209.968L209.486 189.949L208.562 187.655L207.771 189.895L207.162 188.731L206.34 190.312L205.063 186.293L204.095 189.224H202.382C201.331 188.031 200.979 186.857 202.337 185.815C204.035 184.508 206.003 185.725 206.999 186.515C208.05 185.783 210.355 184.283 212.125 186.234C213.015 187.214 212.48 188.279 211.502 189.252Z" fill="#76C757"/>
<path d="M153.9 182.181C155.711 182.181 156.116 181.414 156.479 180.533H158.056V193.646H155.711V183.643H153.9V182.181Z" fill="white"/>
<path d="M164.32 182.257C163.574 182.257 163.105 182.613 163.105 183.549V184.955H160.889V183.681C160.889 181.583 162.083 180.383 164.384 180.383C166.685 180.383 167.879 181.583 167.879 183.681C167.879 187.803 163.211 189.339 163.211 191.493C163.211 191.587 163.211 191.681 163.232 191.774H167.665V193.648H160.888V192.037C160.888 188.178 165.534 187.541 165.534 183.756C165.534 182.575 165.066 182.257 164.32 182.257Z" fill="white"/>
<path d="M172.757 182.257C172.011 182.257 171.542 182.613 171.542 183.549V184.955H169.326V183.681C169.326 181.583 170.52 180.383 172.821 180.383C175.123 180.383 176.316 181.583 176.316 183.681C176.316 187.803 171.649 189.339 171.649 191.493C171.649 191.587 171.649 191.681 171.67 191.774H176.103V193.648H169.326V192.037C169.326 188.178 173.971 187.541 173.971 183.756C173.971 182.575 173.503 182.257 172.757 182.257Z" fill="white"/>
<path d="M184.24 185.554V185.93C184.24 187.011 183.864 187.702 183.027 188.047C184.035 188.393 184.429 189.189 184.429 190.301V191.157C184.429 192.779 183.454 193.65 181.575 193.65H178.62V183.136H181.456C183.403 183.136 184.24 183.931 184.24 185.554ZM180.499 184.638V187.417H181.233C181.934 187.417 182.361 187.146 182.361 186.306V185.719C182.361 184.968 182.071 184.639 181.405 184.639H180.499V184.638ZM180.499 188.919V192.147H181.575C182.207 192.147 182.549 191.892 182.549 191.111V190.194C182.549 189.218 182.19 188.918 181.336 188.918L180.499 188.919Z" fill="#76C757"/>
<path d="M191.124 185.734V187.101C191.124 188.784 190.202 189.699 188.322 189.699H187.434V193.649H185.555V183.135H188.323C190.202 183.136 191.124 184.053 191.124 185.734ZM187.434 184.638V188.197H188.322C188.92 188.197 189.244 187.958 189.244 187.206V185.629C189.244 184.878 188.92 184.637 188.322 184.637L187.434 184.638Z" fill="#76C757"/>
<path d="M196.061 190.601L197.343 183.136H199.957V193.65H198.18V186.11L196.882 193.65H195.105L193.704 186.215V193.65H192.064V183.136H194.678L196.061 190.601Z" fill="#76C757"/>
<path d="M158.368 204.379C158.368 203.037 157.898 202.674 157.153 202.674C156.407 202.674 155.938 203.079 155.938 204.144V205.104H153.722V204.294C153.722 201.908 154.916 200.544 157.217 200.544C159.519 200.544 160.713 201.908 160.713 204.294V204.678C160.713 206.276 160.201 207.278 159.072 207.746C160.243 208.258 160.713 209.366 160.713 210.879V212.051C160.713 214.437 159.519 215.801 157.217 215.801C154.916 215.801 153.722 214.437 153.722 212.051V210.814H155.938V212.199C155.938 213.265 156.407 213.669 157.153 213.669C157.898 213.669 158.368 213.308 158.368 211.986V210.814C158.368 209.429 157.898 208.917 156.833 208.917H156.044V206.786H156.961C157.835 206.786 158.368 206.402 158.368 205.209V204.379Z" fill="white"/>
<path d="M163.736 202.589C165.548 202.589 165.952 201.715 166.315 200.713H167.892V215.631H165.548V204.251H163.736V202.589Z" fill="white"/>
<path d="M172.174 202.589C173.985 202.589 174.391 201.715 174.753 200.713H176.33V215.631H173.985V204.251H172.174V202.589Z" fill="white"/>
<path d="M179.354 200.596H182.514V201.526H181.445V207.101H180.423V201.526H179.354V200.596Z" fill="#76C757"/>
<path d="M182.875 202.158C182.875 201.117 183.423 200.522 184.426 200.522C185.43 200.522 185.978 201.116 185.978 202.158V205.54C185.978 206.581 185.43 207.176 184.426 207.176C183.423 207.176 182.875 206.582 182.875 205.54V202.158ZM183.897 205.605C183.897 206.069 184.101 206.246 184.426 206.246C184.751 206.246 184.956 206.069 184.956 205.605V202.093C184.956 201.628 184.751 201.451 184.426 201.451C184.101 201.451 183.897 201.628 183.897 202.093V205.605Z" fill="#76C757"/>
<path d="M186.338 200.596H189.498V201.526H188.429V207.101H187.407V201.526H186.338V200.596Z" fill="#76C757"/>
<path d="M192.897 207.101H191.866L191.689 205.922H190.434L190.258 207.101H189.319L190.36 200.596H191.856L192.897 207.101ZM190.565 205.038H191.55L191.058 201.749L190.565 205.038Z" fill="#76C757"/>
<path d="M193.369 200.596H194.391V206.172H196.073V207.101H193.368V200.596H193.369Z" fill="#76C757"/>
<path d="M182.616 213.189V214.053C182.616 215.094 182.096 215.689 181.092 215.689C180.089 215.689 179.569 215.094 179.569 214.053V210.671C179.569 209.63 180.089 209.035 181.092 209.035C182.096 209.035 182.616 209.629 182.616 210.671V211.302H181.65V210.606C181.65 210.141 181.445 209.964 181.121 209.964C180.795 209.964 180.591 210.141 180.591 210.606V214.118C180.591 214.582 180.795 214.75 181.121 214.75C181.445 214.75 181.65 214.582 181.65 214.118V213.188H182.616V213.189Z" fill="#76C757"/>
<path d="M186.545 215.614H185.514L185.337 214.434H184.082L183.906 215.614H182.967L184.008 209.109H185.504L186.545 215.614ZM184.212 213.551H185.197L184.704 210.262L184.212 213.551Z" fill="#76C757"/>
<path d="M187.016 209.109H188.039V214.685H189.72V215.614H187.016L187.016 209.109Z" fill="#76C757"/>
<path d="M153.581 164.633C153.581 162.246 154.839 160.882 157.14 160.882C159.442 160.882 160.699 162.246 160.699 164.633V172.39C160.699 174.776 159.442 176.141 157.14 176.141C154.839 176.141 153.581 174.776 153.581 172.39V164.633ZM155.925 172.539C155.925 173.606 156.394 174.01 157.14 174.01C157.886 174.01 158.355 173.605 158.355 172.539V164.484C158.355 163.418 157.886 163.014 157.14 163.014C156.394 163.014 155.925 163.419 155.925 164.484V172.539Z" fill="white"/>
<path d="M162.061 164.76C162.061 162.246 163.212 160.882 165.641 160.882C167.943 160.882 169.136 162.246 169.136 164.633V165.017H166.92V164.484C166.92 163.418 166.45 163.014 165.705 163.014C164.874 163.014 164.405 163.419 164.405 164.847V167.574C164.81 166.721 165.534 166.252 166.579 166.252C168.305 166.252 169.179 167.467 169.179 169.662V172.389C169.179 174.776 167.922 176.14 165.62 176.14C163.318 176.14 162.061 174.776 162.061 172.389L162.061 164.76ZM164.406 169.854V172.539C164.406 173.606 164.875 173.989 165.62 173.989C166.367 173.989 166.835 173.606 166.835 172.539V169.854C166.835 168.788 166.366 168.384 165.62 168.384C164.874 168.384 164.406 168.789 164.406 169.854Z" fill="white"/>
<path d="M172.906 173.712V175.971H170.647V173.712H172.906Z" fill="white"/>
<path d="M174.418 164.633C174.418 162.246 175.676 160.882 177.977 160.882C180.279 160.882 181.536 162.246 181.536 164.633V172.39C181.536 174.776 180.279 176.141 177.977 176.141C175.676 176.141 174.418 174.776 174.418 172.39V164.633ZM176.763 172.539C176.763 173.606 177.231 174.01 177.977 174.01C178.724 174.01 179.192 173.605 179.192 172.539V164.484C179.192 163.418 178.724 163.014 177.977 163.014C177.231 163.014 176.763 163.419 176.763 164.484V172.539Z" fill="white"/>
<path d="M189.932 161.053V163.099L186.48 175.971H184.136L187.567 163.184H182.9V161.054L189.932 161.053Z" fill="white"/>
<path d="M193.744 173.712V175.971H191.485V173.712H193.744Z" fill="white"/>
<path d="M196.897 162.928C198.709 162.928 199.114 162.054 199.476 161.052H201.053V175.97H198.709V164.59H196.897V162.928Z" fill="white"/>
<path d="M207.254 176.141C204.887 176.141 203.587 174.776 203.587 172.39V171.218C203.587 169.791 204.014 168.682 205.037 168.107C204.056 167.574 203.587 166.572 203.587 165.101V164.633C203.587 162.246 204.887 160.882 207.254 160.882C209.619 160.882 210.919 162.246 210.919 164.633V165.101C210.919 166.572 210.428 167.574 209.47 168.107C210.493 168.682 210.919 169.791 210.919 171.218V172.39C210.919 174.777 209.619 176.141 207.254 176.141ZM205.932 165.549C205.932 166.743 206.486 167.126 207.254 167.126C207.999 167.126 208.575 166.742 208.575 165.549V164.718C208.575 163.376 207.999 163.013 207.254 163.013C206.507 163.013 205.932 163.375 205.932 164.718V165.549ZM207.254 174.01C207.999 174.01 208.554 173.648 208.575 172.327V170.941C208.575 169.77 208.084 169.258 207.254 169.258C206.422 169.258 205.932 169.77 205.932 170.941V172.327C205.932 173.648 206.507 174.01 207.254 174.01Z" fill="white"/>
<path d="M228.888 139.291C227.514 139.291 226.759 138.498 226.759 137.112V136.432C226.759 135.603 227.007 134.959 227.6 134.625C227.031 134.316 226.759 133.734 226.759 132.879V132.607C226.759 131.22 227.514 130.428 228.888 130.428C230.261 130.428 231.017 131.221 231.017 132.607V132.879C231.017 133.733 230.732 134.316 230.175 134.625C230.769 134.959 231.017 135.603 231.017 136.432V137.112C231.017 138.499 230.261 139.291 228.888 139.291ZM228.12 133.139C228.12 133.832 228.443 134.055 228.888 134.055C229.32 134.055 229.654 133.832 229.654 133.139V132.657C229.654 131.877 229.32 131.666 228.888 131.666C228.454 131.666 228.12 131.876 228.12 132.657V133.139ZM228.888 138.053C229.321 138.053 229.643 137.843 229.655 137.075V136.271C229.655 135.59 229.37 135.293 228.888 135.293C228.405 135.293 228.121 135.59 228.121 136.271V137.075C228.12 137.843 228.455 138.053 228.888 138.053Z" fill="white"/>
<path d="M233.148 133.164V134.476H231.836V133.164H233.148ZM233.148 137.88V139.192H231.836V137.88H233.148Z" fill="white"/>
<path d="M236.131 131.666C235.699 131.666 235.427 131.901 235.427 132.52V133.449H234.139V132.607C234.139 131.22 234.832 130.428 236.169 130.428C237.505 130.428 238.199 131.221 238.199 132.607C238.199 135.331 235.488 136.345 235.488 137.768C235.488 137.83 235.488 137.892 235.5 137.954H238.075V139.192H234.139V138.128C234.139 135.578 236.837 135.158 236.837 132.657C236.837 131.877 236.565 131.666 236.131 131.666Z" fill="white"/>
<path d="M241.667 132.657C241.667 131.877 241.394 131.666 240.961 131.666C240.527 131.666 240.255 131.901 240.255 132.52V133.077H238.968V132.607C238.968 131.22 239.661 130.428 240.998 130.428C242.335 130.428 243.028 131.221 243.028 132.607V132.83C243.028 133.758 242.731 134.339 242.075 134.612C242.755 134.909 243.028 135.553 243.028 136.432V137.112C243.028 138.498 242.335 139.291 240.998 139.291C239.661 139.291 238.968 138.498 238.968 137.112V136.394H240.255V137.199C240.255 137.818 240.527 138.053 240.961 138.053C241.394 138.053 241.667 137.843 241.667 137.075V136.395C241.667 135.59 241.394 135.293 240.775 135.293H240.317V134.056H240.849C241.356 134.056 241.667 133.833 241.667 133.14V132.657Z" fill="white"/>
<path d="M228.764 141.521C230.089 141.521 230.769 142.095 230.769 143.1V143.297H229.482V143.037C229.482 142.589 229.234 142.418 228.801 142.418C228.368 142.418 228.12 142.589 228.12 143.037C228.12 144.329 230.781 144.571 230.781 146.366C230.781 147.37 230.088 147.944 228.751 147.944C227.414 147.944 226.721 147.37 226.721 146.366V145.98H228.008V146.428C228.008 146.877 228.281 147.038 228.714 147.038C229.147 147.038 229.419 146.876 229.419 146.428C229.419 145.136 226.759 144.894 226.759 143.1C226.759 142.095 227.44 141.521 228.764 141.521Z" fill="#76C757"/>
<path d="M232.862 141.594V146.437C232.862 146.885 233.135 147.048 233.568 147.048C234.001 147.048 234.273 146.886 234.273 146.437V141.594H235.56V146.375C235.56 147.379 234.868 147.953 233.53 147.953C232.194 147.953 231.5 147.379 231.5 146.375V141.594H232.862Z" fill="#76C757"/>
<path d="M237.704 143.325V147.873H236.479V141.594H238.187L239.587 145.351V141.594H240.799V147.873H239.401L237.704 143.325Z" fill="#76C757"/>
<path d="M194.96 243.367C194.96 244.087 194.377 244.67 193.658 244.67C192.938 244.67 192.355 244.087 192.355 243.367C192.355 242.648 192.938 242.065 193.658 242.065C194.377 242.065 194.96 242.648 194.96 243.367Z" fill="white"/>
<path d="M202.679 243.367C202.679 244.087 202.096 244.67 201.376 244.67C200.657 244.67 200.074 244.087 200.074 243.367C200.074 242.648 200.657 242.065 201.376 242.065C202.096 242.065 202.679 242.648 202.679 243.367Z" fill="white"/>
<path d="M210.396 243.367C210.396 244.087 209.813 244.67 209.094 244.67C208.375 244.67 207.792 244.087 207.792 243.367C207.792 242.648 208.375 242.065 209.094 242.065C209.813 242.065 210.396 242.648 210.396 243.367Z" fill="white"/>
<path d="M275.897 109.081H323.375C325.089 109.081 326.014 106.954 324.752 105.793C324.15 105.239 323.244 104.75 321.888 104.461C321.131 104.3 320.558 103.675 320.43 102.912C319.881 99.621 317.695 91.4523 309.507 91.285C302.18 91.1356 298.698 95.7389 297.306 98.3819C296.852 99.2443 295.85 99.6511 294.933 99.3214C293.4 98.7692 291.037 98.6531 289.111 101.777C288.648 102.53 287.753 102.889 286.904 102.641C285.188 102.139 282.304 101.865 280.185 104.598C279.778 105.123 279.147 105.426 278.488 105.342C277.788 105.251 276.813 105.171 275.763 105.22C273.277 105.337 273.407 109.081 275.897 109.081Z" stroke="#212121" stroke-miterlimit="10" stroke-linecap="round" stroke-linejoin="round"/>
<path d="M68.8407 104.655H142.077C144.721 104.655 146.147 101.374 144.202 99.5837C143.273 98.7286 141.874 97.9751 139.784 97.5293C138.616 97.2808 137.732 96.317 137.536 95.1396C136.689 90.0622 133.317 77.4623 120.687 77.2049C109.384 76.9743 104.013 84.0753 101.866 88.1523C101.166 89.4816 99.6204 90.1109 98.2067 89.6017C95.8414 88.75 92.1955 88.5705 89.2268 93.3889C88.5114 94.5501 87.1318 95.1047 85.8229 94.7222C83.1758 93.9484 78.726 93.5253 75.4585 97.7412C74.8309 98.5516 73.8573 99.0193 72.8406 98.8886C71.7607 98.7497 70.2569 98.6255 68.6369 98.701C64.801 98.8797 65.0008 104.655 68.8407 104.655Z" stroke="#212121" stroke-miterlimit="10" stroke-linecap="round" stroke-linejoin="round"/>
<path d="M326.976 351.141C308.568 368.157 212.093 372.984 199.906 372.984C187.009 372.984 100.567 370.087 75.5728 351.101C75.5314 351.069 75.4835 351.028 75.4429 350.987L161.531 326.659H240.181L326.976 351.141Z" fill="#BFBFBF"/>
<path d="M284.678 354.827L224.292 326.655" stroke="#212121" stroke-miterlimit="10" stroke-linecap="round" stroke-linejoin="round"/>
<path d="M302.119 362.964L287.533 356.159" stroke="#212121" stroke-miterlimit="10" stroke-linecap="round" stroke-linejoin="round"/>
<path d="M216.586 337.251L209.017 326.659" stroke="#212121" stroke-miterlimit="10" stroke-linecap="round" stroke-linejoin="round"/>
<path d="M234.957 362.964L218.343 339.711" stroke="#212121" stroke-miterlimit="10" stroke-linecap="round" stroke-linejoin="round"/>
<path d="M174.629 353.399L193.736 326.656" stroke="#212121" stroke-miterlimit="10" stroke-linecap="round" stroke-linejoin="round"/>
<path d="M167.795 362.964L172.173 356.837" stroke="#212121" stroke-miterlimit="10" stroke-linecap="round" stroke-linejoin="round"/>
<path d="M154.257 337.946L178.457 326.656" stroke="#212121" stroke-miterlimit="10" stroke-linecap="round" stroke-linejoin="round"/>
<path d="M100.633 362.964L149.734 340.057" stroke="#212121" stroke-miterlimit="10" stroke-linecap="round" stroke-linejoin="round"/>
<path d="M34.5103 362.558L75.4432 350.987L161.531 326.659" stroke="#212121" stroke-miterlimit="10" stroke-linecap="round" stroke-linejoin="round"/>
<path d="M369.281 326.659H346.708H346.383H312.579H308.544H240.182H240.06H239.581H224.307H209.017H193.735H178.453H163.18H161.531H56.4747H56.3935H33.4707" stroke="#212121" stroke-miterlimit="10" stroke-linecap="round" stroke-linejoin="round"/>
<path d="M240.182 326.659L326.976 351.141L372.627 364.011" stroke="#212121" stroke-miterlimit="10" stroke-linecap="round" stroke-linejoin="round"/>
<path d="M340.719 311.277C340.719 311.277 355.037 310.245 362.184 296.643C369.901 281.954 351.085 247.128 341.474 244.528C330.947 241.681 314.251 269.521 317.666 291.157C319.998 305.932 334.099 310.901 340.719 311.277Z" fill="#76C757"/>
<path opacity="0.3" d="M340.719 311.277C340.719 311.277 355.037 310.245 362.184 296.643C369.901 281.954 351.085 247.128 341.474 244.528C330.947 241.681 314.251 269.521 317.666 291.157C319.998 305.932 334.099 310.901 340.719 311.277Z" fill="white"/>
<path d="M350.717 286.295L341.549 296.331C341.549 296.68 341.557 297.021 341.565 297.371C341.63 301.853 341.72 306.489 341.793 311.142C341.801 311.443 341.801 311.751 341.809 312.052C341.863 315.697 342.032 323.476 342.088 327.19C342.105 328.324 341.195 329.251 340.061 329.262C338.904 329.273 337.967 328.324 337.994 327.167L338.351 312.028L338.375 310.997L338.424 309.308L338.481 306.783L326.731 294.002C327.673 293.994 325.984 292.232 325.813 292.061L338.594 302.114L339.106 280.238L331.4 271.85C332.066 271.842 330.864 270.6 330.742 270.47L339.179 277.112L339.187 276.698L339.65 257.681L340.917 259.069C340.917 259.069 341.168 273.945 341.485 292.581L351.456 284.647C351.318 284.801 349.937 286.303 350.717 286.295Z" fill="white" stroke="#212121" stroke-miterlimit="10" stroke-linecap="round" stroke-linejoin="round"/>
<path d="M71.1693 311.194C71.9813 311.259 72.7933 311.219 73.5964 311.084C77.7547 310.382 89.7406 306.814 102.756 288.672C116.87 269.001 90.0873 208.091 75.0702 194.082C60.0539 180.072 30.8259 256.587 34.2201 275.975C38.9411 302.936 58.8927 310.208 71.1693 311.194Z" fill="#76C757"/>
<path opacity="0.3" d="M71.1693 311.194C71.9813 311.259 72.7933 311.219 73.5964 311.084C77.7547 310.382 89.7406 306.814 102.756 288.672C116.87 269.001 90.0873 208.091 75.0702 194.082C60.0539 180.072 30.8259 256.587 34.2201 275.975C38.9411 302.936 58.8927 310.208 71.1693 311.194Z" fill="white"/>
<path d="M98.9245 271.095L76.5084 293.38L78.618 346.395C78.7 348.452 77.0549 350.164 74.9956 350.164C72.9908 350.164 71.3668 348.541 71.3709 346.536C71.3936 335.804 71.6193 302.626 71.8183 265.029L54.6347 248.549C55.9404 248.549 53.6002 246.319 53.3696 246.098L71.8589 258.964C72.0099 230.452 72.1504 207.494 72.1504 207.494L73.8272 205.395L74.761 235.885L90.6088 224.477C90.3782 224.697 88.038 226.927 89.3437 226.927L74.9217 241.269L76.2672 285.197L100.732 267.591C100.401 267.901 97.0463 271.095 98.9245 271.095Z" fill="white" stroke="#212121" stroke-miterlimit="10" stroke-linecap="round" stroke-linejoin="round"/>
<path d="M201.376 315.582C136.78 315.582 84.2271 263.03 84.2271 198.433C84.2271 133.837 136.78 81.2844 201.376 81.2844C265.972 81.2844 318.525 133.837 318.525 198.433C318.525 263.03 265.972 315.582 201.376 315.582ZM201.376 88.5924C140.81 88.5924 91.5351 137.867 91.5351 198.433C91.5351 259 140.81 308.274 201.376 308.274C261.943 308.274 311.217 259 311.217 198.433C311.217 137.867 261.943 88.5924 201.376 88.5924Z" fill="white"/>
<path d="M201.376 315.582C136.78 315.582 84.2271 263.03 84.2271 198.433C84.2271 133.837 136.78 81.2844 201.376 81.2844C265.972 81.2844 318.525 133.837 318.525 198.433C318.525 200.451 316.889 202.087 314.871 202.087C312.853 202.087 311.217 200.451 311.217 198.433C311.217 137.867 261.942 88.5924 201.376 88.5924C140.81 88.5924 91.5351 137.867 91.5351 198.433C91.5351 259 140.81 308.274 201.376 308.274C203.394 308.274 205.03 309.91 205.03 311.928C205.03 313.947 203.394 315.582 201.376 315.582Z" fill="#76C757"/>
<path d="M198.102 43.4939C192.938 43.4939 188.753 47.6789 188.753 52.8327C188.753 56.1189 192.539 62.8309 195.296 67.2652C196.864 69.8019 198.102 71.5997 198.102 71.5997C198.102 71.5997 199.34 69.8019 200.899 67.2652C203.655 62.8309 207.441 56.1189 207.441 52.8327C207.44 47.6789 203.256 43.4939 198.102 43.4939ZM198.102 57.4376C195.745 57.4376 193.847 55.5399 193.847 53.1827C193.847 50.8352 195.745 48.9278 198.102 48.9278C200.449 48.9278 202.357 50.8352 202.357 53.1827C202.356 55.5391 200.449 57.4376 198.102 57.4376Z" fill="#76C757"/>
<path d="M181.029 49.5564C176.973 49.5564 173.687 52.8434 173.687 56.8912C173.687 59.4717 176.659 64.744 178.825 68.2267C180.057 70.2194 181.029 71.6314 181.029 71.6314C181.029 71.6314 182.002 70.2194 183.226 68.2267C185.392 64.744 188.364 59.4717 188.364 56.8912C188.364 52.8434 185.077 49.5564 181.029 49.5564ZM181.029 60.5078C179.178 60.5078 177.687 59.017 177.687 57.1656C177.687 55.3224 179.178 53.8235 181.029 53.8235C182.873 53.8235 184.372 55.3216 184.372 57.1656C184.372 59.017 182.873 60.5078 181.029 60.5078Z" fill="#212121"/>
<path d="M198.06 72.228H198.056L194.258 72.1972C194.001 72.1956 193.794 71.9698 193.796 71.6946C193.797 71.4177 194.048 71.2163 194.263 71.1976L198.064 71.2285C198.321 71.2301 198.527 71.4566 198.526 71.7319C198.522 72.008 198.315 72.228 198.06 72.228ZM191.409 72.181H191.408C190.336 72.1761 189.285 72.1728 188.309 72.1728H187.61C187.353 72.1728 187.146 71.9495 187.146 71.6735C187.146 71.3974 187.353 71.1741 187.61 71.1741H188.309C189.287 71.1741 190.337 71.1773 191.411 71.1822C191.668 71.183 191.875 71.4079 191.874 71.6832C191.873 71.9585 191.665 72.181 191.409 72.181Z" fill="#212121"/>
<path d="M184.839 72.181H184.838C183.766 72.1761 182.715 72.1728 181.739 72.1728H181.04C180.784 72.1728 180.576 71.9495 180.576 71.6735C180.576 71.3974 180.784 71.1741 181.04 71.1741H181.739C182.717 71.1741 183.768 71.1773 184.841 71.1822C185.098 71.183 185.305 71.4079 185.304 71.6832C185.303 71.9585 185.095 72.181 184.839 72.181Z" fill="#212121"/>
<path d="M214.91 46.2181C214.072 46.2181 213.545 46.6736 213.545 47.8705V49.6666H211.054V48.0386C211.054 45.3557 212.396 43.8235 214.982 43.8235C217.569 43.8235 218.91 45.3565 218.91 48.0386C218.91 53.3076 213.665 55.2719 213.665 58.0254C213.665 58.1447 213.665 58.2649 213.688 58.3843H218.671V60.7797H211.054V58.7196C211.054 53.7859 216.275 52.9715 216.275 48.1336C216.275 46.6249 215.748 46.2181 214.91 46.2181Z" fill="#212121"/>
<path d="M225.616 48.1337C225.616 46.625 225.09 46.2182 224.251 46.2182C223.412 46.2182 222.885 46.6737 222.885 47.8706V48.9481H220.395V48.0378C220.395 45.355 221.735 43.8228 224.322 43.8228C226.909 43.8228 228.251 45.3558 228.251 48.0378V48.469C228.251 50.2652 227.676 51.3914 226.407 51.9184C227.724 52.4933 228.251 53.7389 228.251 55.4384V56.7563C228.251 59.4383 226.909 60.9714 224.322 60.9714C221.735 60.9714 220.395 59.4383 220.395 56.7563V55.367H222.885V56.9244C222.885 58.1221 223.411 58.5768 224.251 58.5768C225.089 58.5768 225.616 58.1692 225.616 56.6848V55.367C225.616 53.8103 225.09 53.2355 223.892 53.2355H223.005V50.8401H224.036C225.017 50.8401 225.616 50.4089 225.616 49.0675V48.1337Z" fill="#212121"/>
<path d="M213.207 69.3228L213.932 64.5198H215.41V71.2854H214.405V66.4337L213.671 71.2854H212.667L211.873 66.5011V71.2854H210.945V64.5198H212.424L213.207 69.3228Z" fill="#212121"/>
<path d="M216.186 64.5198H217.249V71.2854H216.186V64.5198Z" fill="#212121"/>
<path d="M218.023 64.5198H219.086V70.3191H220.835V71.2854H218.022V64.5198H218.023Z" fill="#212121"/>
<path d="M222.364 67.3708H223.823V68.3371H222.364V70.3183H224.201V71.2846H221.302V64.519H224.201V65.4853H222.364V67.3708Z" fill="#212121"/>
<path d="M226.289 64.4426C227.323 64.4426 227.855 65.0614 227.855 66.1438V66.3565H226.85V66.0764C226.85 65.5932 226.657 65.4097 226.319 65.4097C225.98 65.4097 225.787 65.5932 225.787 66.0764C225.787 67.4681 227.866 67.7288 227.866 69.6622C227.866 70.7446 227.324 71.3633 226.281 71.3633C225.237 71.3633 224.696 70.7446 224.696 69.6622V69.2464H225.701V69.7296C225.701 70.2127 225.914 70.3865 226.252 70.3865C226.59 70.3865 226.803 70.2127 226.803 69.7296C226.803 68.3378 224.725 68.0763 224.725 66.1446C224.723 65.0614 225.254 64.4426 226.289 64.4426Z" fill="#212121"/>
<path d="M209.876 341.538C209.876 341.538 206.997 342.414 207.202 345.882C207.407 349.351 203.639 358.913 207.437 361.026C211.734 363.415 219.09 363.237 219.663 361.179C220.236 359.122 217.905 355.867 218.12 353.316C218.334 350.764 220.263 342.398 217.171 341.629C214.081 340.861 209.876 341.538 209.876 341.538Z" fill="white" stroke="#212121" stroke-miterlimit="10" stroke-linecap="round" stroke-linejoin="round"/>
<path d="M209.09 343.688C209.449 344.022 209.776 344.521 209.874 345.277C210.123 347.196 210.733 342.672 213.936 343.131C217.14 343.59 216.026 346.107 216.564 346.319C216.857 346.434 216.924 345.473 217.123 344.58C217.188 340.104 217.421 331.624 218.254 327.961C219.413 322.868 220.804 313.764 220.113 310.654C220.113 310.654 225.87 304.307 226.489 282.276L210.074 282.071L209.795 304.323C209.795 304.323 205.163 310.102 206.842 321.616C208.056 329.928 208.781 339.183 209.09 343.688Z" fill="#8D8D8D" stroke="#212121" stroke-miterlimit="10" stroke-linecap="round" stroke-linejoin="round"/>
<path d="M219.539 359.051C219.539 359.051 216.375 356.191 213.396 356.289" stroke="#212121" stroke-miterlimit="10" stroke-linecap="round" stroke-linejoin="round"/>
<path d="M231.813 314.997C231.813 314.997 229.29 319.161 231.041 325.02C232.791 330.879 229.971 337.594 233.771 340.013C237.572 342.432 247.984 341.285 244.993 332.492C242.002 323.698 243.131 318.057 239.618 316.007C236.105 313.957 231.813 314.997 231.813 314.997Z" fill="white" stroke="#212121" stroke-miterlimit="10" stroke-linecap="round" stroke-linejoin="round"/>
<path d="M249.92 261.228L237.139 262.183L229.439 268.086C229.439 268.086 228.908 278.558 232.286 285.492L234.208 292.225C234.208 292.225 232.708 295.49 233.011 300.419C233.314 305.348 234.544 309.194 233.032 313.371C232.322 315.331 232.221 317.092 232.31 318.415C232.482 318.636 232.642 318.941 232.773 319.365C233.431 321.494 234.575 317.193 237.38 317.508C240.184 317.822 238.809 320.001 239.446 320.037C241.092 315.204 248.792 291.779 245.601 285.659C245.601 285.659 250.796 280.021 252.177 273.123C253.557 266.224 249.92 261.228 249.92 261.228Z" fill="#8D8D8D" stroke="#212121" stroke-miterlimit="10" stroke-linecap="round" stroke-linejoin="round"/>
<path d="M245.016 176.207C245.016 176.207 249.795 170.391 245.551 166.799C245.551 166.799 243.095 155.958 235.63 158.518C228.164 161.077 229.034 162.956 229.034 162.956C229.034 162.956 220.652 163.244 221.341 167.774C222.029 172.303 223.606 171.93 223.606 171.93C223.606 171.93 221.332 172.982 222.173 176.432C223.015 179.882 226.752 179.595 226.752 179.595L245.016 176.207Z" fill="#212121"/>
<path d="M257.902 206.601C259.528 207.333 263.872 210.507 263.872 210.507C263.872 210.507 263.565 213.239 268.018 218.084C272.473 222.928 274.547 232.121 274.547 232.121C272.277 236.099 272.741 236.564 272.566 239.572C272.392 242.58 271.52 244.396 272.133 246.456C272.746 248.516 274.767 247.311 274.767 247.311C277.503 247.345 279.127 242.178 279.127 242.178C279.127 242.178 280.538 234.386 278.207 223.822C275.877 213.258 271.867 205.756 271.867 205.756C271.867 205.756 267.077 200.036 265.255 198.349C263.056 196.311 255.724 191.069 255.724 191.069L253.601 205.425C253.601 205.425 256.885 206.144 257.902 206.601Z" fill="#8D8D8D" stroke="#212121" stroke-miterlimit="10" stroke-linecap="round" stroke-linejoin="round"/>
<path d="M256.581 207.021L256.363 208.199C257.536 205.866 258.627 203.488 259.223 200.952C259.875 198.161 259.868 195.145 258.697 192.534C258.192 191.414 256.768 189.733 255.743 191.12C256.617 194.592 257.031 198.156 256.987 201.729C256.964 203.498 256.828 205.264 256.581 207.021Z" fill="white" stroke="#212121" stroke-miterlimit="10" stroke-linecap="round" stroke-linejoin="round"/>
<path d="M256.016 208.888C256.131 208.664 256.247 208.431 256.362 208.207V208.2L256.58 207.022C256.828 205.265 256.962 203.498 256.985 201.73C257.03 198.157 256.616 194.593 255.741 191.121C255.726 191.136 255.718 191.158 255.703 191.173C255.021 192.15 256.248 195.1 256.393 196.125C256.69 198.265 256.7 200.44 256.59 202.597C256.51 204.274 256.78 207.392 256.016 208.888Z" fill="white" stroke="#212121" stroke-miterlimit="10" stroke-linecap="round" stroke-linejoin="round"/>
<path d="M265.788 210.531C265.788 210.531 268.787 211.427 270.202 207.663" stroke="#212121" stroke-miterlimit="10" stroke-linecap="round" stroke-linejoin="round"/>
<path d="M276.21 236.41C276.21 236.41 275.369 238.042 275.071 239.953C274.773 241.865 274.224 243.865 272.452 242.383" stroke="#212121" stroke-miterlimit="10" stroke-linecap="round" stroke-linejoin="round"/>
<path d="M212.572 257.476C212.572 257.476 208.457 265.634 208.408 284.057C208.408 284.057 214.578 286.688 220.446 284.208C226.314 281.727 228.287 284.488 228.287 284.488L229.277 278.298C229.277 278.298 228.719 264.61 240.563 265.67C252.406 266.731 250.812 277.473 250.812 277.473C250.812 277.473 256.474 262.403 252.177 255.965C247.878 249.527 212.572 257.476 212.572 257.476Z" fill="#212121" stroke="#212121" stroke-miterlimit="10" stroke-linecap="round" stroke-linejoin="round"/>
<path d="M228.71 265.74C227.915 267.87 227.358 271.147 227.844 276.092" stroke="#7F7F7F" stroke-linecap="round" stroke-linejoin="round"/>
<path d="M231.236 262.108C231.236 262.108 230.701 262.401 230.044 263.254" stroke="#7F7F7F" stroke-linecap="round" stroke-linejoin="round"/>
<path d="M255.742 191.12C255.734 191.105 255.734 191.083 255.727 191.068C235.473 182.733 218.433 192.857 212.966 196.761C215.21 197.233 217.495 199.196 218.841 202.259C221.665 208.698 219.884 212.746 218.264 217.706C218.832 213.147 217.726 208.393 215.194 204.554C214.322 203.234 213.067 201.917 211.581 201.658L214.118 221.379L210.365 259.093C210.365 259.093 211.927 265.312 230.058 259.34C248.197 253.36 253.769 259.637 253.769 259.637L251.792 242.09C251.379 238.45 251.508 234.774 252.162 231.17L256.362 208.207V208.2L256.58 207.022C256.827 205.265 256.962 203.498 256.985 201.73C257.03 198.156 256.616 194.593 255.742 191.12Z" fill="white"/>
<mask id="mask0_87_3505" style="mask-type:luminance" maskUnits="userSpaceOnUse" x="210" y="187" width="47" height="75">
<path d="M255.742 191.12C255.734 191.105 255.734 191.083 255.727 191.068C235.473 182.733 218.433 192.857 212.966 196.761C215.21 197.233 217.495 199.196 218.841 202.259C221.665 208.698 219.884 212.746 218.264 217.706C218.832 213.147 217.726 208.393 215.194 204.554C214.322 203.234 213.067 201.917 211.581 201.658L214.118 221.379L210.365 259.093C210.365 259.093 211.927 265.312 230.058 259.34C248.197 253.36 253.769 259.637 253.769 259.637L251.792 242.09C251.379 238.45 251.508 234.774 252.162 231.17L256.362 208.207V208.2L256.58 207.022C256.827 205.265 256.962 203.498 256.985 201.73C257.03 198.156 256.616 194.593 255.742 191.12Z" fill="white"/>
</mask>
<g mask="url(#mask0_87_3505)">
<path d="M215.955 206.084C217.052 207.08 218.149 208.077 219.247 209.074C219.449 208.313 219.651 207.552 219.853 206.79C219.94 207.675 220.026 208.558 220.113 209.442C221.199 208.689 222.284 207.935 223.37 207.182C223.332 209.308 222.716 211.42 221.603 213.232C222.551 213.151 223.329 214.102 223.432 215.048C223.535 215.995 223.162 216.92 222.825 217.81C220.899 222.899 219.969 228.363 220.104 233.802C220.119 234.409 220.293 235.186 220.894 235.267C221.273 235.318 221.609 235.041 221.891 234.782C226.058 230.951 230.226 227.12 234.394 223.289C232.856 227.186 231.318 231.084 229.78 234.981C236.93 230.837 243.079 224.976 247.558 218.032C244.227 225.913 238.786 232.891 231.956 238.044C231.046 238.73 230.086 239.413 229.506 240.394C228.926 241.375 228.844 242.757 229.644 243.568C230.437 244.372 231.719 244.331 232.847 244.298C237.379 244.168 241.939 245.099 246.057 246.996C243.039 247.333 239.975 247.681 237.164 248.83C234.353 249.979 231.776 252.055 230.729 254.905C235.435 254.75 240.16 255.216 244.745 256.285C239.543 257.47 234.342 258.654 229.14 259.838C225.209 260.733 221.252 261.632 217.225 261.813C214.89 261.918 212.12 261.528 211.025 259.463C210.421 258.324 210.506 256.957 210.623 255.674C211.383 247.358 212.866 239.108 215.05 231.048C216.158 226.957 217.452 222.893 217.989 218.689C218.525 214.484 218.257 210.057 216.367 206.263C216.642 205.918 215.955 206.084 215.955 206.084Z" fill="#76C757"/>
<g opacity="0.5">
<path d="M215.955 206.084C217.052 207.08 218.149 208.077 219.247 209.074C219.449 208.313 219.651 207.552 219.853 206.79C219.94 207.675 220.026 208.558 220.113 209.442C221.199 208.689 222.284 207.935 223.37 207.182C223.332 209.308 222.716 211.42 221.603 213.232C222.551 213.151 223.329 214.102 223.432 215.048C223.535 215.995 223.162 216.92 222.825 217.81C220.899 222.899 219.969 228.363 220.104 233.802C220.119 234.409 220.293 235.186 220.894 235.267C221.273 235.318 221.609 235.041 221.891 234.782C226.058 230.951 230.226 227.12 234.394 223.289C232.856 227.186 231.318 231.084 229.78 234.981C236.93 230.837 243.079 224.976 247.558 218.032C244.227 225.913 238.786 232.891 231.956 238.044C231.046 238.73 230.086 239.413 229.506 240.394C228.926 241.375 228.844 242.757 229.644 243.568C230.437 244.372 231.719 244.331 232.847 244.298C237.379 244.168 241.939 245.099 246.057 246.996C243.039 247.333 239.975 247.681 237.164 248.83C234.353 249.979 231.776 252.055 230.729 254.905C235.435 254.75 240.16 255.216 244.745 256.285C239.543 257.47 234.342 258.654 229.14 259.838C225.209 260.733 221.252 261.632 217.225 261.813C214.89 261.918 212.12 261.528 211.025 259.463C210.421 258.324 210.506 256.957 210.623 255.674C211.383 247.358 212.866 239.108 215.05 231.048C216.158 226.957 217.452 222.893 217.989 218.689C218.525 214.484 218.257 210.057 216.367 206.263C216.642 205.918 215.955 206.084 215.955 206.084Z" fill="white"/>
</g>
</g>
<path d="M255.742 191.12C255.734 191.105 255.734 191.083 255.727 191.068C235.473 182.733 218.433 192.857 212.966 196.761C215.21 197.233 217.495 199.196 218.841 202.259C221.665 208.698 219.884 212.746 218.264 217.706C218.832 213.147 217.726 208.393 215.194 204.554C214.322 203.234 213.067 201.917 211.581 201.658L214.118 221.379L210.365 259.093C210.365 259.093 211.927 265.312 230.058 259.34C248.197 253.36 253.769 259.637 253.769 259.637L251.792 242.09C251.379 238.45 251.508 234.774 252.162 231.17L256.362 208.207V208.2L256.58 207.022C256.827 205.265 256.962 203.498 256.985 201.73C257.03 198.156 256.616 194.593 255.742 191.12Z" stroke="#212121" stroke-miterlimit="10" stroke-linecap="round" stroke-linejoin="round"/>
<path d="M247.93 217.468C242.01 231.59 229.527 242.799 214.852 247.169" stroke="#212121" stroke-miterlimit="10" stroke-linecap="round" stroke-linejoin="round"/>
<path d="M246.295 246.263C236.165 243.646 225.083 244.916 215.809 249.756" stroke="#212121" stroke-miterlimit="10" stroke-linecap="round" stroke-linejoin="round"/>
<path d="M223.929 202.999C224.482 207.73 222.829 212.673 219.543 216.121" stroke="#212121" stroke-miterlimit="10" stroke-linecap="round" stroke-linejoin="round"/>
<path d="M249.677 197.494C252.278 201.289 253.626 205.928 253.463 210.526" stroke="#212121" stroke-miterlimit="10" stroke-linecap="round" stroke-linejoin="round"/>
<path d="M228.286 186.486C228.286 186.486 227.648 197.048 234.222 197.131C242.61 197.236 242.261 187.655 242.261 187.655L228.286 186.486Z" fill="#8D8D8D" stroke="#212121" stroke-miterlimit="10" stroke-linecap="round" stroke-linejoin="round"/>
<path d="M227.397 175.566C227.397 175.566 226.966 184.901 228.428 187.358C229.891 189.817 234.01 193.402 237.231 193.443C240.453 193.483 244.515 189.074 244.773 187.311C245.031 185.547 244.942 173.85 244.942 173.85C244.942 173.85 244.586 164.674 237.594 164.587C230.6 164.499 227.409 170.012 227.397 175.566Z" fill="#8D8D8D" stroke="#212121" stroke-miterlimit="10" stroke-linecap="round" stroke-linejoin="round"/>
<path d="M244.954 176.485C245.418 176.215 245.915 176.119 246.372 176.276C247.448 176.646 247.884 178.217 247.345 179.785C246.891 181.107 245.889 181.993 244.941 182.021C244.958 180.106 244.958 178.058 244.954 176.485Z" fill="#8D8D8D" stroke="#212121" stroke-miterlimit="10" stroke-linecap="round" stroke-linejoin="round"/>
<path d="M233.971 176.46C233.963 177.026 233.666 177.48 233.307 177.475C232.948 177.47 232.663 177.009 232.669 176.443C232.676 175.879 232.974 175.424 233.332 175.429C233.692 175.434 233.978 175.895 233.971 176.46Z" fill="#212121"/>
<path d="M239.814 185.393C239.865 186.69 239.762 187.771 239.562 188.709C239.562 188.716 239.562 188.716 239.562 188.723C239.554 188.791 239.53 188.858 239.514 188.926C239.42 189.255 239.257 189.577 239.036 189.845C239.028 189.852 239.02 189.859 239.013 189.875C238.555 190.411 237.888 190.756 237.214 190.605C236.598 190.469 236.168 190.005 235.905 189.414C235.897 189.407 235.897 189.399 235.89 189.392L235.883 189.369C235.7 188.975 235.6 188.53 235.56 188.101C235.547 188.002 235.54 187.912 235.534 187.822C235.505 187.122 235.59 186.363 235.861 185.72L239.814 185.393Z" fill="#212121" stroke="#212121" stroke-miterlimit="10" stroke-linecap="round" stroke-linejoin="round"/>
<path d="M235.86 185.72L239.327 185.824C239.327 185.824 239.773 185.68 239.74 185.31C239.733 185.235 239.704 185.152 239.653 185.061C239.645 185.046 239.638 185.031 239.623 185.016C239.408 184.742 239.118 184.528 238.796 184.396C238.376 184.263 237.88 184.272 237.383 184.265C237.262 184.294 237.149 184.338 237.036 184.389C236.475 184.66 236.093 185.144 235.86 185.72Z" fill="white" stroke="#212121" stroke-miterlimit="10" stroke-linecap="round" stroke-linejoin="round"/>
<path d="M235.56 188.013C235.56 188.005 235.568 187.99 235.576 187.983C235.659 187.893 235.581 187.82 235.693 187.867C235.813 187.906 237.08 189.046 237.733 189.099C239.565 189.122 239.356 188.047 239.344 188.067C239.493 188.234 239.565 188.424 239.563 188.619C239.581 189.011 239.349 189.429 239.037 189.756C239.029 189.763 239.021 189.771 239.014 189.786C238.786 190.009 238.52 190.187 238.285 190.259C237.681 190.454 236.99 190.318 236.476 189.943C236.246 189.767 236.045 189.554 235.89 189.304C235.42 188.721 235.534 188.089 235.534 188.089L235.56 188.013Z" fill="white" stroke="#212121" stroke-miterlimit="10" stroke-linecap="round" stroke-linejoin="round"/>
<path d="M241.341 176.394C241.334 176.959 241.037 177.413 240.678 177.408C240.318 177.403 240.033 176.942 240.04 176.378C240.047 175.813 240.344 175.359 240.703 175.364C241.063 175.368 241.348 175.829 241.341 176.394Z" fill="#212121"/>
<path d="M239 174.241C239 174.241 241.162 172.367 242.832 173.277" stroke="#212121" stroke-miterlimit="10" stroke-linecap="round" stroke-linejoin="round"/>
<path d="M235.409 174.196C235.409 174.196 233.293 172.268 231.602 173.137" stroke="#212121" stroke-miterlimit="10" stroke-linecap="round" stroke-linejoin="round"/>
<path d="M219.519 212.551C218.047 218.288 216.329 226.876 216.329 226.876L222.967 221.213C222.967 221.213 225.61 214.151 227.957 212.051C228.862 211.242 229.717 206.659 230.941 207.222C232.166 207.784 231.372 210.63 231.372 210.63C231.372 210.63 233.065 210.98 233.88 211.402C234.695 211.822 236.671 219.47 235.704 220.142C234.738 220.814 233.677 218.201 233.092 221.204C232.508 224.207 227.275 226.878 227.275 226.878C227.275 226.878 218.366 239.08 214.51 241.084C210.654 243.088 206.537 244.13 205.44 233.445C204.343 222.76 206.93 212.805 206.93 212.805C206.93 212.805 204.639 201.1 211.126 198.173C217.612 195.245 221.131 206.268 219.519 212.551Z" fill="#8D8D8D" stroke="#212121" stroke-miterlimit="10" stroke-linecap="round" stroke-linejoin="round"/>
<path d="M212.178 230.655L216.738 226.42" stroke="#212121" stroke-miterlimit="10" stroke-linecap="round" stroke-linejoin="round"/>
<path d="M227.65 212.477L231.565 210.63" stroke="#212121" stroke-miterlimit="10" stroke-linecap="round" stroke-linejoin="round"/>
<path d="M209.283 213.714C209.283 213.714 210.718 216.091 213.072 216.415" stroke="#212121" stroke-miterlimit="10" stroke-linecap="round" stroke-linejoin="round"/>
<path d="M206.771 208.7C206.624 207.186 207.141 206.064 207.573 204.617C208.012 203.162 209.165 201.815 210.665 201.631C210.981 201.589 211.282 201.601 211.582 201.658C213.069 201.917 214.324 203.235 215.195 204.554C217.727 208.392 218.834 213.147 218.265 217.706C219.884 212.746 221.666 208.698 218.842 202.259C217.496 199.196 215.211 197.233 212.968 196.761C210.303 196.194 207.681 197.711 206.726 201.957C206.191 204.328 206.032 206.381 206.771 208.7Z" fill="white"/>
<mask id="mask1_87_3505" style="mask-type:luminance" maskUnits="userSpaceOnUse" x="206" y="196" width="15" height="22">
<path d="M206.771 208.7C206.624 207.186 207.141 206.064 207.573 204.617C208.012 203.162 209.165 201.815 210.665 201.631C210.981 201.589 211.282 201.601 211.582 201.658C213.069 201.917 214.324 203.235 215.195 204.554C217.727 208.392 218.834 213.147 218.265 217.706C219.884 212.746 221.666 208.698 218.842 202.259C217.496 199.196 215.211 197.233 212.968 196.761C210.303 196.194 207.681 197.711 206.726 201.957C206.191 204.328 206.032 206.381 206.771 208.7Z" fill="white"/>
</mask>
<g mask="url(#mask1_87_3505)">
<path d="M215.955 206.084C217.052 207.08 218.149 208.077 219.247 209.074C219.449 208.313 219.651 207.552 219.853 206.79C219.94 207.675 220.026 208.558 220.113 209.442C221.199 208.689 222.284 207.935 223.37 207.182C223.332 209.308 222.716 211.42 221.603 213.232C222.551 213.151 223.329 214.102 223.432 215.048C223.535 215.995 223.162 216.92 222.825 217.81C220.899 222.899 219.969 228.363 220.104 233.802C220.119 234.409 220.293 235.186 220.894 235.267C221.273 235.318 221.609 235.041 221.891 234.782C226.058 230.951 230.226 227.12 234.394 223.289C232.856 227.186 231.318 231.084 229.78 234.981C236.93 230.837 243.079 224.976 247.559 218.032C244.227 225.913 238.786 232.891 231.956 238.044C231.046 238.73 230.086 239.413 229.506 240.394C228.926 241.375 228.844 242.757 229.644 243.568C230.437 244.372 231.719 244.331 232.847 244.298C237.379 244.168 241.939 245.099 246.057 246.996C243.039 247.333 239.975 247.681 237.164 248.83C234.353 249.979 231.776 252.055 230.729 254.905C235.435 254.75 240.16 255.216 244.745 256.285C239.543 257.47 234.342 258.654 229.14 259.838C225.209 260.733 221.252 261.632 217.225 261.813C214.89 261.918 212.12 261.528 211.025 259.463C210.421 258.324 210.506 256.957 210.623 255.674C211.383 247.358 212.866 239.108 215.05 231.048C216.158 226.957 217.452 222.893 217.989 218.689C218.525 214.484 218.257 210.057 216.367 206.263C216.642 205.918 215.955 206.084 215.955 206.084Z" fill="#76C757"/>
<g opacity="0.5">
<path d="M215.955 206.084C217.052 207.08 218.149 208.077 219.247 209.074C219.449 208.313 219.651 207.552 219.853 206.79C219.94 207.675 220.026 208.558 220.113 209.442C221.199 208.689 222.284 207.935 223.37 207.182C223.332 209.308 222.716 211.42 221.603 213.232C222.551 213.151 223.329 214.102 223.432 215.048C223.535 215.995 223.162 216.92 222.825 217.81C220.899 222.899 219.969 228.363 220.104 233.802C220.119 234.409 220.293 235.186 220.894 235.267C221.273 235.318 221.609 235.041 221.891 234.782C226.058 230.951 230.226 227.12 234.394 223.289C232.856 227.186 231.318 231.084 229.78 234.981C236.93 230.837 243.079 224.976 247.559 218.032C244.227 225.913 238.786 232.891 231.956 238.044C231.046 238.73 230.086 239.413 229.506 240.394C228.926 241.375 228.844 242.757 229.644 243.568C230.437 244.372 231.719 244.331 232.847 244.298C237.379 244.168 241.939 245.099 246.057 246.996C243.039 247.333 239.975 247.681 237.164 248.83C234.353 249.979 231.776 252.055 230.729 254.905C235.435 254.75 240.16 255.216 244.745 256.285C239.543 257.47 234.342 258.654 229.14 259.838C225.209 260.733 221.252 261.632 217.225 261.813C214.89 261.918 212.12 261.528 211.025 259.463C210.421 258.324 210.506 256.957 210.623 255.674C211.383 247.358 212.866 239.108 215.05 231.048C216.158 226.957 217.452 222.893 217.989 218.689C218.525 214.484 218.257 210.057 216.367 206.263C216.642 205.918 215.955 206.084 215.955 206.084Z" fill="white"/>
</g>
</g>
<path d="M206.771 208.7C206.624 207.186 207.141 206.064 207.573 204.617C208.012 203.162 209.165 201.815 210.665 201.631C210.981 201.589 211.282 201.601 211.582 201.658C213.069 201.917 214.324 203.235 215.195 204.554C217.727 208.392 218.834 213.147 218.265 217.706C219.884 212.746 221.666 208.698 218.842 202.259C217.496 199.196 215.211 197.233 212.968 196.761C210.303 196.194 207.681 197.711 206.726 201.957C206.191 204.328 206.032 206.381 206.771 208.7Z" stroke="#212121" stroke-miterlimit="10" stroke-linecap="round" stroke-linejoin="round"/>
<path d="M226.869 227.241C227.204 227.456 227.054 227.95 226.822 228.273C226.405 228.855 225.959 229.444 225.478 229.975C224.968 230.539 224.703 230.793 224.229 230.731C223.851 230.681 222.43 229.803 220.454 226.962C219.821 226.051 219.185 223.485 220.108 222.533C220.99 221.623 223.802 219.806 223.082 220.559C221.655 222.05 222.497 224.441 226.869 227.241Z" fill="#212121" stroke="#212121" stroke-miterlimit="10" stroke-linecap="round" stroke-linejoin="round"/>
<path d="M220.759 227.426L220.757 227.425C219.066 225.37 218.776 224.429 218.776 224.429C218.317 223.618 218.825 223.122 219.335 222.592L220.386 221.644C221.166 220.973 221.702 220.946 221.962 221.619L222.158 222.058C222.663 223.128 222.958 223.401 223.739 224.29L224.056 224.636C224.377 225.086 224.36 225.538 223.885 226.001L222.054 227.753C221.651 228.031 221.069 227.884 220.759 227.426Z" fill="white" stroke="#212121" stroke-miterlimit="10" stroke-linecap="round" stroke-linejoin="round"/>
<path d="M219.968 226.51L219.428 226.727L218.726 225.69L219.178 225.249C219.178 225.249 219.573 225.924 219.968 226.51Z" fill="white" stroke="#212121" stroke-miterlimit="10" stroke-linecap="round" stroke-linejoin="round"/>
<path d="M238.745 174.362C238.745 174.362 238.621 178.919 239.663 180.76C240.252 181.802 238.967 182.634 238.372 182.805C237.776 182.977 235.565 182.1 235.78 180.963" stroke="#212121" stroke-width="0.75" stroke-miterlimit="10" stroke-linecap="round" stroke-linejoin="round"/>
<path d="M244.941 173.851L242.052 167.837L238.731 168.385L232.804 167.328L230.247 169.851L228.939 170.465L227.369 176.378L225.769 171.799L226.458 166.757L232.859 162.906L238.291 161.304L243.683 165.302L245.513 169.748L246.308 171.821L244.941 173.851Z" fill="#212121"/>
<path d="M227.766 183.372C228.009 182.008 228.74 180.737 229.797 179.84C229.054 179.049 228.87 177.886 228.877 176.8C228.883 175.714 229.042 174.617 228.839 173.551C228.79 173.291 228.708 173.017 228.504 172.847C228.077 172.493 227.373 172.849 227.181 173.369C226.834 174.314 227.292 176.545 227.275 177.591C227.244 179.528 227.409 181.468 227.766 183.372Z" fill="#212121"/>
<path d="M230.696 181.783C230.802 183.342 231.119 183.652 232.454 184.464C233.789 185.276 235.521 185.393 236.954 184.77C237.368 184.589 237.782 184.345 238.234 184.361C238.759 184.379 239.205 184.743 239.709 184.893C240.737 185.2 241.86 184.542 242.418 183.626C242.976 182.71 243.079 182.276 243.142 181.205C242.571 182.561 240.609 182.384 239.462 181.463C240.003 181.898 237.68 182.544 237.462 182.528C236.659 182.469 236.162 182.077 235.298 182.107C233.295 182.176 232.124 183.6 230.696 181.783Z" fill="#212121"/>
<path d="M225.406 175.692C226.06 175.485 226.785 175.774 227.369 176.378C227.34 177.423 227.31 179.343 227.394 181.33C227.334 181.358 227.278 181.397 227.214 181.417C226.129 181.76 224.844 180.756 224.345 179.175C223.845 177.594 224.32 176.035 225.406 175.692Z" fill="#8D8D8D" stroke="#212121" stroke-miterlimit="10" stroke-linecap="round" stroke-linejoin="round"/>
<path d="M228.428 187.359C229.89 189.818 234.01 193.403 237.231 193.444C238.71 193.462 240.363 192.54 241.746 191.369C241.316 192.864 240.525 194.497 239.073 195.643C238.439 195.903 237.803 196.053 237.198 196.046C234.019 196.006 229.977 192.518 228.465 190.063C228.286 188.769 228.262 187.635 228.27 187.009C228.323 187.126 228.37 187.262 228.428 187.359Z" fill="#212121"/>
<path d="M192.107 340.473C190.659 340.586 189.74 342.271 189.96 343.707C190.18 345.144 191.202 346.32 192.274 347.3C192.962 347.929 193.734 348.536 194.651 348.702C195.57 348.867 196.656 348.44 196.94 347.551C197.843 348.291 199.224 348.38 200.213 347.762C201.204 347.145 201.731 345.866 201.464 344.73C203.302 343.902 203.901 341.161 202.577 339.642C201.252 338.122 198.455 338.343 197.384 340.051C199.087 337.335 191.499 336.646 192.107 340.473Z" stroke="#212121" stroke-miterlimit="10" stroke-linecap="round" stroke-linejoin="round"/>
<path d="M261.231 174.162C260.089 173.042 257.694 173.264 256.347 174.128C255.001 174.991 254.377 176.831 254.918 178.335C254.337 178.223 253.699 178.556 253.459 179.098C253.22 179.64 253.402 180.335 253.877 180.69C252.927 180.944 252.158 181.778 251.98 182.745C251.802 183.712 252.227 184.763 253.025 185.337C252.341 185.58 251.657 185.823 250.974 186.066C251.584 186.697 252.609 186.883 253.403 186.507C253.382 186.991 253.691 187.475 254.141 187.657C254.591 187.84 255.15 187.712 255.473 187.349C255.976 188.017 257.281 187.572 257.272 186.736C258.11 188.014 259.94 188.522 261.315 187.859C262.691 187.197 263.435 185.449 262.959 183.998C264.181 183.419 264.847 182.906 264.752 181.06C264.659 179.238 262.355 178.191 262.389 178.117C262.939 176.899 262.313 175.224 261.231 174.162Z" fill="white" stroke="#212121" stroke-miterlimit="10" stroke-linecap="round" stroke-linejoin="round"/>
<path d="M229.903 213.689C231.302 212.582 233.012 211.98 234.861 213.697" stroke="#212121" stroke-miterlimit="10" stroke-linecap="round" stroke-linejoin="round"/>
<path d="M230.608 216.042C231.858 214.963 233.59 214.392 235.327 216.128" stroke="#212121" stroke-miterlimit="10" stroke-linecap="round" stroke-linejoin="round"/>
<path d="M231.368 218.343C232.518 217.415 234.844 216.9 235.809 218.444" stroke="#212121" stroke-miterlimit="10" stroke-linecap="round" stroke-linejoin="round"/>
<path d="M276.025 239.169C275.671 239.458 275.317 239.747 274.963 240.037" stroke="#212121" stroke-miterlimit="10" stroke-linecap="round" stroke-linejoin="round"/>
<path d="M272.167 245.334C273.712 245.26 275.512 244.703 276.233 243.334C276.954 241.965 276.908 242.273 277.197 241.405" stroke="#212121" stroke-miterlimit="10" stroke-linecap="round" stroke-linejoin="round"/>
<path d="M272.276 246.795C274.799 246.463 276.983 245.333 277.873 242.949" stroke="#212121" stroke-miterlimit="10" stroke-linecap="round" stroke-linejoin="round"/>
<path d="M234.088 280.736C234.996 281.31 235.406 282.422 235.584 283.481C235.763 284.541 235.777 285.642 236.167 286.642C236.557 287.644 237.469 288.554 238.542 288.5" stroke="#212121" stroke-miterlimit="10" stroke-linecap="round" stroke-linejoin="round"/>
<path d="M211.825 304.817C211.087 305.81 210.903 307.189 211.356 308.341C211.808 309.492 212.882 310.376 214.099 310.6" stroke="#212121" stroke-miterlimit="10" stroke-linecap="round" stroke-linejoin="round"/>
<path d="M211.629 311.554C211.345 312.411 211.534 313.408 212.11 314.103" stroke="#212121" stroke-miterlimit="10" stroke-linecap="round" stroke-linejoin="round"/>
<path d="M245.659 284.929C245.659 284.929 244.303 288.378 242.217 288.899" stroke="#212121" stroke-miterlimit="10" stroke-linecap="round" stroke-linejoin="round"/>
<path d="M219.611 307.182C219.611 307.182 218.985 313.377 215.502 314.792" stroke="#212121" stroke-miterlimit="10" stroke-linecap="round" stroke-linejoin="round"/>
</svg>
