<svg width="406" height="406" viewBox="0 0 406 406" fill="none" xmlns="http://www.w3.org/2000/svg">
<path d="M379.661 96.8798C378.375 94.698 377.026 92.5576 375.612 90.4626C356.787 62.5736 324.398 43.4981 292.535 34.8747C278.581 31.0981 264.171 29.1184 249.733 28.6288C155.043 25.419 117.327 100.048 86.0308 119.307C54.7347 138.566 6.58633 171.468 9.79616 240.48C13.006 309.491 62.7589 374.491 159.055 378.503C255.351 382.515 261.77 339.183 315.535 323.133C351.116 312.512 376.396 276.638 388.775 243.486C405.645 198.304 404.85 139.618 379.661 96.8798Z" fill="#76C757"/>
<path opacity="0.7" d="M379.661 96.8798C378.375 94.698 377.026 92.5576 375.612 90.4626C356.787 62.5736 324.398 43.4981 292.535 34.8747C278.581 31.0981 264.171 29.1184 249.733 28.6288C155.043 25.419 117.327 100.048 86.0308 119.307C54.7347 138.566 6.58633 171.468 9.79616 240.48C13.006 309.491 62.7589 374.491 159.055 378.503C255.351 382.515 261.77 339.183 315.535 323.133C351.116 312.512 376.396 276.638 388.775 243.486C405.645 198.304 404.85 139.618 379.661 96.8798Z" fill="white"/>
<path d="M349.371 36.9062C347.304 34.7625 343.717 32.7894 337.499 32.6375C323.519 32.2965 327.269 42.1858 323.519 44.5723C319.768 46.9588 318.745 43.2081 314.994 45.5954C311.243 47.9819 312.948 52.7564 309.879 53.4385C306.811 54.1206 302.718 50.37 298.968 52.7564C295.217 55.1429 295.217 57.1891 293.512 57.1891C291.807 57.1891 288.397 55.825 286.352 57.1891C284.305 58.5533 281.919 60.2577 281.919 60.2577H318.531" stroke="#212121" stroke-miterlimit="10" stroke-linecap="round" stroke-linejoin="round"/>
<path d="M353.222 43.0107C352.888 42.8491 352.535 42.6875 352.162 42.526C352.162 42.526 352.044 40.88 350.906 38.9304" stroke="#212121" stroke-miterlimit="10" stroke-linecap="round" stroke-linejoin="round"/>
<path d="M323.221 60.2577H368.188C368.188 60.2577 369.212 57.1891 365.46 55.1429C361.71 53.0974 360.004 54.8018 358.641 53.0974C357.426 51.579 361.35 47.8974 354.999 43.9795" stroke="#212121" stroke-miterlimit="10" stroke-linecap="round" stroke-linejoin="round"/>
<path d="M101.044 51.1924C100.241 50.3601 98.8488 49.5944 96.4347 49.5351C91.0073 49.4027 92.4632 53.2419 91.0073 54.1683C89.5514 55.0948 89.1543 53.6389 87.6984 54.5654C86.2425 55.4919 86.9043 57.3449 85.7131 57.6104C84.5218 57.8751 82.9336 56.4192 81.4777 57.3457C80.0217 58.2722 80.0217 59.0663 79.36 59.0663C78.6982 59.0663 77.3746 58.5369 76.5805 59.0663C75.7864 59.5958 74.8599 60.2575 74.8599 60.2575H89.0723" stroke="#212121" stroke-miterlimit="10" stroke-linecap="round" stroke-linejoin="round"/>
<path d="M102.538 53.5625C102.409 53.5 102.272 53.4366 102.126 53.3741C102.126 53.3741 102.081 52.7351 101.638 51.9783" stroke="#212121" stroke-miterlimit="10" stroke-linecap="round" stroke-linejoin="round"/>
<path d="M90.8921 60.2575H108.348C108.348 60.2575 108.746 59.0663 107.29 58.2721C105.834 57.478 105.172 58.1398 104.642 57.478C104.171 56.8885 105.694 55.4594 103.229 53.9385" stroke="#212121" stroke-miterlimit="10" stroke-linecap="round" stroke-linejoin="round"/>
<path d="M296.63 28.6489C295.828 27.8166 294.435 27.0509 292.021 26.9916C286.594 26.8593 288.049 30.6984 286.594 31.6249C285.138 32.5514 284.741 31.0955 283.285 32.022C281.829 32.9485 282.491 34.8014 281.299 35.0662C280.108 35.3309 278.52 33.8749 277.063 34.8014C275.607 35.7279 275.607 36.5221 274.945 36.5221C274.284 36.5221 272.96 35.9926 272.166 36.5221C271.372 37.0515 270.445 37.7133 270.445 37.7133H284.658" stroke="#212121" stroke-miterlimit="10" stroke-linecap="round" stroke-linejoin="round"/>
<path d="M298.125 31.0183C297.996 30.9558 297.859 30.8924 297.713 30.8299C297.713 30.8299 297.668 30.1909 297.226 29.4341" stroke="#212121" stroke-miterlimit="10" stroke-linecap="round" stroke-linejoin="round"/>
<path d="M286.478 37.7133H303.934C303.934 37.7133 304.331 36.5221 302.876 35.7279C301.42 34.9338 300.758 35.5956 300.228 34.9338C299.757 34.3443 301.28 32.9152 298.815 31.3943" stroke="#212121" stroke-miterlimit="10" stroke-linecap="round" stroke-linejoin="round"/>
<path d="M214.368 343.476C294.642 343.476 359.716 278.402 359.716 198.128C359.716 117.855 294.642 52.78 214.368 52.78C134.095 52.78 69.02 117.855 69.02 198.128C69.02 278.402 134.095 343.476 214.368 343.476Z" stroke="#212121" stroke-linejoin="round" stroke-dasharray="2 2"/>
<path d="M322.874 372.666H355.134" stroke="#212121" stroke-miterlimit="10"/>
<path d="M61.9248 372.666H317.139" stroke="#212121" stroke-miterlimit="10"/>
<path d="M332.236 285.226C331.943 285.226 331.646 285.155 331.368 285.008C330.471 284.527 330.132 283.41 330.612 282.513L336.632 271.257C337.113 270.359 338.229 270.022 339.128 270.501C340.025 270.982 340.363 272.099 339.884 272.996L333.863 284.252C333.532 284.873 332.895 285.226 332.236 285.226Z" fill="#212121"/>
<path d="M355.537 285.225C354.88 285.225 354.242 284.872 353.91 284.251L347.89 272.995C347.41 272.098 347.749 270.981 348.646 270.5C349.544 270.021 350.66 270.358 351.141 271.256L357.161 282.512C357.641 283.409 357.303 284.526 356.405 285.007C356.128 285.156 355.83 285.225 355.537 285.225Z" fill="#212121"/>
<path d="M343.881 277.623C352.989 277.623 360.372 270.239 360.372 261.132C360.372 252.024 352.989 244.641 343.881 244.641C334.773 244.641 327.39 252.024 327.39 261.132C327.39 270.239 334.773 277.623 343.881 277.623Z" fill="#76C757" stroke="#212121" stroke-miterlimit="10" stroke-linecap="round" stroke-linejoin="round"/>
<path d="M343.881 275.267C351.688 275.267 358.016 268.939 358.016 261.132C358.016 253.325 351.688 246.997 343.881 246.997C336.074 246.997 329.746 253.325 329.746 261.132C329.746 268.939 336.074 275.267 343.881 275.267Z" fill="white" stroke="#212121" stroke-miterlimit="10" stroke-linecap="round" stroke-linejoin="round"/>
<path d="M344.142 250.662C344.142 250.662 343.881 262.179 343.881 261.133L346.76 266.891" stroke="#212121" stroke-miterlimit="10"/>
<path d="M353.2 243.856C352.564 239.417 348.757 236.003 344.142 236.003C339.529 236.003 335.721 239.417 335.084 243.856H353.2Z" fill="white" stroke="#212121" stroke-miterlimit="10" stroke-linecap="round" stroke-linejoin="round"/>
<path d="M343.881 262.179C344.459 262.179 344.928 261.71 344.928 261.132C344.928 260.554 344.459 260.085 343.881 260.085C343.303 260.085 342.834 260.554 342.834 261.132C342.834 261.71 343.303 262.179 343.881 262.179Z" fill="#212121" stroke="#212121" stroke-miterlimit="10"/>
<path d="M372.447 177.976C372.447 188.014 364.308 196.153 354.27 196.153C353.238 196.153 352.224 196.07 351.237 195.895C342.646 194.457 336.102 186.982 336.102 177.975C336.102 168.969 342.646 161.493 351.237 160.055C352.224 159.879 353.237 159.797 354.27 159.797C364.308 159.798 372.447 167.938 372.447 177.976Z" fill="#76C757" stroke="#212121" stroke-miterlimit="10" stroke-linecap="round" stroke-linejoin="round"/>
<path d="M352.496 159.75C360.453 161.685 366.391 169.426 366.391 177.976C366.391 186.982 359.837 194.458 351.236 195.896" stroke="#212121" stroke-miterlimit="10" stroke-linecap="round" stroke-linejoin="round"/>
<path d="M341.365 164.879C344.462 164.895 349.191 165.89 353.238 170.836C359.916 178.997 368.818 179.739 371.786 172.319" stroke="#212121" stroke-miterlimit="10" stroke-linecap="round" stroke-linejoin="round"/>
<path d="M336.174 179.368C336.174 179.368 360.866 190.681 372.447 177.977" stroke="#212121" stroke-miterlimit="10" stroke-linecap="round" stroke-linejoin="round"/>
<path d="M343.12 192.1C345.4 192.382 348.948 192.421 352.497 190.869C358.432 188.272 363.701 186.911 366.223 188.643C367.15 189.279 367.555 190.007 367.648 190.586" stroke="#212121" stroke-miterlimit="10" stroke-linecap="round" stroke-linejoin="round"/>
<path d="M336.993 105.917C336.993 114.01 330.375 122.599 324.033 122.599C322.481 122.599 318.441 122.606 317.001 122.049C309.144 119.015 306.111 111.492 306.111 104.953C306.111 101.554 307.127 97.8517 309.816 95.5878C313.385 92.5843 317.315 94.4738 321.454 94.4738C325.056 94.4738 330.11 92.9992 332.856 95.0251C336.321 97.5821 336.993 101.893 336.993 105.917Z" fill="white" stroke="#212121" stroke-miterlimit="10" stroke-linejoin="round"/>
<path d="M332.744 100.481C332.222 101.385 330.648 101.453 329.227 100.633C327.806 99.8127 327.078 98.4152 327.6 97.5107C328.122 96.6069 329.696 96.5387 331.117 97.3588C332.538 98.1789 333.267 99.5764 332.744 100.481Z" fill="white" stroke="#212121" stroke-miterlimit="10" stroke-linejoin="round"/>
<path d="M320.618 95.7187L320.893 95.0764L324.747 86.0851L322.191 85.6921L319.635 94.7362L320.618 95.7187Z" fill="#212121" stroke="#212121" stroke-miterlimit="10" stroke-linejoin="round"/>
<path d="M321.208 89.6237C321.208 89.6237 319.439 85.6912 316.883 85.1017C314.326 84.5122 307.249 87.8544 307.249 87.8544C307.249 87.8544 310.788 90.4106 313.54 91.1966C316.292 91.9834 321.208 89.6237 321.208 89.6237Z" fill="#76C757" stroke="#212121" stroke-miterlimit="10" stroke-linejoin="round"/>
<path d="M223.796 79.7457C223.224 76.5408 222.423 68.1853 223.109 65.0948C223.796 62.0043 223.567 59.3718 223.567 59.3718V48.1549C223.567 48.1549 224.14 45.9803 223.453 43.5768C222.766 41.1733 217.501 36.022 217.501 36.022V34.1909L217.165 34.1714L215.718 34.1113V34.0764L215.293 34.0943L214.868 34.0764V34.1113L213.42 34.1714L213.085 34.1909V36.022C213.085 36.022 207.82 41.1725 207.133 43.5768C206.446 45.9803 207.019 48.1549 207.019 48.1549V59.3718C207.019 59.3718 206.79 62.0043 207.477 65.0948C208.164 68.1853 207.362 76.5408 206.79 79.7457C206.217 82.9507 206.446 85.3542 208.278 86.2701C209.805 87.0334 213.954 86.5243 215.293 86.3335C216.632 86.5243 220.781 87.0334 222.308 86.2701C224.14 85.355 224.369 82.9507 223.796 79.7457Z" fill="white" stroke="#212121" stroke-miterlimit="10" stroke-linejoin="round"/>
<path d="M221.566 65.7103C222.117 63.0762 221.933 60.8327 221.933 60.8327V55.3906H208.654V60.8327C208.654 60.8327 208.471 63.0762 209.021 65.7103C209.572 68.3445 208.929 75.4657 208.47 78.1973C208.01 80.9288 208.194 82.9775 209.663 83.7578C210.889 84.4083 214.218 83.9747 215.292 83.8123C216.366 83.9747 219.696 84.4083 220.921 83.7578C222.391 82.9775 222.574 80.9288 222.115 78.1973C221.657 75.4657 221.014 68.3437 221.566 65.7103Z" fill="#76C757"/>
<path d="M218.008 31.5583H212.514V34.6488H218.008V31.5583Z" fill="#212121" stroke="#212121" stroke-miterlimit="10" stroke-linejoin="round"/>
<path d="M207.363 47.01H223.387" stroke="#212121" stroke-miterlimit="10" stroke-linejoin="round"/>
<path d="M213.831 58.4565H222.701" stroke="#212121" stroke-miterlimit="10" stroke-linejoin="round"/>
<path d="M207.935 58.4565H210.6" stroke="#212121" stroke-miterlimit="10" stroke-linejoin="round"/>
<path d="M99.3498 102.25H103.345L107.7 94.084L112.115 103.796L112.866 101.792H118.403L124.29 88.4146L128.082 100.876H135.008C138.981 96.248 138.785 89.2737 134.401 84.8898C129.8 80.2882 122.339 80.2898 117.74 84.8938L116.526 86.1094L115.303 84.8865C110.703 80.2865 103.246 80.2865 98.6458 84.8865C94.0458 89.4865 94.0458 96.9439 98.6458 101.544L99.3498 102.25Z" fill="#76C757" stroke="#212121" stroke-miterlimit="10" stroke-linejoin="round"/>
<path d="M126.553 102.937L123.935 94.3333L119.746 103.852H114.293L112.296 109.177L107.552 98.7392L104.581 104.31H101.411L116.524 119.424L133.011 102.937H126.553Z" fill="#76C757" stroke="#212121" stroke-miterlimit="10" stroke-linejoin="round"/>
<path d="M61.3724 172.271C61.3724 172.271 60.6294 169.795 58.4013 169.3C56.1723 168.804 51.4676 169.547 50.7254 166.824C49.9825 164.1 53.4489 164.843 52.7067 162.614C51.9637 160.385 46.516 160.385 45.2785 156.176C44.0402 151.967 45.7739 147.51 48.9926 148.995C52.2114 150.481 53.6974 156.671 54.9357 159.147C56.174 161.623 55.9263 156.671 59.3927 156.176C62.8592 155.681 66.3264 158.404 64.0975 161.871C61.8693 165.338 61.9562 168.033 62.3638 169.795C62.648 171.025 62.7187 170.928 62.7187 170.928L61.3724 172.271Z" fill="#76C757" stroke="#212121" stroke-miterlimit="10" stroke-linejoin="round"/>
<path d="M48.9935 155.398C47.687 153.248 47.5498 152.101 47.5498 152.101" stroke="#212121" stroke-miterlimit="10"/>
<path d="M62.1836 171.691C62.1836 171.691 61.6501 168.795 59.0582 165.898C56.4663 163.002 53.1127 161.02 50.4453 157.513C50.2309 157.231 50.032 156.96 49.8477 156.698" stroke="#212121" stroke-miterlimit="10"/>
<path d="M69.1385 168.239C69.1385 168.239 57.8208 170.503 57.8208 181.254C57.8208 192.005 88.3772 212.942 90.641 208.981C92.9049 205.02 81.7829 181.573 78.9539 176.481C76.1241 171.388 73.0994 167.673 69.1385 168.239Z" fill="white" stroke="#212121" stroke-miterlimit="10"/>
<path d="M61.1245 189.109C61.1245 189.109 65.0863 183.166 68.8004 181.433" stroke="#212121" stroke-miterlimit="10"/>
<path d="M80.934 183.166C80.934 183.166 76.9723 184.652 73.5059 188.118" stroke="#212121" stroke-miterlimit="10"/>
<path d="M75.4863 201.49C75.4863 201.49 77.2199 197.033 81.4294 194.804" stroke="#212121" stroke-miterlimit="10"/>
<path d="M74.7434 177.966L72.2676 179.452" stroke="#212121" stroke-miterlimit="10"/>
<path d="M84.8959 193.071L83.1631 193.566" stroke="#212121" stroke-miterlimit="10"/>
<path d="M80.9483 278.867C91.1301 278.867 99.384 270.613 99.384 260.431C99.384 250.25 91.1301 241.996 80.9483 241.996C70.7666 241.996 62.5127 250.25 62.5127 260.431C62.5127 270.613 70.7666 278.867 80.9483 278.867Z" fill="#76C757" stroke="#212121" stroke-miterlimit="10" stroke-linecap="round" stroke-linejoin="round"/>
<path d="M85.7505 247.644C85.7505 250.795 82.8817 257.584 80.9483 257.584C79.015 257.584 76.147 250.795 76.147 247.644C76.147 244.493 79.015 243.562 80.9483 243.562C82.8817 243.561 85.7505 244.493 85.7505 247.644Z" fill="white" stroke="#212121" stroke-miterlimit="10" stroke-linecap="round" stroke-linejoin="round"/>
<path d="M72.2747 249.878C75.003 251.454 79.7345 256.642 78.7682 258.316C77.8019 259.99 70.2016 259.77 67.4733 258.195C64.745 256.62 65.3718 253.67 66.3389 251.996C67.3052 250.322 69.5463 248.303 72.2747 249.878Z" fill="white" stroke="#212121" stroke-miterlimit="10" stroke-linecap="round" stroke-linejoin="round"/>
<path d="M67.4725 262.667C70.2008 261.091 78.0009 259.713 78.968 261.387C79.9351 263.061 75.003 269.408 72.2738 270.983C69.5455 272.558 67.3044 270.541 66.3381 268.866C65.3718 267.192 64.7442 264.242 67.4725 262.667Z" fill="white" stroke="#212121" stroke-miterlimit="10" stroke-linecap="round" stroke-linejoin="round"/>
<path d="M76.146 273.219C76.146 270.069 79.0148 262.388 80.9482 262.388C82.8815 262.388 85.7495 270.069 85.7495 273.219C85.7495 276.37 82.8815 277.301 80.9482 277.301C79.0148 277.301 76.146 276.37 76.146 273.219Z" fill="white" stroke="#212121" stroke-miterlimit="10" stroke-linecap="round" stroke-linejoin="round"/>
<path d="M89.6215 270.984C86.8932 269.409 82.4053 263.462 83.3724 261.787C84.3395 260.113 91.6946 261.092 94.4229 262.667C97.1512 264.243 96.5244 267.192 95.5573 268.866C94.5902 270.541 92.3499 272.559 89.6215 270.984Z" fill="white" stroke="#212121" stroke-miterlimit="10" stroke-linecap="round" stroke-linejoin="round"/>
<path d="M94.4235 258.196C91.6952 259.771 84.3393 260.458 83.3722 258.784C82.4059 257.109 86.8938 251.455 89.6221 249.879C92.3505 248.304 94.5916 250.322 95.5579 251.996C96.5241 253.67 97.1518 256.62 94.4235 258.196Z" fill="white" stroke="#212121" stroke-miterlimit="10" stroke-linecap="round" stroke-linejoin="round"/>
<path d="M352.004 324.349C352.036 324.369 352.682 321.867 352.705 321.705C352.967 319.824 352.367 316.035 350.452 315.11C349.072 314.443 347.529 315.245 347.027 316.626C346.514 318.038 347.164 319.769 347.935 320.959C348.841 322.358 352.001 324.347 352.004 324.349Z" fill="#212121"/>
<path d="M314.242 323.528C315.768 324.194 319.502 324.111 319.505 324.11C319.544 324.109 318.703 321.666 318.632 321.518C317.813 319.805 315.223 316.975 313.115 317.26C311.596 317.465 310.752 318.984 311.094 320.414C311.444 321.875 312.942 322.959 314.242 323.528Z" fill="#212121"/>
<path d="M315.531 334.341C317.114 334.572 320.446 333.605 320.711 333.527C321.237 335.393 321.928 337.263 322.732 339.119C323.19 340.18 323.684 341.235 324.194 342.286C323.89 341.841 323.615 341.444 323.571 341.393C322.327 339.957 319.083 337.912 317.125 338.744C315.714 339.343 315.301 341.031 316.009 342.32C316.733 343.636 318.464 344.286 319.868 344.491C321.292 344.698 324.15 343.932 324.903 343.719C325.103 344.12 325.298 344.523 325.498 344.923C326.463 346.844 327.434 348.757 328.329 350.662C328.645 351.334 328.931 352.006 329.22 352.678C328.949 352.283 328.718 351.952 328.678 351.906C327.436 350.47 324.19 348.425 322.232 349.257C320.822 349.856 320.409 351.544 321.117 352.833C321.84 354.148 323.571 354.799 324.975 355.003C326.335 355.201 328.978 354.518 329.874 354.268C330.149 354.966 330.426 355.663 330.661 356.351C330.811 356.824 330.988 357.27 331.112 357.753C331.246 358.23 331.377 358.702 331.507 359.169C331.725 360.077 331.955 361.014 332.146 361.906C332.283 362.525 332.403 363.118 332.524 363.714C332.218 363.043 331.591 361.739 331.526 361.636C330.515 360.029 327.617 357.515 325.556 358.041C324.071 358.419 323.407 360.025 323.912 361.407C324.427 362.817 326.04 363.722 327.397 364.137C328.89 364.594 332.197 364.176 332.61 364.122C332.808 365.11 332.991 366.073 333.15 366.984C333.485 368.887 333.742 370.601 333.941 372.073H335.331C335.093 370.548 334.786 368.751 334.388 366.753C334.191 365.748 333.96 364.68 333.712 363.584C333.961 363.485 335.371 362.915 336.621 362.217C337.71 363.396 340.499 364.776 340.86 364.951C340.48 365.885 340.102 366.788 339.732 367.636C339.008 369.303 338.319 370.789 337.702 372.074H339.202C339.727 370.9 340.299 369.579 340.893 368.127C341.283 367.181 341.68 366.162 342.078 365.111C342.478 365.195 345.752 365.86 347.277 365.515C348.661 365.203 350.337 364.42 350.955 363.052C351.562 361.713 351.019 360.061 349.567 359.573C347.551 358.896 344.473 361.186 343.345 362.714C343.279 362.804 342.666 363.863 342.29 364.537C342.451 364.106 342.611 363.692 342.771 363.247C343.093 362.37 343.388 361.485 343.709 360.534C343.848 360.069 343.988 359.6 344.13 359.126C344.281 358.659 344.381 358.146 344.509 357.653C344.782 356.501 345.005 355.321 345.201 354.128C345.97 354.408 348.714 355.362 350.136 355.262C351.55 355.163 353.326 354.643 354.146 353.385C354.948 352.153 354.662 350.438 353.3 349.736C351.409 348.76 348.021 350.558 346.674 351.898C346.591 351.982 345.732 353.052 345.273 353.648C345.386 352.929 345.502 352.213 345.593 351.482C345.855 349.374 346.054 347.231 346.262 345.094C346.325 344.44 346.397 343.789 346.465 343.136C346.737 343.238 349.974 344.444 351.567 344.332C352.982 344.233 354.756 343.712 355.576 342.454C356.379 341.223 356.093 339.508 354.73 338.805C352.84 337.83 349.451 339.628 348.105 340.968C348.004 341.068 346.772 342.61 346.477 343.017C346.629 341.581 346.794 340.15 347.013 338.747C347.313 336.81 347.715 334.926 348.239 333.129C348.366 333.177 351.739 334.451 353.369 334.336C354.785 334.237 356.56 333.717 357.379 332.459C358.181 331.227 357.895 329.512 356.533 328.81C354.643 327.834 351.254 329.632 349.908 330.972C349.819 331.06 348.88 332.233 348.445 332.801C348.386 332.771 348.397 332.776 348.337 332.745C348.922 330.828 349.73 329.044 350.568 327.412C351.052 326.465 351.567 325.588 352.088 324.746C352.692 325.047 355.467 326.395 356.946 326.454C358.364 326.511 360.185 326.189 361.138 325.028C362.071 323.891 361.974 322.156 360.698 321.308C358.926 320.132 355.36 321.546 353.875 322.729C353.795 322.794 353.045 323.539 352.508 324.089C352.748 323.713 352.99 323.32 353.228 322.963C354.118 321.623 355.015 320.451 355.818 319.42C356.28 318.837 356.708 318.319 357.115 317.838C357.862 317.825 360.871 317.733 362.188 317.115C363.471 316.513 364.94 315.387 365.251 313.918C365.554 312.48 364.669 310.984 363.146 310.82C361.031 310.592 358.518 313.49 357.745 315.226C357.679 315.376 356.904 317.84 356.943 317.84C356.943 317.84 356.98 317.84 356.988 317.84C356.587 318.294 356.163 318.785 355.711 319.333C354.884 320.349 353.959 321.505 353.036 322.831C352.112 324.154 351.144 325.616 350.263 327.249C349.378 328.884 348.531 330.65 347.894 332.582C347.887 332.604 347.882 332.628 347.875 332.65C347.886 332.027 347.858 330.283 347.841 330.15C347.597 328.267 346.018 324.771 343.927 324.384C342.42 324.106 341.144 325.286 341.024 326.752C340.901 328.249 341.986 329.747 343.044 330.691C344.237 331.757 347.549 332.789 347.813 332.87C347.223 334.716 346.767 336.658 346.414 338.649C346.211 339.786 346.042 340.939 345.887 342.096C345.879 341.557 345.868 341.076 345.859 341.008C345.615 339.124 344.036 335.629 341.945 335.242C340.437 334.964 339.162 336.144 339.042 337.609C338.919 339.106 340.004 340.604 341.062 341.549C342.135 342.508 344.942 343.444 345.687 343.682C345.633 344.127 345.573 344.571 345.52 345.016C345.265 347.15 345.02 349.281 344.715 351.365C344.608 352.099 344.476 352.818 344.346 353.537C344.338 353.058 344.328 352.656 344.32 352.595C344.075 350.711 342.497 347.215 340.405 346.829C338.898 346.55 337.622 347.731 337.502 349.196C337.379 350.692 338.465 352.19 339.523 353.135C340.547 354.05 343.129 354.937 344.014 355.225C343.859 355.958 343.705 356.693 343.521 357.396C343.385 357.874 343.288 358.343 343.124 358.815C342.972 359.286 342.822 359.751 342.673 360.213C342.353 361.092 342.029 361.999 341.696 362.849C341.469 363.441 341.241 364.001 341.014 364.566C341.129 363.837 341.324 362.404 341.327 362.282C341.356 361.02 340.908 358.969 340.016 357.528C340.022 357.342 340.01 357.156 339.981 356.971C339.748 355.519 338.384 354.441 336.904 354.835C334.848 355.382 333.544 358.99 333.447 360.887C333.441 360.999 333.514 362.219 333.574 362.989C333.47 362.542 333.375 362.107 333.263 361.648C333.047 360.738 332.805 359.838 332.549 358.867C332.408 358.403 332.266 357.934 332.123 357.461C331.992 356.988 331.792 356.506 331.627 356.023C331.22 354.911 330.754 353.805 330.261 352.7C331.056 352.509 333.872 351.792 335.002 350.924C336.127 350.061 337.321 348.648 337.31 347.147C337.3 345.676 336.115 344.405 334.592 344.57C332.477 344.8 330.642 348.168 330.259 350.028C330.235 350.144 330.11 351.51 330.055 352.261C329.753 351.599 329.454 350.937 329.127 350.278C328.182 348.375 327.166 346.478 326.161 344.58C325.852 343.999 325.553 343.417 325.25 342.834C325.534 342.77 328.899 341.989 330.165 341.017C331.29 340.154 332.484 338.741 332.473 337.24C332.463 335.77 331.278 334.497 329.755 334.663C327.64 334.892 325.805 338.261 325.421 340.121C325.393 340.261 325.215 342.226 325.195 342.728C324.529 341.446 323.877 340.162 323.286 338.87C322.467 337.089 321.763 335.297 321.209 333.509C321.342 333.479 324.857 332.68 326.154 331.685C327.28 330.822 328.473 329.409 328.463 327.907C328.452 326.438 327.268 325.165 325.744 325.331C323.63 325.561 321.795 328.929 321.411 330.789C321.385 330.912 321.248 332.41 321.2 333.123C321.134 333.13 321.146 333.129 321.08 333.136C320.51 331.214 320.199 329.28 319.999 327.456C319.88 326.4 319.826 325.384 319.795 324.393C320.465 324.312 323.523 323.904 324.789 323.138C326.002 322.403 327.344 321.13 327.498 319.636C327.649 318.174 326.612 316.779 325.079 316.777C322.953 316.773 320.759 319.919 320.173 321.726C320.141 321.824 319.928 322.858 319.783 323.614C319.777 323.168 319.761 322.707 319.763 322.278C319.766 320.669 319.868 319.197 319.969 317.893C320.032 317.153 320.104 316.483 320.177 315.859C320.793 315.436 323.253 313.699 324.009 312.458C324.747 311.247 325.351 309.499 324.8 308.103C324.26 306.735 322.696 305.975 321.335 306.679C319.446 307.656 318.949 311.46 319.261 313.333C319.289 313.494 320.002 315.978 320.034 315.956C320.034 315.956 320.064 315.936 320.072 315.931C319.989 316.531 319.907 317.175 319.831 317.881C319.701 319.185 319.567 320.66 319.529 322.274C319.487 323.887 319.487 325.641 319.653 327.489C319.817 329.341 320.085 331.281 320.62 333.244C320.625 333.266 320.635 333.289 320.641 333.311C320.306 332.785 319.321 331.346 319.234 331.245C317.99 329.808 314.746 327.764 312.788 328.595C311.378 329.195 310.964 330.883 311.672 332.171C312.396 333.486 314.128 334.137 315.531 334.341Z" fill="#212121"/>
<path opacity="0.3" d="M314.242 323.528C315.768 324.194 319.502 324.111 319.505 324.11C319.544 324.109 318.703 321.666 318.632 321.518C317.813 319.805 315.223 316.975 313.115 317.26C311.596 317.465 310.752 318.984 311.094 320.414C311.444 321.875 312.942 322.959 314.242 323.528Z" fill="#212121"/>
<path opacity="0.3" d="M352.004 324.349C352.036 324.369 352.682 321.867 352.705 321.705C352.967 319.824 352.367 316.035 350.452 315.11C349.072 314.443 347.529 315.245 347.027 316.626C346.514 318.038 347.164 319.769 347.935 320.959C348.841 322.358 352.001 324.347 352.004 324.349Z" fill="#212121"/>
<path opacity="0.3" d="M315.531 334.341C317.114 334.572 320.446 333.605 320.711 333.527C321.237 335.393 321.928 337.263 322.732 339.119C323.19 340.18 323.684 341.235 324.194 342.286C323.89 341.841 323.615 341.444 323.571 341.393C322.327 339.957 319.083 337.912 317.125 338.744C315.714 339.343 315.301 341.031 316.009 342.32C316.733 343.636 318.464 344.286 319.868 344.491C321.292 344.698 324.15 343.932 324.903 343.719C325.103 344.12 325.298 344.523 325.498 344.923C326.463 346.844 327.434 348.757 328.329 350.662C328.645 351.334 328.931 352.006 329.22 352.678C328.949 352.283 328.718 351.952 328.678 351.906C327.436 350.47 324.19 348.425 322.232 349.257C320.822 349.856 320.409 351.544 321.117 352.833C321.84 354.148 323.571 354.799 324.975 355.003C326.335 355.201 328.978 354.518 329.874 354.268C330.149 354.966 330.426 355.663 330.661 356.351C330.811 356.824 330.988 357.27 331.112 357.753C331.246 358.23 331.377 358.702 331.507 359.169C331.725 360.077 331.955 361.014 332.146 361.906C332.283 362.525 332.403 363.118 332.524 363.714C332.218 363.043 331.591 361.739 331.526 361.636C330.515 360.029 327.617 357.515 325.556 358.041C324.071 358.419 323.407 360.025 323.912 361.407C324.427 362.817 326.04 363.722 327.397 364.137C328.89 364.594 332.197 364.176 332.61 364.122C332.808 365.11 332.991 366.073 333.15 366.984C333.485 368.887 333.742 370.601 333.941 372.073H335.331C335.093 370.548 334.786 368.751 334.388 366.753C334.191 365.748 333.96 364.68 333.712 363.584C333.961 363.485 335.371 362.915 336.621 362.217C337.71 363.396 340.499 364.776 340.86 364.951C340.48 365.885 340.102 366.788 339.732 367.636C339.008 369.303 338.319 370.789 337.702 372.074H339.202C339.727 370.9 340.299 369.579 340.893 368.127C341.283 367.181 341.68 366.162 342.078 365.111C342.478 365.195 345.752 365.86 347.277 365.515C348.661 365.203 350.337 364.42 350.955 363.052C351.562 361.713 351.019 360.061 349.567 359.573C347.551 358.896 344.473 361.186 343.345 362.714C343.279 362.804 342.666 363.863 342.29 364.537C342.451 364.106 342.611 363.692 342.771 363.247C343.093 362.37 343.388 361.485 343.709 360.534C343.848 360.069 343.988 359.6 344.13 359.126C344.281 358.659 344.381 358.146 344.509 357.653C344.782 356.501 345.005 355.321 345.201 354.128C345.97 354.408 348.714 355.362 350.136 355.262C351.55 355.163 353.326 354.643 354.146 353.385C354.948 352.153 354.662 350.438 353.3 349.736C351.409 348.76 348.021 350.558 346.674 351.898C346.591 351.982 345.732 353.052 345.273 353.648C345.386 352.929 345.502 352.213 345.593 351.482C345.855 349.374 346.054 347.231 346.262 345.094C346.325 344.44 346.397 343.789 346.465 343.136C346.737 343.238 349.974 344.444 351.567 344.332C352.982 344.233 354.756 343.712 355.576 342.454C356.379 341.223 356.093 339.508 354.73 338.805C352.84 337.83 349.451 339.628 348.105 340.968C348.004 341.068 346.772 342.61 346.477 343.017C346.629 341.581 346.794 340.15 347.013 338.747C347.313 336.81 347.715 334.926 348.239 333.129C348.366 333.177 351.739 334.451 353.369 334.336C354.785 334.237 356.56 333.717 357.379 332.459C358.181 331.227 357.895 329.512 356.533 328.81C354.643 327.834 351.254 329.632 349.908 330.972C349.819 331.06 348.88 332.233 348.445 332.801C348.386 332.771 348.397 332.776 348.337 332.745C348.922 330.828 349.73 329.044 350.568 327.412C351.052 326.465 351.567 325.588 352.088 324.746C352.692 325.047 355.467 326.395 356.946 326.454C358.364 326.511 360.185 326.189 361.138 325.028C362.071 323.891 361.974 322.156 360.698 321.308C358.926 320.132 355.36 321.546 353.875 322.729C353.795 322.794 353.045 323.539 352.508 324.089C352.748 323.713 352.99 323.32 353.228 322.963C354.118 321.623 355.015 320.451 355.818 319.42C356.28 318.837 356.708 318.319 357.115 317.838C357.862 317.825 360.871 317.733 362.188 317.115C363.471 316.513 364.94 315.387 365.251 313.918C365.554 312.48 364.669 310.984 363.146 310.82C361.031 310.592 358.518 313.49 357.745 315.226C357.679 315.376 356.904 317.84 356.943 317.84C356.943 317.84 356.98 317.84 356.988 317.84C356.587 318.294 356.163 318.785 355.711 319.333C354.884 320.349 353.959 321.505 353.036 322.831C352.112 324.154 351.144 325.616 350.263 327.249C349.378 328.884 348.531 330.65 347.894 332.582C347.887 332.604 347.882 332.628 347.875 332.65C347.886 332.027 347.858 330.283 347.841 330.15C347.597 328.267 346.018 324.771 343.927 324.384C342.42 324.106 341.144 325.286 341.024 326.752C340.901 328.249 341.986 329.747 343.044 330.691C344.237 331.757 347.549 332.789 347.813 332.87C347.223 334.716 346.767 336.658 346.414 338.649C346.211 339.786 346.042 340.939 345.887 342.096C345.879 341.557 345.868 341.076 345.859 341.008C345.615 339.124 344.036 335.629 341.945 335.242C340.437 334.964 339.162 336.144 339.042 337.609C338.919 339.106 340.004 340.604 341.062 341.549C342.135 342.508 344.942 343.444 345.687 343.682C345.633 344.127 345.573 344.571 345.52 345.016C345.265 347.15 345.02 349.281 344.715 351.365C344.608 352.099 344.476 352.818 344.346 353.537C344.338 353.058 344.328 352.656 344.32 352.595C344.075 350.711 342.497 347.215 340.405 346.829C338.898 346.55 337.622 347.731 337.502 349.196C337.379 350.692 338.465 352.19 339.523 353.135C340.547 354.05 343.129 354.937 344.014 355.225C343.859 355.958 343.705 356.693 343.521 357.396C343.385 357.874 343.288 358.343 343.124 358.815C342.972 359.286 342.822 359.751 342.673 360.213C342.353 361.092 342.029 361.999 341.696 362.849C341.469 363.441 341.241 364.001 341.014 364.566C341.129 363.837 341.324 362.404 341.327 362.282C341.356 361.02 340.908 358.969 340.016 357.528C340.022 357.342 340.01 357.156 339.981 356.971C339.748 355.519 338.384 354.441 336.904 354.835C334.848 355.382 333.544 358.99 333.447 360.887C333.441 360.999 333.514 362.219 333.574 362.989C333.47 362.542 333.375 362.107 333.263 361.648C333.047 360.738 332.805 359.838 332.549 358.867C332.408 358.403 332.266 357.934 332.123 357.461C331.992 356.988 331.792 356.506 331.627 356.023C331.22 354.911 330.754 353.805 330.261 352.7C331.056 352.509 333.872 351.792 335.002 350.924C336.127 350.061 337.321 348.648 337.31 347.147C337.3 345.676 336.115 344.405 334.592 344.57C332.477 344.8 330.642 348.168 330.259 350.028C330.235 350.144 330.11 351.51 330.055 352.261C329.753 351.599 329.454 350.937 329.127 350.278C328.182 348.375 327.166 346.478 326.161 344.58C325.852 343.999 325.553 343.417 325.25 342.834C325.534 342.77 328.899 341.989 330.165 341.017C331.29 340.154 332.484 338.741 332.473 337.24C332.463 335.77 331.278 334.497 329.755 334.663C327.64 334.892 325.805 338.261 325.421 340.121C325.393 340.261 325.215 342.226 325.195 342.728C324.529 341.446 323.877 340.162 323.286 338.87C322.467 337.089 321.763 335.297 321.209 333.509C321.342 333.479 324.857 332.68 326.154 331.685C327.28 330.822 328.473 329.409 328.463 327.907C328.452 326.438 327.268 325.165 325.744 325.331C323.63 325.561 321.795 328.929 321.411 330.789C321.385 330.912 321.248 332.41 321.2 333.123C321.134 333.13 321.146 333.129 321.08 333.136C320.51 331.214 320.199 329.28 319.999 327.456C319.88 326.4 319.826 325.384 319.795 324.393C320.465 324.312 323.523 323.904 324.789 323.138C326.002 322.403 327.344 321.13 327.498 319.636C327.649 318.174 326.612 316.779 325.079 316.777C322.953 316.773 320.759 319.919 320.173 321.726C320.141 321.824 319.928 322.858 319.783 323.614C319.777 323.168 319.761 322.707 319.763 322.278C319.766 320.669 319.868 319.197 319.969 317.893C320.032 317.153 320.104 316.483 320.177 315.859C320.793 315.436 323.253 313.699 324.009 312.458C324.747 311.247 325.351 309.499 324.8 308.103C324.26 306.735 322.696 305.975 321.335 306.679C319.446 307.656 318.949 311.46 319.261 313.333C319.289 313.494 320.002 315.978 320.034 315.956C320.034 315.956 320.064 315.936 320.072 315.931C319.989 316.531 319.907 317.175 319.831 317.881C319.701 319.185 319.567 320.66 319.529 322.274C319.487 323.887 319.487 325.641 319.653 327.489C319.817 329.341 320.085 331.281 320.62 333.244C320.625 333.266 320.635 333.289 320.641 333.311C320.306 332.785 319.321 331.346 319.234 331.245C317.99 329.808 314.746 327.764 312.788 328.595C311.378 329.195 310.964 330.883 311.672 332.171C312.396 333.486 314.128 334.137 315.531 334.341Z" fill="#212121"/>
<path d="M93.0644 324.349C93.0969 324.369 93.7433 321.867 93.766 321.705C94.0275 319.824 93.4282 316.035 91.5127 315.11C90.1331 314.443 88.5903 315.245 88.0877 316.626C87.5745 318.038 88.2257 319.769 88.9963 320.959C89.9017 322.358 93.062 324.347 93.0644 324.349Z" fill="#212121"/>
<path d="M55.303 323.528C56.8296 324.194 60.5623 324.111 60.5656 324.11C60.6046 324.109 59.7633 321.666 59.6927 321.518C58.8734 319.805 56.2831 316.975 54.1751 317.26C52.6567 317.465 51.8122 318.984 52.1557 320.414C52.5049 321.875 54.003 322.959 55.303 323.528Z" fill="#212121"/>
<path d="M56.5918 334.341C58.1752 334.572 61.5069 333.605 61.7716 333.527C62.2978 335.393 62.9888 337.263 63.7927 339.119C64.2506 340.18 64.7451 341.235 65.2551 342.286C64.9514 341.841 64.6761 341.444 64.6315 341.393C63.3883 339.957 60.1427 337.912 58.1858 338.744C56.7754 339.343 56.362 341.031 57.0701 342.32C57.7936 343.636 59.5248 344.286 60.9287 344.491C62.353 344.698 65.2104 343.932 65.964 343.719C66.1637 344.12 66.3586 344.523 66.5591 344.923C67.5238 346.844 68.495 348.757 69.3898 350.662C69.7056 351.334 69.9915 352.006 70.2805 352.678C70.0101 352.283 69.7787 351.952 69.7389 351.906C68.4966 350.47 65.251 348.425 63.2933 349.257C61.8828 349.856 61.4695 351.544 62.1776 352.833C62.9011 354.148 64.6323 354.799 66.0362 355.003C67.3955 355.201 70.0394 354.518 70.935 354.268C71.2103 354.966 71.4872 355.663 71.7218 356.351C71.8721 356.824 72.0491 357.27 72.1733 357.753C72.3065 358.23 72.438 358.702 72.5688 359.169C72.7864 360.077 73.017 361.014 73.2078 361.906C73.345 362.525 73.4644 363.118 73.5862 363.714C73.2801 363.043 72.6524 361.739 72.5874 361.636C71.5765 360.029 68.6785 357.515 66.6176 358.041C65.1325 358.419 64.4682 360.025 64.9733 361.407C65.4889 362.817 67.1016 363.722 68.4584 364.137C69.9517 364.594 73.259 364.176 73.6715 364.122C73.8696 365.11 74.0531 366.073 74.2114 366.984C74.5468 368.887 74.8042 370.601 75.0031 372.073H76.3933C76.1554 370.548 75.8476 368.751 75.4505 366.753C75.2532 365.748 75.0226 364.68 74.7758 363.584C75.0242 363.485 76.4347 362.915 77.6844 362.217C78.7732 363.396 81.5625 364.776 81.9238 364.951C81.5438 365.885 81.1654 366.788 80.7951 367.636C80.0708 369.303 79.3823 370.789 78.7651 372.074H80.2649C80.7903 370.9 81.3619 369.579 81.9563 368.127C82.3461 367.181 82.7431 366.162 83.141 365.111C83.5413 365.195 86.8145 365.86 88.3402 365.515C89.7239 365.203 91.3998 364.42 92.0186 363.052C92.6252 361.713 92.0827 360.061 90.6293 359.573C88.6131 358.896 85.5356 361.186 84.4077 362.714C84.3411 362.804 83.7289 363.863 83.3529 364.537C83.5137 364.106 83.6737 363.692 83.8336 363.247C84.1552 362.37 84.4508 361.485 84.7723 360.534C84.9112 360.069 85.0516 359.6 85.1929 359.126C85.344 358.659 85.4438 358.146 85.5721 357.653C85.8458 356.501 86.0683 355.321 86.2648 354.128C87.0337 354.408 89.7775 355.362 91.1993 355.262C92.6138 355.163 94.3896 354.643 95.2089 353.385C96.0112 352.153 95.7254 350.438 94.3637 349.736C92.4733 348.76 89.084 350.558 87.7377 351.898C87.6533 351.982 86.7958 353.052 86.3362 353.648C86.4491 352.929 86.5652 352.213 86.6562 351.482C86.9184 349.374 87.1174 347.231 87.326 345.094C87.3894 344.44 87.4608 343.789 87.529 343.136C87.8011 343.238 91.0385 344.444 92.6308 344.332C94.0462 344.233 95.8212 343.712 96.6405 342.454C97.4428 341.223 97.1569 339.508 95.7944 338.805C93.9041 337.83 90.5148 339.628 89.1693 340.968C89.0678 341.068 87.836 342.61 87.5412 343.017C87.6931 341.581 87.8579 340.15 88.0771 338.747C88.3776 336.81 88.7795 334.926 89.3033 333.129C89.4299 333.177 92.803 334.451 94.4335 334.336C95.8488 334.237 97.6238 333.717 98.4431 332.459C99.2454 331.227 98.9588 329.512 97.597 328.81C95.7067 327.834 92.3182 329.632 90.9719 330.972C90.8834 331.06 89.9439 332.233 89.5095 332.801C89.4502 332.771 89.4608 332.776 89.4015 332.745C89.9862 330.828 90.7941 329.044 91.6321 327.412C92.116 326.465 92.6308 325.588 93.1521 324.746C93.7563 325.047 96.5309 326.395 98.0095 326.454C99.4273 326.511 101.249 326.189 102.201 325.028C103.134 323.891 103.037 322.156 101.761 321.308C99.9892 320.132 96.4237 321.546 94.9385 322.729C94.8582 322.794 94.1095 323.539 93.572 324.089C93.8131 323.713 94.0543 323.32 94.2922 322.963C95.1821 321.623 96.0794 320.451 96.8825 319.42C97.3437 318.837 97.7724 318.319 98.1792 317.838C98.9263 317.825 101.936 317.733 103.252 317.115C104.536 316.513 106.004 315.387 106.315 313.918C106.618 312.48 105.733 310.984 104.21 310.82C102.096 310.592 99.5824 313.49 98.8093 315.226C98.7428 315.376 97.9681 317.84 98.0071 317.84C98.0071 317.84 98.0436 317.84 98.0518 317.84C97.6514 318.294 97.2276 318.785 96.7753 319.333C95.9479 320.349 95.023 321.505 94.1006 322.831C93.1757 324.154 92.2078 325.616 91.3276 327.249C90.4433 328.884 89.5956 330.65 88.9582 332.582C88.9509 332.604 88.946 332.628 88.9395 332.65C88.95 332.027 88.9224 330.283 88.9054 330.15C88.661 328.267 87.0824 324.771 84.9907 324.384C83.4837 324.106 82.208 325.286 82.0878 326.752C81.9652 328.249 83.0501 329.747 84.1081 330.691C85.3009 331.757 88.6131 332.789 88.877 332.87C88.2866 334.716 87.8311 336.658 87.4779 338.649C87.2749 339.786 87.106 340.939 86.9509 342.096C86.9428 341.557 86.9314 341.076 86.9233 341.008C86.6789 339.124 85.1004 335.629 83.0086 335.242C81.5016 334.964 80.2259 336.144 80.1057 337.609C79.9831 339.106 81.068 340.604 82.126 341.549C83.1995 342.508 86.0057 343.444 86.7512 343.682C86.6967 344.127 86.6367 344.571 86.5839 345.016C86.3289 347.15 86.0837 349.281 85.7784 351.365C85.6712 352.099 85.5388 352.818 85.4097 353.537C85.4024 353.058 85.3919 352.656 85.3837 352.595C85.1393 350.711 83.5608 347.215 81.4691 346.829C79.962 346.55 78.6864 347.731 78.5662 349.196C78.4436 350.692 79.5292 352.19 80.5865 353.135C81.6104 354.05 84.1925 354.937 85.0776 355.225C84.9217 355.958 84.7682 356.693 84.5847 357.396C84.4483 357.874 84.3509 358.343 84.1877 358.815C84.0358 359.286 83.8856 359.751 83.7362 360.213C83.4163 361.092 83.0923 361.999 82.7594 362.849C82.532 363.441 82.3046 364.001 82.0773 364.566C82.1926 363.837 82.3875 362.404 82.3907 362.282C82.4199 361.02 81.9717 358.969 81.0801 357.528C81.0858 357.342 81.0745 357.156 81.0452 356.971C80.8122 355.519 79.448 354.441 77.9677 354.835C75.9126 355.382 74.6085 358.99 74.5111 360.887C74.5054 360.999 74.5785 362.219 74.6377 362.989C74.5346 362.542 74.4388 362.107 74.3267 361.648C74.1116 360.738 73.8696 359.838 73.613 358.867C73.4725 358.403 73.3304 357.934 73.1875 357.461C73.056 356.988 72.8562 356.506 72.6914 356.023C72.2846 354.911 71.8185 353.805 71.3248 352.7C72.1205 352.509 74.9357 351.792 76.066 350.924C77.1915 350.061 78.3851 348.648 78.3746 347.147C78.364 345.676 77.1793 344.405 75.656 344.57C73.5415 344.8 71.7064 348.168 71.3232 350.028C71.2988 350.144 71.1737 351.51 71.1193 352.261C70.8173 351.599 70.5185 350.937 70.1912 350.278C69.2461 348.375 68.2302 346.478 67.225 344.58C66.9164 343.999 66.6168 343.417 66.3139 342.834C66.5981 342.77 69.9631 341.989 71.229 341.017C72.3544 340.154 73.548 338.741 73.5375 337.24C73.5269 335.77 72.3422 334.497 70.8189 334.663C68.7044 334.892 66.8693 338.261 66.4853 340.121C66.4568 340.261 66.279 342.226 66.2587 342.728C65.5929 341.446 64.9408 340.162 64.3497 338.87C63.5312 337.089 62.8272 335.297 62.2734 333.509C62.4058 333.479 65.9209 332.68 67.2185 331.685C68.3439 330.822 69.5376 329.409 69.527 327.907C69.5165 326.438 68.3317 325.165 66.8084 325.331C64.694 325.561 62.8589 328.929 62.4748 330.789C62.4496 330.912 62.3124 332.41 62.2645 333.123C62.1979 333.13 62.2101 333.129 62.1443 333.136C61.5743 331.214 61.2633 329.28 61.0627 327.456C60.9442 326.4 60.8898 325.384 60.8597 324.393C61.5296 324.312 64.5876 323.904 65.8535 323.138C67.0666 322.403 68.4089 321.13 68.5632 319.636C68.7142 318.174 67.6765 316.779 66.1442 316.777C64.0176 316.773 61.8236 319.919 61.2381 321.726C61.2064 321.824 60.9929 322.858 60.8483 323.614C60.8419 323.168 60.8256 322.707 60.8281 322.278C60.8313 320.669 60.9328 319.197 61.0335 317.893C61.0968 317.153 61.1683 316.483 61.2422 315.859C61.8577 315.436 64.3172 313.699 65.074 312.458C65.8121 311.247 66.4162 309.499 65.8649 308.103C65.3249 306.735 63.761 305.975 62.4001 306.679C60.5106 307.656 60.0136 311.46 60.3262 313.333C60.3538 313.494 61.0668 315.978 61.0993 315.956C61.0993 315.956 61.1293 315.936 61.1366 315.931C61.0538 316.531 60.9718 317.175 60.8954 317.881C60.7663 319.185 60.6315 320.66 60.5942 322.274C60.552 323.887 60.552 325.641 60.7184 327.489C60.8825 329.341 61.1504 331.281 61.6847 333.244C61.6904 333.266 61.7001 333.289 61.7058 333.311C61.3713 332.785 60.3863 331.346 60.2986 331.245C59.0555 329.808 55.8107 327.764 53.853 328.595C52.4425 329.195 52.0292 330.883 52.7373 332.171C53.4567 333.486 55.1879 334.137 56.5918 334.341Z" fill="#212121"/>
<path opacity="0.3" d="M55.303 323.528C56.8296 324.194 60.5623 324.111 60.5656 324.11C60.6046 324.109 59.7633 321.666 59.6927 321.518C58.8734 319.805 56.2831 316.975 54.1751 317.26C52.6567 317.465 51.8122 318.984 52.1557 320.414C52.5049 321.875 54.003 322.959 55.303 323.528Z" fill="#212121"/>
<path opacity="0.3" d="M93.0644 324.349C93.0969 324.369 93.7433 321.867 93.766 321.705C94.0275 319.824 93.4282 316.035 91.5127 315.11C90.1331 314.443 88.5903 315.245 88.0877 316.626C87.5745 318.038 88.2257 319.769 88.9963 320.959C89.9017 322.358 93.062 324.347 93.0644 324.349Z" fill="#212121"/>
<path opacity="0.3" d="M56.5918 334.341C58.1752 334.572 61.5069 333.605 61.7716 333.527C62.2978 335.393 62.9888 337.263 63.7927 339.119C64.2506 340.18 64.7451 341.235 65.2551 342.286C64.9514 341.841 64.6761 341.444 64.6315 341.393C63.3883 339.957 60.1427 337.912 58.1858 338.744C56.7754 339.343 56.362 341.031 57.0701 342.32C57.7936 343.636 59.5248 344.286 60.9287 344.491C62.353 344.698 65.2104 343.932 65.964 343.719C66.1637 344.12 66.3586 344.523 66.5591 344.923C67.5238 346.844 68.495 348.757 69.3898 350.662C69.7056 351.334 69.9915 352.006 70.2805 352.678C70.0101 352.283 69.7787 351.952 69.7389 351.906C68.4966 350.47 65.251 348.425 63.2933 349.257C61.8828 349.856 61.4695 351.544 62.1776 352.833C62.9011 354.148 64.6323 354.799 66.0362 355.003C67.3955 355.201 70.0394 354.518 70.935 354.268C71.2103 354.966 71.4872 355.663 71.7218 356.351C71.8721 356.824 72.0491 357.27 72.1733 357.753C72.3065 358.23 72.438 358.702 72.5688 359.169C72.7864 360.077 73.017 361.014 73.2078 361.906C73.345 362.525 73.4644 363.118 73.5862 363.714C73.2801 363.043 72.6524 361.739 72.5874 361.636C71.5765 360.029 68.6785 357.515 66.6176 358.041C65.1325 358.419 64.4682 360.025 64.9733 361.407C65.4889 362.817 67.1016 363.722 68.4584 364.137C69.9517 364.594 73.259 364.176 73.6715 364.122C73.8696 365.11 74.0531 366.073 74.2114 366.984C74.5468 368.887 74.8042 370.601 75.0031 372.073H76.3933C76.1554 370.548 75.8476 368.751 75.4505 366.753C75.2532 365.748 75.0226 364.68 74.7758 363.584C75.0242 363.485 76.4347 362.915 77.6844 362.217C78.7732 363.396 81.5625 364.776 81.9238 364.951C81.5438 365.885 81.1654 366.788 80.7951 367.636C80.0708 369.303 79.3823 370.789 78.7651 372.074H80.2649C80.7903 370.9 81.3619 369.579 81.9563 368.127C82.3461 367.181 82.7431 366.162 83.141 365.111C83.5413 365.195 86.8145 365.86 88.3402 365.515C89.7239 365.203 91.3998 364.42 92.0186 363.052C92.6252 361.713 92.0827 360.061 90.6293 359.573C88.6131 358.896 85.5356 361.186 84.4077 362.714C84.3411 362.804 83.7289 363.863 83.3529 364.537C83.5137 364.106 83.6737 363.692 83.8336 363.247C84.1552 362.37 84.4508 361.485 84.7723 360.534C84.9112 360.069 85.0516 359.6 85.1929 359.126C85.344 358.659 85.4438 358.146 85.5721 357.653C85.8458 356.501 86.0683 355.321 86.2648 354.128C87.0337 354.408 89.7775 355.362 91.1993 355.262C92.6138 355.163 94.3896 354.643 95.2089 353.385C96.0112 352.153 95.7254 350.438 94.3637 349.736C92.4733 348.76 89.084 350.558 87.7377 351.898C87.6533 351.982 86.7958 353.052 86.3362 353.648C86.4491 352.929 86.5652 352.213 86.6562 351.482C86.9184 349.374 87.1174 347.231 87.326 345.094C87.3894 344.44 87.4608 343.789 87.529 343.136C87.8011 343.238 91.0385 344.444 92.6308 344.332C94.0462 344.233 95.8212 343.712 96.6405 342.454C97.4428 341.223 97.1569 339.508 95.7944 338.805C93.9041 337.83 90.5148 339.628 89.1693 340.968C89.0678 341.068 87.836 342.61 87.5412 343.017C87.6931 341.581 87.8579 340.15 88.0771 338.747C88.3776 336.81 88.7795 334.926 89.3033 333.129C89.4299 333.177 92.803 334.451 94.4335 334.336C95.8488 334.237 97.6238 333.717 98.4431 332.459C99.2454 331.227 98.9588 329.512 97.597 328.81C95.7067 327.834 92.3182 329.632 90.9719 330.972C90.8834 331.06 89.9439 332.233 89.5095 332.801C89.4502 332.771 89.4608 332.776 89.4015 332.745C89.9862 330.828 90.7941 329.044 91.6321 327.412C92.116 326.465 92.6308 325.588 93.1521 324.746C93.7563 325.047 96.5309 326.395 98.0095 326.454C99.4273 326.511 101.249 326.189 102.201 325.028C103.134 323.891 103.037 322.156 101.761 321.308C99.9892 320.132 96.4237 321.546 94.9385 322.729C94.8582 322.794 94.1095 323.539 93.572 324.089C93.8131 323.713 94.0543 323.32 94.2922 322.963C95.1821 321.623 96.0794 320.451 96.8825 319.42C97.3437 318.837 97.7724 318.319 98.1792 317.838C98.9263 317.825 101.936 317.733 103.252 317.115C104.536 316.513 106.004 315.387 106.315 313.918C106.618 312.48 105.733 310.984 104.21 310.82C102.096 310.592 99.5824 313.49 98.8093 315.226C98.7428 315.376 97.9681 317.84 98.0071 317.84C98.0071 317.84 98.0436 317.84 98.0518 317.84C97.6514 318.294 97.2276 318.785 96.7753 319.333C95.9479 320.349 95.023 321.505 94.1006 322.831C93.1757 324.154 92.2078 325.616 91.3276 327.249C90.4433 328.884 89.5956 330.65 88.9582 332.582C88.9509 332.604 88.946 332.628 88.9395 332.65C88.95 332.027 88.9224 330.283 88.9054 330.15C88.661 328.267 87.0824 324.771 84.9907 324.384C83.4837 324.106 82.208 325.286 82.0878 326.752C81.9652 328.249 83.0501 329.747 84.1081 330.691C85.3009 331.757 88.6131 332.789 88.877 332.87C88.2866 334.716 87.8311 336.658 87.4779 338.649C87.2749 339.786 87.106 340.939 86.9509 342.096C86.9428 341.557 86.9314 341.076 86.9233 341.008C86.6789 339.124 85.1004 335.629 83.0086 335.242C81.5016 334.964 80.2259 336.144 80.1057 337.609C79.9831 339.106 81.068 340.604 82.126 341.549C83.1995 342.508 86.0057 343.444 86.7512 343.682C86.6967 344.127 86.6367 344.571 86.5839 345.016C86.3289 347.15 86.0837 349.281 85.7784 351.365C85.6712 352.099 85.5388 352.818 85.4097 353.537C85.4024 353.058 85.3919 352.656 85.3837 352.595C85.1393 350.711 83.5608 347.215 81.4691 346.829C79.962 346.55 78.6864 347.731 78.5662 349.196C78.4436 350.692 79.5292 352.19 80.5865 353.135C81.6104 354.05 84.1925 354.937 85.0776 355.225C84.9217 355.958 84.7682 356.693 84.5847 357.396C84.4483 357.874 84.3509 358.343 84.1877 358.815C84.0358 359.286 83.8856 359.751 83.7362 360.213C83.4163 361.092 83.0923 361.999 82.7594 362.849C82.532 363.441 82.3046 364.001 82.0773 364.566C82.1926 363.837 82.3875 362.404 82.3907 362.282C82.4199 361.02 81.9717 358.969 81.0801 357.528C81.0858 357.342 81.0745 357.156 81.0452 356.971C80.8122 355.519 79.448 354.441 77.9677 354.835C75.9126 355.382 74.6085 358.99 74.5111 360.887C74.5054 360.999 74.5785 362.219 74.6377 362.989C74.5346 362.542 74.4388 362.107 74.3267 361.648C74.1116 360.738 73.8696 359.838 73.613 358.867C73.4725 358.403 73.3304 357.934 73.1875 357.461C73.056 356.988 72.8562 356.506 72.6914 356.023C72.2846 354.911 71.8185 353.805 71.3248 352.7C72.1205 352.509 74.9357 351.792 76.066 350.924C77.1915 350.061 78.3851 348.648 78.3746 347.147C78.364 345.676 77.1793 344.405 75.656 344.57C73.5415 344.8 71.7064 348.168 71.3232 350.028C71.2988 350.144 71.1737 351.51 71.1193 352.261C70.8173 351.599 70.5185 350.937 70.1912 350.278C69.2461 348.375 68.2302 346.478 67.225 344.58C66.9164 343.999 66.6168 343.417 66.3139 342.834C66.5981 342.77 69.9631 341.989 71.229 341.017C72.3544 340.154 73.548 338.741 73.5375 337.24C73.5269 335.77 72.3422 334.497 70.8189 334.663C68.7044 334.892 66.8693 338.261 66.4853 340.121C66.4568 340.261 66.279 342.226 66.2587 342.728C65.5929 341.446 64.9408 340.162 64.3497 338.87C63.5312 337.089 62.8272 335.297 62.2734 333.509C62.4058 333.479 65.9209 332.68 67.2185 331.685C68.3439 330.822 69.5376 329.409 69.527 327.907C69.5165 326.438 68.3317 325.165 66.8084 325.331C64.694 325.561 62.8589 328.929 62.4748 330.789C62.4496 330.912 62.3124 332.41 62.2645 333.123C62.1979 333.13 62.2101 333.129 62.1443 333.136C61.5743 331.214 61.2633 329.28 61.0627 327.456C60.9442 326.4 60.8898 325.384 60.8597 324.393C61.5296 324.312 64.5876 323.904 65.8535 323.138C67.0666 322.403 68.4089 321.13 68.5632 319.636C68.7142 318.174 67.6765 316.779 66.1442 316.777C64.0176 316.773 61.8236 319.919 61.2381 321.726C61.2064 321.824 60.9929 322.858 60.8483 323.614C60.8419 323.168 60.8256 322.707 60.8281 322.278C60.8313 320.669 60.9328 319.197 61.0335 317.893C61.0968 317.153 61.1683 316.483 61.2422 315.859C61.8577 315.436 64.3172 313.699 65.074 312.458C65.8121 311.247 66.4162 309.499 65.8649 308.103C65.3249 306.735 63.761 305.975 62.4001 306.679C60.5106 307.656 60.0136 311.46 60.3262 313.333C60.3538 313.494 61.0668 315.978 61.0993 315.956C61.0993 315.956 61.1293 315.936 61.1366 315.931C61.0538 316.531 60.9718 317.175 60.8954 317.881C60.7663 319.185 60.6315 320.66 60.5942 322.274C60.552 323.887 60.552 325.641 60.7184 327.489C60.8825 329.341 61.1504 331.281 61.6847 333.244C61.6904 333.266 61.7001 333.289 61.7058 333.311C61.3713 332.785 60.3863 331.346 60.2986 331.245C59.0555 329.808 55.8107 327.764 53.853 328.595C52.4425 329.195 52.0292 330.883 52.7373 332.171C53.4567 333.486 55.1879 334.137 56.5918 334.341Z" fill="#212121"/>
<path d="M274.745 360.323L280.46 370.694C280.46 370.694 283.423 371.54 286.598 369.847C289.773 368.154 293.16 365.614 295.488 364.767C297.816 363.92 304.8 359.475 306.705 356.089C308.61 352.702 309.245 350.374 306.07 351.221C302.896 352.068 300.779 352.491 297.816 352.914C294.853 353.337 288.714 352.914 288.714 352.914L274.745 360.323Z" fill="white" stroke="#212121" stroke-miterlimit="10"/>
<path d="M201.778 357.08C201.778 357.08 204.317 361.101 208.127 363.429C211.937 365.757 218.287 367.239 217.863 369.356C217.44 371.473 212.995 373.166 208.55 372.531C204.106 371.896 193.523 368.933 190.983 367.874C188.443 366.816 186.961 366.604 186.961 364.911C186.961 363.218 191.618 351.365 191.618 351.365L201.778 357.08Z" fill="white" stroke="#212121" stroke-miterlimit="10"/>
<path d="M226.059 168.909C226.059 168.909 218.225 177.766 215.253 183.503C212.281 189.241 200.099 208.182 201.795 211.028C203.491 213.874 212.23 222.99 216.702 226.055C221.173 229.121 225.06 232.412 225.06 232.412L228.443 229.856C228.443 229.856 222.284 221.186 218.665 215.298C215.046 209.411 212.912 206.384 212.912 206.384C212.912 206.384 222.835 194.19 225.36 191.032C227.885 187.874 228.771 174.013 228.888 172.731C229.007 171.451 228.061 167.276 226.059 168.909Z" fill="white" stroke="#212121" stroke-miterlimit="10"/>
<path d="M253.232 125.939C253.232 125.939 255.999 128.918 256.233 132.084C256.467 135.25 255.631 138.284 257.64 139.62C259.649 140.958 262.002 141.208 260.798 142.145C259.593 143.083 257.381 144.733 257.381 144.733C257.381 144.733 256.394 154.356 255.37 154.857C254.346 155.357 245.934 156.403 245.934 156.403C245.934 156.403 242.916 161.508 243.556 164.432C244.197 167.356 249.363 176.949 252.56 182.867C255.757 188.786 255.928 191.107 254.661 196.932C253.394 202.756 249.401 227.544 249.612 231.566C249.824 235.588 252.787 241.514 252.787 241.514C252.787 241.514 269.72 288.079 271.625 293.371C273.53 298.663 272.895 311.15 274.165 315.806C275.435 320.463 283.689 336.761 284.959 339.724C286.229 342.687 291.043 349.105 291.043 349.105L292.101 351.222C292.101 351.222 289.138 353.762 285.751 356.302C282.364 358.842 278.343 360.535 276.861 360.958C275.379 361.381 273.474 362.016 273.474 362.016C273.474 362.016 266.968 350.519 264.428 344.381C261.888 338.243 257.655 331.47 256.808 322.58C255.961 313.69 253.21 305.647 250.881 298.663C248.553 291.678 240.934 279.402 240.934 279.402C240.934 279.402 234.796 303.954 229.927 309.881C225.059 315.808 218.074 331.682 213.629 339.725C209.184 347.768 207.068 349.673 206.644 353.483C206.221 357.293 205.163 360.045 205.163 360.045C205.163 360.045 197.755 358.563 193.945 356.023C190.135 353.483 186.96 350.096 186.96 350.096C186.96 350.096 197.543 327.449 202.623 317.501C207.703 307.553 213.84 285.541 214.052 284.059C214.264 282.577 216.38 270.089 217.227 267.338C218.074 264.586 218.285 264.375 218.074 262.893C217.862 261.411 212.147 252.521 214.476 243.844C216.804 235.166 223.112 226.645 223.112 226.645C223.112 226.645 226.819 213.636 226.78 210.243C226.741 206.851 223.194 199.047 222.21 191.479C221.226 183.912 221.697 173.053 225.121 167.706C228.546 162.359 234.074 153.885 234.356 151.954C234.637 150.023 235.716 147.396 233.106 140.798C230.495 134.199 236.649 128.438 240.925 126C245.204 123.561 253.232 125.939 253.232 125.939Z" fill="white" stroke="#212121" stroke-miterlimit="10"/>
<path d="M253.866 140.006C254.264 140.006 254.586 139.2 254.586 138.205C254.586 137.21 254.264 136.404 253.866 136.404C253.468 136.404 253.146 137.21 253.146 138.205C253.146 139.2 253.468 140.006 253.866 140.006Z" fill="#212121"/>
<path d="M251.944 135.204C251.944 135.204 253.385 133.523 254.826 134.963" stroke="#212121" stroke-miterlimit="10"/>
<path d="M256.748 147.929C256.748 147.929 254.587 148.409 253.146 146.008" stroke="#212121" stroke-miterlimit="10"/>
<path d="M247.919 252.097L241.569 276.861" stroke="#212121" stroke-miterlimit="10"/>
<path d="M263.582 309.668C263.582 309.668 262.312 327.024 261.465 332.951" stroke="#212121" stroke-miterlimit="10"/>
<path d="M266.122 319.616C266.122 319.616 264.217 333.374 264.217 334.644" stroke="#212121" stroke-miterlimit="10"/>
<path d="M241.762 140.158C241.762 140.158 238.19 134.903 235.5 138.711C232.81 142.517 235.217 146.372 236.741 146.896C238.266 147.419 239.079 146.936 239.079 146.936C239.079 146.936 237.882 150.844 235.177 154.44C232.471 158.036 225.302 161.537 219.494 160.481C213.686 159.425 202.726 148.987 204.831 140.129C206.935 131.272 209.155 126.863 211.689 126.676C214.222 126.489 215.738 129.772 218.693 129.554C221.648 129.335 225.254 117.82 235.699 115.562C246.144 113.304 255.008 118.379 256.118 121.906C257.228 125.431 255.68 127.456 254.624 127.534C253.569 127.612 249.37 125.376 246.947 127.041C244.524 128.705 246.142 130.496 246.462 131.958C246.783 133.42 244.327 134.663 244.437 136.14C244.546 137.618 244.882 139.291 244.037 139.353C243.193 139.416 241.762 140.158 241.762 140.158Z" fill="#212121" stroke="#212121" stroke-miterlimit="10"/>
<path d="M252.56 182.868C251.739 181.35 250.789 179.589 249.82 177.762C249.506 177.919 249.169 178.025 248.807 178.052C246.064 178.255 239.873 169.162 233.666 165.589C230.726 163.896 228.415 164.253 226.795 165.097C226.505 165.549 226.22 165.992 225.943 166.424C227.891 165.607 230.659 165.202 233.775 167.066C239.771 170.655 244.569 178.153 245.804 183.368C247.038 188.582 241.088 197.087 233.176 199.158C228.174 200.467 224.885 198.506 222.761 194.666C224.123 201.15 226.746 207.326 226.779 210.242C226.818 213.635 223.111 226.643 223.111 226.643C223.111 226.643 222.787 227.211 222.274 228.184C232.269 231.131 244.889 232.545 249.774 231.566C250.316 223.996 253.566 201.961 254.659 196.932C255.929 191.108 255.756 188.786 252.56 182.868Z" fill="#212121" stroke="#212121" stroke-miterlimit="10"/>
<path d="M231.079 167.901C231.079 167.901 236.825 168.113 239.702 172.57C242.578 177.026 255.639 195.798 257.468 197.573C259.298 199.349 261.869 202.554 261.869 202.554C261.869 202.554 282.213 190.65 285.825 187.837C289.437 185.023 292.894 180.098 292.894 180.098C292.894 180.098 293.277 176.674 293.41 175.603C293.543 174.532 296.709 174.298 296.709 174.298C296.709 174.298 298.844 171.594 300.548 171.68C302.253 171.766 302.651 174.283 302.651 174.283C302.651 174.283 304.847 178.153 304.987 180.053C305.128 181.953 301.187 186.064 299.545 186.823C297.904 187.581 294.768 188.237 294.768 188.237C294.768 188.237 281.672 203.426 277.34 207.991C273.008 212.556 265.933 217.324 264.291 218.081C262.649 218.839 256.035 215.508 254.933 214.953C253.831 214.397 226.003 188.227 226.003 188.227" fill="white"/>
<path d="M231.079 167.901C231.079 167.901 236.825 168.113 239.702 172.57C242.578 177.026 255.639 195.798 257.468 197.573C259.298 199.349 261.869 202.554 261.869 202.554C261.869 202.554 282.213 190.65 285.825 187.837C289.437 185.023 292.894 180.098 292.894 180.098C292.894 180.098 293.277 176.674 293.41 175.603C293.543 174.532 296.709 174.298 296.709 174.298C296.709 174.298 298.844 171.594 300.548 171.68C302.253 171.766 302.651 174.283 302.651 174.283C302.651 174.283 304.847 178.153 304.987 180.053C305.128 181.953 301.187 186.064 299.545 186.823C297.904 187.581 294.768 188.237 294.768 188.237C294.768 188.237 281.672 203.426 277.34 207.991C273.008 212.556 265.933 217.324 264.291 218.081C262.649 218.839 256.035 215.508 254.933 214.953C253.831 214.397 226.003 188.227 226.003 188.227" stroke="#212121" stroke-miterlimit="10"/>
<path d="M186.783 176.949C186.783 176.949 193.927 188.24 197.153 193.08C200.379 197.919 205.911 203.68 205.911 203.68C205.911 203.68 211.672 198.61 216.281 194.001C220.89 189.392 223.194 181.557 223.194 181.557C223.194 181.557 220.429 176.718 220.429 175.796C220.429 174.875 222.964 172.109 223.655 171.418C224.346 170.727 225.498 170.957 225.498 170.957C225.498 170.957 226.189 170.035 228.033 170.035C229.876 170.035 234.255 174.413 234.716 177.64C235.177 180.866 231.95 184.322 230.567 186.397C229.184 188.471 222.963 199.994 220.428 205.524C217.893 211.055 209.366 220.503 206.601 220.965C203.836 221.426 190.47 210.133 188.856 208.059C187.243 205.986 188.856 189.163 187.704 186.397C186.554 183.631 186.783 176.949 186.783 176.949Z" fill="white" stroke="#212121" stroke-miterlimit="10"/>
<path d="M225.499 170.957C225.499 170.957 231.26 175.335 228.955 176.258C226.651 177.179 225.729 174.875 225.729 174.875C225.729 174.875 228.034 177.64 227.112 179.945" stroke="#212121" stroke-miterlimit="10"/>
<path d="M227.573 176.718C227.573 176.718 230.799 179.944 232.413 180.175" stroke="#212121" stroke-miterlimit="10"/>
<path d="M155.212 259.219C155.212 259.219 147.607 288.486 145.073 291.712C142.538 294.938 130.324 305.769 128.02 311.991C125.716 318.214 114.55 342.856 113.167 346.773C111.784 350.691 110.632 351.843 110.632 351.843L120.311 357.143C120.311 357.143 130.555 338.262 136.086 331.349C141.616 324.435 148.76 313.604 153.83 308.534C158.9 303.464 173.879 282.493 173.879 282.493L155.212 259.219Z" fill="white" stroke="#212121" stroke-miterlimit="10"/>
<path d="M173.878 282.494L155.212 259.219C155.212 259.219 148.488 285.094 145.579 290.863C148.333 294.192 153.068 298.276 160.64 300.36C166.731 292.5 173.878 282.494 173.878 282.494Z" fill="#212121" stroke="#212121" stroke-miterlimit="10"/>
<path d="M120.311 357.144C120.311 357.144 122.684 352.963 125.474 347.396C121.297 346.228 117.005 343.986 114.776 342.478C113.934 344.808 113.473 345.907 113.167 346.774C111.784 350.691 110.632 351.844 110.632 351.844L120.311 357.144Z" fill="white" stroke="#212121" stroke-miterlimit="10"/>
<path d="M124.458 360.831C124.458 360.831 123.537 360.37 123.306 356.682C123.076 352.995 122.615 350.46 121.232 352.765C119.849 355.069 119.849 355.069 119.849 355.069L110.862 349.769C110.862 349.769 109.249 351.152 109.249 352.535C109.249 353.918 102.796 360.14 104.179 361.983C105.561 363.826 110.401 363.826 115.241 367.053C120.08 370.279 121.002 371.893 126.993 372.123C132.985 372.354 134.137 370.279 134.137 369.127C134.137 367.975 129.298 366.132 127.684 364.518C126.072 362.905 124.458 360.831 124.458 360.831Z" fill="white" stroke="#212121" stroke-miterlimit="10"/>
<path d="M134.138 369.127C134.138 368.839 133.834 368.507 133.354 368.146C132.18 368.901 129.561 369.986 124.689 369.358C117.545 368.436 117.545 366.362 113.627 362.905C110.996 360.583 107.126 359.512 104.862 359.057C104.126 360.287 103.722 361.374 104.179 361.982C105.562 363.826 110.401 363.826 115.241 367.052C120.08 370.278 121.002 371.892 126.994 372.123C132.985 372.353 134.138 370.279 134.138 369.127Z" fill="white" stroke="#212121" stroke-miterlimit="10"/>
<path d="M152.447 242.396C152.447 242.396 149.912 250.692 154.521 262.445C159.13 274.198 178.027 294.708 184.018 299.777C190.01 304.847 190.01 304.847 190.01 304.847C190.01 304.847 190.932 318.674 197.615 328.123C204.297 337.571 220.429 360.386 220.429 360.386L228.035 354.625C228.035 354.625 221.812 347.25 219.969 340.106C218.126 332.962 208.216 311.53 206.603 304.386C204.989 297.242 198.997 284.798 198.306 283.646C197.615 282.494 185.171 258.988 185.171 258.988L187.014 247.697L152.447 242.396Z" fill="white" stroke="#212121" stroke-miterlimit="10"/>
<path d="M183.181 299.042C184.98 296.583 190.17 291.074 201.208 289.718C199.79 286.543 198.592 284.124 198.306 283.646C197.614 282.494 185.17 258.988 185.17 258.988L187.013 247.697L152.446 242.397C152.446 242.397 149.911 250.693 154.519 262.446C158.934 273.7 176.442 292.975 183.181 299.042Z" fill="#212121" stroke="#212121" stroke-miterlimit="10"/>
<path d="M213.204 350.168C217.288 355.943 220.429 360.386 220.429 360.386L228.034 354.625C228.034 354.625 224.238 350.113 221.697 344.732C219.779 346.458 216.923 348.577 213.204 350.168Z" fill="white" stroke="#212121" stroke-miterlimit="10"/>
<path d="M227.573 348.172C227.573 348.172 224.117 344.946 224.578 349.093C225.039 353.241 226.421 354.624 226.421 354.624C226.421 354.624 216.973 359.002 217.894 361.077C218.816 363.151 219.968 364.533 219.968 364.533C219.968 364.533 225.729 373.521 228.264 372.599C230.799 371.677 235.178 365.916 239.096 364.072C243.014 362.228 247.852 356.007 249.005 352.319C250.157 348.632 249.466 347.249 246.7 348.863C243.934 350.476 240.248 352.55 236.099 352.55C231.952 352.55 228.955 350.245 228.955 350.245L227.573 348.172Z" fill="white" stroke="#212121" stroke-miterlimit="10"/>
<path d="M248.364 348.209C248.348 348.276 248.329 348.333 248.313 348.402C246.931 354.625 239.096 359.003 235.408 362.46C232.39 365.289 226.597 369.196 224.593 370.522C225.955 371.93 227.329 372.939 228.264 372.6C230.799 371.678 235.178 365.917 239.096 364.073C243.013 362.229 247.852 356.007 249.004 352.32C249.874 349.538 249.692 348.07 248.364 348.209Z" fill="white" stroke="#212121" stroke-miterlimit="10"/>
<path d="M194.528 122.446C194.528 122.446 196.484 125.824 197.018 129.914C197.551 134.004 197.374 136.316 198.974 138.272C200.575 140.228 201.997 141.473 201.641 142.54C201.286 143.607 198.796 144.852 198.796 144.852C198.796 144.852 196.662 153.565 194.706 154.988C192.75 156.411 186.17 154.632 186.17 154.632C186.17 154.632 183.681 158.011 183.859 162.813C184.037 167.614 187.949 175.083 190.26 182.019C192.572 188.954 192.928 194.822 190.616 204.07C188.304 213.317 187.415 233.235 187.593 238.57C187.771 243.905 187.771 246.75 187.771 246.75C187.771 246.75 190.438 249.773 178.168 249.773C165.898 249.773 154.338 245.149 153.094 244.616C151.849 244.082 151.493 243.193 151.493 243.193C151.493 243.193 154.338 212.072 153.449 209.583C152.56 207.093 151.671 195.712 151.671 195.712C151.671 195.712 152.027 176.328 157.539 169.037C163.052 161.746 169.454 158.545 171.766 154.811C174.077 151.077 173.188 146.809 173.188 146.809C173.188 146.809 167.142 142.363 164.297 133.827C161.452 125.292 169.454 116.044 175.322 113.91C181.19 111.776 193.284 114.621 195.062 116.755C196.84 118.889 194.528 122.446 194.528 122.446Z" fill="white" stroke="#212121" stroke-miterlimit="10"/>
<path d="M195.062 116.755C193.284 114.621 181.191 111.776 175.322 113.91C169.454 116.044 161.451 125.291 164.297 133.827C167.142 142.363 173.188 146.809 173.188 146.809C173.188 146.809 173.24 147.061 173.286 147.49C174.582 147.266 177.634 145.742 177.634 145.742C177.634 145.742 176.211 144.675 175.678 143.964C175.144 143.252 173.722 138.273 176.567 137.384C179.412 136.495 180.123 138.451 180.657 139.518C181.19 140.585 182.613 139.518 183.146 138.984C183.68 138.451 183.324 134.361 183.324 134.361C183.324 134.361 185.458 132.76 187.059 130.982C188.659 129.204 182.613 125.114 182.613 125.114C182.613 125.114 187.059 124.936 189.37 124.58C191.682 124.225 194.527 122.446 194.527 122.446C194.527 122.446 196.84 118.889 195.062 116.755Z" fill="#212121" stroke="#212121" stroke-miterlimit="10"/>
<path d="M186.17 154.633L181.725 152.499L184.748 157.301L186.17 154.633Z" fill="#212121" stroke="#212121" stroke-miterlimit="10"/>
<path d="M196.305 137.158C196.381 138.138 196.164 138.953 195.821 138.979C195.478 139.005 195.139 138.233 195.064 137.253C194.989 136.274 195.206 135.459 195.548 135.433C195.891 135.407 196.23 136.179 196.305 137.158Z" fill="#212121"/>
<path d="M193.461 133.827C193.461 133.827 194.706 131.871 195.951 132.938" stroke="#212121" stroke-miterlimit="10"/>
<path d="M196.84 147.342C196.84 147.342 194.173 146.275 194.173 145.564" stroke="#212121" stroke-miterlimit="10"/>
<path d="M187.771 246.751C187.771 246.751 187.771 243.905 187.593 238.571C187.415 233.236 188.304 213.318 190.616 204.071C192.928 194.824 192.572 188.956 190.26 182.02C189.501 179.744 188.571 177.411 187.656 175.132C183.508 175.993 178.795 169.703 175.952 164.965C172.496 159.204 166.504 160.126 166.504 160.126L166.455 160.083C165.866 160.578 165.256 161.095 164.626 161.641C167.311 162.337 171.965 164.338 174.34 170.035C177.796 178.331 172.035 188.701 165.122 191.927C160.083 194.278 154.569 192.105 151.941 190.75C151.709 193.707 151.671 195.712 151.671 195.712C151.671 195.712 152.56 207.093 153.449 209.582C154.338 212.072 151.493 243.192 151.493 243.192C151.493 243.192 151.849 244.082 153.094 244.615C154.338 245.149 165.897 249.772 178.168 249.772C190.438 249.774 187.771 246.751 187.771 246.751Z" fill="#76C757" stroke="#212121" stroke-miterlimit="10"/>
<path d="M167.426 163.813C167.426 163.813 158.208 163.352 154.29 168.191C150.372 173.031 131.476 202.067 130.554 204.371C129.632 206.676 131.937 210.133 131.937 210.133C131.937 210.133 160.743 235.943 161.665 236.173C162.587 236.404 167.887 242.626 169.5 243.087C171.113 243.548 176.413 242.165 177.104 241.473C177.795 240.782 181.022 237.786 179.639 236.634C178.257 235.482 177.335 234.791 177.335 234.099C177.335 233.407 178.026 230.873 175.492 230.411C172.957 229.95 165.122 229.95 165.122 229.95C165.122 229.95 161.204 225.341 156.134 218.197C151.064 211.053 148.069 205.523 148.069 205.523L169.27 185.013" fill="white"/>
<path d="M167.426 163.813C167.426 163.813 158.208 163.352 154.29 168.191C150.372 173.031 131.476 202.067 130.554 204.371C129.632 206.676 131.937 210.133 131.937 210.133C131.937 210.133 160.743 235.943 161.665 236.173C162.587 236.404 167.887 242.626 169.5 243.087C171.113 243.548 176.413 242.165 177.104 241.473C177.795 240.782 181.022 237.786 179.639 236.634C178.257 235.482 177.335 234.791 177.335 234.099C177.335 233.407 178.026 230.873 175.492 230.411C172.957 229.95 165.122 229.95 165.122 229.95C165.122 229.95 161.204 225.341 156.134 218.197C151.064 211.053 148.069 205.523 148.069 205.523L169.27 185.013" stroke="#212121" stroke-miterlimit="10"/>
</svg>
