<svg width="20" height="20" viewBox="0 0 20 20" fill="none" xmlns="http://www.w3.org/2000/svg">
<path fill-rule="evenodd" clip-rule="evenodd" d="M13.0892 3.68297C10.287 2.56208 6.88629 3.20124 4.91027 5.3777L4.91011 5.37787C3.93726 6.44886 3.3271 7.79948 3.16651 9.23742C3.00592 10.6754 3.30309 12.1273 4.01569 13.3865C4.7283 14.6457 5.82002 15.648 7.13541 16.2507C8.4508 16.8534 9.9228 17.0257 11.3418 16.7431L11.3421 16.743C14.1972 16.1752 16.3251 13.5937 16.8931 10.7537C16.9947 10.2459 17.4886 9.91668 17.9963 10.0182C18.504 10.1198 18.8333 10.6137 18.7317 11.1214C18.0497 14.5312 15.4653 17.8347 11.708 18.582C9.90201 18.9416 8.02856 18.7223 6.35443 17.9553C4.68029 17.1883 3.29083 15.9126 2.38387 14.31C1.47692 12.7073 1.09871 10.8594 1.3031 9.02931C1.50747 7.19928 2.28398 5.48038 3.52206 4.11734M3.52222 4.11716C6.08122 1.29876 10.3379 0.562982 13.7856 1.94207C14.2663 2.13436 14.5002 2.67996 14.3079 3.1607C14.1156 3.64143 13.57 3.87526 13.0892 3.68297" fill="#212121"/>
<path fill-rule="evenodd" clip-rule="evenodd" d="M18.4484 3.99863C18.8288 4.34982 18.8526 4.94294 18.5014 5.32339L11.0014 13.4484C10.8283 13.6359 10.5863 13.7447 10.3312 13.7498C10.0761 13.7549 9.83 13.6558 9.64959 13.4754L6.52459 10.3504C6.15847 9.9843 6.15847 9.39071 6.52459 9.02459C6.8907 8.65848 7.4843 8.65848 7.85041 9.02459L10.2855 11.4596L17.1236 4.05162C17.4748 3.67116 18.0679 3.64744 18.4484 3.99863Z" fill="#212121"/>
</svg>
