<svg width="382" height="383" viewBox="0 0 382 383" fill="none" xmlns="http://www.w3.org/2000/svg">
<path d="M375.313 381.646C378.264 366.644 384.904 327.829 380.575 301.247C375.11 267.683 359.259 290.319 342.315 298.125C325.371 305.931 331.384 253.632 339.036 195.089C346.688 136.546 320.999 74.8814 288.204 63.953C255.409 53.0246 244.44 139.234 229.72 161.524C215.001 183.816 168.504 52.2454 120.952 77.2232C73.4 102.202 71.7604 227.094 61.3752 248.95C50.9901 270.806 11.637 195.871 2.34528 239.583C-5.50066 276.494 8.47773 357.374 13.0173 381.647H375.313V381.646Z" fill="#76C757"/>
<path opacity="0.7" d="M375.313 381.646C378.264 366.644 384.904 327.829 380.575 301.247C375.11 267.683 359.259 290.319 342.315 298.125C325.371 305.931 331.384 253.632 339.036 195.089C346.688 136.546 320.999 74.8814 288.204 63.953C255.409 53.0246 244.44 139.234 229.72 161.524C215.001 183.816 168.504 52.2454 120.952 77.2232C73.4 102.202 71.7604 227.094 61.3752 248.95C50.9901 270.806 11.637 195.871 2.34528 239.583C-5.50066 276.494 8.47773 357.374 13.0173 381.647H375.313V381.646Z" fill="white"/>
<path d="M17.9751 382L376.123 381.646" stroke="#212121" stroke-miterlimit="10" stroke-linecap="round" stroke-linejoin="round"/>
<path d="M170.738 313.5H50.2979V328.993H170.738V313.5Z" stroke="#212121" stroke-miterlimit="10" stroke-linecap="round" stroke-linejoin="round"/>
<path d="M286.631 291.247C285.764 291.928 285.213 292.983 285.213 294.169V313.501H169.842C169.967 305.523 168.637 286.624 167.322 272.963C167.366 264.297 167.609 257.741 168.064 257.397C169.445 256.364 189.464 255.331 227.091 256.708C264.71 258.085 276.449 254.298 280.938 255.331C284.537 256.159 286.139 281.292 286.631 291.247Z" stroke="#212121" stroke-miterlimit="10" stroke-linecap="round" stroke-linejoin="round"/>
<path d="M169.842 313.501H50.2984V294.169C50.2984 292.148 48.6823 290.499 46.6694 290.448C47.213 280.01 48.8219 256.137 52.326 255.331C56.8145 254.298 68.5463 258.085 106.173 256.708C143.8 255.331 163.819 256.364 165.2 257.397C165.655 257.741 166.485 264.297 167.323 272.963C168.638 286.624 169.967 305.523 169.842 313.501Z" stroke="#212121" stroke-miterlimit="10" stroke-linecap="round" stroke-linejoin="round"/>
<path d="M171.186 313.5V317.346C171.025 317.346 170.878 317.354 170.738 317.354V313.5H171.186Z" stroke="#212121" stroke-miterlimit="10" stroke-linecap="round" stroke-linejoin="round"/>
<path d="M285.213 328.993H50.2979V371.333H285.213V328.993Z" stroke="#212121" stroke-miterlimit="10" stroke-linecap="round" stroke-linejoin="round"/>
<path d="M171.186 313.5H170.738V328.993H171.186V313.5Z" stroke="#212121" stroke-miterlimit="10" stroke-linecap="round" stroke-linejoin="round"/>
<path d="M285.214 313.5H171.187V328.993H285.214V313.5Z" stroke="#212121" stroke-miterlimit="10" stroke-linecap="round" stroke-linejoin="round"/>
<path d="M171.186 313.5H170.738V328.993H171.186V313.5Z" stroke="#212121" stroke-miterlimit="10" stroke-linecap="round" stroke-linejoin="round"/>
<path d="M302.132 294.169V378.834C302.132 380.585 300.706 381.999 298.958 381.999H288.387C286.631 381.999 285.213 380.585 285.213 378.834V294.169C285.213 292.983 285.764 291.928 286.631 291.246C287.27 290.741 288.071 290.441 288.953 290.441H298.392C300.457 290.441 302.132 292.111 302.132 294.169Z" stroke="#212121" stroke-miterlimit="10" stroke-linecap="round" stroke-linejoin="round"/>
<path d="M50.2981 294.169V378.834C50.2981 380.585 48.8729 381.999 47.1245 381.999H36.5534C34.7977 381.999 33.3799 380.585 33.3799 378.834V294.169C33.3799 292.111 35.0548 290.441 37.1191 290.441H46.5589C46.5956 290.441 46.6323 290.441 46.6691 290.448C48.6819 290.499 50.2981 292.147 50.2981 294.169Z" stroke="#212121" stroke-miterlimit="10" stroke-linecap="round" stroke-linejoin="round"/>
<path d="M165.801 115.749H130.688V160.765H165.801V115.749Z" stroke="#212121" stroke-miterlimit="10" stroke-linecap="round" stroke-linejoin="round"/>
<path d="M163.533 118.655H132.955V157.858H163.533V118.655Z" stroke="#212121" stroke-miterlimit="10" stroke-linecap="round" stroke-linejoin="round"/>
<path d="M153.18 131.929H143.309V144.584H153.18V131.929Z" stroke="#212121" stroke-miterlimit="10" stroke-linecap="round" stroke-linejoin="round"/>
<path d="M124.305 149.396H89.1924V194.412H124.305V149.396Z" stroke="#212121" stroke-miterlimit="10" stroke-linecap="round" stroke-linejoin="round"/>
<path d="M122.038 152.303H91.4595V191.506H122.038V152.303Z" stroke="#212121" stroke-miterlimit="10" stroke-linecap="round" stroke-linejoin="round"/>
<path d="M111.685 165.577H101.813V178.232H111.685V165.577Z" stroke="#212121" stroke-miterlimit="10" stroke-linecap="round" stroke-linejoin="round"/>
<path d="M210.717 149.396H175.604V194.412H210.717V149.396Z" stroke="#212121" stroke-miterlimit="10" stroke-linecap="round" stroke-linejoin="round"/>
<path d="M208.449 152.303H177.871V191.506H208.449V152.303Z" stroke="#212121" stroke-miterlimit="10" stroke-linecap="round" stroke-linejoin="round"/>
<path d="M198.096 165.577H188.225V178.232H198.096V165.577Z" stroke="#212121" stroke-miterlimit="10" stroke-linecap="round" stroke-linejoin="round"/>
<path d="M165.801 167.85H130.688V194.146H165.801V167.85Z" stroke="#212121" stroke-miterlimit="10" stroke-linecap="round" stroke-linejoin="round"/>
<path d="M163.533 169.548H132.955V192.449H163.533V169.548Z" stroke="#212121" stroke-miterlimit="10" stroke-linecap="round" stroke-linejoin="round"/>
<path d="M153.18 177.302H143.309V184.694H153.18V177.302Z" stroke="#212121" stroke-miterlimit="10" stroke-linecap="round" stroke-linejoin="round"/>
<path d="M169.474 225.346V202.694H152.412V225.346H169.474Z" stroke="#212121" stroke-miterlimit="10" stroke-linecap="round" stroke-linejoin="round"/>
<path d="M168.373 223.884V204.156H153.514V223.884H168.373Z" stroke="#212121" stroke-miterlimit="10" stroke-linecap="round" stroke-linejoin="round"/>
<path d="M163.341 217.204V210.836H158.545V217.204H163.341Z" stroke="#212121" stroke-miterlimit="10" stroke-linecap="round" stroke-linejoin="round"/>
<path d="M144.261 225.346V202.694H127.199V225.346H144.261Z" stroke="#212121" stroke-miterlimit="10" stroke-linecap="round" stroke-linejoin="round"/>
<path d="M143.159 223.884V204.156H128.301V223.884H143.159Z" stroke="#212121" stroke-miterlimit="10" stroke-linecap="round" stroke-linejoin="round"/>
<path d="M138.128 217.204V210.836H133.332V217.204H138.128Z" stroke="#212121" stroke-miterlimit="10" stroke-linecap="round" stroke-linejoin="round"/>
<path d="M172.602 7.99407C172.602 7.99407 164.778 1.65735 163.64 4.34856C162.503 7.03977 167.778 9.90266 167.778 9.90266C167.778 9.90266 155.212 6.7789 154.057 9.18026C152.901 11.5816 156.691 13.9573 156.691 13.9573C156.691 13.9573 148.433 14.4858 148.571 16.6586C148.711 18.8314 150.07 19.6173 150.07 19.6173C150.07 19.6173 139.586 21.7422 140.333 24.313C141.078 26.8838 144.14 26.9786 144.14 26.9786C144.14 26.9786 136.705 30.8738 136.916 34.5684C137.056 37.0344 140.919 38.982 141.623 39.9408C141.623 39.9408 133.437 46.1381 139.131 51.01C144.824 55.8829 148.68 54.7636 148.68 54.7636C148.68 54.7636 144.964 58.0557 147.901 60.7782C150.839 63.4995 152.439 61.2152 152.439 61.2152C152.439 61.2152 152.047 66.4772 154.267 67.0625C156.487 67.6478 159.461 64.1115 159.461 64.1115C159.461 64.1115 159.892 68.5931 163.099 68.679C166.305 68.7648 167.778 66.7793 167.778 66.7793C167.778 66.7793 169.113 69.4583 170.697 69.2108C172.282 68.9644 173.231 67.8852 173.231 67.8852C173.231 67.8852 178.398 71.3368 183.259 70.0079C188.12 68.679 189.061 67.4549 189.061 67.4549C189.061 67.4549 194.379 68.7147 196.061 67.7347C197.745 66.7548 198.829 65.5207 198.829 65.5207C198.829 65.5207 200.996 67.5642 203.512 65.9488C206.027 64.3334 205.632 60.4303 205.632 60.4303C205.632 60.4303 208.524 62.427 209.824 60.0167C211.125 57.6064 210.443 56.049 210.443 56.049C210.443 56.049 215.615 57.3188 216.77 54.9175C217.925 52.5161 214.399 49.6867 214.399 49.6867C214.399 49.6867 217.272 51.3946 218.816 48.2407C220.36 45.0869 216.919 39.0523 216.919 39.0523C216.919 39.0523 220.605 39.8349 220.981 36.6108C221.357 33.3867 218.737 31.0812 218.737 31.0812C218.737 31.0812 222.794 30.8214 221.268 27.4279C219.741 24.0343 215.429 22.5639 215.429 22.5639C215.429 22.5639 217.651 18.6396 215.237 15.012C212.824 11.3843 203.425 12.2762 203.425 12.2762C203.425 12.2762 208.837 10.4757 205.629 8.06207C202.419 5.64845 193.983 7.93387 193.983 7.93387C193.983 7.93387 195.971 4.89706 191.606 4.88591C187.242 4.87364 185.17 6.60722 185.17 6.60722C185.17 6.60722 188.73 0.851326 184.084 1.00294C179.439 1.15456 175.011 6.96508 175.011 6.96508C175.011 6.96508 173.9 3.2538 172.816 4.4868C171.73 5.72204 172.602 7.99407 172.602 7.99407Z" fill="#212121" stroke="#212121" stroke-miterlimit="10" stroke-linecap="round" stroke-linejoin="round"/>
<path d="M170.874 64.6781C170.874 64.6781 170.535 77.3382 169.419 80.8566C168.303 84.375 160.739 87.7295 156.402 88.1888C152.065 88.6482 142.333 92.9091 142.426 102.908C142.52 112.907 147.745 137.199 151.068 144.264C154.393 151.327 154.723 153.246 154.291 158.61C153.86 163.973 146.852 173.717 144.073 184.304C137.328 209.998 136.34 239.309 149.479 263.393C153.72 271.168 152.762 279.032 152.721 287.496C152.691 293.614 153.737 304.292 158.066 316.22C162.395 328.149 166.304 356.194 166.877 360.78C167.45 365.367 164.584 368.806 163.628 370.336C162.673 371.864 159.424 375.305 155.602 377.025C151.781 378.745 149.678 380.083 151.971 381.229C154.265 382.375 179.204 380.75 179.681 381.229C180.158 381.707 181.401 380.082 180.254 374.158C179.107 368.235 180.063 356.578 180.063 356.578C180.063 356.578 179.88 331.514 180.514 311.999C181.147 292.483 179.994 277.794 179.562 275.894C179.129 273.993 178.468 234.44 180.257 229.804C182.047 225.169 182.584 216.552 182.584 216.552C182.584 216.552 191.653 219.754 202.13 225.594C212.608 231.435 244.848 243.393 252.856 242.609C260.863 241.825 262.391 227.256 249.369 211.923C236.348 196.591 213.654 184.191 212.644 182.115C211.634 180.039 211.15 168.964 208.305 162.539C205.459 156.115 205.635 155.537 205.509 150.761C205.383 145.985 218.784 123.311 218.551 110.687C218.318 98.064 215.715 92.2535 212.981 89.336C210.247 86.4185 196.33 84.1955 193.932 82.6258C191.534 81.0561 188.976 67.2589 188.253 65.085C187.529 62.91 170.874 64.6781 170.874 64.6781Z" fill="white" stroke="#212121" stroke-miterlimit="10" stroke-linecap="round" stroke-linejoin="round"/>
<path d="M183.26 70.0107L169.616 78.7265L170.874 64.6785L183.26 70.0107Z" fill="#212121" stroke="#212121" stroke-miterlimit="10" stroke-linecap="round" stroke-linejoin="round"/>
<path d="M215.825 123.958L199.246 84.8901C198.555 84.7362 197.894 84.5857 197.275 84.4397C198.024 87.9559 198.704 93.335 197.089 97.296C193.446 106.226 184.622 108.042 176.208 107.13C168.577 106.303 163.529 97.3941 164.203 86.015C163.268 86.4174 162.292 86.7775 161.325 87.0841C158.624 94.0016 149.462 114.715 147.777 121.26C146.877 124.758 146.263 127.595 145.858 129.682C147.748 135.914 149.727 141.411 151.069 144.263C152.175 146.612 152.943 148.387 153.468 149.914L205.938 148.53C207.44 143.569 212.585 133.476 215.825 123.958Z" fill="#76C757" stroke="#212121" stroke-miterlimit="10" stroke-linecap="round" stroke-linejoin="round"/>
<path d="M212.643 182.113C211.876 180.538 211.412 173.79 209.991 167.819C180.089 175.299 159.81 170.978 150.806 167.966C148.497 172.738 145.625 178.389 144.072 184.304C137.327 209.998 136.339 239.309 149.478 263.393C153.719 271.168 152.761 279.032 152.72 287.496C152.69 293.614 153.736 304.292 158.065 316.221C159.566 320.357 161.026 326.447 162.323 332.831L180.136 332.361C180.188 325.736 180.299 318.566 180.512 311.998C181.144 292.482 179.992 277.792 179.559 275.893C179.127 273.992 178.466 234.439 180.255 229.803C182.044 225.168 182.582 216.551 182.582 216.551C182.582 216.551 191.651 219.753 202.128 225.593C212.605 231.434 244.846 243.392 252.853 242.608C260.861 241.823 262.389 227.255 249.367 211.922C236.348 196.59 213.655 184.19 212.643 182.113Z" fill="#212121" stroke="#212121" stroke-miterlimit="10" stroke-linecap="round" stroke-linejoin="round"/>
<path d="M172.886 25.5556C172.886 25.5556 171.584 29.3472 169.224 33.5144C166.864 37.6828 162.396 40.2859 162.396 40.2859C162.396 40.2859 164.312 55.7676 165.249 58.334C166.789 62.5536 169.383 68.0018 172.76 70.9116C175.274 73.0777 180.643 75.9941 184.323 73.9551C191.704 69.8647 195.196 61.9862 196.019 53.8947C196.398 50.1623 195.9 37.5256 195.9 37.5256C195.9 37.5256 192.194 35.1365 191.153 33.3483C190.112 31.5601 189.745 30.6571 189.745 30.6571C189.745 30.6571 188.488 32.7463 187.207 32.0551C185.928 31.3639 180.328 23.5344 180.328 23.5344C180.328 23.5344 176.806 28.8578 175.173 29.889C173.538 30.9213 172.886 25.5556 172.886 25.5556Z" fill="white" stroke="#212121" stroke-miterlimit="10" stroke-linecap="round" stroke-linejoin="round"/>
<path d="M163.523 48.2465C163.523 48.2465 160.179 44.2889 158.972 47.1473C157.764 50.0058 159.817 53.1184 160.993 54.5889C162.168 56.0582 164.824 56.5064 164.824 56.5064L163.523 48.2465Z" fill="white" stroke="#212121" stroke-miterlimit="10" stroke-linecap="round" stroke-linejoin="round"/>
<path d="M196.328 45.7854C196.328 45.7854 198.8 41.8199 200.362 44.5011C201.924 47.1823 200.284 50.5312 199.305 52.1388C198.327 53.7464 196.13 54.5301 196.13 54.5301L196.328 45.7854Z" fill="white" stroke="#212121" stroke-miterlimit="10" stroke-linecap="round" stroke-linejoin="round"/>
<path d="M176.577 54.4851C176.577 54.4851 177.981 56.1757 180.297 56.3843C182.614 56.5928 184.092 54.9546 184.485 54.3357" stroke="#212121" stroke-miterlimit="10" stroke-linecap="round" stroke-linejoin="round"/>
<path d="M174.353 59.5937C174.353 59.5937 180.215 65.7294 187.542 58.7495" stroke="#212121" stroke-miterlimit="10" stroke-linecap="round" stroke-linejoin="round"/>
<path d="M174.457 46.0996C174.536 47.3404 174.071 48.3794 173.419 48.4207C172.767 48.4619 172.173 47.4909 172.094 46.2501C172.015 45.0093 172.479 43.9702 173.132 43.929C173.784 43.8878 174.378 44.8599 174.457 46.0996Z" fill="#212121"/>
<path d="M187.695 45.2534C187.774 46.4931 187.309 47.5332 186.657 47.5745C186.004 47.6157 185.411 46.6447 185.332 45.4039C185.252 44.1642 185.717 43.1241 186.369 43.0828C187.022 43.0416 187.615 44.0137 187.695 45.2534Z" fill="#212121"/>
<path d="M168.297 42.5785C168.297 42.5785 169.851 39.0367 175.622 40.211" stroke="#212121" stroke-miterlimit="10" stroke-linecap="round" stroke-linejoin="round"/>
<path d="M182.353 39.6614C182.353 39.6614 187.069 37.3418 190.347 40.3372" stroke="#212121" stroke-miterlimit="10" stroke-linecap="round" stroke-linejoin="round"/>
<path d="M157.608 88.8288C157.608 88.8288 146.745 87.7608 141.718 89.7553C136.693 91.7497 134.698 99.5903 134.28 102.987C133.862 106.384 115.627 135.436 115.312 137.048C114.999 138.66 112.805 143.351 118.219 145.882C123.631 148.412 129.621 145.759 131.668 142.319C133.716 138.878 145.541 116.618 145.541 116.618" fill="white"/>
<path d="M157.608 88.8288C157.608 88.8288 146.745 87.7608 141.718 89.7553C136.693 91.7497 134.698 99.5903 134.28 102.987C133.862 106.384 115.627 135.436 115.312 137.048C114.999 138.66 112.805 143.351 118.219 145.882C123.631 148.412 129.621 145.759 131.668 142.319C133.716 138.878 145.541 116.618 145.541 116.618" stroke="#212121" stroke-miterlimit="10" stroke-linecap="round" stroke-linejoin="round"/>
<path d="M203.044 87.6307C203.044 87.6307 213.836 85.9919 218.961 87.7188C224.086 89.4456 226.489 97.1703 227.087 100.54C227.683 103.911 247.412 131.961 247.811 133.554C248.21 135.147 250.647 139.717 245.375 142.528C240.103 145.341 233.982 143.007 231.756 139.68C229.53 136.353 215.191 115.299 215.191 115.299" fill="white"/>
<path d="M203.044 87.6307C203.044 87.6307 213.836 85.9919 218.961 87.7188C224.086 89.4456 226.489 97.1703 227.087 100.54C227.683 103.911 247.412 131.961 247.811 133.554C248.21 135.147 250.647 139.717 245.375 142.528C240.103 145.341 233.982 143.007 231.756 139.68C229.53 136.353 215.191 115.299 215.191 115.299" stroke="#212121" stroke-miterlimit="10" stroke-linecap="round" stroke-linejoin="round"/>
<path d="M126.3 136.047C126.3 136.047 132.053 137.812 145.057 139.486C152.781 140.479 172.103 137.878 172.103 137.878C172.103 137.878 174.287 134.756 174.634 132.466C175.945 123.791 177.433 121.87 177.98 117.408C178.935 109.595 180.117 110.579 180.355 112.89C180.594 115.2 180.317 131.429 180.547 133.383C180.777 135.338 181.639 141.147 181.138 142.408C180.636 143.669 180.831 146.924 176.392 147.212C174.614 147.328 172.636 147.481 172.636 147.481C172.636 147.481 147.888 150.447 139.344 150.85C130.801 151.254 119.806 153.326 115.138 152.023C110.471 150.721 112.865 140.144 114.922 137.06C116.979 133.976 119.81 133.188 119.81 133.188" fill="white"/>
<path d="M126.3 136.047C126.3 136.047 132.053 137.812 145.057 139.486C152.781 140.479 172.103 137.878 172.103 137.878C172.103 137.878 174.287 134.756 174.634 132.466C175.945 123.791 177.433 121.87 177.98 117.408C178.935 109.595 180.117 110.579 180.355 112.89C180.594 115.2 180.317 131.429 180.547 133.383C180.777 135.338 181.639 141.147 181.138 142.408C180.636 143.669 180.831 146.924 176.392 147.212C174.614 147.328 172.636 147.481 172.636 147.481C172.636 147.481 147.888 150.447 139.344 150.85C130.801 151.254 119.806 153.326 115.138 152.023C110.471 150.721 112.865 140.144 114.922 137.06C116.979 133.976 119.81 133.188 119.81 133.188" stroke="#212121" stroke-miterlimit="10" stroke-linecap="round" stroke-linejoin="round"/>
<path d="M235.54 133.166C235.54 133.166 229.889 135.233 216.99 137.588C209.33 138.987 189.897 137.409 189.897 137.409C189.897 137.409 187.552 134.405 187.086 132.137C185.319 123.544 183.731 121.704 182.952 117.276C181.586 109.525 180.458 110.57 180.341 112.89C180.224 115.21 181.356 131.401 181.23 133.364C181.104 135.327 180.548 141.175 181.116 142.408C181.683 143.64 181.66 146.902 186.108 146.955C187.89 146.976 189.873 147.026 189.873 147.026C189.873 147.026 214.744 148.683 223.296 148.636C231.849 148.589 242.937 150.079 247.529 148.532C252.122 146.985 249.173 136.548 246.956 133.577C244.74 130.606 241.871 129.97 241.871 129.97" fill="white"/>
<path d="M235.54 133.166C235.54 133.166 229.889 135.233 216.99 137.588C209.33 138.987 189.897 137.409 189.897 137.409C189.897 137.409 187.552 134.405 187.086 132.137C185.319 123.544 183.731 121.704 182.952 117.276C181.586 109.525 180.458 110.57 180.341 112.89C180.224 115.21 181.356 131.401 181.23 133.364C181.104 135.327 180.548 141.175 181.116 142.408C181.683 143.64 181.66 146.902 186.108 146.955C187.89 146.976 189.873 147.026 189.873 147.026C189.873 147.026 214.744 148.683 223.296 148.636C231.849 148.589 242.937 150.079 247.529 148.532C252.122 146.985 249.173 136.548 246.956 133.577C244.74 130.606 241.871 129.97 241.871 129.97" stroke="#212121" stroke-miterlimit="10" stroke-linecap="round" stroke-linejoin="round"/>
<path d="M245.676 229.419C245.676 229.419 201.695 232.381 195.091 232.556C188.487 232.73 180.829 230.929 178.064 232.404C175.299 233.879 174.81 238.098 175.895 241.273C176.979 244.448 177.865 247.629 176.78 252.063C175.695 256.498 175.2 260.516 176.307 264.492C177.413 268.469 179.125 272.629 181.521 272.365C183.917 272.102 183.053 269.722 183.416 268.31C183.78 266.898 185.391 259.646 187.081 255.397C188.771 251.147 190.246 246.301 193.384 243.816C196.523 241.33 223.43 244.024 238.94 247.421C254.45 250.817 263.824 249.369 267.563 246.867C271.303 244.365 271.934 237.94 264.692 229.119C257.45 220.298 249.367 211.924 249.367 211.924" fill="#212121"/>
<path d="M245.676 229.419C245.676 229.419 201.695 232.381 195.091 232.556C188.487 232.73 180.829 230.929 178.064 232.404C175.299 233.879 174.81 238.098 175.895 241.273C176.979 244.448 177.865 247.629 176.78 252.063C175.695 256.498 175.2 260.516 176.307 264.492C177.413 268.469 179.125 272.629 181.521 272.365C183.917 272.102 183.053 269.722 183.416 268.31C183.78 266.898 185.391 259.646 187.081 255.397C188.771 251.147 190.246 246.301 193.384 243.816C196.523 241.33 223.43 244.024 238.94 247.421C254.45 250.817 263.824 249.369 267.563 246.867C271.303 244.365 271.934 237.94 264.692 229.119C257.45 220.298 249.367 211.924 249.367 211.924" stroke="#212121" stroke-miterlimit="10" stroke-linecap="round" stroke-linejoin="round"/>
<path d="M211.796 231.625C204.02 232.109 197.357 232.497 195.093 232.556C188.488 232.73 180.83 230.929 178.066 232.404C175.301 233.879 174.811 238.098 175.896 241.273C176.981 244.448 177.866 247.63 176.781 252.063C175.697 256.498 175.202 260.516 176.309 264.493C177.415 268.468 179.127 272.629 181.523 272.366C183.919 272.102 183.055 269.722 183.418 268.31C183.781 266.898 185.392 259.646 187.082 255.397C188.773 251.147 190.247 246.301 193.386 243.816C194.999 242.537 202.901 242.631 212.301 243.483C211.655 239.8 211.655 235.157 211.796 231.625Z" fill="white" stroke="#212121" stroke-miterlimit="10" stroke-linecap="round" stroke-linejoin="round"/>
<path d="M289.888 138.9H282.07C281.272 138.9 280.53 138.492 280.103 137.82C278.391 135.133 274.192 128.153 274.788 125.23C275.589 121.301 286.491 114.228 286.491 114.228C286.491 114.228 296.475 121.193 297.19 124.897C297.768 127.888 293.57 135.055 291.867 137.803C291.444 138.486 290.694 138.9 289.888 138.9Z" stroke="#212121" stroke-miterlimit="10" stroke-linecap="round" stroke-linejoin="round"/>
<path d="M287.215 137.62L280.444 141.519C279.753 141.916 278.906 141.933 278.198 141.564C275.368 140.09 268.232 136.139 267.283 133.311C266.006 129.509 271.901 117.948 271.901 117.948C271.901 117.948 284.04 119.002 286.517 121.852C288.518 124.156 288.475 132.455 288.378 135.683C288.354 136.486 287.913 137.219 287.215 137.62Z" stroke="#212121" stroke-miterlimit="10" stroke-linecap="round" stroke-linejoin="round"/>
<path d="M284.258 137.844L280.349 144.596C279.949 145.286 279.224 145.721 278.427 145.755C275.236 145.889 267.076 146.025 264.835 144.049C261.823 141.393 261.131 128.442 261.131 128.442C261.131 128.442 272.172 123.303 275.747 124.537C278.635 125.534 282.76 132.743 284.294 135.587C284.676 136.294 284.661 137.149 284.258 137.844Z" stroke="#212121" stroke-miterlimit="10" stroke-linecap="round" stroke-linejoin="round"/>
<path d="M281.81 139.513V147.309C281.81 148.105 281.4 148.844 280.726 149.271C278.031 150.978 271.031 155.165 268.101 154.57C264.16 153.772 257.066 142.901 257.066 142.901C257.066 142.901 264.052 132.945 267.766 132.232C270.766 131.655 277.954 135.842 280.709 137.54C281.394 137.963 281.81 138.71 281.81 139.513Z" stroke="#212121" stroke-miterlimit="10" stroke-linecap="round" stroke-linejoin="round"/>
<path d="M280.525 142.179L284.435 148.93C284.834 149.62 284.85 150.464 284.48 151.17C283.002 153.991 279.039 161.108 276.204 162.054C272.391 163.327 260.796 157.449 260.796 157.449C260.796 157.449 261.853 145.345 264.713 142.874C267.023 140.88 275.346 140.922 278.584 141.019C279.388 141.043 280.123 141.483 280.525 142.179Z" stroke="#212121" stroke-miterlimit="10" stroke-linecap="round" stroke-linejoin="round"/>
<path d="M280.75 145.127L287.521 149.026C288.213 149.424 288.65 150.147 288.683 150.942C288.818 154.123 288.955 162.261 286.973 164.495C284.309 167.498 271.321 168.189 271.321 168.189C271.321 168.189 266.167 157.179 267.405 153.614C268.404 150.734 275.635 146.621 278.486 145.091C279.196 144.711 280.053 144.726 280.75 145.127Z" stroke="#212121" stroke-miterlimit="10" stroke-linecap="round" stroke-linejoin="round"/>
<path d="M282.423 147.569H290.242C291.04 147.569 291.781 147.977 292.209 148.649C293.921 151.336 298.12 158.316 297.524 161.239C296.723 165.168 285.821 172.241 285.821 172.241C285.821 172.241 275.837 165.276 275.122 161.572C274.544 158.581 278.742 151.414 280.445 148.666C280.869 147.983 281.618 147.569 282.423 147.569Z" stroke="#212121" stroke-miterlimit="10" stroke-linecap="round" stroke-linejoin="round"/>
<path d="M285.097 148.85L291.867 144.951C292.559 144.553 293.405 144.537 294.113 144.906C296.943 146.38 304.08 150.331 305.029 153.159C306.305 156.961 300.411 168.522 300.411 168.522C300.411 168.522 288.272 167.468 285.794 164.617C283.794 162.314 283.836 154.014 283.933 150.786C283.958 149.983 284.399 149.251 285.097 148.85Z" stroke="#212121" stroke-miterlimit="10" stroke-linecap="round" stroke-linejoin="round"/>
<path d="M288.055 148.625L291.964 141.874C292.363 141.184 293.089 140.748 293.886 140.715C297.076 140.58 305.237 140.444 307.478 142.42C310.489 145.077 311.182 158.027 311.182 158.027C311.182 158.027 300.14 163.167 296.566 161.932C293.678 160.935 289.553 153.726 288.018 150.883C287.637 150.175 287.652 149.321 288.055 148.625Z" stroke="#212121" stroke-miterlimit="10" stroke-linecap="round" stroke-linejoin="round"/>
<path d="M290.503 146.957V139.16C290.503 138.364 290.912 137.625 291.586 137.199C294.281 135.491 301.281 131.305 304.212 131.899C308.152 132.698 315.246 143.568 315.246 143.568C315.246 143.568 308.261 153.524 304.547 154.237C301.546 154.814 294.359 150.627 291.603 148.929C290.918 148.507 290.503 147.76 290.503 146.957Z" stroke="#212121" stroke-miterlimit="10" stroke-linecap="round" stroke-linejoin="round"/>
<path d="M291.787 144.291L287.877 137.539C287.478 136.85 287.462 136.006 287.832 135.3C289.31 132.478 293.273 125.362 296.109 124.415C299.921 123.142 311.516 129.02 311.516 129.02C311.516 129.02 310.459 141.125 307.6 143.595C305.29 145.59 296.966 145.548 293.729 145.451C292.924 145.426 292.19 144.986 291.787 144.291Z" stroke="#212121" stroke-miterlimit="10" stroke-linecap="round" stroke-linejoin="round"/>
<path d="M291.562 141.342L284.791 137.443C284.1 137.046 283.662 136.322 283.629 135.527C283.494 132.347 283.357 124.208 285.339 121.974C288.003 118.971 300.991 118.281 300.991 118.281C300.991 118.281 306.145 129.29 304.907 132.855C303.907 135.735 296.677 139.848 293.826 141.378C293.116 141.758 292.26 141.743 291.562 141.342Z" stroke="#212121" stroke-miterlimit="10" stroke-linecap="round" stroke-linejoin="round"/>
<path d="M286.156 179.518C306.252 179.518 322.543 163.273 322.543 143.234C322.543 123.196 306.252 106.951 286.156 106.951C266.061 106.951 249.77 123.196 249.77 143.234C249.77 163.273 266.061 179.518 286.156 179.518Z" stroke="#212121" stroke-miterlimit="10" stroke-linecap="round" stroke-linejoin="round"/>
<path d="M286.491 114.228V106.951" stroke="#212121" stroke-miterlimit="10" stroke-linecap="round" stroke-linejoin="round"/>
<path d="M285.822 172.241V179.518" stroke="#212121" stroke-miterlimit="10" stroke-linecap="round" stroke-linejoin="round"/>
<path d="M315.246 143.568H322.543" stroke="#212121" stroke-miterlimit="10" stroke-linecap="round" stroke-linejoin="round"/>
<path d="M257.067 142.901H249.77" stroke="#212121" stroke-miterlimit="10" stroke-linecap="round" stroke-linejoin="round"/>
<path d="M268.113 125.312L260.711 117.93" stroke="#212121" stroke-miterlimit="10" stroke-linecap="round" stroke-linejoin="round"/>
<path d="M303.778 161.323L311.854 169.374" stroke="#212121" stroke-miterlimit="10" stroke-linecap="round" stroke-linejoin="round"/>
<path d="M304.003 126.207L312.078 118.154" stroke="#212121" stroke-miterlimit="10" stroke-linecap="round" stroke-linejoin="round"/>
<path d="M268.113 160.875L260.263 168.704" stroke="#212121" stroke-miterlimit="10" stroke-linecap="round" stroke-linejoin="round"/>
</svg>
