<svg width="430" height="288" viewBox="0 0 430 288" fill="none" xmlns="http://www.w3.org/2000/svg">
<path d="M259.139 28.3138C253.457 27.1336 247.776 26.2996 242.147 25.9113C216.363 24.1332 191.024 30.8229 168.466 43.2495C145.852 55.7072 124.797 71.1838 105.424 88.2524C100.608 92.4958 95.8836 96.8532 91.3537 101.405C66.5106 126.362 -0.857777 167.818 7.56334 202.504C15.9845 237.191 57.2478 265.11 95.5631 272.301C133.879 279.492 165.037 253.265 217.247 253.265C269.458 253.265 313.248 273.57 350.721 267.225C388.195 260.88 413.458 229.577 414.721 182.199C415.401 156.722 410.027 130.516 396.72 108.599C383.278 86.4581 361.218 71.3589 338.717 59.6367C314.978 47.2694 289.129 35.2921 263.023 29.1732C261.732 28.8708 260.438 28.5834 259.139 28.3138Z" fill="#76C757"/>
<path opacity="0.7" d="M259.139 28.3138C253.457 27.1336 247.776 26.2996 242.147 25.9113C216.363 24.1332 191.024 30.8229 168.466 43.2495C145.852 55.7072 124.797 71.1838 105.424 88.2524C100.608 92.4958 95.8836 96.8532 91.3537 101.405C66.5106 126.362 -0.857777 167.818 7.56334 202.504C15.9845 237.191 57.2478 265.11 95.5631 272.301C133.879 279.492 165.037 253.265 217.247 253.265C269.458 253.265 313.248 273.57 350.721 267.225C388.195 260.88 413.458 229.577 414.721 182.199C415.401 156.722 410.027 130.516 396.72 108.599C383.278 86.4581 361.218 71.3589 338.717 59.6367C314.978 47.2694 289.129 35.2921 263.023 29.1732C261.732 28.8708 260.438 28.5834 259.139 28.3138Z" fill="white"/>
<path d="M417.54 237.977H21.6997" stroke="black" stroke-miterlimit="10"/>
<path d="M58.3024 140.708L58.3041 140.704C58.3185 140.666 58.3013 140.624 58.2646 140.608C58.2267 140.592 58.1832 140.609 58.1671 140.647C55.9214 145.857 54.3424 151.326 53.0243 156.843C51.7521 162.375 50.8307 167.988 50.1869 173.634L49.785 177.878C49.7231 178.586 49.6462 179.293 49.5958 180.002L49.4805 182.131C49.4198 183.551 49.3332 184.971 49.2925 186.392L49.3309 190.658L49.3779 192.79C49.4094 193.499 49.4599 194.209 49.5081 194.918C49.6153 196.335 49.7013 197.754 49.8303 199.168C50.1009 201.995 50.524 204.808 50.9592 207.608C50.9649 207.643 50.9959 207.671 51.0331 207.671C51.0738 207.671 51.1071 207.637 51.1071 207.596V207.592C51.0996 206.171 51.04 204.757 51.0079 203.342C50.9672 201.928 50.8445 200.521 50.8646 199.107C50.8709 197.694 50.8342 196.284 50.8187 194.874L50.7797 192.76L50.817 190.645L50.8359 186.419L50.95 182.195L50.9936 180.081C51.0205 179.377 51.0727 178.675 51.1117 177.971L51.3697 173.75C51.8616 168.132 52.6299 162.535 53.7501 157.003C54.867 151.477 56.2499 145.971 58.3024 140.708Z" fill="#ABABAB"/>
<path d="M58.905 162.808C58.9159 162.77 58.8958 162.728 58.8585 162.714C58.8195 162.701 58.7771 162.721 58.7639 162.76C57.5531 166.272 56.587 169.864 55.7694 173.494C54.9885 177.13 54.3756 180.813 54.0018 184.525C53.628 188.224 53.2164 191.926 53.1659 195.645C53.1091 199.362 53.1682 203.083 53.5592 206.796C53.5632 206.83 53.5902 206.859 53.6257 206.863C53.667 206.868 53.7037 206.838 53.7077 206.796C54.1354 203.094 54.3963 199.4 54.6514 195.709C54.9123 192.018 54.9472 188.317 55.1869 184.625C55.4088 180.945 55.8686 177.28 56.4993 173.638C57.1167 169.995 57.8873 166.367 58.905 162.808Z" fill="#ABABAB"/>
<path d="M71.0997 170.582C71.0774 170.547 71.0321 170.536 70.9971 170.559C67.9447 172.501 65.2219 174.946 62.8432 177.701C61.6736 179.1 60.5865 180.563 59.6548 182.155L58.9995 183.398L58.487 184.688C58.3024 185.116 58.1728 185.557 58.0392 185.997C57.9073 186.437 57.76 186.875 57.6419 187.319C56.7263 190.87 56.1191 194.488 55.9551 198.125C55.8078 201.76 55.8766 205.401 56.3599 209.01C56.3651 209.044 56.3932 209.072 56.4287 209.074C56.47 209.077 56.5055 209.046 56.5084 209.005L57.4378 198.23C57.8081 194.668 58.0352 191.085 58.7966 187.607C58.8935 187.174 59.0173 186.75 59.1268 186.32C59.2375 185.891 59.3447 185.46 59.5029 185.051L59.9381 183.806L60.4982 182.63C61.3238 181.073 62.334 179.584 63.4199 178.173C65.5974 175.349 68.1597 172.776 71.0762 170.686L71.0802 170.683C71.1123 170.66 71.1209 170.615 71.0997 170.582Z" fill="#ABABAB"/>
<path d="M65.1978 184.424C63.5357 185.502 62.4246 187.197 61.4895 188.903C60.5985 190.646 59.8968 192.493 59.4117 194.389C59.2655 194.859 59.1503 195.334 59.0494 195.812L58.7128 197.245C58.5414 198.207 58.4073 199.179 58.3528 200.154C58.3402 201.132 58.3121 202.108 58.378 203.083C58.4589 204.057 58.5689 205.029 58.7604 205.993C58.7673 206.02 58.7902 206.046 58.8201 206.053C58.8613 206.061 58.9015 206.034 58.9095 205.993C59.1446 205.031 59.2982 204.079 59.4232 203.128C59.574 202.179 59.7208 201.237 59.8337 200.294C59.9713 199.354 60.0951 198.418 60.168 197.471C60.2987 196.537 60.3675 195.582 60.571 194.659C60.8972 192.791 61.435 190.968 62.1614 189.224C62.885 187.495 63.8264 185.771 65.2746 184.553L65.2861 184.543C65.3142 184.519 65.3211 184.478 65.301 184.446C65.2775 184.412 65.2316 184.402 65.1978 184.424Z" fill="#ABABAB"/>
<path d="M48.0949 195.217C47.6936 190.434 46.9087 185.698 46.1668 180.965C45.4221 176.232 44.6016 171.513 43.7393 166.802C42.8466 162.097 41.9138 157.401 40.9042 152.721C40.8956 152.683 40.8578 152.656 40.8182 152.664C40.7781 152.671 40.7511 152.71 40.7586 152.751C41.5733 157.466 42.3106 162.194 43.0066 166.927C43.721 171.656 44.3935 176.391 44.9898 181.134C45.5717 185.88 46.0252 190.636 46.6169 195.373L48.3587 209.612C48.3627 209.648 48.3925 209.677 48.4292 209.678C48.4705 209.68 48.5049 209.648 48.5072 209.607C48.5616 208.407 48.5634 207.207 48.5926 206.005C48.6035 204.803 48.5439 203.606 48.5226 202.404C48.4785 200.001 48.2744 197.61 48.0949 195.217Z" fill="#ABABAB"/>
<path d="M45.2401 195.148C44.9855 193.254 44.6387 191.37 44.2792 189.493L43.6107 186.701C43.3917 185.77 43.1841 184.837 42.9129 183.917C41.9629 180.212 40.7492 176.57 39.274 173.04L38.7029 171.724L38.0682 170.436C37.6646 169.569 37.1767 168.743 36.714 167.908C35.7187 166.279 34.6856 164.651 33.2775 163.33C33.2488 163.304 33.2041 163.304 33.1754 163.331C33.1462 163.36 33.145 163.407 33.1737 163.437L33.1812 163.444C34.4826 164.799 35.4309 166.472 36.3247 168.125C36.7387 168.976 37.1761 169.812 37.5305 170.69L38.0895 171.992L38.5854 173.321C39.9046 176.861 40.9624 180.501 41.7576 184.201C42.1917 186.042 42.4789 187.917 42.8338 189.772L43.2793 192.576C43.4404 193.508 43.6393 194.433 43.7695 195.372C44.0665 197.241 44.4087 199.107 44.7338 200.978C45.0222 202.854 45.3633 204.727 45.7572 206.601C45.7641 206.635 45.7945 206.663 45.8306 206.663C45.8719 206.663 45.9051 206.63 45.9057 206.589C45.9137 204.678 45.8696 202.766 45.7727 200.856C45.6626 198.949 45.4379 197.05 45.2401 195.148Z" fill="#ABABAB"/>
<path d="M41.3001 195.392C40.4177 192.882 39.3972 190.426 38.2849 188.017C37.1434 185.621 35.9113 183.271 34.4929 181.033C34.4711 181.001 34.4264 180.988 34.3926 181.009C34.357 181.03 34.3456 181.075 34.3662 181.111C35.6052 183.436 36.6526 185.861 37.6027 188.313C38.5693 190.76 39.4402 193.242 40.17 195.764C40.9148 198.283 41.448 200.851 42.1154 203.382C42.8166 205.91 43.3841 208.465 44.1581 211.026C44.1673 211.056 44.196 211.08 44.2298 211.081C44.2711 211.082 44.3049 211.048 44.3055 211.007C44.3428 208.335 44.0819 205.665 43.5648 203.049C43.0981 200.418 42.1773 197.9 41.3001 195.392Z" fill="#ABABAB"/>
<path d="M41.1368 203.752C40.6856 202.181 39.9156 200.716 39.0407 199.337C38.1818 197.951 37.1848 196.64 35.99 195.529C35.3748 194.993 34.7453 194.478 34.0498 194.059C33.3647 193.629 32.6377 193.265 31.8488 193.06C31.8144 193.05 31.7777 193.068 31.7628 193.101C31.7462 193.139 31.7628 193.182 31.8006 193.2L31.8098 193.204C33.2362 193.841 34.4414 194.897 35.4608 196.053C36.4934 197.211 37.3172 198.539 38.0041 199.922C38.7265 201.296 39.0997 202.815 39.7281 204.23C40.005 204.956 40.2808 205.686 40.6013 206.411C40.8731 207.15 41.1746 207.888 41.5582 208.621L41.5605 208.625C41.5725 208.648 41.5966 208.665 41.6247 208.666C41.6671 208.668 41.7027 208.635 41.7044 208.592C41.7382 207.774 41.6906 206.96 41.6138 206.148C41.4968 205.342 41.3277 204.545 41.1368 203.752Z" fill="#ABABAB"/>
<path d="M41.4312 159.569C41.4312 159.569 33.6299 157.76 31.8296 149.319C30.0293 140.879 35.8303 144.496 30.6296 131.232C25.4283 117.968 26.6289 114.954 28.4292 111.136C30.2294 107.318 31.2299 108.523 32.8301 113.548C34.4302 118.571 40.2312 126.41 42.4317 141.08C44.6316 155.75 41.4312 159.569 41.4312 159.569Z" fill="#76C757"/>
<path d="M56.8339 145.3C56.8339 145.3 51.6326 143.491 51.4325 133.644C51.2325 123.797 55.2332 125.807 55.8335 113.548C56.4337 101.288 57.2335 92.6468 59.434 92.4457C61.6344 92.2447 67.4354 98.4747 69.4358 112.14C71.4361 125.806 66.8351 134.85 62.8344 138.869C58.8343 142.888 56.8339 145.3 56.8339 145.3Z" fill="#76C757"/>
<path d="M38.6304 171.426C38.6304 171.426 37.4304 164.191 35.0299 160.774C32.6294 157.358 27.4286 154.343 24.0276 147.711C20.6272 141.079 16.8266 137.864 17.0261 147.309C17.2262 156.754 21.427 161.578 26.6277 164.793C31.829 168.009 38.6304 171.426 38.6304 171.426Z" fill="#76C757"/>
<path d="M36.4301 183.886C36.4301 183.886 31.629 174.642 24.628 167.808C17.6265 160.975 12.0256 157.559 14.0259 160.975C16.0263 164.392 18.4268 164.191 21.8273 170.22C25.2277 176.249 24.2278 180.67 29.0289 184.086C33.8294 187.504 36.4301 183.886 36.4301 183.886Z" fill="#76C757"/>
<path d="M35.83 195.743C35.6299 195.14 35.4298 190.719 28.629 187.102C21.8275 183.484 15.4262 184.891 16.2266 186.7C17.027 188.508 21.2272 191.523 25.428 193.332C29.6289 195.14 35.83 195.743 35.83 195.743Z" fill="#76C757"/>
<path d="M56.4344 171.828C56.4344 171.828 53.4336 168.009 55.0338 159.971C56.6339 151.932 60.2345 153.942 64.2358 149.721C68.2365 145.501 67.4361 144.898 71.4368 140.477C75.4376 136.056 79.0381 133.644 80.6383 135.453C82.2384 137.261 79.8385 142.889 77.4379 146.104C75.0374 149.32 71.2367 150.928 69.4365 154.947C67.6362 158.966 68.4366 165.397 63.8356 168.412C59.2346 171.426 56.4344 171.828 56.4344 171.828Z" fill="#76C757"/>
<path d="M66.4355 174.038C66.4355 174.038 73.6372 165.799 78.8379 159.77C84.0386 153.741 86.039 149.118 86.2391 153.138C86.4392 157.157 88.0393 160.373 83.8385 165.598C79.6383 170.823 66.4355 174.038 66.4355 174.038Z" fill="#76C757"/>
<path d="M62.635 187.303C62.635 187.303 62.4349 184.087 73.8374 176.651C85.2392 169.216 90.0403 167.808 88.8403 170.823C87.6404 173.837 82.6392 176.852 77.2384 182.278C71.837 187.704 62.635 187.303 62.635 187.303Z" fill="#76C757"/>
<path d="M41.9071 158.712C41.9071 158.712 39.2308 144.295 36.4306 134.046C33.6299 123.796 31.8296 117.566 31.8296 117.566" stroke="#ABABAB" stroke-miterlimit="10" stroke-linecap="round" stroke-linejoin="round"/>
<path d="M56.3735 145.452C56.3735 145.452 61.2348 129.825 62.8356 120.38C64.4358 110.935 62.6355 103.901 61.8351 99.6803" stroke="#ABABAB" stroke-miterlimit="10" stroke-linecap="round" stroke-linejoin="round"/>
<path d="M38.0001 171.124C38.0001 171.124 35.0303 165.799 30.6293 160.574C26.2284 155.348 22.828 152.535 20.8276 147.511" stroke="#ABABAB" stroke-miterlimit="10" stroke-linecap="round" stroke-linejoin="round"/>
<path d="M56.4341 171.828C56.4341 171.828 58.0343 162.182 61.8349 157.157C65.6355 152.133 73.2368 144.296 76.2376 139.271" stroke="#ABABAB" stroke-miterlimit="10" stroke-linecap="round" stroke-linejoin="round"/>
<path d="M35.3602 195.524C35.3602 195.524 28.6286 191.121 23.8281 188.709" stroke="#ABABAB" stroke-miterlimit="10" stroke-linecap="round" stroke-linejoin="round"/>
<path d="M54.9363 238.147H46.1299C44.571 238.147 43.1629 237.209 42.5627 235.764C39.6862 228.838 32.0036 208.847 36.6304 203.179C41.0382 197.779 60.0281 197.779 64.4359 203.179C69.0627 208.847 61.38 228.838 58.503 235.764C57.9028 237.209 56.4947 238.147 54.9363 238.147Z" fill="#ABABAB"/>
<g opacity="0.3">
<path d="M365.64 45.1555H315.799V107.229H365.64V45.1555Z" stroke="black" stroke-miterlimit="10"/>
<path d="M353.333 60.4817H328.105V91.9025H353.333V60.4817Z" fill="black" stroke="black" stroke-miterlimit="10"/>
</g>
<g opacity="0.3">
<path d="M234.638 157.071H313.646V154.079H234.638V157.071Z" stroke="black" stroke-miterlimit="10" stroke-linecap="round" stroke-linejoin="round"/>
<path d="M238.302 237.977H309.98V157.156H238.302V237.977Z" stroke="black" stroke-miterlimit="10" stroke-linecap="round" stroke-linejoin="round"/>
<path d="M240.881 178.453H307.486V160.916H240.881V178.453Z" stroke="black" stroke-miterlimit="10" stroke-linecap="round" stroke-linejoin="round"/>
<path d="M270.968 171.299H277.628V168.069H270.968V171.299Z" fill="#212121" stroke="black" stroke-miterlimit="10" stroke-linecap="round" stroke-linejoin="round"/>
<path d="M240.881 200.604H307.486V183.067H240.881V200.604Z" stroke="black" stroke-miterlimit="10" stroke-linecap="round" stroke-linejoin="round"/>
<path d="M270.968 193.451H277.628V190.221H270.968V193.451Z" fill="#212121" stroke="black" stroke-miterlimit="10" stroke-linecap="round" stroke-linejoin="round"/>
<path d="M240.881 222.857H307.486V205.321H240.881V222.857Z" stroke="black" stroke-miterlimit="10" stroke-linecap="round" stroke-linejoin="round"/>
<path d="M270.968 215.704H277.628V212.474H270.968V215.704Z" fill="#212121" stroke="black" stroke-miterlimit="10" stroke-linecap="round" stroke-linejoin="round"/>
</g>
<g opacity="0.3">
<path d="M276.138 127.387V126.571H270.393V127.387C270.393 131.504 268.648 135.375 265.744 138.28C264.092 139.931 263.084 142.128 263.084 144.54C263.084 149.672 267.642 153.833 273.265 153.833C278.888 153.833 283.446 149.673 283.446 144.54C283.446 142.128 282.438 139.931 280.787 138.28C277.883 135.375 276.138 131.504 276.138 127.387Z" fill="black" stroke="black" stroke-miterlimit="10"/>
<path d="M294.816 87.51H252.141V126.556H294.816V87.51Z" stroke="black" stroke-miterlimit="10"/>
</g>
<path d="M127.458 271.993H415.357L391.366 241.784H151.449L127.458 271.993Z" fill="#ABABAB"/>
<path d="M176.43 51.7962V231.217C176.43 236.142 172.456 240.133 167.554 240.133H90.3875C85.4855 240.133 81.5117 236.141 81.5117 231.216V51.7916C81.5117 46.8697 85.4832 42.8792 90.3829 42.8792H123.505L123.532 42.9811C124.358 45.9654 126.259 47.9071 128.366 47.9071H129.575C131.683 47.9071 133.583 45.9654 134.409 42.9811L134.441 42.8792H167.554C172.456 42.8792 176.43 46.8714 176.43 51.7962Z" fill="white" stroke="#212121" stroke-miterlimit="10" stroke-linecap="round" stroke-linejoin="round"/>
<path d="M182.466 94.6494V76.7289H180.852V53.7868C180.852 45.9763 174.55 39.6449 166.776 39.6449H91.1662C83.3924 39.6449 77.0903 45.9763 77.0903 53.7868V236.093C77.0903 243.903 83.3924 250.235 91.1662 250.235H166.776C174.55 250.235 180.853 243.903 180.853 236.093V109.922H182.466V99.3329H180.853V94.6494H182.466ZM176.43 225.99C176.43 233.803 170.125 240.133 162.352 240.133H95.5895C87.8174 240.133 81.5119 233.803 81.5119 225.99V57.0176C81.5119 49.2094 87.8174 42.8791 95.5895 42.8791H123.505L123.533 42.9811C124.358 45.9653 126.259 47.907 128.366 47.907H129.575C131.683 47.907 133.583 45.9653 134.409 42.9811L134.441 42.8791H162.352C170.124 42.8791 176.43 49.2094 176.43 57.0176L176.43 225.99Z" fill="#76C757" stroke="#212121" stroke-miterlimit="10" stroke-linecap="round" stroke-linejoin="round"/>
<path d="M165.647 41.5929H92.2951C84.7976 41.5929 78.7197 47.6991 78.7197 55.232V234.647C78.7197 242.18 84.7976 248.286 92.2951 248.286H165.647C173.144 248.286 179.222 242.18 179.222 234.647V55.232C179.223 47.6991 173.144 41.5929 165.647 41.5929ZM176.43 226.493C176.43 234.026 170.352 240.133 162.853 240.133H95.089C87.5903 240.133 81.5119 234.026 81.5119 226.493V56.5148C81.5119 48.9841 87.5886 42.8791 95.0844 42.8791H123.505L123.533 42.9811C124.358 45.9653 126.259 47.907 128.366 47.907H129.575C131.683 47.907 133.583 45.9653 134.409 42.9811L134.441 42.8791H162.852C170.351 42.8791 176.429 48.9859 176.429 56.5194L176.43 226.493Z" fill="#212121" stroke="#212121" stroke-miterlimit="10" stroke-linecap="round" stroke-linejoin="round"/>
<path d="M130.002 43.5553C130.002 42.8221 129.411 42.2277 128.681 42.2277C127.951 42.2277 127.359 42.8221 127.359 43.5553C127.359 44.2886 127.951 44.883 128.681 44.883C129.411 44.883 130.002 44.2886 130.002 43.5553Z" fill="white"/>
<path d="M89.9483 48.6425C89.9483 49.9858 88.4468 50.4696 88.4405 51.4943V51.564H89.8979V52.0162H87.9531V51.6343C87.9531 50.196 89.4547 49.9155 89.4547 48.6615C89.4547 48.2036 89.3022 47.9617 88.9352 47.9617C88.574 47.9617 88.4158 48.2226 88.4158 48.6172V49.0117H87.9537V48.6489C87.9537 47.9675 88.2639 47.5159 88.9479 47.5159C89.6382 47.5159 89.9483 47.9617 89.9483 48.6425Z" fill="#212121"/>
<path d="M92.3761 48.6362V48.7508C92.3761 49.2093 92.1926 49.5342 91.8377 49.6678C92.2109 49.8078 92.3761 50.1453 92.3761 50.5906V50.9344C92.3761 51.6153 92.0596 52.0611 91.375 52.0611C90.6973 52.0611 90.3809 51.6153 90.3809 50.9344V50.6286H90.843V50.9661C90.843 51.367 91.0075 51.6089 91.3624 51.6089C91.7236 51.6089 91.8818 51.3733 91.8818 50.9218V50.5779C91.8818 50.1384 91.6978 49.9287 91.324 49.9161H91.058V49.4702H91.3492C91.6789 49.4576 91.8818 49.2473 91.8818 48.8591V48.6552C91.8818 48.1967 91.723 47.9617 91.3624 47.9617C91.0075 47.9617 90.843 48.2099 90.843 48.6108V48.8401H90.3809V48.6362C90.3809 47.9548 90.6973 47.5159 91.375 47.5159C92.0596 47.5159 92.3761 47.9554 92.3761 48.6362Z" fill="#212121"/>
<path d="M93.3332 48.9738V49.5912H92.8579V48.9738H93.3332ZM93.3332 51.3987V52.0162H92.8579V51.3987H93.3332Z" fill="#212121"/>
<path d="M94.3348 49.3753C94.4741 49.1334 94.696 49.0061 94.9942 49.0061C95.5646 49.0061 95.8175 49.426 95.8175 50.0625V50.9345C95.8175 51.6154 95.4947 52.0612 94.817 52.0612C94.1387 52.0612 93.8223 51.6154 93.8223 50.9345V50.6356H94.2844V50.9662C94.2844 51.3671 94.4489 51.609 94.8038 51.609C95.1587 51.609 95.3233 51.3671 95.3233 50.9662V50.1005C95.3233 49.6996 95.1587 49.4577 94.8038 49.4577C94.5315 49.4577 94.3474 49.6103 94.3033 49.9352V50.0371H93.8412L93.9616 47.5609H95.7103V48.0067H94.4048L94.3348 49.3753Z" fill="#212121"/>
<path d="M98.2827 48.6299V48.7128H97.8206V48.5982C97.8206 48.1973 97.6561 47.9617 97.2949 47.9617C96.9211 47.9617 96.7559 48.2036 96.7559 48.6811V49.6805C96.8763 49.3752 97.1171 49.203 97.472 49.203C98.0425 49.203 98.2959 49.6172 98.2959 50.26V50.935C98.2959 51.6159 97.9594 52.0617 97.2817 52.0617C96.5971 52.0617 96.2617 51.6159 96.2617 50.935V48.6621C96.2617 47.9554 96.5788 47.5165 97.2817 47.5165C97.9657 47.5159 98.2827 47.9491 98.2827 48.6299ZM96.7554 50.298V50.9661C96.7554 51.367 96.9199 51.609 97.2811 51.609C97.636 51.609 97.8068 51.367 97.8068 50.9661V50.298C97.8068 49.8971 97.636 49.6552 97.2811 49.6552C96.9205 49.6552 96.7554 49.8965 96.7554 50.298Z" fill="#212121"/>
<path d="M146.702 48.8263H145.45V51.9718H146.702V48.8263Z" fill="#212121"/>
<path d="M148.372 48.1962H147.12V51.9718H148.372V48.1962Z" fill="#212121"/>
<path d="M150.041 47.7487H148.789V51.9713H150.041V47.7487Z" fill="#212121"/>
<path d="M151.712 46.9705H150.459V51.9713H151.712V46.9705Z" fill="#212121"/>
<path d="M167.209 51.8849H159.695V47.2717H167.209V51.8849ZM160.113 51.4656H166.792V47.6911H160.113V51.4656Z" fill="#212121"/>
<path d="M164.705 48.1478H160.739V51.0094H164.705V48.1478Z" fill="#212121"/>
<path d="M167.893 49.0349H166.948V50.1218H167.893V49.0349Z" fill="#212121"/>
<path d="M156.94 50.8815C156.891 50.8815 156.841 50.8689 156.796 50.8418C155.267 49.9288 154.256 50.7761 154.214 50.8119C154.097 50.9138 153.921 50.9006 153.819 50.7836C153.718 50.6661 153.729 50.4899 153.845 50.3879C153.9 50.3401 155.192 49.2279 157.084 50.3574C157.217 50.4369 157.261 50.6103 157.181 50.7439C157.129 50.8326 157.036 50.8815 156.94 50.8815Z" fill="#212121"/>
<path d="M157.506 49.9339C157.457 49.9339 157.407 49.9213 157.362 49.8942C155.151 48.5734 153.665 49.851 153.649 49.8631C153.533 49.9668 153.357 49.9547 153.254 49.8378C153.151 49.7208 153.162 49.5428 153.279 49.4403C153.297 49.4236 155.09 47.8817 157.649 49.4092C157.782 49.4887 157.826 49.6621 157.747 49.7957C157.694 49.885 157.601 49.9339 157.506 49.9339Z" fill="#212121"/>
<path d="M158.019 48.8361C157.971 48.8361 157.921 48.8234 157.875 48.7964C155.075 47.1237 153.214 48.6984 153.136 48.767C153.019 48.8689 152.841 48.8563 152.74 48.7393C152.638 48.6224 152.649 48.445 152.766 48.3431C152.788 48.3229 155 46.4227 158.163 48.3119C158.296 48.3914 158.34 48.5648 158.26 48.6984C158.207 48.7871 158.114 48.8361 158.019 48.8361Z" fill="#212121"/>
<path d="M156.095 51.3538C156.095 51.7443 155.78 52.0611 155.391 52.0611C155.002 52.0611 154.687 51.7443 154.687 51.3538C154.687 50.9633 155.002 50.6465 155.391 50.6465C155.78 50.6465 156.095 50.9633 156.095 51.3538Z" fill="#212121"/>
<path d="M128.802 159.344C107.19 159.344 89.6074 141.679 89.6074 119.967C89.6074 98.254 107.19 80.5898 128.802 80.5898C150.414 80.5898 167.997 98.2546 167.997 119.967C167.997 141.679 150.415 159.344 128.802 159.344ZM128.802 88.276C111.409 88.276 97.258 102.493 97.258 119.967C97.258 137.441 111.408 151.657 128.802 151.657C146.196 151.657 160.346 137.441 160.346 119.967C160.346 102.493 146.196 88.276 128.802 88.276Z" fill="#E8E8E8"/>
<path d="M130.316 84.7619C130.303 86.7076 131.689 88.4102 133.604 88.7063C149.115 91.1076 160.866 104.959 160.03 121.399C159.211 137.506 146.089 150.515 130.049 151.141C112.211 151.838 97.5325 137.516 97.5325 119.75C97.5325 113.371 99.4274 107.437 102.68 102.482C103.794 100.785 103.438 98.5156 101.872 97.2294C100.047 95.7312 97.337 96.1569 96.0413 98.1337C91.6668 104.81 89.2582 112.902 89.6498 121.58C90.5596 141.756 106.822 158.129 126.902 159.081C149.412 160.148 167.995 142.13 167.995 119.75C167.995 100.082 153.638 83.789 134.88 80.8548C132.493 80.4816 130.333 82.3346 130.316 84.7619Z" fill="#76C757"/>
<path d="M161.854 111.871C161.419 111.347 160.638 111.083 159.949 110.849C159.653 110.749 159.373 110.654 159.174 110.553C158.998 110.465 158.769 110.255 158.526 110.032C157.933 109.488 157.199 108.823 156.28 108.938C156.246 108.942 156.213 108.94 156.178 108.946C156.175 108.947 156.172 108.949 156.168 108.949C156.074 108.968 155.986 108.996 155.9 109.03C155.872 109.041 155.845 109.056 155.817 109.069C155.754 109.098 155.693 109.131 155.634 109.168C155.606 109.185 155.578 109.203 155.55 109.223C155.481 109.273 155.415 109.327 155.352 109.385C155.339 109.397 155.326 109.407 155.313 109.419C155.237 109.494 155.167 109.575 155.101 109.66C155.092 109.672 155.081 109.681 155.071 109.694L154.674 110.216L154.75 110.211C154.557 110.586 154.441 110.95 154.382 111.165C152.564 111.267 148.587 111.514 146.785 111.671C146.733 111.676 146.675 111.68 146.626 111.684C144.894 111.841 143.309 112.678 142.151 113.29C141.95 113.396 141.763 113.495 141.593 113.581C141.421 113.667 141.266 113.741 141.13 113.796C140.915 113.884 140.62 113.929 140.272 113.951C139.744 113.983 139.089 113.958 138.372 113.931C138.152 113.922 137.923 113.913 137.691 113.906C137.552 113.901 137.408 113.899 137.265 113.895C136.56 113.879 135.818 113.879 135.058 113.939C134.747 113.964 134.444 113.97 134.148 113.963C133.451 113.945 132.793 113.849 132.151 113.74C131.976 113.71 131.8 113.681 131.626 113.65C130.526 113.455 129.487 113.271 128.514 113.476C127.623 113.664 126.641 114.021 125.774 114.337L125.147 114.562C125.065 114.592 124.979 114.621 124.894 114.651C124.802 114.682 124.71 114.714 124.622 114.743C124.547 114.767 124.472 114.791 124.398 114.814C124.285 114.849 124.179 114.878 124.076 114.905C124.017 114.92 123.957 114.938 123.901 114.951C123.749 114.986 123.609 115.012 123.487 115.022L123.468 115.024C122.535 115.091 121.546 114.656 120.749 114.304L120.689 114.277L120.499 114.194C119.236 113.644 114.979 111.848 113.137 111.913C112.924 111.92 112.726 111.931 112.537 111.944C112.506 111.946 112.476 111.95 112.445 111.952C112.279 111.965 112.123 111.98 111.977 111.996C111.962 111.998 111.947 111.999 111.932 112L111.92 112.003C111.434 112.061 111.059 112.134 110.793 112.199C110.84 111.815 110.74 111.373 110.492 110.874C110.463 110.816 110.449 110.7 110.434 110.566C110.384 110.147 110.31 109.516 109.638 108.706C108.682 107.554 107.963 107.036 106.256 107.076C104.485 107.108 103.684 108.332 103.651 108.384L103.64 108.404C103.638 108.408 103.429 108.792 103.054 109.068C102.94 109.152 102.781 109.203 102.628 109.251C102.297 109.357 101.796 109.517 101.856 110.155C101.884 110.446 102.131 110.818 102.492 111.185C102.416 111.557 102.379 111.993 102.525 112.305C102.585 112.434 102.656 112.56 102.727 112.683C102.921 113.022 103.034 113.239 102.94 113.417C102.87 113.549 102.784 113.663 102.711 113.761C102.565 113.959 102.428 114.145 102.475 114.369C102.494 114.455 102.549 114.577 102.706 114.665C102.903 114.774 103.116 114.884 103.215 114.935C103.422 115.191 103.877 115.767 104.024 116.021C104.251 116.413 104.527 116.751 105.379 116.603C105.917 116.509 106.307 116.206 106.5 116.025C107.014 116.158 108.448 116.521 108.839 116.548C108.991 116.558 109.255 116.602 109.529 116.654C109.495 117.5 109.616 118.278 109.809 118.879C110.067 119.685 110.201 122.879 110.274 124.596C110.312 125.493 110.324 125.728 110.341 125.822C110.337 125.862 110.325 125.919 110.311 125.993C110.232 126.41 110.067 127.277 110.305 128.36C110.566 129.547 110.826 132.576 110.891 133.362C110.859 133.38 110.818 133.401 110.779 133.421C110.6 133.443 110.337 133.439 110.169 133.435C109.808 133.426 109.497 133.42 109.29 133.524C109.005 133.667 108.71 133.953 108.555 134.116C108.146 134.224 107.764 134.33 107.538 134.407C107.177 134.53 107.138 134.725 107.168 134.866C107.193 134.984 107.241 135.205 108.054 135.205C108.246 135.205 108.481 135.193 108.768 135.164C109.409 135.099 110.177 135.065 110.988 135.064C111.053 135.064 111.12 135.067 111.188 135.07C111.547 135.086 112.025 135.103 112.413 134.725C112.724 134.726 113.37 134.668 113.515 134.16C113.606 133.838 113.765 132.375 113.987 129.812C114.2 127.343 114.379 125.688 114.502 125.027C114.615 124.422 114.567 122.548 114.515 121.214C114.949 121.493 115.375 121.685 115.724 121.708C116.338 121.75 116.994 121.643 117.371 121.565C117.459 121.548 117.537 121.53 117.589 121.518C117.692 121.555 117.878 121.614 118.156 121.68C118.171 121.684 118.189 121.687 118.204 121.691C118.26 121.704 118.313 121.716 118.377 121.73L118.482 121.751L118.483 121.751C118.961 121.845 119.63 121.941 120.538 122.002C122.67 122.145 123.436 122.292 123.467 122.297C123.517 122.303 123.955 122.351 124.591 122.391L124.592 122.391L124.665 122.395C125.122 122.423 125.671 122.446 126.261 122.446C126.284 122.446 126.308 122.445 126.331 122.445C126.446 122.445 126.56 122.444 126.672 122.442C126.675 122.442 126.678 122.442 126.682 122.442H126.685C126.617 122.812 126.543 123.276 126.478 123.803C126.476 123.819 126.474 123.835 126.472 123.851C126.445 124.073 126.42 124.304 126.398 124.546C126.396 124.564 126.395 124.581 126.394 124.599C126.376 124.804 126.361 125.016 126.348 125.233C126.344 125.297 126.341 125.361 126.338 125.425C126.326 125.662 126.317 125.903 126.314 126.149C126.313 126.18 126.314 126.211 126.314 126.243C126.312 126.463 126.315 126.686 126.322 126.911C126.324 126.982 126.326 127.052 126.329 127.123C126.34 127.382 126.355 127.641 126.379 127.903C126.641 130.763 127.438 133.998 128.611 134.952C128.652 134.985 128.692 135.024 128.734 135.052C128.811 135.102 128.889 135.141 128.968 135.171C128.975 135.173 128.981 135.178 128.987 135.18H128.988C129.052 135.203 129.138 135.22 129.236 135.233C129.389 135.254 129.576 135.266 129.8 135.266C129.82 135.266 129.844 135.264 129.865 135.264C129.964 135.263 130.069 135.26 130.179 135.256C130.238 135.254 130.298 135.251 130.36 135.248C130.464 135.243 130.573 135.236 130.684 135.228C130.767 135.222 130.851 135.216 130.938 135.209C130.946 135.209 130.955 135.207 130.963 135.207C131.173 135.19 131.394 135.169 131.624 135.145C131.625 135.145 131.625 135.145 131.625 135.145C132.919 135.01 134.479 134.78 135.929 134.544C135.988 134.534 136.046 134.525 136.105 134.515C136.25 134.491 136.394 134.467 136.536 134.444C136.702 134.416 136.865 134.388 137.025 134.361C137.043 134.358 137.06 134.356 137.076 134.353C138.568 134.099 139.76 133.875 140.091 133.811C141.298 133.583 142.877 133.7 143.425 133.752C143.501 133.921 143.658 134.102 143.974 134.217C144.231 134.31 144.718 134.368 145.494 134.453C146.071 134.517 146.727 134.59 147.176 134.688C147.636 134.788 147.929 135.006 148.187 135.199C148.381 135.343 148.568 135.475 148.783 135.516L148.806 135.547L148.975 135.53C149.056 135.522 149.3 135.497 149.44 135.297C149.611 135.053 149.535 134.75 149.384 134.146L149.356 134.035C149.122 133.095 148.34 132.329 146.882 131.158C146.356 130.735 145.809 130.243 145.328 129.81C144.087 128.693 143.632 128.307 143.275 128.433C143.271 128.434 143.267 128.433 143.264 128.435C143.127 128.487 142.977 128.619 142.69 129.095L142.676 129.118C142.666 129.135 142.655 129.153 142.645 129.17L142.486 129.434L142.492 129.435C142.294 129.788 142.071 130.235 141.822 130.772C141.569 130.737 141.246 130.697 140.828 130.646C140.374 130.59 139.802 130.519 139.075 130.425C136.206 130.056 132.986 130.485 131.954 130.663C131.97 130.539 131.998 130.375 132.035 130.185C132.107 129.809 132.212 129.327 132.326 128.82C132.371 128.62 132.416 128.417 132.462 128.214C132.606 127.581 132.764 126.877 132.922 126.14L132.927 126.152L133.127 125.156C133.144 125.07 133.159 124.989 133.176 124.905C133.185 124.861 133.194 124.816 133.202 124.771C133.23 124.63 133.256 124.491 133.282 124.354C133.288 124.319 133.295 124.283 133.302 124.248C133.33 124.1 133.356 123.955 133.381 123.812C133.385 123.792 133.389 123.772 133.392 123.752C133.419 123.6 133.445 123.452 133.47 123.308C133.471 123.296 133.474 123.284 133.475 123.273C133.501 123.121 133.526 122.973 133.549 122.83C133.549 122.826 133.55 122.823 133.55 122.819C133.641 122.259 133.713 121.769 133.768 121.365C133.978 121.333 134.183 121.3 134.376 121.267C134.802 121.194 135.185 121.117 135.514 121.028C136.815 120.673 140.573 119.491 143.082 118.652C143.396 118.547 143.694 118.446 143.962 118.355C144.939 118.02 145.849 117.57 146.812 117.093C148.34 116.337 149.921 115.554 152.045 115.076C152.169 115.049 152.284 115.023 152.402 114.996C152.602 114.952 152.767 114.916 152.905 114.886C153.168 114.83 153.35 114.79 153.558 114.74C155.161 114.388 156.013 114.218 156.375 114.149C156.475 114.3 156.643 114.446 156.933 114.499C157.231 114.551 157.547 114.439 157.854 114.328C158.077 114.248 158.307 114.165 158.485 114.165C159.015 114.165 159.75 114.255 160.22 114.507C160.33 114.566 160.454 114.644 160.586 114.726C160.97 114.966 161.448 115.255 161.897 115.29L161.885 115.427L162.338 115.229C162.41 115.197 162.471 115.161 162.525 115.118C162.692 114.987 162.79 114.785 162.819 114.519C162.899 113.711 162.302 112.411 161.854 111.871Z" fill="#212121"/>
<path d="M118.357 186.406V184.69L122.987 177.443C123.331 176.902 123.649 176.398 123.942 175.931C124.234 175.464 124.473 174.971 124.661 174.452C124.848 173.932 124.942 173.335 124.942 172.657C124.942 171.815 124.807 171.153 124.537 170.671C124.267 170.189 123.795 169.948 123.121 169.948C122.552 169.948 122.11 170.106 121.796 170.422C121.481 170.738 121.264 171.152 121.144 171.664C121.023 172.176 120.964 172.725 120.964 173.312V173.922H118.56V173.289C118.56 172.191 118.706 171.246 118.998 170.456C119.29 169.666 119.762 169.053 120.413 168.617C121.065 168.181 121.93 167.962 123.009 167.962C124.477 167.962 125.571 168.379 126.289 169.214C127.008 170.05 127.368 171.205 127.368 172.68C127.368 173.462 127.274 174.147 127.087 174.734C126.9 175.321 126.656 175.871 126.357 176.382C126.057 176.894 125.727 177.421 125.368 177.963L121.188 184.374H126.94V186.406H118.357V186.406Z" fill="#212121"/>
<path d="M129.098 186.406V184.69L133.727 177.443C134.072 176.902 134.39 176.398 134.682 175.931C134.974 175.464 135.214 174.971 135.401 174.452C135.588 173.932 135.682 173.335 135.682 172.657C135.682 171.815 135.548 171.153 135.278 170.671C135.008 170.189 134.536 169.948 133.863 169.948C133.293 169.948 132.852 170.106 132.537 170.422C132.222 170.738 132.005 171.152 131.885 171.664C131.765 172.176 131.706 172.725 131.706 173.312V173.922H129.301V173.289C129.301 172.191 129.447 171.246 129.739 170.456C130.031 169.666 130.503 169.053 131.155 168.617C131.807 168.181 132.671 167.962 133.75 167.962C135.218 167.962 136.311 168.379 137.03 169.214C137.749 170.05 138.109 171.205 138.109 172.68C138.109 173.462 138.015 174.147 137.828 174.734C137.64 175.321 137.397 175.871 137.097 176.382C136.797 176.894 136.468 177.421 136.108 177.963L131.929 184.374H137.681V186.406H129.098V186.406Z" fill="#212121"/>
<path d="M122.831 69.6194V63.8721H124.074C124.497 63.8721 124.833 63.9372 125.08 64.0673C125.327 64.1975 125.503 64.3928 125.61 64.6531C125.716 64.9135 125.768 65.2372 125.768 65.6254V67.7393C125.768 68.1466 125.716 68.4893 125.61 68.7681C125.503 69.0474 125.331 69.2588 125.094 69.4028C124.856 69.5474 124.537 69.6194 124.137 69.6194H122.831ZM123.629 69.044H124.08C124.372 69.044 124.58 68.9875 124.702 68.8741C124.825 68.76 124.899 68.5947 124.924 68.377C124.95 68.1598 124.963 67.8966 124.963 67.5896V65.7239C124.963 65.4261 124.944 65.1848 124.907 64.9999C124.869 64.8156 124.787 64.6808 124.659 64.5955C124.532 64.5103 124.333 64.4677 124.059 64.4677H123.628V69.044H123.629Z" fill="#212121"/>
<path d="M126.242 69.6194L127.457 63.8721H128.227L129.448 69.6194H128.693L128.431 68.1719H127.266L126.99 69.6194H126.242ZM127.372 67.5971H128.325L127.845 65.0074L127.372 67.5971Z" fill="#212121"/>
<path d="M130.748 69.6194V67.5902L129.512 63.8721H130.253L131.129 66.6467L131.991 63.8721H132.74L131.511 67.5902V69.6194H130.748Z" fill="#212121"/>
<path d="M135.649 69.6194V64.8657C135.644 64.8703 135.591 64.8847 135.49 64.9083C135.388 64.9319 135.274 64.9556 135.148 64.9792C135.02 65.0028 134.907 65.0241 134.809 65.0431C134.71 65.0621 134.658 65.0719 134.653 65.0719V64.4971C134.734 64.4781 134.826 64.4521 134.933 64.4193C135.039 64.3859 135.146 64.3462 135.258 64.2983C135.368 64.2511 135.474 64.1918 135.575 64.1209C135.677 64.0501 135.763 63.9671 135.833 63.8727H136.405V69.62L135.649 69.6194Z" fill="#212121"/>
<path d="M92.6362 209.405C95.4518 209.405 97.7342 207.112 97.7342 204.284C97.7342 201.455 95.4518 199.162 92.6362 199.162C89.8206 199.162 87.5381 201.455 87.5381 204.284C87.5381 207.112 89.8206 209.405 92.6362 209.405Z" fill="#212121"/>
<path d="M102.833 205.565H165.287" stroke="#212121" stroke-miterlimit="10"/>
<path d="M92.6362 223.491C95.4518 223.491 97.7342 221.198 97.7342 218.369C97.7342 215.54 95.4518 213.247 92.6362 213.247C89.8206 213.247 87.5381 215.54 87.5381 218.369C87.5381 221.198 89.8206 223.491 92.6362 223.491Z" fill="#212121"/>
<path d="M102.833 219.65H165.287" stroke="#212121" stroke-miterlimit="10"/>
<path d="M226.049 204.326C226.049 204.326 226.833 218.716 226.245 221.871C225.656 225.025 224.871 233.699 224.479 238.233C224.087 242.767 223.302 251.441 222.909 252.821C222.516 254.201 219.717 254.003 219.717 254.003C219.717 254.003 215.256 253.412 214.275 253.412C213.294 253.412 207.407 254.003 207.407 254.003C207.407 254.003 208.781 252.426 209.958 251.835C211.136 251.243 215.368 252.234 215.999 250.95C216.629 249.666 217.611 246.118 217.807 242.963C218.003 239.809 219.377 200.579 219.377 200.579L226.049 204.326Z" fill="#212121" stroke="#212121" stroke-miterlimit="10"/>
<path d="M188.016 173.018C188.016 173.018 186.628 176.704 187.421 178.397C188.214 180.09 189.602 181.585 188.809 183.079C188.015 184.573 186.727 185.47 187.619 185.967C188.512 186.466 189.503 186.963 189.503 186.963C189.503 186.963 191.783 189.752 192.478 190.948C193.172 192.143 193.767 192.841 196.047 192.442C198.328 192.044 199.716 190.35 199.716 190.35C199.716 190.35 206.558 192.143 208.045 192.243C209.532 192.342 213.498 193.239 213.498 193.239C213.498 193.239 218.754 197.821 220.935 201.407C223.116 204.993 228.47 209.575 231.445 209.775C234.419 209.974 237.791 209.077 237.791 209.077C237.791 209.077 240.368 210.272 247.805 210.77C255.241 211.269 257.806 211.778 257.806 211.778C257.806 211.778 270.002 213.173 277.438 211.28C284.875 209.387 293.6 208.79 298.359 207.495C303.118 206.2 318.586 201.319 327.014 198.43C335.442 195.542 342.63 189.949 354.587 187.259C366.545 184.57 370.104 183.959 370.104 183.959C370.104 183.959 371.354 182.704 369.926 179.387C368.499 176.07 366.803 175.801 365.911 175.801C365.018 175.801 344.226 177.021 336.493 177.718C328.759 178.416 321.768 183.332 318.1 184.826C314.431 186.32 305.994 184.683 297.17 185.381C288.345 186.078 281.206 182.492 275.059 183.787C268.912 185.082 261.574 188.768 257.807 189.067C254.039 189.366 250.185 187.461 247.21 186.167C244.236 184.872 228.867 178.297 222.621 178.497C216.374 178.696 213.301 179.891 213.301 179.891C213.301 179.891 212.309 179.791 211.813 179.692C211.317 179.592 211.615 177.799 205.17 173.815C198.724 169.83 189.503 170.229 188.016 173.018Z" fill="white" stroke="#212121" stroke-miterlimit="10"/>
<path d="M191.189 166.045C191.189 166.045 190.396 167.539 188.908 168.635C187.421 169.731 185.041 169.333 185.239 171.424C185.438 173.516 190.494 177.799 194.262 178.696C198.03 179.592 196.542 178.198 196.542 178.198C196.542 178.198 198.03 175.508 199.914 176.903C201.798 178.297 201.103 180.688 201.103 180.688C201.103 180.688 204.375 181.187 206.061 182.78C207.747 184.374 209.135 183.179 212.01 180.987C214.885 178.796 213.299 175.608 212.704 174.413C212.109 173.218 212.903 170.827 209.928 167.241C206.954 163.654 204.772 161.961 199.22 162.061C193.667 162.16 191.189 166.045 191.189 166.045Z" fill="#212121" stroke="#212121" stroke-miterlimit="10"/>
<path d="M212.652 167.786L218.922 170.936C217.994 168.139 215.359 167.704 213.816 167.701C215.399 167.407 217.882 166.186 216.459 161.261C214.443 154.286 202.35 152.936 199.887 155.636C197.424 158.336 199.22 162.06 199.22 162.06C199.22 162.06 200.559 164.411 203.023 167.786C205.486 171.161 212.705 174.412 215.116 173.186C217.526 171.96 212.652 167.786 212.652 167.786Z" fill="#212121" stroke="#212121" stroke-miterlimit="10"/>
<path d="M201.103 180.688C201.103 180.688 201.004 181.286 200.508 182.182C200.012 183.079 199.417 183.178 199.417 183.178C199.417 183.178 200.112 185.37 199.814 186.964" stroke="#212121" stroke-miterlimit="10"/>
<path d="M189.503 180.489L190.097 181.983" stroke="#212121" stroke-miterlimit="10" stroke-linecap="round" stroke-linejoin="round"/>
<path d="M188.412 179.393C188.412 179.393 189.007 178.198 190.098 179.094" stroke="#212121" stroke-miterlimit="10"/>
<path d="M190.693 187.661C190.693 187.661 191.486 187.86 191.982 186.266" stroke="#212121" stroke-miterlimit="10"/>
<path d="M218.61 178.79C216.8 179.437 212.605 181.604 211.942 187.927C211.76 189.662 212.022 191.377 212.594 193.042C213.135 193.158 213.498 193.239 213.498 193.239C213.498 193.239 218.753 197.821 220.934 201.408C223.116 204.994 228.469 209.576 231.444 209.775C234.419 209.974 237.79 209.078 237.79 209.078C237.79 209.078 238.595 209.45 240.597 209.866L240.947 209.675C240.947 209.675 246.68 194.214 247.209 186.167C244.235 184.872 228.866 178.297 222.62 178.497C221.093 178.545 219.759 178.654 218.61 178.79Z" fill="#76C757" stroke="#212121" stroke-miterlimit="10"/>
<path d="M219.44 198.162C219.44 198.162 223.402 200.152 228.354 198.02C233.306 195.887 236.136 188.496 234.438 185.084C232.74 181.673 225.807 178.403 220.713 179.256C215.62 180.109 212.932 185.227 213.073 188.922C213.215 192.618 216.611 196.74 219.44 198.162Z" fill="white" stroke="#212121" stroke-miterlimit="10"/>
<path d="M220.713 180.251C220.713 180.251 216.327 179.256 213.497 184.942C210.667 190.628 210.951 196.882 212.224 200.862C213.497 204.842 213.887 224.176 214.07 224.586C214.254 224.997 212.89 228.42 213.934 233.172C214.979 237.924 215.999 250.95 215.999 250.95C215.999 250.95 213.986 252.153 212.326 252.607C210.665 253.06 205.667 254.279 203.88 254.888C202.092 255.498 204.542 255.821 207.639 255.508C210.736 255.196 213.861 255.166 215.283 255.165C216.705 255.164 218.451 255.559 219.718 254.002C220.983 252.446 220.264 249.518 220.221 249.094C220.179 248.67 222.154 228.627 222.744 225.995C223.334 223.364 223.781 217.89 223.781 217.89L224.109 194.181" fill="white"/>
<path d="M220.713 180.251C220.713 180.251 216.327 179.256 213.497 184.942C210.667 190.628 210.951 196.882 212.224 200.862C213.497 204.842 213.887 224.176 214.07 224.586C214.254 224.997 212.89 228.42 213.934 233.172C214.979 237.924 215.999 250.95 215.999 250.95C215.999 250.95 213.986 252.153 212.326 252.607C210.665 253.06 205.667 254.279 203.88 254.888C202.092 255.498 204.542 255.821 207.639 255.508C210.736 255.196 213.861 255.166 215.283 255.165C216.705 255.164 218.451 255.559 219.718 254.002C220.983 252.446 220.264 249.518 220.221 249.094C220.179 248.67 222.154 228.627 222.744 225.995C223.334 223.364 223.781 217.89 223.781 217.89L224.109 194.181" stroke="#212121" stroke-miterlimit="10"/>
<path d="M270.276 210.271C270.276 210.271 267.588 220.931 268.579 231.735C269.569 242.538 272.823 254.194 276.785 255.615C280.746 257.037 308.761 251.92 313.996 250.924C319.231 249.929 326.305 250.782 326.305 250.782C326.305 250.782 324.183 244.385 323.193 243.532C322.202 242.679 321.636 242.822 310.601 241.4C299.564 239.978 286.689 242.111 285.699 242.395C284.709 242.68 287.256 233.44 289.377 223.064C291.5 212.687 292.207 205.296 292.207 205.296L270.276 210.271Z" fill="white" stroke="#212121" stroke-miterlimit="10"/>
<path d="M320.787 242.395C320.787 242.395 324.182 235.003 325.314 234.577C326.446 234.151 331.681 239.694 336.633 243.674C341.585 247.655 343.991 250.071 344.697 252.914C345.405 255.757 345.688 256.61 344.273 256.752C342.858 256.894 341.726 254.62 338.472 253.909C335.218 253.198 329.275 252.914 327.719 252.345C326.163 251.776 326.304 250.781 326.304 250.781L323.192 243.532L320.787 242.395Z" fill="#212121" stroke="#212121" stroke-miterlimit="10"/>
<path d="M344.698 252.913C343.991 250.07 341.586 247.654 336.634 243.674C331.682 239.694 326.447 234.15 325.315 234.577C324.982 234.702 324.451 235.434 323.87 236.4C324.909 236.674 326.292 237.33 327.862 238.841C331.258 242.11 332.389 244.811 334.087 245.663C335.785 246.516 339.464 247.227 341.586 250.354C343.708 253.481 343.566 255.756 344.274 256.751C345.688 256.61 345.406 255.757 344.698 252.913Z" fill="white" stroke="#212121" stroke-miterlimit="10"/>
<path d="M312.865 251.134C305.596 252.492 280.519 256.955 276.784 255.613C272.824 254.193 269.571 242.535 268.578 231.733C267.849 223.799 269.106 215.944 269.829 212.332C270.087 211.024 270.278 210.27 270.278 210.27L292.208 205.294C292.208 205.294 291.535 212.327 289.533 222.295C289.483 222.548 289.427 222.801 289.376 223.061C287.256 233.44 284.71 242.681 285.696 242.393C286.689 242.112 299.567 239.976 310.599 241.402C311.076 241.458 311.525 241.52 311.968 241.576C312.568 243.865 313.263 247.499 312.865 251.134Z" fill="#76C757" stroke="#212121" stroke-miterlimit="10"/>
<path d="M292.208 205.294C292.208 205.294 291.535 212.327 289.533 222.295L288.843 220.492C284.939 213.955 273.599 212.603 269.83 212.333C270.088 211.025 270.279 210.271 270.279 210.271L292.208 205.294Z" fill="#212121" stroke="#212121" stroke-miterlimit="10"/>
<path d="M370.104 183.96C370.104 183.96 370.197 185.035 371.598 185.291C372.998 185.546 375.036 184.139 376.691 184.139C378.347 184.139 381.148 184.395 383.058 185.418C384.969 186.442 388.024 189.001 389.807 187.593C391.589 186.186 389.298 180.301 387.387 177.998C385.477 175.696 380.893 174.928 378.601 173.777C376.309 172.626 373.126 167.636 369.051 168.404C364.976 169.172 363.575 175.824 363.575 175.824C363.575 175.824 367.013 175.44 368.796 177.871C370.579 180.301 370.104 183.96 370.104 183.96Z" fill="#212121" stroke="#212121" stroke-miterlimit="10"/>
<path d="M389.386 187.838C389.532 187.775 389.674 187.698 389.807 187.593C391.589 186.186 389.298 180.301 387.387 177.998C385.477 175.696 380.893 174.928 378.601 173.777C376.309 172.626 373.126 167.636 369.051 168.404C367.735 168.652 366.7 169.514 365.899 170.566C366.672 170.511 370.173 170.326 371.979 171.346C374.017 172.498 377.073 175.056 379.747 175.568C382.421 176.079 387.132 178.126 388.406 182.348C389.252 185.151 389.478 186.767 389.386 187.838Z" fill="white" stroke="#212121" stroke-miterlimit="10"/>
<path d="M361.951 185.541C358.939 186.357 358.818 186.311 354.588 187.257C342.63 189.95 335.44 195.541 327.01 198.431C318.585 201.321 303.117 206.201 298.36 207.497C293.598 208.787 284.871 209.39 277.434 211.278C274.826 211.943 271.641 212.202 268.595 212.264C266.256 212.303 264.007 212.23 262.173 212.129C257.4 201.597 257.456 193.258 257.967 189.048C259.458 188.896 261.478 188.254 263.743 187.443C267.26 186.197 271.371 184.563 275.056 183.786C281.204 182.49 288.343 186.079 297.166 185.38C305.994 184.682 314.43 186.322 318.098 184.828C321.766 183.329 328.76 178.415 336.494 177.717C341.441 177.272 351.666 176.731 358.699 176.257C360.898 178.737 361.609 182.982 361.951 185.541Z" fill="#76C757" stroke="#212121" stroke-miterlimit="10"/>
<path d="M268.595 212.265C266.256 212.304 264.007 212.231 262.173 212.129C257.4 201.598 257.456 193.258 257.967 189.049C259.458 188.897 261.478 188.255 263.743 187.443C264.467 193.224 266.189 205.441 268.595 212.265Z" fill="#212121" stroke="#212121" stroke-miterlimit="10"/>
</svg>
