<svg width="406" height="406" viewBox="0 0 406 406" fill="none" xmlns="http://www.w3.org/2000/svg">
<path d="M264.576 35.7785C264.576 35.7785 200.151 10.4676 138.536 46.1891C76.9215 81.9098 47.3225 155.405 21.7892 214.225C-3.74419 273.046 13.5019 334.082 62.0465 363.046C110.591 392.01 142.002 352.182 209.008 352.068C276.015 351.953 294.317 362.401 348.907 324.652C403.498 286.902 411.064 194.365 365.323 124.465C319.582 54.5649 264.576 35.7785 264.576 35.7785Z" fill="#76C757"/>
<path opacity="0.7" d="M264.576 35.7785C264.576 35.7785 200.151 10.4676 138.536 46.1891C76.9215 81.9098 47.3225 155.405 21.7892 214.225C-3.74419 273.046 13.5019 334.082 62.0465 363.046C110.591 392.01 142.002 352.182 209.008 352.068C276.015 351.953 294.317 362.401 348.907 324.652C403.498 286.902 411.064 194.365 365.323 124.465C319.582 54.5649 264.576 35.7785 264.576 35.7785Z" fill="white"/>
<path d="M338.15 229.661C338.15 229.661 338.15 226.513 342.557 222.105C346.965 217.698 349.798 215.18 349.798 215.18C349.798 215.18 352.002 222.421 347.909 226.828C343.817 231.236 338.15 235.328 338.15 235.328V229.661Z" fill="#76C757"/>
<path d="M344.547 249.322C344.547 249.322 344.547 246.174 348.954 241.766C353.362 237.359 356.195 234.841 356.195 234.841C356.195 234.841 358.399 242.081 354.306 246.489C350.214 250.896 344.547 254.989 344.547 254.989V249.322Z" fill="#76C757"/>
<path d="M338.428 235.023C338.428 235.023 338.095 231.893 333.247 227.975C328.399 224.058 325.316 221.854 325.316 221.854C325.316 221.854 323.89 229.287 328.425 233.236C332.96 237.187 339.027 240.657 339.027 240.657L338.428 235.023Z" fill="#76C757"/>
<path d="M346.155 258.242C346.155 258.242 345.495 255.164 340.262 251.777C335.029 248.391 331.731 246.522 331.731 246.522C331.731 246.522 331.094 254.064 336.018 257.516C340.943 260.968 347.342 263.782 347.342 263.782L346.155 258.242Z" fill="#76C757"/>
<path d="M344.702 283.558C344.702 283.558 344.702 280.409 340.295 276.002C335.887 271.594 333.054 269.076 333.054 269.076C333.054 269.076 330.85 276.317 334.943 280.725C339.035 285.132 344.701 289.225 344.701 289.225V283.558H344.702Z" fill="#76C757"/>
<path d="M344.775 289.736C344.775 289.736 344.328 286.62 348.064 281.631C351.8 276.642 354.246 273.746 354.246 273.746C354.246 273.746 357.456 280.6 354.032 285.545C350.608 290.489 345.58 295.346 345.58 295.346L344.775 289.736Z" fill="#76C757"/>
<path d="M349.122 308.049C349.122 308.049 349.122 304.901 344.714 300.493C340.306 296.086 337.473 293.568 337.473 293.568C337.473 293.568 335.27 300.808 339.362 305.216C343.455 309.624 349.122 313.716 349.122 313.716V308.049Z" fill="#76C757"/>
<path d="M346.178 324.652C346.178 324.652 346.976 321.606 343.828 316.227C340.681 310.846 338.578 307.693 338.578 307.693C338.578 307.693 334.612 314.139 337.455 319.439C340.298 324.739 344.743 330.134 344.743 330.134L346.178 324.652Z" fill="#76C757"/>
<path d="M337.751 228.855C338.01 232.22 338.392 235.701 338.959 238.63C340.701 247.631 345.056 253.438 346.799 261.569C348.541 269.699 343.539 280.173 344.878 290.616C346.218 301.059 350.283 306.867 349.121 313.835C347.96 320.804 341.862 339.678 341.862 339.678" stroke="#212121" stroke-miterlimit="10" stroke-linecap="round" stroke-linejoin="round"/>
<path d="M338.471 237.115L333.721 233.47" stroke="#212121" stroke-miterlimit="10" stroke-linecap="round" stroke-linejoin="round"/>
<path d="M338.25 232.918L340.239 229.384" stroke="#212121" stroke-miterlimit="10" stroke-linecap="round" stroke-linejoin="round"/>
<path d="M346.534 261.195C346.534 261.195 342.557 258.213 338.471 255.23" stroke="#212121" stroke-miterlimit="10" stroke-linecap="round" stroke-linejoin="round"/>
<path d="M344.547 254.988C344.547 254.988 347.86 248.492 351.615 244.185" stroke="#212121" stroke-miterlimit="10" stroke-linecap="round" stroke-linejoin="round"/>
<path d="M344.546 288.036C344.546 288.036 341.453 281.96 336.041 276.659" stroke="#212121" stroke-miterlimit="10" stroke-linecap="round" stroke-linejoin="round"/>
<path d="M345.319 292.454C345.319 292.454 347.308 287.704 349.627 284.28C351.947 280.856 352.278 280.414 352.278 280.414" stroke="#212121" stroke-miterlimit="10" stroke-linecap="round" stroke-linejoin="round"/>
<path d="M349.121 313.835C349.121 313.835 347.528 309.796 345.54 306.592C343.552 303.389 340.901 300.517 340.901 300.517" stroke="#212121" stroke-miterlimit="10" stroke-linecap="round" stroke-linejoin="round"/>
<path d="M344.743 330.134C344.743 330.134 345.21 326.364 343.552 323.161C341.896 319.958 340.018 315.761 339.245 314.104" stroke="#212121" stroke-miterlimit="10" stroke-linecap="round" stroke-linejoin="round"/>
<path d="M367.011 271.718C367.011 271.718 367.353 269.744 365.068 266.501C362.783 263.259 361.279 261.372 361.279 261.372C361.279 261.372 359.111 265.673 361.198 268.881C363.286 272.09 366.395 275.271 366.395 275.271L367.011 271.718Z" fill="#76C757"/>
<path d="M360.866 283.352C360.866 283.352 361.208 281.378 358.923 278.136C356.638 274.893 355.134 273.006 355.134 273.006C355.134 273.006 352.966 277.308 355.055 280.516C357.143 283.724 360.251 286.905 360.251 286.905L360.866 283.352Z" fill="#76C757"/>
<path d="M366.256 275.05C366.256 275.05 366.804 273.123 370.27 271.193C373.735 269.263 375.908 268.216 375.908 268.216C375.908 268.216 375.996 273.032 372.723 275.016C369.45 277.001 365.269 278.519 365.269 278.519L366.256 275.05Z" fill="#76C757"/>
<path d="M358.889 288.771C358.889 288.771 359.637 286.913 363.286 285.358C366.935 283.803 369.207 282.988 369.207 282.988C369.207 282.988 368.788 287.786 365.324 289.417C361.861 291.047 357.543 292.117 357.543 292.117L358.889 288.771Z" fill="#76C757"/>
<path d="M357.052 304.804C357.052 304.804 357.394 302.83 360.636 300.545C363.878 298.26 365.928 296.988 365.928 296.988C365.928 296.988 366.524 301.767 363.479 304.087C360.434 306.406 356.437 308.358 356.437 308.358L357.052 304.804Z" fill="#76C757"/>
<path d="M356.335 308.67C356.335 308.67 356.953 306.765 355.152 303.231C353.351 299.697 352.13 297.616 352.13 297.616C352.13 297.616 349.373 301.565 350.984 305.037C352.595 308.51 355.22 312.101 355.22 312.101L356.335 308.67Z" fill="#76C757"/>
<path d="M350.803 324.595C350.803 324.595 350.575 322.604 347.469 320.137C344.362 317.671 342.388 316.284 342.388 316.284C342.388 316.284 341.52 321.022 344.428 323.511C347.335 326.001 351.215 328.177 351.215 328.177L350.803 324.595Z" fill="#76C757"/>
<path d="M351.622 319.683C351.622 319.683 351.964 317.709 355.206 315.423C358.449 313.138 360.499 311.865 360.499 311.865C360.499 311.865 361.095 316.645 358.05 318.965C355.005 321.284 351.007 323.235 351.007 323.235L351.622 319.683Z" fill="#76C757"/>
<path d="M351.665 330.413C351.665 330.413 351.496 328.417 354.053 325.385C356.611 322.353 358.272 320.604 358.272 320.604C358.272 320.604 360.059 325.077 357.701 328.092C355.343 331.107 351.97 334.008 351.97 334.008L351.665 330.413Z" fill="#76C757"/>
<path d="M367.35 271.256C366.823 273.338 366.205 275.48 365.532 277.254C363.462 282.71 360.1 285.878 358.125 290.787C356.151 295.697 358.15 302.808 356.176 309.211C354.203 315.614 351.023 318.814 350.994 323.31C350.967 327.807 352.741 340.304 352.741 340.304" stroke="#212121" stroke-miterlimit="10" stroke-linecap="round" stroke-linejoin="round"/>
<path d="M366.001 276.358L369.375 274.587" stroke="#212121" stroke-miterlimit="10" stroke-linecap="round" stroke-linejoin="round"/>
<path d="M366.595 273.749L365.732 271.317" stroke="#212121" stroke-miterlimit="10" stroke-linecap="round" stroke-linejoin="round"/>
<path d="M358.331 290.582C358.331 290.582 361.148 289.143 364.034 287.717" stroke="#212121" stroke-miterlimit="10" stroke-linecap="round" stroke-linejoin="round"/>
<path d="M360.251 286.905C360.251 286.905 358.879 282.472 356.992 279.364" stroke="#212121" stroke-miterlimit="10" stroke-linecap="round" stroke-linejoin="round"/>
<path d="M356.664 307.629C356.664 307.629 359.263 304.155 363.233 301.418" stroke="#212121" stroke-miterlimit="10" stroke-linecap="round" stroke-linejoin="round"/>
<path d="M355.699 310.316C355.699 310.316 354.968 307.122 353.885 304.723C352.802 302.324 352.643 302.011 352.643 302.011" stroke="#212121" stroke-miterlimit="10" stroke-linecap="round" stroke-linejoin="round"/>
<path d="M351.147 326.721C351.147 326.721 348.911 323.98 347.519 322.954C346.127 321.929 345.163 320.906 345.163 320.906" stroke="#212121" stroke-miterlimit="10" stroke-linecap="round" stroke-linejoin="round"/>
<path d="M350.994 323.311C350.994 323.311 352.431 320.951 354.026 319.158C355.62 317.365 357.594 315.852 357.594 315.852" stroke="#212121" stroke-miterlimit="10" stroke-linecap="round" stroke-linejoin="round"/>
<path d="M351.97 334.007C351.97 334.007 352.087 331.592 353.474 329.764C354.86 327.935 356.493 325.506 357.158 324.551" stroke="#212121" stroke-miterlimit="10" stroke-linecap="round" stroke-linejoin="round"/>
<path d="M339.005 370.272H357.4C358.2 370.272 358.849 369.623 358.849 368.823L363.411 338.36H332.994L337.556 368.823C337.556 369.623 338.205 370.272 339.005 370.272Z" fill="#212121" stroke="#212121" stroke-miterlimit="10" stroke-linecap="round" stroke-linejoin="round"/>
<path d="M59.9838 229.661C59.9838 229.661 59.9838 226.513 55.5763 222.105C51.1688 217.698 48.3357 215.18 48.3357 215.18C48.3357 215.18 46.1319 222.421 50.2244 226.828C54.3169 231.236 59.9838 235.328 59.9838 235.328V229.661Z" fill="#76C757"/>
<path d="M53.5869 249.322C53.5869 249.322 53.5869 246.174 49.1793 241.766C44.7718 237.359 41.9387 234.841 41.9387 234.841C41.9387 234.841 39.735 242.081 43.8274 246.489C47.9199 250.896 53.5869 254.989 53.5869 254.989V249.322Z" fill="#76C757"/>
<path d="M59.7062 235.023C59.7062 235.023 60.0391 231.893 64.8868 227.975C69.7352 224.058 72.8184 221.854 72.8184 221.854C72.8184 221.854 74.2442 229.287 69.7092 233.236C65.1742 237.187 59.1069 240.657 59.1069 240.657L59.7062 235.023Z" fill="#76C757"/>
<path d="M51.9791 258.242C51.9791 258.242 52.6385 255.164 57.8718 251.777C63.1044 248.391 66.4027 246.522 66.4027 246.522C66.4027 246.522 67.0401 254.064 62.1153 257.516C57.1906 260.968 50.792 263.782 50.792 263.782L51.9791 258.242Z" fill="#76C757"/>
<path d="M53.4316 283.558C53.4316 283.558 53.4316 280.409 57.8392 276.002C62.2467 271.594 65.0798 269.076 65.0798 269.076C65.0798 269.076 67.2835 276.317 63.1911 280.725C59.0986 285.132 53.4316 289.225 53.4316 289.225V283.558Z" fill="#76C757"/>
<path d="M53.3588 289.736C53.3588 289.736 53.8062 286.62 50.0702 281.631C46.3342 276.642 43.8876 273.746 43.8876 273.746C43.8876 273.746 40.6778 280.6 44.102 285.545C47.5262 290.489 52.5541 295.346 52.5541 295.346L53.3588 289.736Z" fill="#76C757"/>
<path d="M49.0127 308.049C49.0127 308.049 49.0127 304.901 53.4202 300.493C57.8278 296.086 60.6608 293.568 60.6608 293.568C60.6608 293.568 62.8646 300.808 58.7721 305.216C54.6796 309.624 49.0127 313.716 49.0127 313.716V308.049Z" fill="#76C757"/>
<path d="M51.9554 324.652C51.9554 324.652 51.158 321.606 54.3053 316.227C57.4527 310.846 59.5557 307.693 59.5557 307.693C59.5557 307.693 63.5215 314.139 60.6787 319.439C57.8359 324.739 53.3902 330.134 53.3902 330.134L51.9554 324.652Z" fill="#76C757"/>
<path d="M60.3831 228.855C60.1249 232.22 59.7424 235.701 59.1756 238.63C57.4331 247.631 53.0783 253.438 51.3358 261.569C49.5932 269.699 54.5952 280.173 53.2562 290.616C51.9164 301.059 47.8515 306.867 49.0135 313.835C50.1746 320.804 56.2727 339.678 56.2727 339.678" stroke="#212121" stroke-miterlimit="10" stroke-linecap="round" stroke-linejoin="round"/>
<path d="M59.6631 237.115L64.4125 233.47" stroke="#212121" stroke-miterlimit="10" stroke-linecap="round" stroke-linejoin="round"/>
<path d="M59.8841 232.918L57.8955 229.384" stroke="#212121" stroke-miterlimit="10" stroke-linecap="round" stroke-linejoin="round"/>
<path d="M51.6001 261.195C51.6001 261.195 55.5765 258.213 59.6633 255.23" stroke="#212121" stroke-miterlimit="10" stroke-linecap="round" stroke-linejoin="round"/>
<path d="M53.587 254.988C53.587 254.988 50.2741 248.492 46.5186 244.185" stroke="#212121" stroke-miterlimit="10" stroke-linecap="round" stroke-linejoin="round"/>
<path d="M53.5879 288.036C53.5879 288.036 56.6808 281.96 62.0928 276.659" stroke="#212121" stroke-miterlimit="10" stroke-linecap="round" stroke-linejoin="round"/>
<path d="M52.8148 292.454C52.8148 292.454 50.8262 287.704 48.5071 284.28C46.1873 280.856 45.856 280.414 45.856 280.414" stroke="#212121" stroke-miterlimit="10" stroke-linecap="round" stroke-linejoin="round"/>
<path d="M49.0127 313.835C49.0127 313.835 50.605 309.796 52.5936 306.592C54.5814 303.389 57.2326 300.517 57.2326 300.517" stroke="#212121" stroke-miterlimit="10" stroke-linecap="round" stroke-linejoin="round"/>
<path d="M53.391 330.134C53.391 330.134 52.9249 326.364 54.5822 323.161C56.2395 319.958 58.1168 315.761 58.8898 314.104" stroke="#212121" stroke-miterlimit="10" stroke-linecap="round" stroke-linejoin="round"/>
<path d="M31.1231 271.718C31.1231 271.718 30.7813 269.744 33.067 266.501C35.352 263.259 36.8558 261.372 36.8558 261.372C36.8558 261.372 39.0239 265.673 36.9362 268.881C34.8486 272.09 31.7394 275.271 31.7394 275.271L31.1231 271.718Z" fill="#76C757"/>
<path d="M37.2681 283.352C37.2681 283.352 36.9263 281.378 39.2121 278.136C41.497 274.893 43.0008 273.006 43.0008 273.006C43.0008 273.006 45.1689 277.308 43.0804 280.516C40.992 283.724 37.8836 286.905 37.8836 286.905L37.2681 283.352Z" fill="#76C757"/>
<path d="M31.879 275.05C31.879 275.05 31.3309 273.123 27.8653 271.193C24.3997 269.263 22.2268 268.216 22.2268 268.216C22.2268 268.216 22.1391 273.032 25.4123 275.016C28.6854 277.001 32.8664 278.519 32.8664 278.519L31.879 275.05Z" fill="#76C757"/>
<path d="M39.2445 288.771C39.2445 288.771 38.4967 286.913 34.8475 285.358C31.1984 283.803 28.9272 282.988 28.9272 282.988C28.9272 282.988 29.3462 287.786 32.8094 289.417C36.2726 291.047 40.5908 292.117 40.5908 292.117L39.2445 288.771Z" fill="#76C757"/>
<path d="M41.0822 304.804C41.0822 304.804 40.7403 302.83 37.498 300.545C34.2557 298.26 32.2054 296.988 32.2054 296.988C32.2054 296.988 31.6094 301.767 34.6544 304.087C37.6994 306.406 41.6968 308.358 41.6968 308.358L41.0822 304.804Z" fill="#76C757"/>
<path d="M41.7994 308.67C41.7994 308.67 41.1806 306.765 42.9824 303.231C44.7835 299.697 46.0039 297.616 46.0039 297.616C46.0039 297.616 48.7614 301.565 47.1504 305.037C45.5394 308.51 42.9142 312.101 42.9142 312.101L41.7994 308.67Z" fill="#76C757"/>
<path d="M47.3316 324.595C47.3316 324.595 47.5598 322.604 50.6665 320.137C53.7732 317.671 55.7472 316.284 55.7472 316.284C55.7472 316.284 56.6152 321.022 53.7074 323.511C50.7997 326.001 46.9199 328.177 46.9199 328.177L47.3316 324.595Z" fill="#76C757"/>
<path d="M46.5118 319.683C46.5118 319.683 46.17 317.709 42.9277 315.423C39.6854 313.138 37.6351 311.865 37.6351 311.865C37.6351 311.865 37.0391 316.645 40.0841 318.965C43.1291 321.284 47.1265 323.235 47.1265 323.235L46.5118 319.683Z" fill="#76C757"/>
<path d="M46.4689 330.413C46.4689 330.413 46.6378 328.417 44.0809 325.385C41.5231 322.353 39.8617 320.604 39.8617 320.604C39.8617 320.604 38.0745 325.077 40.4325 328.092C42.7906 331.107 46.1636 334.008 46.1636 334.008L46.4689 330.413Z" fill="#76C757"/>
<path d="M30.7852 271.256C31.3121 273.338 31.9301 275.48 32.6032 277.254C34.673 282.71 38.0347 285.878 40.0095 290.787C41.9843 295.697 39.9851 302.808 41.9591 309.211C43.9323 315.614 47.112 318.814 47.1405 323.31C47.1689 327.807 45.3938 340.304 45.3938 340.304" stroke="#212121" stroke-miterlimit="10" stroke-linecap="round" stroke-linejoin="round"/>
<path d="M32.1331 276.358L28.7593 274.587" stroke="#212121" stroke-miterlimit="10" stroke-linecap="round" stroke-linejoin="round"/>
<path d="M31.5386 273.749L32.4017 271.317" stroke="#212121" stroke-miterlimit="10" stroke-linecap="round" stroke-linejoin="round"/>
<path d="M39.8031 290.582C39.8031 290.582 36.9855 289.143 34.0996 287.717" stroke="#212121" stroke-miterlimit="10" stroke-linecap="round" stroke-linejoin="round"/>
<path d="M37.8838 286.905C37.8838 286.905 39.2561 282.472 41.1432 279.364" stroke="#212121" stroke-miterlimit="10" stroke-linecap="round" stroke-linejoin="round"/>
<path d="M41.4704 307.629C41.4704 307.629 38.8712 304.155 34.9014 301.418" stroke="#212121" stroke-miterlimit="10" stroke-linecap="round" stroke-linejoin="round"/>
<path d="M42.4351 310.316C42.4351 310.316 43.1659 307.122 44.2491 304.723C45.3323 302.324 45.4914 302.011 45.4914 302.011" stroke="#212121" stroke-miterlimit="10" stroke-linecap="round" stroke-linejoin="round"/>
<path d="M46.9873 326.721C46.9873 326.721 49.2236 323.98 50.6153 322.954C52.0071 321.929 52.9717 320.906 52.9717 320.906" stroke="#212121" stroke-miterlimit="10" stroke-linecap="round" stroke-linejoin="round"/>
<path d="M47.1408 323.311C47.1408 323.311 45.7035 320.951 44.1088 319.158C42.514 317.365 40.54 315.852 40.54 315.852" stroke="#212121" stroke-miterlimit="10" stroke-linecap="round" stroke-linejoin="round"/>
<path d="M46.1648 334.007C46.1648 334.007 46.0478 331.592 44.6609 329.764C43.274 327.935 41.6411 325.506 40.9761 324.551" stroke="#212121" stroke-miterlimit="10" stroke-linecap="round" stroke-linejoin="round"/>
<path d="M59.1289 370.272H40.7339C39.9341 370.272 39.2853 369.623 39.2853 368.823L34.7227 338.36H65.1402L60.5775 368.823C60.5775 369.623 59.9288 370.272 59.1289 370.272Z" fill="#212121" stroke="#212121" stroke-miterlimit="10" stroke-linecap="round" stroke-linejoin="round"/>
<g opacity="0.3">
<path d="M272.074 290.696H383.714V91.3118C383.714 59.7169 358.101 34.104 326.506 34.104C296.443 34.104 272.074 58.4746 272.074 88.5364V290.696Z" stroke="black" stroke-miterlimit="10" stroke-linecap="round" stroke-linejoin="round"/>
<path d="M371.109 290.096V91.7242C371.109 67.8571 351.761 48.5088 327.894 48.5088C304.027 48.5088 284.678 67.8571 284.678 91.7242V290.095" stroke="black" stroke-miterlimit="10" stroke-linecap="round" stroke-linejoin="round"/>
<path d="M327.894 34.104V290.396" stroke="black" stroke-miterlimit="10" stroke-linecap="round" stroke-linejoin="round"/>
<path d="M383.113 83.4719H272.824" stroke="black" stroke-miterlimit="10" stroke-linecap="round" stroke-linejoin="round"/>
<path d="M383.113 118.284H272.824" stroke="black" stroke-miterlimit="10" stroke-linecap="round" stroke-linejoin="round"/>
<path d="M383.113 153.097H272.824" stroke="black" stroke-miterlimit="10" stroke-linecap="round" stroke-linejoin="round"/>
<path d="M383.113 187.909H272.824" stroke="black" stroke-miterlimit="10" stroke-linecap="round" stroke-linejoin="round"/>
<path d="M383.113 222.722H272.824" stroke="black" stroke-miterlimit="10" stroke-linecap="round" stroke-linejoin="round"/>
<path d="M383.113 257.534H272.824" stroke="black" stroke-miterlimit="10" stroke-linecap="round" stroke-linejoin="round"/>
<path d="M368.367 51.5247L358.365 60.632" stroke="black" stroke-miterlimit="10" stroke-linecap="round" stroke-linejoin="round"/>
<path d="M287.839 51.5247L297.842 60.632" stroke="black" stroke-miterlimit="10" stroke-linecap="round" stroke-linejoin="round"/>
</g>
<path d="M206.914 73.9698H196.271C195.184 73.9698 194.175 73.4128 193.593 72.4953C191.262 68.8266 185.547 59.2978 186.358 55.3085C187.448 49.9444 202.289 40.2881 202.289 40.2881C202.289 40.2881 215.88 49.7966 216.853 54.8529C217.64 58.9373 211.925 68.7211 209.607 72.4717C209.031 73.4047 208.01 73.9698 206.914 73.9698Z" stroke="#8D8D8D" stroke-miterlimit="10" stroke-linecap="round" stroke-linejoin="round"/>
<path d="M203.274 72.2223L194.057 77.5441C193.116 78.0874 191.964 78.1093 191 77.6059C187.148 75.5937 177.433 70.1996 176.141 66.3394C174.404 61.1491 182.428 45.3662 182.428 45.3662C182.428 45.3662 198.952 46.8051 202.324 50.697C205.048 53.8411 204.99 65.1717 204.858 69.5784C204.825 70.6746 204.224 71.6742 203.274 72.2223Z" stroke="#8D8D8D" stroke-miterlimit="10" stroke-linecap="round" stroke-linejoin="round"/>
<path d="M199.25 72.5285L193.928 81.7455C193.385 82.6866 192.397 83.2818 191.312 83.3273C186.969 83.5108 175.86 83.6967 172.81 80.9992C168.71 77.3729 167.768 59.6932 167.768 59.6932C167.768 59.6932 182.798 52.6767 187.664 54.3616C191.595 55.7225 197.21 65.5639 199.299 69.4461C199.818 70.4124 199.798 71.5792 199.25 72.5285Z" stroke="#8D8D8D" stroke-miterlimit="10" stroke-linecap="round" stroke-linejoin="round"/>
<path d="M195.916 74.8062V85.4491C195.916 86.5355 195.359 87.5448 194.442 88.127C190.773 90.4575 181.244 96.1732 177.255 95.362C171.891 94.2714 162.234 79.4313 162.234 79.4313C162.234 79.4313 171.743 65.8401 176.799 64.8665C180.884 64.0797 190.667 69.7953 194.418 72.1128C195.35 72.6901 195.916 73.71 195.916 74.8062Z" stroke="#8D8D8D" stroke-miterlimit="10" stroke-linecap="round" stroke-linejoin="round"/>
<path d="M194.168 78.4455L199.49 87.6625C200.033 88.6036 200.055 89.7558 199.552 90.7197C197.54 94.5718 192.145 104.287 188.285 105.578C183.095 107.316 167.312 99.2919 167.312 99.2919C167.312 99.2919 168.751 82.7677 172.644 79.3955C175.788 76.6721 187.118 76.7297 191.525 76.8621C192.62 76.8954 193.621 77.4962 194.168 78.4455Z" stroke="#8D8D8D" stroke-miterlimit="10" stroke-linecap="round" stroke-linejoin="round"/>
<path d="M194.474 82.4707L203.691 87.7926C204.632 88.3358 205.227 89.3232 205.273 90.4088C205.456 94.7514 205.642 105.861 202.945 108.91C199.318 113.01 181.639 113.953 181.639 113.953C181.639 113.953 174.623 98.9226 176.307 94.0563C177.668 90.1254 187.51 84.5105 191.391 82.4212C192.359 81.9023 193.525 81.9226 194.474 82.4707Z" stroke="#8D8D8D" stroke-miterlimit="10" stroke-linecap="round" stroke-linejoin="round"/>
<path d="M196.752 85.804H207.395C208.481 85.804 209.49 86.361 210.073 87.2785C212.403 90.9472 218.119 100.476 217.308 104.465C216.217 109.829 201.377 119.486 201.377 119.486C201.377 119.486 187.786 109.977 186.812 104.921C186.025 100.837 191.741 91.0527 194.058 87.3021C194.636 86.3699 195.656 85.804 196.752 85.804Z" stroke="#8D8D8D" stroke-miterlimit="10" stroke-linecap="round" stroke-linejoin="round"/>
<path d="M200.391 87.5522L209.608 82.2304C210.549 81.6871 211.701 81.6652 212.665 82.1687C216.517 84.1808 226.232 89.5749 227.524 93.4352C229.262 98.6255 221.237 114.408 221.237 114.408C221.237 114.408 204.713 112.969 201.341 109.078C198.618 105.933 198.675 94.6028 198.808 90.1961C198.841 89.0999 199.442 88.1003 200.391 87.5522Z" stroke="#8D8D8D" stroke-miterlimit="10" stroke-linecap="round" stroke-linejoin="round"/>
<path d="M204.417 87.2461L209.739 78.029C210.282 77.0879 211.269 76.4927 212.355 76.4473C216.697 76.2638 227.807 76.0778 230.857 78.7753C234.956 82.4017 235.899 100.081 235.899 100.081C235.899 100.081 220.869 107.098 216.003 105.412C212.072 104.051 206.457 94.2098 204.367 90.3276C203.849 89.3613 203.869 88.1953 204.417 87.2461Z" stroke="#8D8D8D" stroke-miterlimit="10" stroke-linecap="round" stroke-linejoin="round"/>
<path d="M207.75 84.9683V74.3246C207.75 73.2381 208.307 72.2288 209.225 71.6466C212.893 69.3162 222.422 63.6005 226.411 64.4117C231.775 65.5022 241.432 80.3423 241.432 80.3423C241.432 80.3423 231.923 93.9336 226.867 94.9071C222.783 95.694 212.999 89.9783 209.248 87.6609C208.315 87.0843 207.75 86.0645 207.75 84.9683Z" stroke="#8D8D8D" stroke-miterlimit="10" stroke-linecap="round" stroke-linejoin="round"/>
<path d="M209.498 81.329L204.176 72.112C203.633 71.1709 203.611 70.0187 204.114 69.0549C206.126 65.2027 211.52 55.4888 215.381 54.1961C220.571 52.4584 236.354 60.4826 236.354 60.4826C236.354 60.4826 234.915 77.0068 231.023 80.379C227.879 83.1025 216.548 83.0448 212.142 82.9124C211.046 82.8792 210.046 82.2783 209.498 81.329Z" stroke="#8D8D8D" stroke-miterlimit="10" stroke-linecap="round" stroke-linejoin="round"/>
<path d="M209.192 77.3031L199.975 71.9812C199.033 71.438 198.438 70.4506 198.393 69.365C198.209 65.0232 198.023 53.9126 200.721 50.8636C204.347 46.7638 222.027 45.821 222.027 45.821C222.027 45.821 229.043 60.8512 227.358 65.7175C225.997 69.6484 216.155 75.2634 212.273 77.3526C211.308 77.8715 210.142 77.8512 209.192 77.3031Z" stroke="#8D8D8D" stroke-miterlimit="10" stroke-linecap="round" stroke-linejoin="round"/>
<path d="M201.833 129.419C229.189 129.419 251.365 107.243 251.365 79.887C251.365 52.5312 229.189 30.355 201.833 30.355C174.478 30.355 152.301 52.5312 152.301 79.887C152.301 107.243 174.478 129.419 201.833 129.419Z" stroke="#8D8D8D" stroke-miterlimit="10" stroke-linecap="round" stroke-linejoin="round"/>
<path d="M202.288 40.289V30.355" stroke="#8D8D8D" stroke-miterlimit="10" stroke-linecap="round" stroke-linejoin="round"/>
<path d="M201.378 119.486V129.419" stroke="#8D8D8D" stroke-miterlimit="10" stroke-linecap="round" stroke-linejoin="round"/>
<path d="M241.432 80.3425H251.365" stroke="#8D8D8D" stroke-miterlimit="10" stroke-linecap="round" stroke-linejoin="round"/>
<path d="M162.234 79.4324H152.301" stroke="#8D8D8D" stroke-miterlimit="10" stroke-linecap="round" stroke-linejoin="round"/>
<path d="M177.272 55.4197L167.196 45.3428" stroke="#8D8D8D" stroke-miterlimit="10" stroke-linecap="round" stroke-linejoin="round"/>
<path d="M225.821 104.58L236.814 115.572" stroke="#8D8D8D" stroke-miterlimit="10" stroke-linecap="round" stroke-linejoin="round"/>
<path d="M226.126 56.641L237.119 45.6482" stroke="#8D8D8D" stroke-miterlimit="10" stroke-linecap="round" stroke-linejoin="round"/>
<path d="M177.272 103.969L166.585 114.656" stroke="#8D8D8D" stroke-miterlimit="10" stroke-linecap="round" stroke-linejoin="round"/>
<g opacity="0.3">
<path d="M19.0977 290.696H130.738V91.3118C130.738 59.7169 105.125 34.104 73.5301 34.104C43.4682 34.104 19.0977 58.4746 19.0977 88.5364V290.696Z" stroke="black" stroke-miterlimit="10" stroke-linecap="round" stroke-linejoin="round"/>
<path d="M118.133 290.096V91.7242C118.133 67.8571 98.7847 48.5088 74.9176 48.5088C51.0505 48.5088 31.7021 67.8571 31.7021 91.7242V290.095" stroke="black" stroke-miterlimit="10" stroke-linecap="round" stroke-linejoin="round"/>
<path d="M74.918 34.104V290.396" stroke="black" stroke-miterlimit="10" stroke-linecap="round" stroke-linejoin="round"/>
<path d="M130.138 83.4719H19.8481" stroke="black" stroke-miterlimit="10" stroke-linecap="round" stroke-linejoin="round"/>
<path d="M130.138 118.284H19.8481" stroke="black" stroke-miterlimit="10" stroke-linecap="round" stroke-linejoin="round"/>
<path d="M130.138 153.097H19.8481" stroke="black" stroke-miterlimit="10" stroke-linecap="round" stroke-linejoin="round"/>
<path d="M130.138 187.909H19.8481" stroke="black" stroke-miterlimit="10" stroke-linecap="round" stroke-linejoin="round"/>
<path d="M130.138 222.722H19.8481" stroke="black" stroke-miterlimit="10" stroke-linecap="round" stroke-linejoin="round"/>
<path d="M130.138 257.534H19.8481" stroke="black" stroke-miterlimit="10" stroke-linecap="round" stroke-linejoin="round"/>
<path d="M115.391 51.5247L105.389 60.632" stroke="black" stroke-miterlimit="10" stroke-linecap="round" stroke-linejoin="round"/>
<path d="M34.8643 51.5247L44.8657 60.632" stroke="black" stroke-miterlimit="10" stroke-linecap="round" stroke-linejoin="round"/>
</g>
<path d="M247.789 168.862C247.789 168.862 252.833 171.783 259.471 178.95C266.108 186.118 269.824 207.888 262.39 212.137C254.957 216.384 250.444 208.155 250.444 214.526C250.444 220.898 257.612 224.615 249.647 231.252C241.682 237.889 224.691 237.358 222.567 225.677C220.443 213.995 230.001 206.827 231.594 199.128C233.187 191.428 231.063 176.296 232.656 170.455C234.249 164.614 239.028 164.349 247.789 168.862Z" fill="#212121" stroke="#212121" stroke-miterlimit="10" stroke-linecap="round" stroke-linejoin="round"/>
<path d="M128.087 97.0486C128.087 97.0486 126.073 95.384 124.988 95.384C123.903 95.384 123.438 96.7466 121.888 97.9573C120.338 99.168 118.014 99.7737 119.409 100.379C120.804 100.984 122.663 100.682 123.903 99.6219C125.143 98.5622 125.143 99.168 126.073 99.319C127.002 99.47 127.002 99.47 127.002 99.47L128.087 97.0486Z" stroke="#212121" stroke-miterlimit="10" stroke-linecap="round" stroke-linejoin="round"/>
<path d="M125.607 100.53C125.607 100.53 121.423 99.773 121.113 100.984C120.803 102.194 121.113 103.103 121.888 103.708C122.662 104.314 124.057 104.011 124.057 104.011L125.607 100.53Z" stroke="#212121" stroke-miterlimit="10" stroke-linecap="round" stroke-linejoin="round"/>
<path d="M120.803 101.891C120.803 101.891 118.478 102.799 119.098 104.465C119.718 106.129 122.352 106.432 122.352 106.432L123.282 104.465C123.282 104.465 121.733 103.86 120.803 101.891Z" stroke="#212121" stroke-miterlimit="10" stroke-linecap="round" stroke-linejoin="round"/>
<path d="M119.253 105.07C119.253 105.07 118.633 106.13 118.943 107.038C119.253 107.946 121.113 108.702 121.113 108.702L122.353 106.432C122.353 106.432 119.408 105.675 119.253 105.07Z" stroke="#212121" stroke-miterlimit="10" stroke-linecap="round" stroke-linejoin="round"/>
<path d="M118.944 107.038C118.944 107.038 117.859 107.644 118.323 108.551C118.788 109.459 120.183 109.611 120.183 109.611L121.112 108.703C121.112 108.703 119.099 107.643 118.944 107.038Z" stroke="#212121" stroke-miterlimit="10" stroke-linecap="round" stroke-linejoin="round"/>
<path d="M229.205 165.676C229.205 165.676 218.851 158.243 214.602 155.853C210.355 153.463 200.797 151.871 200.797 151.871L176.637 134.083C176.637 134.083 162.301 123.464 155.132 119.481C147.964 115.499 135.752 107.268 135.752 107.268L128.849 97.4448L121.149 110.719L134.158 113.64C134.158 113.64 158.318 135.144 164.424 140.72C170.53 146.296 175.043 148.154 175.043 148.154C175.043 148.154 186.99 160.101 192.035 164.083C197.079 168.065 199.468 169.127 199.468 169.127C199.468 169.127 198.937 180.543 197.875 184.791C196.813 189.038 195.22 192.49 192.831 193.287C190.441 194.083 189.646 194.083 189.646 194.083C189.646 194.083 188.053 209.747 193.362 218.243C198.672 226.739 210.353 226.473 213.54 226.473C216.726 226.473 223.893 216.915 223.893 216.915C223.893 216.915 231.327 213.995 234.247 211.34C237.168 208.685 242.062 197.191 242.062 197.191C242.062 197.191 250.176 199.393 258.938 199.393C267.699 199.393 279.912 194.88 279.912 194.88C279.912 194.88 296.637 194.88 304.602 192.49C312.567 190.101 333.275 182.932 333.275 182.932C333.275 182.932 340.709 185.056 346.549 184.791C352.39 184.525 357.434 183.994 359.027 183.198C360.62 182.401 361.151 180.808 361.151 180.808C361.151 180.808 362.214 180.808 362.745 180.011C363.276 179.215 363.807 178.153 363.807 178.153C363.807 178.153 365.134 178.153 365.134 177.091C365.134 176.029 361.152 174.435 361.152 174.435C361.152 174.435 365.665 172.842 363.807 172.311C361.95 171.78 346.285 171.515 346.285 171.515C346.285 171.515 345.754 170.187 347.878 169.656C350.003 169.125 353.454 166.736 351.861 166.471C350.267 166.205 350.267 166.205 350.267 166.205C350.267 166.205 347.612 167.533 345.489 167.798C343.365 168.064 342.038 168.86 340.976 169.657C339.914 170.453 334.338 176.029 334.338 176.029C334.338 176.029 327.436 177.887 316.551 178.153C305.666 178.418 301.949 178.153 295.046 179.48C288.143 180.808 280.975 182.4 280.975 182.4L262.125 183.462C262.125 183.462 254.691 183.197 252.833 182.666C250.974 182.135 247.258 181.073 242.479 176.294C237.701 171.515 231.063 166.737 231.063 166.737L229.205 165.676Z" fill="white" stroke="#212121" stroke-miterlimit="10" stroke-linecap="round" stroke-linejoin="round"/>
<path d="M361.153 174.437L353.985 174.703" stroke="#212121" stroke-miterlimit="10" stroke-linecap="round" stroke-linejoin="round"/>
<path d="M363.808 178.154L353.719 177.623" stroke="#212121" stroke-miterlimit="10" stroke-linecap="round" stroke-linejoin="round"/>
<path d="M361.153 180.809L354.781 181.074" stroke="#212121" stroke-miterlimit="10" stroke-linecap="round" stroke-linejoin="round"/>
<path d="M353.985 173.64L354.781 182.136" stroke="#212121" stroke-miterlimit="10" stroke-linecap="round" stroke-linejoin="round"/>
<path d="M346.551 173.375C346.551 173.375 346.551 174.437 346.02 176.296C345.489 178.154 339.648 178.42 339.648 178.42" stroke="#212121" stroke-miterlimit="10" stroke-linecap="round" stroke-linejoin="round"/>
<path d="M279.914 194.88L294.781 190.897" stroke="#212121" stroke-miterlimit="10" stroke-linecap="round" stroke-linejoin="round"/>
<path d="M242.063 197.191L244.338 192.49" stroke="#212121" stroke-miterlimit="10" stroke-linecap="round" stroke-linejoin="round"/>
<path d="M199.47 169.127L204.514 172.313" stroke="#212121" stroke-miterlimit="10" stroke-linecap="round" stroke-linejoin="round"/>
<path d="M203.983 167.003L205.045 174.171" stroke="#212121" stroke-miterlimit="10" stroke-linecap="round" stroke-linejoin="round"/>
<path d="M233.718 183.464C233.718 183.464 235.311 179.482 237.434 174.968C239.559 170.455 242.478 170.721 243.541 171.252C244.603 171.783 248.585 173.11 249.647 172.048C250.709 170.986 256.019 162.491 256.019 162.491C256.019 162.491 258.674 162.491 259.47 161.163L257.345 155.588C257.345 155.588 258.939 153.995 258.939 152.402C258.939 150.809 258.939 148.154 258.939 148.154C258.939 148.154 260.001 142.314 260.001 140.986C260.001 139.658 254.691 138.066 249.381 140.455C244.072 142.845 229.204 148.951 227.612 152.667C226.018 156.384 225.487 164.614 225.487 164.614C225.487 164.614 224.691 168.066 223.098 173.11" fill="white"/>
<path d="M233.718 183.464C233.718 183.464 235.311 179.482 237.434 174.968C239.559 170.455 242.478 170.721 243.541 171.252C244.603 171.783 248.585 173.11 249.647 172.048C250.709 170.986 256.019 162.491 256.019 162.491C256.019 162.491 258.674 162.491 259.47 161.163L257.345 155.588C257.345 155.588 258.939 153.995 258.939 152.402C258.939 150.809 258.939 148.154 258.939 148.154C258.939 148.154 260.001 142.314 260.001 140.986C260.001 139.658 254.691 138.066 249.381 140.455C244.072 142.845 229.204 148.951 227.612 152.667C226.018 156.384 225.487 164.614 225.487 164.614C225.487 164.614 224.691 168.066 223.098 173.11" stroke="#212121" stroke-miterlimit="10" stroke-linecap="round" stroke-linejoin="round"/>
<path d="M237.701 155.056C237.701 155.056 236.904 148.419 233.453 150.012C230.002 151.605 230.533 156.65 231.595 158.243C232.657 159.836 234.515 159.57 231.064 161.694C227.613 163.819 224.426 165.145 222.037 161.694C219.647 158.243 215.399 151.075 220.443 142.579C225.488 134.083 236.638 127.18 246.196 127.977C255.754 128.774 255.488 132.49 255.488 132.49C255.488 132.49 262.125 128.243 266.638 135.411C271.151 142.579 269.293 146.561 267.435 146.561C265.576 146.561 264.779 144.437 264.779 144.437C264.779 144.437 263.452 147.092 262.124 147.623C260.797 148.154 258.939 148.154 258.939 148.154L258.142 142.844C258.142 142.844 250.177 141.516 249.115 144.703C248.053 147.888 247.522 151.871 244.337 153.464C241.152 155.056 237.701 155.056 237.701 155.056Z" fill="#212121" stroke="#212121" stroke-miterlimit="10" stroke-linecap="round" stroke-linejoin="round"/>
<path d="M255.355 155.322C255.355 156.201 254.94 156.915 254.426 156.915C253.913 156.915 253.498 156.202 253.498 155.322C253.498 154.443 253.913 153.729 254.426 153.729C254.94 153.729 255.355 154.443 255.355 155.322Z" fill="#212121"/>
<path d="M252.302 152.136C252.302 152.136 254.161 149.481 256.815 152.136" stroke="#212121" stroke-miterlimit="10" stroke-linecap="round" stroke-linejoin="round"/>
<path d="M248.851 162.756C248.851 162.756 249.648 165.146 252.302 165.146" stroke="#212121" stroke-miterlimit="10" stroke-linecap="round" stroke-linejoin="round"/>
<path d="M243.542 171.252L236.904 165.146L237.966 173.641C237.966 173.641 239.559 169.393 243.542 171.252Z" fill="#212121" stroke="#212121" stroke-miterlimit="10" stroke-linecap="round" stroke-linejoin="round"/>
<path d="M189.647 194.083L187.257 193.818C187.257 193.818 181.682 187.977 173.451 185.853C165.221 183.729 152.743 186.65 152.743 186.65C152.743 186.65 138.937 178.95 129.911 173.109C120.884 167.269 111.061 161.959 111.061 161.959C111.061 161.959 120.884 141.782 122.477 131.162C124.07 120.543 126.194 113.64 127.521 111.251C128.849 108.861 130.177 106.206 130.177 106.206C130.177 106.206 135.486 108.331 137.345 106.472C139.204 104.613 138.407 97.976 138.673 95.8526C138.938 93.7284 139.469 87.8877 139.469 85.4988C139.469 83.109 139.469 82.0478 139.469 82.0478C139.469 82.0478 141.062 79.127 138.938 79.658C136.814 80.1891 135.487 82.0478 134.425 83.6401C133.363 85.2332 128.584 95.8526 125.133 101.428C121.682 107.003 111.328 123.729 104.69 135.411C98.053 147.092 93.5399 161.96 91.1502 167.27C88.7605 172.579 90.8847 177.623 91.9468 178.42C93.0089 179.217 105.752 192.491 116.637 199.128C127.522 205.766 133.628 210.544 137.08 211.872C140.531 213.2 150.355 220.368 151.417 224.084C152.479 227.802 147.169 247.447 151.151 260.456C155.133 273.465 156.195 282.492 155.93 287.537C155.664 292.581 151.948 298.687 151.948 308.245C151.948 317.803 156.727 335.06 157.258 337.98C157.789 340.9 159.913 351.785 159.913 355.502C159.913 359.218 158.851 367.714 159.382 368.776C159.913 369.838 166.55 370.635 168.673 370.104C170.798 369.573 172.39 369.042 174.514 369.042C176.638 369.042 181.948 369.838 185.133 369.838C188.319 369.838 191.24 370.104 191.505 369.042C191.771 367.98 188.85 366.652 187.789 366.387C186.727 366.121 180.089 363.731 176.904 360.015C173.718 356.298 170.267 352.847 169.47 350.722C168.673 348.598 170.267 322.58 171.329 313.819C172.391 305.058 173.718 295.235 174.249 292.845C174.78 290.456 177.169 285.412 178.496 275.589C179.824 265.766 181.948 238.951 182.213 236.827C182.478 234.703 183.806 230.19 183.806 230.19C183.806 230.19 199.469 227.269 203.187 227.269C206.903 227.269 212.213 227.004 214.868 225.676C217.523 224.348 218.054 220.101 215.134 216.914C212.213 213.729 202.921 209.481 199.735 203.905C196.549 198.33 194.425 195.941 194.425 195.941L189.647 194.083Z" fill="white" stroke="#212121" stroke-miterlimit="10" stroke-linecap="round" stroke-linejoin="round"/>
<path d="M188.151 193.917L187.258 193.818C187.258 193.818 181.682 187.977 173.452 185.853C165.222 183.729 152.744 186.65 152.744 186.65C152.744 186.65 138.938 178.95 129.912 173.11C120.885 167.269 111.062 161.959 111.062 161.959C111.062 161.959 120.885 141.782 122.478 131.162C122.838 128.762 123.226 126.563 123.625 124.552C119.965 121.843 116.721 120.276 114.142 119.374C110.857 124.815 107.453 130.549 104.69 135.411C98.053 147.092 93.5399 161.96 91.1502 167.27C88.7605 172.579 90.8847 177.623 91.9468 178.42C93.0089 179.217 105.752 192.491 116.637 199.128C127.522 205.766 133.628 210.544 137.08 211.872C140.531 213.2 150.355 220.368 151.417 224.084C152.479 227.801 147.169 247.447 151.151 260.456C155.133 273.465 156.195 282.492 155.93 287.537C155.664 292.581 151.948 298.687 151.948 308.245C151.948 317.803 156.727 335.06 157.258 337.98C157.334 338.401 157.445 338.993 157.577 339.701C163.013 340.806 166.845 340.175 169.489 339.011C169.883 330.262 170.699 319.012 171.328 313.82C172.39 305.059 173.718 295.236 174.249 292.846C174.78 290.456 177.169 285.412 178.496 275.59C179.824 265.767 181.947 238.952 182.213 236.828C182.478 234.704 183.806 230.191 183.806 230.191C183.806 230.191 185.991 229.783 188.921 229.273C181.672 215.775 186.025 199.93 188.151 193.917Z" fill="#212121" stroke="#212121" stroke-miterlimit="10" stroke-linecap="round" stroke-linejoin="round"/>
<path d="M238.064 205.193C242.063 195.266 240.355 193.076 240.355 189.57C240.355 184.261 240.621 174.703 240.621 174.703L240.308 174.233C240.051 173.999 239.794 173.766 239.535 173.537C239.441 175.029 239.012 180.285 237.435 184.791C235.576 190.101 231.063 193.287 223.895 188.242C216.727 183.198 221.771 174.967 221.771 174.967C221.771 174.967 224.583 166.063 224.482 162.344C223.576 161.714 222.602 161.041 221.615 160.368C221.683 163.736 221.376 170.383 218.319 174.968C214.071 181.34 209.292 185.322 204.248 184.525C201.662 184.117 199.639 183.361 198.277 182.72C198.153 183.51 198.02 184.218 197.876 184.791C196.814 189.038 195.221 192.49 192.832 193.287C190.442 194.083 189.646 194.083 189.646 194.083C189.646 194.083 188.053 209.747 193.363 218.243C198.673 226.739 210.354 226.473 213.54 226.473C216.727 226.473 223.894 216.916 223.894 216.916C223.894 216.916 231.328 213.995 234.248 211.341C235.918 209.822 237.238 207.181 238.064 205.193Z" fill="#76C757" stroke="#212121" stroke-miterlimit="10" stroke-linecap="round" stroke-linejoin="round"/>
<path d="M200.798 195.146C200.798 195.146 201.063 202.579 208.497 204.173" stroke="#212121" stroke-miterlimit="10" stroke-linecap="round" stroke-linejoin="round"/>
<path d="M309.372 370.272H394.632" stroke="#212121" stroke-miterlimit="10" stroke-linecap="round" stroke-linejoin="round"/>
<path d="M13.8042 370.272H300.44" stroke="#212121" stroke-miterlimit="10" stroke-linecap="round" stroke-linejoin="round"/>
</svg>
