<svg width="382" height="383" viewBox="0 0 382 383" fill="none" xmlns="http://www.w3.org/2000/svg">
<path d="M375.313 381.646C378.264 366.644 384.904 327.829 380.575 301.247C375.11 267.683 359.259 290.319 342.315 298.125C325.371 305.931 331.384 253.632 339.036 195.089C346.688 136.546 320.999 74.8814 288.204 63.953C255.409 53.0246 244.44 139.234 229.72 161.524C215.001 183.816 168.504 52.2454 120.952 77.2232C73.4 102.202 71.7604 227.094 61.3752 248.95C50.9901 270.806 11.637 195.871 2.34528 239.583C-5.50066 276.494 8.47773 357.374 13.0173 381.647H375.313V381.646Z" fill="#76C757"/>
<path opacity="0.7" d="M375.313 381.646C378.264 366.644 384.904 327.829 380.575 301.247C375.11 267.683 359.259 290.319 342.315 298.125C325.371 305.931 331.384 253.632 339.036 195.089C346.688 136.546 320.999 74.8814 288.204 63.953C255.409 53.0246 244.44 139.234 229.72 161.524C215.001 183.816 168.504 52.2454 120.952 77.2232C73.4 102.202 71.7604 227.094 61.3752 248.95C50.9901 270.806 11.637 195.871 2.34528 239.583C-5.50066 276.494 8.47773 357.374 13.0173 381.647H375.313V381.646Z" fill="white"/>
<path d="M17.9756 382L376.123 381.647" stroke="#212121" stroke-miterlimit="10" stroke-linecap="round" stroke-linejoin="round"/>
<path d="M170.739 313.5H50.2983V328.993H170.739V313.5Z" stroke="#212121" stroke-miterlimit="10" stroke-linecap="round" stroke-linejoin="round"/>
<path d="M286.631 291.246C285.764 291.928 285.213 292.982 285.213 294.169V313.5H169.842C169.967 305.523 168.637 286.624 167.322 272.963C167.366 264.297 167.609 257.741 168.064 257.397C169.445 256.364 189.464 255.331 227.091 256.708C264.71 258.085 276.449 254.298 280.938 255.331C284.537 256.159 286.139 281.291 286.631 291.246Z" stroke="#212121" stroke-miterlimit="10" stroke-linecap="round" stroke-linejoin="round"/>
<path d="M169.842 313.5H50.2984V294.169C50.2984 292.147 48.6823 290.499 46.6694 290.448C47.213 280.01 48.8219 256.137 52.326 255.331C56.8145 254.298 68.5463 258.085 106.173 256.708C143.8 255.331 163.819 256.364 165.2 257.397C165.655 257.741 166.485 264.297 167.323 272.963C168.638 286.624 169.967 305.523 169.842 313.5Z" stroke="#212121" stroke-miterlimit="10" stroke-linecap="round" stroke-linejoin="round"/>
<path d="M171.186 313.5V317.346C171.025 317.346 170.878 317.353 170.738 317.353V313.5H171.186Z" stroke="#212121" stroke-miterlimit="10" stroke-linecap="round" stroke-linejoin="round"/>
<path d="M285.214 328.993H50.2983V371.333H285.214V328.993Z" stroke="#212121" stroke-miterlimit="10" stroke-linecap="round" stroke-linejoin="round"/>
<path d="M171.186 313.5H170.738V328.993H171.186V313.5Z" stroke="#212121" stroke-miterlimit="10" stroke-linecap="round" stroke-linejoin="round"/>
<path d="M285.214 313.5H171.187V328.993H285.214V313.5Z" stroke="#212121" stroke-miterlimit="10" stroke-linecap="round" stroke-linejoin="round"/>
<path d="M171.186 313.5H170.738V328.993H171.186V313.5Z" stroke="#212121" stroke-miterlimit="10" stroke-linecap="round" stroke-linejoin="round"/>
<path d="M302.132 294.169V378.834C302.132 380.585 300.706 381.999 298.958 381.999H288.387C286.631 381.999 285.213 380.585 285.213 378.834V294.169C285.213 292.983 285.764 291.928 286.631 291.246C287.27 290.741 288.071 290.441 288.953 290.441H298.392C300.457 290.441 302.132 292.111 302.132 294.169Z" stroke="#212121" stroke-miterlimit="10" stroke-linecap="round" stroke-linejoin="round"/>
<path d="M50.2981 294.169V378.834C50.2981 380.585 48.8729 381.999 47.1245 381.999H36.5534C34.7977 381.999 33.3799 380.585 33.3799 378.834V294.169C33.3799 292.111 35.0548 290.441 37.1191 290.441H46.5589C46.5956 290.441 46.6323 290.441 46.6691 290.448C48.6819 290.499 50.2981 292.147 50.2981 294.169Z" stroke="#212121" stroke-miterlimit="10" stroke-linecap="round" stroke-linejoin="round"/>
<path d="M165.801 115.749H130.688V160.765H165.801V115.749Z" stroke="#212121" stroke-miterlimit="10" stroke-linecap="round" stroke-linejoin="round"/>
<path d="M163.534 118.655H132.956V157.858H163.534V118.655Z" stroke="#212121" stroke-miterlimit="10" stroke-linecap="round" stroke-linejoin="round"/>
<path d="M153.18 131.929H143.309V144.584H153.18V131.929Z" stroke="#212121" stroke-miterlimit="10" stroke-linecap="round" stroke-linejoin="round"/>
<path d="M124.305 149.396H89.1924V194.412H124.305V149.396Z" stroke="#212121" stroke-miterlimit="10" stroke-linecap="round" stroke-linejoin="round"/>
<path d="M122.037 152.303H91.459V191.506H122.037V152.303Z" stroke="#212121" stroke-miterlimit="10" stroke-linecap="round" stroke-linejoin="round"/>
<path d="M111.684 165.577H101.813V178.232H111.684V165.577Z" stroke="#212121" stroke-miterlimit="10" stroke-linecap="round" stroke-linejoin="round"/>
<path d="M210.717 149.396H175.604V194.412H210.717V149.396Z" stroke="#212121" stroke-miterlimit="10" stroke-linecap="round" stroke-linejoin="round"/>
<path d="M208.45 152.303H177.872V191.506H208.45V152.303Z" stroke="#212121" stroke-miterlimit="10" stroke-linecap="round" stroke-linejoin="round"/>
<path d="M198.096 165.577H188.225V178.232H198.096V165.577Z" stroke="#212121" stroke-miterlimit="10" stroke-linecap="round" stroke-linejoin="round"/>
<path d="M165.801 167.85H130.688V194.146H165.801V167.85Z" stroke="#212121" stroke-miterlimit="10" stroke-linecap="round" stroke-linejoin="round"/>
<path d="M163.534 169.548H132.956V192.449H163.534V169.548Z" stroke="#212121" stroke-miterlimit="10" stroke-linecap="round" stroke-linejoin="round"/>
<path d="M153.18 177.302H143.309V184.694H153.18V177.302Z" stroke="#212121" stroke-miterlimit="10" stroke-linecap="round" stroke-linejoin="round"/>
<path d="M169.474 225.346V202.694H152.412V225.346H169.474Z" stroke="#212121" stroke-miterlimit="10" stroke-linecap="round" stroke-linejoin="round"/>
<path d="M168.373 223.884V204.156H153.514V223.884H168.373Z" stroke="#212121" stroke-miterlimit="10" stroke-linecap="round" stroke-linejoin="round"/>
<path d="M163.341 217.204V210.836H158.545V217.204H163.341Z" stroke="#212121" stroke-miterlimit="10" stroke-linecap="round" stroke-linejoin="round"/>
<path d="M144.26 225.346V202.694H127.199V225.346H144.26Z" stroke="#212121" stroke-miterlimit="10" stroke-linecap="round" stroke-linejoin="round"/>
<path d="M143.159 223.884V204.156H128.3V223.884H143.159Z" stroke="#212121" stroke-miterlimit="10" stroke-linecap="round" stroke-linejoin="round"/>
<path d="M138.127 217.204V210.836H133.331V217.204H138.127Z" stroke="#212121" stroke-miterlimit="10" stroke-linecap="round" stroke-linejoin="round"/>
<path d="M174.572 83.4546C174.572 83.4546 168.449 86.9142 162.827 97.2375C157.204 107.561 149.53 120.217 143.472 127.649C137.413 135.082 133.778 139.1 137.211 143.721C140.644 148.341 164.474 166.823 164.474 166.823C164.474 166.823 165.08 170.84 166.09 172.448C167.1 174.056 168.311 175.863 168.311 175.863C168.311 175.863 165.484 176.063 167.099 177.671C168.714 179.279 172.35 181.287 172.956 181.287C173.562 181.287 179.217 166.823 178.812 166.02C178.408 165.216 168.108 157.582 165.887 152.76C163.666 147.94 158.819 138.297 158.819 138.297L168.513 126.646C168.513 126.646 168.513 106.155 171.138 96.9142C173.764 87.6727 175.784 83.0524 174.572 83.4546Z" fill="white" stroke="#212121" stroke-miterlimit="10" stroke-linecap="round" stroke-linejoin="round"/>
<path d="M157.608 136.288C157.608 136.288 152.358 130.262 149.126 129.056" stroke="#212121" stroke-miterlimit="10" stroke-linecap="round" stroke-linejoin="round"/>
<path d="M168.312 175.863L170.533 177.872" stroke="#212121" stroke-miterlimit="10" stroke-linecap="round" stroke-linejoin="round"/>
<path d="M225.339 47.6707C225.339 47.6707 221.715 58.4847 221.489 67.0467C221.263 75.6087 232.134 72.9044 239.383 77.6356C246.63 82.3668 248.442 86.6478 248.669 96.3353C248.895 106.023 231.002 139.593 230.323 144.1C229.643 148.606 232.361 165.954 232.588 171.361C232.814 176.769 233.494 189.161 234.4 192.315C235.306 195.47 238.024 217.774 237.345 238.503C236.665 259.23 235.08 262.16 236.439 267.567C237.797 272.975 242.327 284.69 238.93 304.968C235.533 325.245 231.455 343.72 231.455 346.423C231.455 349.126 232.361 357.463 232.361 357.463H216.96C216.96 357.463 215.828 352.957 215.828 343.72C215.828 334.482 216.28 326.146 215.602 317.81C214.922 309.474 211.072 299.335 209.939 288.295C208.807 277.255 210.392 266.441 210.392 266.441L203.144 233.996C203.144 233.996 198.162 267.567 197.934 269.594C197.708 271.622 197.028 276.803 199.519 286.267C202.011 295.729 200.199 307.446 198.613 312.177C197.028 316.908 191.818 342.142 191.818 342.142L190.912 358.815C190.912 358.815 185.25 363.546 182.532 363.096C179.815 362.645 175.285 359.266 175.057 357.913C174.831 356.562 173.925 300.687 173.472 294.603C173.02 288.52 172.792 274.776 172.792 274.776C172.792 274.776 169.35 260.756 168.472 246.138C167.92 236.97 167.364 223.317 170.981 192.091C173.046 174.268 171.207 150.635 169.849 141.397C168.49 132.16 164.186 124.95 165.999 107.151C167.811 89.3521 175.511 80.7911 182.306 78.0868C189.101 75.3836 196.348 75.6087 198.613 71.5528C200.878 67.4969 200.426 59.6123 200.426 59.6123L225.339 47.6707Z" fill="white" stroke="#212121" stroke-miterlimit="10" stroke-linecap="round" stroke-linejoin="round"/>
<path d="M200.698 63.873C202.592 63.3865 221.786 63.1177 221.786 63.1177L225.339 47.6707L200.698 63.873Z" fill="#212121" stroke="#212121" stroke-miterlimit="10" stroke-linecap="round" stroke-linejoin="round"/>
<path d="M215.87 346.734H231.46C231.518 349.701 232.361 357.463 232.361 357.463H216.959C216.959 357.463 216.076 353.933 215.87 346.734Z" fill="#D6D6D6" stroke="#212121" stroke-miterlimit="10" stroke-linecap="round" stroke-linejoin="round"/>
<path d="M191.569 346.734L190.913 358.814C190.913 358.814 185.25 363.546 182.533 363.095C179.815 362.644 175.285 359.266 175.058 357.913C174.996 357.544 174.883 353.107 174.744 346.734H191.569Z" fill="#D6D6D6" stroke="#212121" stroke-miterlimit="10" stroke-linecap="round" stroke-linejoin="round"/>
<path d="M198.074 14.2605C198.074 14.2605 191.7 39.0665 190.387 42.7971C189.074 46.5276 190.012 48.2057 192.449 54.5477C194.887 60.8887 196.012 63.1268 200.699 63.8735C205.387 64.6192 212.886 61.8221 217.199 59.0239C221.511 56.2258 225.449 50.8172 227.136 47.8334C228.824 44.8496 233.51 26.5713 233.51 26.5713C233.51 26.5713 234.823 18.9245 228.073 14.4483C221.323 9.97207 215.135 7.92064 210.448 8.85301C205.761 9.78432 198.074 14.2605 198.074 14.2605Z" fill="white" stroke="#212121" stroke-miterlimit="10" stroke-linecap="round" stroke-linejoin="round"/>
<path d="M203.699 25.8245C203.699 25.8245 203.511 30.8608 200.699 35.5226C197.887 40.1855 196.917 40.9269 198.041 42.605C199.166 44.2841 203.804 46.9554 207.554 42.2935" stroke="#212121" stroke-miterlimit="10" stroke-linecap="round" stroke-linejoin="round"/>
<path d="M211.01 45.7808C211.01 45.7808 207.635 51.7494 199.011 50.4437" stroke="#212121" stroke-miterlimit="10" stroke-linecap="round" stroke-linejoin="round"/>
<path d="M210.636 25.8246C210.636 25.8246 215.323 24.892 217.948 29.7431" stroke="#212121" stroke-miterlimit="10" stroke-linecap="round" stroke-linejoin="round"/>
<path d="M203.135 23.7729C203.135 23.7729 200.885 19.8544 197.698 22.28" stroke="#212121" stroke-miterlimit="10" stroke-linecap="round" stroke-linejoin="round"/>
<path d="M211.383 34.4158C211.044 35.4615 211.275 36.471 211.897 36.6706C212.519 36.8701 213.298 36.185 213.637 35.1393C213.976 34.0935 213.746 33.084 213.123 32.8845C212.501 32.6838 211.722 33.37 211.383 34.4158Z" fill="#212121"/>
<path d="M199.423 30.3911C199.084 31.4368 199.315 32.4463 199.937 32.6459C200.56 32.8454 201.338 32.1603 201.677 31.1146C202.016 30.0688 201.785 29.0593 201.162 28.8597C200.54 28.6602 199.761 29.3453 199.423 30.3911Z" fill="#212121"/>
<path d="M230.886 43.9162C230.886 43.9162 240.823 25.8246 239.136 20.7883C237.448 15.752 214.199 -1.03388 201.824 1.20424C189.45 3.44236 199.387 6.24053 199.387 6.24053C199.387 6.24053 189.074 11.2758 189.074 15.0063C189.074 18.7369 214.387 13.8873 214.387 13.8873C214.387 13.8873 209.324 17.9901 212.137 18.9235C214.949 19.8559 220.949 21.1617 221.512 21.3483C222.075 21.535 228.825 26.9436 226.387 26.9436C223.949 26.9436 221.138 25.8246 222.45 28.2494C223.763 30.6742 225.45 32.7256 225.45 32.7256C225.45 32.7256 223.949 42.6105 224.137 43.5428C224.325 44.4752 227.7 41.118 227.7 41.118L230.886 43.9162Z" fill="#212121" stroke="#212121" stroke-miterlimit="10" stroke-linecap="round" stroke-linejoin="round"/>
<path d="M224.396 46.0254C224.396 46.0254 229.341 39.0295 232.262 40.7246C235.183 42.4208 231.363 51.5375 229.341 52.8091C227.318 54.0807 221.7 51.7487 221.7 51.7487" fill="white"/>
<path d="M224.396 46.0254C224.396 46.0254 229.341 39.0295 232.262 40.7246C235.183 42.4208 231.363 51.5375 229.341 52.8091C227.318 54.0807 221.7 51.7487 221.7 51.7487" stroke="#212121" stroke-miterlimit="10" stroke-linecap="round" stroke-linejoin="round"/>
<path d="M231.091 157.172C231.719 162.818 232.473 168.623 232.588 171.362C232.814 176.77 233.494 189.161 234.4 192.315C235.306 195.469 238.024 217.774 237.345 238.502C237.209 242.648 237.037 246.072 236.859 248.956H206.486L203.144 233.996C203.144 233.996 202.091 241.092 200.931 248.956H168.673C168.597 248.021 168.53 247.08 168.473 246.136C167.922 236.968 167.365 223.316 170.982 192.09C172.257 181.078 172.043 167.853 171.373 157.172H231.091Z" fill="#212121" stroke="#212121" stroke-miterlimit="10" stroke-linecap="round" stroke-linejoin="round"/>
<path d="M166.451 115.261C170.301 102.644 175.511 98.8141 180.041 92.7302C182.73 89.1192 186.054 81.704 188.315 76.2698C190.229 75.8046 192.039 75.4003 193.626 74.8925C192.134 77.264 189.166 83.0001 187.516 93.1804C185.251 107.149 191.82 107.149 201.106 103.769C210.392 100.39 218.093 80.3374 220.584 75.8324C221.638 73.926 222.446 72.5083 223.031 71.5012C224.282 72.7558 226.19 73.4214 228.384 73.9719C224.398 77.7643 216.961 86.704 214.017 98.588C209.939 115.035 220.811 128.103 228.739 129.229C231.467 129.616 234.403 129.089 237.09 128.241C233.594 135.904 230.594 142.306 230.324 144.099C229.901 146.902 230.793 154.672 231.582 161.447H171.677C171.25 153.019 170.478 145.665 169.85 141.395C168.805 134.293 166.023 128.384 165.614 117.947C165.889 117.077 166.168 116.188 166.451 115.261Z" fill="#76C757" stroke="#212121" stroke-miterlimit="10" stroke-linecap="round" stroke-linejoin="round"/>
<path d="M153.768 102.87C165.776 102.87 175.511 93.1865 175.511 81.2411C175.511 69.2957 165.776 59.6121 153.768 59.6121C141.759 59.6121 132.024 69.2957 132.024 81.2411C132.024 93.1865 141.759 102.87 153.768 102.87Z" fill="#878787" stroke="#212121" stroke-miterlimit="10" stroke-linecap="round" stroke-linejoin="round"/>
<path d="M156.033 102.87C168.042 102.87 177.776 93.1865 177.776 81.2411C177.776 69.2957 168.042 59.6121 156.033 59.6121C144.024 59.6121 134.29 69.2957 134.29 81.2411C134.29 93.1865 144.024 102.87 156.033 102.87Z" fill="#212121" stroke="#212121" stroke-miterlimit="10" stroke-linecap="round" stroke-linejoin="round"/>
<path d="M156.033 86.5474C158.979 86.5474 161.367 84.1718 161.367 81.2412C161.367 78.3107 158.979 75.9351 156.033 75.9351C153.087 75.9351 150.699 78.3107 150.699 81.2412C150.699 84.1718 153.087 86.5474 156.033 86.5474Z" fill="#878787" stroke="#212121" stroke-miterlimit="10" stroke-linecap="round" stroke-linejoin="round"/>
<path d="M239.383 77.6352C239.383 77.6352 248.895 81.6911 249.801 91.3786C250.708 101.066 248.216 115.711 239.383 123.597C230.549 131.482 215.601 155.364 211.524 154.914C207.447 154.464 172.25 124.917 165.614 117.949C158.978 110.981 149.918 103.095 146.974 98.589C144.029 94.0829 142.218 87.0986 141.992 85.2958C141.765 83.4929 149.693 76.0585 152.184 76.2836C154.675 76.5087 158.299 82.5915 158.299 82.5915C158.299 82.5915 163.055 84.1682 163.508 85.746C163.96 87.3227 162.601 89.3506 162.601 90.9273C162.601 92.504 163.508 95.6585 162.828 97.2363C162.148 98.8141 161.469 100.841 161.469 100.841C161.469 100.841 167.358 105.572 171.888 107.6C176.417 109.628 204.729 119.541 204.729 119.541C204.729 119.541 208.353 110.528 210.392 107.6C212.431 104.671 217.187 101.742 217.187 101.742C217.187 101.742 217.867 95.8847 219.904 92.9553" fill="white"/>
<path d="M239.383 77.6352C239.383 77.6352 248.895 81.6911 249.801 91.3786C250.708 101.066 248.216 115.711 239.383 123.597C230.549 131.482 215.601 155.364 211.524 154.914C207.447 154.464 172.25 124.917 165.614 117.949C158.978 110.981 149.918 103.095 146.974 98.589C144.029 94.0829 142.218 87.0986 141.992 85.2958C141.765 83.4929 149.693 76.0585 152.184 76.2836C154.675 76.5087 158.299 82.5915 158.299 82.5915C158.299 82.5915 163.055 84.1682 163.508 85.746C163.96 87.3227 162.601 89.3506 162.601 90.9273C162.601 92.504 163.508 95.6585 162.828 97.2363C162.148 98.8141 161.469 100.841 161.469 100.841C161.469 100.841 167.358 105.572 171.888 107.6C176.417 109.628 204.729 119.541 204.729 119.541C204.729 119.541 208.353 110.528 210.392 107.6C212.431 104.671 217.187 101.742 217.187 101.742C217.187 101.742 217.867 95.8847 219.904 92.9553" stroke="#212121" stroke-miterlimit="10" stroke-linecap="round" stroke-linejoin="round"/>
<path d="M204.729 119.542C204.729 119.542 205.635 124.048 207.673 126.301" stroke="#212121" stroke-miterlimit="10" stroke-linecap="round" stroke-linejoin="round"/>
<path d="M164.236 102.931C166.354 104.459 169.336 106.459 171.887 107.601C172.87 108.041 174.974 108.852 177.662 109.853L170.234 122.349C168.204 120.505 166.592 118.977 165.614 117.95C163.681 115.92 161.542 113.813 159.409 111.735L164.236 102.931Z" fill="#76C757" stroke="#212121" stroke-miterlimit="10" stroke-linecap="round" stroke-linejoin="round"/>
<path d="M162.6 102.87C174.609 102.87 184.344 93.1865 184.344 81.2411C184.344 69.2957 174.609 59.6121 162.6 59.6121C150.592 59.6121 140.857 69.2957 140.857 81.2411C140.857 93.1865 150.592 102.87 162.6 102.87Z" fill="#878787" stroke="#212121" stroke-miterlimit="10" stroke-linecap="round" stroke-linejoin="round"/>
<path d="M164.865 102.87C176.874 102.87 186.609 93.1865 186.609 81.2411C186.609 69.2957 176.874 59.6121 164.865 59.6121C152.857 59.6121 143.122 69.2957 143.122 81.2411C143.122 93.1865 152.857 102.87 164.865 102.87Z" fill="#878787" stroke="#212121" stroke-miterlimit="10" stroke-linecap="round" stroke-linejoin="round"/>
<path d="M164.865 86.5474C167.812 86.5474 170.2 84.1718 170.2 81.2412C170.2 78.3107 167.812 75.9351 164.865 75.9351C161.919 75.9351 159.531 78.3107 159.531 81.2412C159.531 84.1718 161.919 86.5474 164.865 86.5474Z" fill="#878787" stroke="#212121" stroke-miterlimit="10" stroke-linecap="round" stroke-linejoin="round"/>
<path d="M217.292 351.988C217.292 351.988 220.809 346.04 225.733 346.565C230.658 347.09 231.009 351.988 231.009 353.563C231.009 355.137 234.703 360.561 235.054 362.484C235.406 364.409 237.341 368.083 237.869 368.433C238.396 368.783 240.507 370.182 241.562 372.107C242.617 374.031 243.673 376.831 243.321 378.755C242.969 380.68 240.683 380.505 238.748 380.68C236.813 380.854 216.237 380.68 216.237 380.68C216.237 380.68 214.478 378.755 213.95 375.781C213.423 372.807 214.302 367.909 213.95 363.885C213.598 359.861 212.367 355.838 213.598 354.089C214.83 352.338 217.292 351.988 217.292 351.988Z" fill="#8D8D8D" stroke="#212121" stroke-miterlimit="10" stroke-linecap="round" stroke-linejoin="round"/>
<path d="M214.256 377.005H243.314C243.401 377.629 243.417 378.227 243.321 378.755C242.969 380.68 240.683 380.505 238.748 380.68C236.813 380.855 216.237 380.68 216.237 380.68C216.237 380.68 214.958 379.268 214.256 377.005Z" fill="#8D8D8D" stroke="#212121" stroke-miterlimit="10" stroke-linecap="round" stroke-linejoin="round"/>
<path d="M193.023 354.437C193.023 354.437 193.551 374.206 193.375 376.13C193.199 378.055 192.495 379.104 190.912 379.629C189.33 380.154 178.25 379.804 175.26 380.504C172.27 381.204 160.312 381.904 157.674 381.554C155.036 381.204 151.694 382.078 151.166 378.929C150.639 375.78 152.222 373.156 152.749 372.981C153.277 372.806 162.773 368.257 165.587 366.333C168.401 364.408 171.919 360.559 172.797 358.811C173.676 357.061 173.501 351.988 175.787 352.163C178.073 352.338 180.184 355.312 180.887 356.886C181.591 358.461 181.591 358.461 181.591 358.461C181.591 358.461 188.274 357.761 189.68 357.236C191.088 356.711 190.912 352.862 193.023 354.437Z" fill="#8D8D8D" stroke="#212121" stroke-miterlimit="10" stroke-linecap="round" stroke-linejoin="round"/>
<path d="M157.674 381.554C155.035 381.204 151.694 382.079 151.166 378.93C151.135 378.745 151.134 378.57 151.117 378.391C155.325 379.062 163.007 379.234 169.632 378.23C175.903 377.28 188.19 375.912 193.402 375.343C193.397 375.701 193.387 375.978 193.373 376.13C193.198 378.055 192.494 379.104 190.911 379.629C189.328 380.154 178.249 379.804 175.259 380.504C172.27 381.204 160.312 381.903 157.674 381.554Z" fill="#8D8D8D" stroke="#212121" stroke-miterlimit="10" stroke-linecap="round" stroke-linejoin="round"/>
<path d="M289.888 138.9H282.07C281.272 138.9 280.53 138.492 280.103 137.82C278.391 135.133 274.192 128.153 274.788 125.23C275.589 121.301 286.491 114.228 286.491 114.228C286.491 114.228 296.475 121.193 297.19 124.897C297.768 127.888 293.57 135.055 291.867 137.803C291.444 138.486 290.694 138.9 289.888 138.9Z" stroke="#212121" stroke-miterlimit="10" stroke-linecap="round" stroke-linejoin="round"/>
<path d="M287.215 137.62L280.444 141.518C279.753 141.916 278.906 141.932 278.198 141.564C275.368 140.09 268.232 136.138 267.283 133.311C266.006 129.509 271.901 117.947 271.901 117.947C271.901 117.947 284.04 119.001 286.517 121.852C288.518 124.155 288.475 132.455 288.378 135.683C288.354 136.486 287.913 137.218 287.215 137.62Z" stroke="#212121" stroke-miterlimit="10" stroke-linecap="round" stroke-linejoin="round"/>
<path d="M284.258 137.844L280.349 144.596C279.949 145.285 279.224 145.721 278.427 145.755C275.236 145.889 267.076 146.025 264.835 144.049C261.823 141.393 261.131 128.442 261.131 128.442C261.131 128.442 272.172 123.303 275.747 124.537C278.635 125.534 282.76 132.743 284.294 135.587C284.676 136.294 284.661 137.149 284.258 137.844Z" stroke="#212121" stroke-miterlimit="10" stroke-linecap="round" stroke-linejoin="round"/>
<path d="M281.81 139.513V147.309C281.81 148.105 281.4 148.844 280.726 149.271C278.031 150.978 271.031 155.165 268.101 154.57C264.16 153.772 257.066 142.901 257.066 142.901C257.066 142.901 264.052 132.945 267.766 132.232C270.766 131.655 277.954 135.842 280.709 137.54C281.394 137.963 281.81 138.71 281.81 139.513Z" stroke="#212121" stroke-miterlimit="10" stroke-linecap="round" stroke-linejoin="round"/>
<path d="M280.525 142.179L284.435 148.93C284.834 149.62 284.85 150.464 284.48 151.17C283.002 153.991 279.039 161.108 276.204 162.054C272.391 163.327 260.796 157.449 260.796 157.449C260.796 157.449 261.853 145.345 264.713 142.874C267.023 140.88 275.346 140.922 278.584 141.019C279.388 141.043 280.123 141.483 280.525 142.179Z" stroke="#212121" stroke-miterlimit="10" stroke-linecap="round" stroke-linejoin="round"/>
<path d="M280.75 145.127L287.521 149.026C288.213 149.424 288.65 150.147 288.683 150.942C288.818 154.123 288.955 162.261 286.973 164.495C284.309 167.498 271.321 168.189 271.321 168.189C271.321 168.189 266.167 157.179 267.405 153.614C268.404 150.734 275.635 146.621 278.486 145.091C279.196 144.711 280.053 144.726 280.75 145.127Z" stroke="#212121" stroke-miterlimit="10" stroke-linecap="round" stroke-linejoin="round"/>
<path d="M282.423 147.569H290.242C291.04 147.569 291.781 147.977 292.209 148.649C293.921 151.336 298.12 158.316 297.524 161.239C296.723 165.168 285.821 172.241 285.821 172.241C285.821 172.241 275.837 165.276 275.122 161.572C274.544 158.581 278.742 151.414 280.445 148.666C280.869 147.983 281.618 147.569 282.423 147.569Z" stroke="#212121" stroke-miterlimit="10" stroke-linecap="round" stroke-linejoin="round"/>
<path d="M285.097 148.85L291.868 144.951C292.559 144.553 293.406 144.537 294.114 144.906C296.944 146.38 304.08 150.331 305.029 153.159C306.306 156.961 300.411 168.522 300.411 168.522C300.411 168.522 288.272 167.468 285.795 164.617C283.794 162.314 283.837 154.014 283.934 150.786C283.958 149.983 284.4 149.251 285.097 148.85Z" stroke="#212121" stroke-miterlimit="10" stroke-linecap="round" stroke-linejoin="round"/>
<path d="M288.055 148.625L291.964 141.874C292.363 141.184 293.089 140.748 293.886 140.715C297.076 140.58 305.237 140.444 307.478 142.42C310.489 145.077 311.182 158.027 311.182 158.027C311.182 158.027 300.14 163.167 296.566 161.932C293.678 160.935 289.553 153.726 288.018 150.883C287.637 150.175 287.652 149.321 288.055 148.625Z" stroke="#212121" stroke-miterlimit="10" stroke-linecap="round" stroke-linejoin="round"/>
<path d="M290.503 146.957V139.16C290.503 138.364 290.912 137.625 291.586 137.199C294.281 135.491 301.281 131.305 304.212 131.899C308.152 132.698 315.246 143.568 315.246 143.568C315.246 143.568 308.261 153.524 304.547 154.237C301.546 154.814 294.359 150.627 291.603 148.929C290.918 148.507 290.503 147.76 290.503 146.957Z" stroke="#212121" stroke-miterlimit="10" stroke-linecap="round" stroke-linejoin="round"/>
<path d="M291.787 144.291L287.877 137.539C287.478 136.85 287.462 136.006 287.832 135.3C289.31 132.478 293.273 125.362 296.109 124.415C299.921 123.142 311.516 129.02 311.516 129.02C311.516 129.02 310.459 141.125 307.6 143.595C305.29 145.59 296.966 145.548 293.729 145.451C292.924 145.426 292.19 144.986 291.787 144.291Z" stroke="#212121" stroke-miterlimit="10" stroke-linecap="round" stroke-linejoin="round"/>
<path d="M291.562 141.342L284.791 137.443C284.1 137.046 283.662 136.322 283.629 135.527C283.494 132.347 283.357 124.208 285.339 121.974C288.003 118.971 300.991 118.281 300.991 118.281C300.991 118.281 306.145 129.29 304.907 132.855C303.907 135.735 296.677 139.848 293.826 141.378C293.116 141.758 292.26 141.743 291.562 141.342Z" stroke="#212121" stroke-miterlimit="10" stroke-linecap="round" stroke-linejoin="round"/>
<path d="M286.157 179.518C306.252 179.518 322.543 163.273 322.543 143.234C322.543 123.196 306.252 106.951 286.157 106.951C266.061 106.951 249.77 123.196 249.77 143.234C249.77 163.273 266.061 179.518 286.157 179.518Z" stroke="#212121" stroke-miterlimit="10" stroke-linecap="round" stroke-linejoin="round"/>
<path d="M286.491 114.228V106.951" stroke="#212121" stroke-miterlimit="10" stroke-linecap="round" stroke-linejoin="round"/>
<path d="M285.822 172.241V179.518" stroke="#212121" stroke-miterlimit="10" stroke-linecap="round" stroke-linejoin="round"/>
<path d="M315.246 143.568H322.543" stroke="#212121" stroke-miterlimit="10" stroke-linecap="round" stroke-linejoin="round"/>
<path d="M257.067 142.901H249.77" stroke="#212121" stroke-miterlimit="10" stroke-linecap="round" stroke-linejoin="round"/>
<path d="M268.113 125.312L260.711 117.93" stroke="#212121" stroke-miterlimit="10" stroke-linecap="round" stroke-linejoin="round"/>
<path d="M303.778 161.323L311.854 169.375" stroke="#212121" stroke-miterlimit="10" stroke-linecap="round" stroke-linejoin="round"/>
<path d="M304.003 126.206L312.078 118.154" stroke="#212121" stroke-miterlimit="10" stroke-linecap="round" stroke-linejoin="round"/>
<path d="M268.113 160.875L260.263 168.704" stroke="#212121" stroke-miterlimit="10" stroke-linecap="round" stroke-linejoin="round"/>
</svg>
