<svg width="25" height="21" viewBox="0 0 25 21" fill="none" xmlns="http://www.w3.org/2000/svg">
<path d="M3.48636 20.477H21.5136C23.6899 20.477 24.7993 19.3886 24.7993 17.2333V6.27835C24.7993 4.12299 23.6899 3.04531 21.5136 3.04531H19.0654C18.2493 3.04531 17.9984 2.8779 17.5274 2.35469L16.6797 1.41272C16.1672 0.837723 15.6337 0.523438 14.5453 0.523438H10.381C9.30332 0.523438 8.76939 0.837723 8.24662 1.41272L7.39886 2.35469C6.93859 2.86719 6.67698 3.04531 5.86091 3.04531H3.48591C1.30957 3.04531 0.200195 4.12299 0.200195 6.27835V17.2333C0.200195 19.3886 1.31002 20.477 3.48636 20.477ZM12.4948 17.1288C9.33457 17.1288 6.79216 14.5859 6.79216 11.4056C6.79216 8.22433 9.33457 5.68237 12.4944 5.68237C15.6752 5.68237 18.2073 8.22433 18.2073 11.4056C18.2073 14.5859 15.6649 17.1288 12.4944 17.1288M20.0172 8.85201C19.3056 8.85201 18.7198 8.27701 18.7198 7.5654C18.7198 7.22133 18.8565 6.89135 19.0998 6.64806C19.3431 6.40476 19.6731 6.26808 20.0172 6.26808C20.3612 6.26808 20.6912 6.40476 20.9345 6.64806C21.1778 6.89135 21.3145 7.22133 21.3145 7.5654C21.3145 8.27701 20.7288 8.85201 20.0172 8.85201ZM12.4948 15.5386C13.0378 15.5393 13.5755 15.4328 14.0772 15.2253C14.579 15.0178 15.0349 14.7134 15.4188 14.3295C15.8027 13.9456 16.1071 13.4897 16.3146 12.988C16.5221 12.4863 16.6285 11.9485 16.6279 11.4056C16.6285 10.8627 16.522 10.325 16.3145 9.82331C16.107 9.32162 15.8025 8.8658 15.4186 8.48193C15.0347 8.09806 14.5788 7.79369 14.0771 7.58624C13.5754 7.37879 13.0377 7.27234 12.4948 7.27299C10.2136 7.27299 8.37252 9.11451 8.37252 11.4056C8.37252 13.6971 10.2243 15.5386 12.4948 15.5386Z" fill="#76C757"/>
</svg>
