<svg width="25" height="25" viewBox="0 0 25 25" fill="none" xmlns="http://www.w3.org/2000/svg">
<path fill-rule="evenodd" clip-rule="evenodd" d="M14.5835 22.9168H10.4168C6.4887 22.9168 4.52412 22.9168 3.30433 21.696C2.0835 20.4762 2.0835 18.5116 2.0835 14.5835V10.4168C2.0835 6.4887 2.0835 4.52412 3.30433 3.30433C4.52412 2.0835 6.49912 2.0835 10.4481 2.0835C11.0793 2.0835 11.5845 2.0835 12.0106 2.1012C11.997 2.18454 11.9897 2.26891 11.9897 2.35537L11.9793 5.30745C11.9793 6.45016 11.9793 7.46058 12.0887 8.27412C12.2075 9.15641 12.4793 10.0387 13.2002 10.7595C13.9189 11.4783 14.8022 11.7512 15.6845 11.87C16.4981 11.9793 17.5085 11.9793 18.6512 11.9793H22.872C22.9168 12.5356 22.9168 13.2189 22.9168 14.1283V14.5835C22.9168 18.5116 22.9168 20.4762 21.696 21.696C20.4762 22.9168 18.5116 22.9168 14.5835 22.9168Z" fill="#76C757"/>
<path d="M20.1582 7.93431L16.0332 4.22285C14.8592 3.16556 14.2728 2.63639 13.5509 2.36035L13.5415 5.20827C13.5415 7.66348 13.5415 8.8916 14.304 9.6541C15.0665 10.4166 16.2946 10.4166 18.7498 10.4166H22.479C22.1019 9.68327 21.4248 9.07493 20.1582 7.93431Z" fill="#76C757"/>
</svg>
