<svg width="25" height="25" viewBox="0 0 25 25" fill="none" xmlns="http://www.w3.org/2000/svg">
<path d="M12.5003 0.390625C5.59545 0.390625 0.000976562 5.81055 0.000976562 12.5C0.000976562 19.1895 5.59545 24.6094 12.5003 24.6094C19.4052 24.6094 24.9997 19.1895 24.9997 12.5C24.9997 5.81055 19.4052 0.390625 12.5003 0.390625ZM12.5003 22.2656C6.94114 22.2656 2.42021 17.8857 2.42021 12.5C2.42021 7.11426 6.94114 2.73438 12.5003 2.73438C18.0595 2.73438 22.5805 7.11426 22.5805 12.5C22.5805 17.8857 18.0595 22.2656 12.5003 22.2656ZM8.46828 11.7188C9.36037 11.7188 10.0811 11.0205 10.0811 10.1562C10.0811 9.29199 9.36037 8.59375 8.46828 8.59375C7.57619 8.59375 6.85546 9.29199 6.85546 10.1562C6.85546 11.0205 7.57619 11.7188 8.46828 11.7188ZM16.5324 11.7188C17.4245 11.7188 18.1452 11.0205 18.1452 10.1562C18.1452 9.29199 17.4245 8.59375 16.5324 8.59375C15.6403 8.59375 14.9196 9.29199 14.9196 10.1562C14.9196 11.0205 15.6403 11.7188 16.5324 11.7188ZM16.734 15.2637C15.6857 16.4844 14.1384 17.1875 12.5003 17.1875C10.8623 17.1875 9.31501 16.4893 8.26668 15.2637C7.83827 14.7656 7.07218 14.7021 6.56314 15.1123C6.04905 15.5273 5.98353 16.2646 6.4069 16.7627C7.91891 18.5205 10.1416 19.5264 12.5003 19.5264C14.8591 19.5264 17.0817 18.5205 18.5938 16.7627C19.0222 16.2646 18.9516 15.5273 18.4375 15.1123C17.9285 14.7021 17.1624 14.7656 16.734 15.2637Z" fill="#76C757"/>
</svg>
