<svg width="250" height="175" viewBox="0 0 250 175" fill="none" xmlns="http://www.w3.org/2000/svg">
<path d="M123.865 88.0952L0 114.286L113.597 105.998L123.865 88.0952Z" fill="#76C757"/>
<path d="M138.157 67.8572L52.4045 101.191L126.508 85.6565L138.157 67.8572Z" fill="#E1FFD6"/>
<path d="M212 13.6905C212 21.2515 205.868 27.381 198.303 27.381C190.739 27.381 184.607 21.2515 184.607 13.6905C184.607 6.12944 190.739 0 198.303 0C205.868 0 212 6.12944 212 13.6905Z" fill="url(#paint0_linear_68_345)"/>
<path d="M198.074 83.8312C196.058 79.1064 185.742 63.9208 180.051 57.1428L167.403 75.5705C170.67 78.9595 177.458 86.0552 178.47 87.3261C179.735 88.9147 180.051 90.1856 177.205 93.3627C174.359 96.5399 164.241 102.577 157.285 107.342C150.329 112.108 155.072 112.426 157.285 111.473C159.498 110.52 174.992 105.754 189.536 99.0817C204.081 92.4096 199.971 88.2793 198.074 83.8312Z" fill="url(#paint1_linear_68_345)"/>
<path fill-rule="evenodd" clip-rule="evenodd" d="M119.714 7.1865L173.593 21.8975C181.056 23.8707 190.758 28.5325 192.944 35.7143H162.501C162.009 35.3052 161.408 34.9118 160.685 34.5387L120.292 12.0592C117.729 10.2368 114.025 6.71088 119.714 7.1865Z" fill="url(#paint2_linear_68_345)"/>
<path d="M168.93 25.0014H110.018C104.095 26.0309 108.838 28.4329 111.95 29.5053L159.272 40.4431C167.32 42.0516 164.423 48.3784 161.848 52.3461C149.507 72.6133 123.99 114.435 120.642 119.582C116.457 126.016 118.066 126.659 124.827 121.834C137.247 112.968 161.204 85.8031 186.314 55.2414C206.402 30.7921 183.095 24.8942 168.93 25.0014Z" fill="url(#paint3_linear_68_345)"/>
<path d="M18.8438 162.188L16.5 157.5L14.1562 162.188H18.8438ZM5.5625 170L4 166.875L10.25 154.375H22.75L30.5625 170H22.75L20.4062 165.312H12.5938L10.25 170H5.5625ZM28.4287 170L36.2412 154.375H62.8037L60.46 159.062H41.71L40.1475 162.188H58.8975L57.335 165.312H38.585L37.8037 166.875H56.5537L54.9912 170H28.4287ZM60.6699 170L68.4824 154.375H95.0449L90.3574 163.75H87.2324L90.3574 170H82.5449L80.2012 165.312H73.1699L74.7324 162.188H83.3262L84.8887 159.062H73.9512L68.4824 170H60.6699ZM114.786 166.875L118.692 159.062H107.755L103.849 166.875H114.786ZM94.4736 170L102.286 154.375H128.849L121.036 170H94.4736ZM126.715 170L134.527 154.375H161.09L158.746 159.062H139.996L138.434 162.188H157.184L155.621 165.312H136.871L134.527 170H126.715ZM173.8 162.188L171.456 157.5L169.112 162.188H173.8ZM160.519 170L158.956 166.875L165.206 154.375H177.706L185.519 170H177.706L175.362 165.312H167.55L165.206 170H160.519ZM183.385 170L184.947 166.875H203.697L204.479 165.312H185.729L191.197 154.375H217.76L215.416 159.062H196.666L195.104 162.188H213.854L209.947 170H183.385ZM225.001 170L230.47 159.062H221.095L223.438 154.375H250.001L247.657 159.062H238.282L232.813 170H225.001Z" fill="white"/>
<defs>
<linearGradient id="paint0_linear_68_345" x1="184.607" y1="6.51927" x2="198.295" y2="27.3866" gradientUnits="userSpaceOnUse">
<stop stop-color="#E1FFD6"/>
<stop offset="0.825" stop-color="#76C757"/>
</linearGradient>
<linearGradient id="paint1_linear_68_345" x1="176.865" y1="57.1428" x2="176.865" y2="111.905" gradientUnits="userSpaceOnUse">
<stop offset="0.33" stop-color="#76C757"/>
<stop offset="1" stop-color="#E1FFD6"/>
</linearGradient>
<linearGradient id="paint2_linear_68_345" x1="154.831" y1="7.14282" x2="154.831" y2="35.7143" gradientUnits="userSpaceOnUse">
<stop stop-color="#76C757"/>
<stop offset="1" stop-color="#E1FFD6"/>
</linearGradient>
<linearGradient id="paint3_linear_68_345" x1="150.663" y1="25" x2="150.663" y2="125" gradientUnits="userSpaceOnUse">
<stop stop-color="#E1FFD6"/>
<stop offset="0.125" stop-color="#BEEDAC"/>
<stop offset="0.715" stop-color="#76C757"/>
</linearGradient>
</defs>
</svg>
