<svg width="174" height="129" viewBox="0 0 174 129" fill="none" xmlns="http://www.w3.org/2000/svg">
<path d="M86.2098 66.8488L0 86.7227L79.0629 80.4335L86.2098 66.8488Z" fill="#76C757"/>
<path d="M96.1571 51.4916L36.4734 76.7857L88.0491 64.9981L96.1571 51.4916Z" fill="#E1FFD6"/>
<path d="M147.551 10.3887C147.551 16.1262 143.283 20.7773 138.019 20.7773C132.754 20.7773 128.486 16.1262 128.486 10.3887C128.486 4.65116 132.754 0 138.019 0C143.283 0 147.551 4.65116 147.551 10.3887Z" fill="url(#paint0_linear_870_1615)"/>
<path d="M137.859 63.6131C136.456 60.0278 129.276 48.5046 125.315 43.3613L116.512 57.3447C118.786 59.9163 123.51 65.3007 124.214 66.2651C125.095 67.4706 125.315 68.4349 123.334 70.8459C121.354 73.2568 114.311 77.8375 109.47 81.4539C104.628 85.0703 107.929 85.3114 109.47 84.5881C111.01 83.8648 121.794 80.2485 131.917 75.1855C142.04 70.1226 139.179 66.9884 137.859 63.6131Z" fill="url(#paint1_linear_870_1615)"/>
<path fill-rule="evenodd" clip-rule="evenodd" d="M83.3209 5.45331L120.82 16.6164C126.015 18.1136 132.767 21.6512 134.288 27.1008H113.1C112.758 26.7904 112.34 26.4919 111.836 26.2088L83.723 9.15086C81.9391 7.76796 79.3613 5.0924 83.3209 5.45331Z" fill="url(#paint2_linear_870_1615)"/>
<path d="M117.575 18.9717H76.5723C72.4496 19.7528 75.7508 21.5756 77.9167 22.3893L110.853 30.6892C116.455 31.9098 114.438 36.7107 112.646 39.7214C104.057 55.1007 86.2964 86.8357 83.9662 90.7415C81.0535 95.6238 82.1738 96.112 86.879 92.4503C95.5235 85.7229 112.197 65.1094 129.674 41.9185C143.655 23.3657 127.433 18.8903 117.575 18.9717Z" fill="url(#paint3_linear_870_1615)"/>
<path d="M156.6 129L160.406 120.7H153.881L155.513 117.143H174L172.369 120.7H165.844L162.038 129H156.6Z" fill="white"/>
<path d="M127.635 129L128.723 126.629H141.773L142.317 125.443H129.267L133.073 117.143H151.56L149.929 120.7H136.879L135.792 123.072H148.841L146.123 129H127.635Z" fill="white"/>
<path d="M120.964 123.072L119.333 119.515L117.702 123.072H120.964ZM111.72 129L110.633 126.629L114.983 117.143H123.683L129.12 129H123.683L122.052 125.443H116.614L114.983 129H111.72Z" fill="white"/>
<path d="M88.1932 129L93.6307 117.143H112.118L110.487 120.7H97.4369L96.3494 123.072H109.399L108.312 125.443H95.2619L93.6307 129H88.1932Z" fill="white"/>
<path d="M79.8908 126.629L82.6096 120.7H74.9971L72.2784 126.629H79.8908ZM65.7534 129L71.1909 117.143H89.6783L84.2408 129H65.7534Z" fill="white"/>
<path d="M42.2261 129L47.6636 117.143H66.151L62.8885 124.257H60.7135L62.8885 129H57.451L55.8198 125.443H50.9261L52.0136 123.072H57.9948L59.0823 120.7H51.4698L47.6636 129H42.2261Z" fill="white"/>
<path d="M19.7863 129L25.2238 117.143H43.7112L42.08 120.7H29.03L27.9425 123.072H40.9925L39.905 125.443H26.855L26.3113 126.629H39.3612L38.2737 129H19.7863Z" fill="white"/>
<path d="M13.1152 123.072L11.484 119.515L9.85272 123.072H13.1152ZM3.87149 129L2.784 126.629L7.13398 117.143H15.8339L21.2714 129H15.8339L14.2027 125.443H8.76522L7.13398 129H3.87149Z" fill="white"/>
<defs>
<linearGradient id="paint0_linear_870_1615" x1="128.486" y1="4.94698" x2="139.202" y2="19.9311" gradientUnits="userSpaceOnUse">
<stop stop-color="#E1FFD6"/>
<stop offset="0.825" stop-color="#76C757"/>
</linearGradient>
<linearGradient id="paint1_linear_870_1615" x1="123.098" y1="43.3613" x2="123.098" y2="84.916" gradientUnits="userSpaceOnUse">
<stop offset="0.33" stop-color="#76C757"/>
<stop offset="1" stop-color="#E1FFD6"/>
</linearGradient>
<linearGradient id="paint2_linear_870_1615" x1="107.762" y1="5.42017" x2="107.762" y2="27.1008" gradientUnits="userSpaceOnUse">
<stop stop-color="#76C757"/>
<stop offset="1" stop-color="#E1FFD6"/>
</linearGradient>
<linearGradient id="paint3_linear_870_1615" x1="104.861" y1="18.9706" x2="104.861" y2="94.8529" gradientUnits="userSpaceOnUse">
<stop stop-color="#E1FFD6"/>
<stop offset="0.125" stop-color="#BEEDAC"/>
<stop offset="0.715" stop-color="#76C757"/>
</linearGradient>
</defs>
</svg>
