<svg width="19" height="19" viewBox="0 0 19 19" fill="none" xmlns="http://www.w3.org/2000/svg">
<path fill-rule="evenodd" clip-rule="evenodd" d="M0.795135 1.69699C1.30425 1.18787 1.99476 0.901855 2.71476 0.901855H9.0492C9.54898 0.901855 9.95412 1.307 9.95412 1.80678C9.95412 2.30655 9.54898 2.7117 9.0492 2.7117H2.71476C2.47476 2.7117 2.24459 2.80704 2.07489 2.97674C1.90518 3.14645 1.80984 3.37662 1.80984 3.61662V16.2855C1.80984 16.5255 1.90518 16.7557 2.07489 16.9254C2.24459 17.0951 2.47476 17.1904 2.71476 17.1904H15.3836C15.6236 17.1904 15.8538 17.0951 16.0235 16.9254C16.1932 16.7557 16.2886 16.5255 16.2886 16.2855V9.95106C16.2886 9.45128 16.6937 9.04614 17.1935 9.04614C17.6933 9.04614 18.0984 9.45128 18.0984 9.95106V16.2855C18.0984 17.0055 17.8124 17.696 17.3033 18.2051C16.7942 18.7142 16.1036 19.0003 15.3836 19.0003H2.71476C1.99476 19.0003 1.30425 18.7142 0.795135 18.2051C0.286019 17.696 0 17.0055 0 16.2855V3.61662C0 2.89662 0.286018 2.20611 0.795135 1.69699Z" fill="#76C757"/>
<path fill-rule="evenodd" clip-rule="evenodd" d="M16.1753 1.80984C15.9062 1.80984 15.6481 1.91675 15.4578 2.10704L7.15138 10.4134L6.67305 12.3268L8.58639 11.8484L16.8928 3.54205C17.0831 3.35176 17.19 3.09366 17.19 2.82455C17.19 2.55543 17.0831 2.29733 16.8928 2.10704C16.7025 1.91675 16.4444 1.80984 16.1753 1.80984ZM14.178 0.82729C14.7077 0.297585 15.4262 0 16.1753 0C16.9244 0 17.6428 0.297585 18.1725 0.82729C18.7022 1.35699 18.9998 2.07543 18.9998 2.82455C18.9998 3.57366 18.7022 4.2921 18.1725 4.8218L9.68891 13.3054C9.57294 13.4214 9.42762 13.5037 9.26851 13.5435L5.64883 14.4484C5.34045 14.5255 5.01424 14.4351 4.78948 14.2103C4.56471 13.9856 4.47436 13.6594 4.55145 13.351L5.45637 9.73132C5.49615 9.5722 5.57842 9.42689 5.6944 9.31092L14.178 0.82729Z" fill="#76C757"/>
</svg>
