<svg width="16" height="20" viewBox="0 0 16 20" fill="none" xmlns="http://www.w3.org/2000/svg">
<path d="M9.88766 1.35561C9.88766 4.30978 11.4452 5.79478 12.7868 7.20644C14.0702 8.55644 15.2918 9.84228 15.2918 12.2914C15.2918 16.3014 12.1643 19.1664 8.15433 19.1664C4.1435 19.1664 0.708496 16.3156 0.708496 12.2914C0.708496 10.5923 1.51016 8.94894 2.79933 8.20894C3.0535 8.06311 3.35933 8.21478 3.4685 8.48728C4.30266 10.5698 5.331 10.5331 5.86433 9.99978C6.18766 9.67728 6.256 9.06978 5.861 8.28144C3.85683 4.27144 7.4135 1.38228 9.361 0.90311C9.641 0.834776 9.8735 1.06811 9.88766 1.35561ZM8.15433 17.9164C11.5368 17.9164 14.0418 15.5498 14.0418 12.2914C14.0418 10.3439 13.131 9.38394 11.8102 7.99311L11.7927 7.97394C10.5927 6.70978 9.17683 5.18144 8.75183 2.50978C8.12258 2.87964 7.57963 3.3797 7.15933 3.97644C6.5035 4.92978 6.2035 6.17061 6.97933 7.72228C7.48183 8.72644 7.62683 10.0056 6.7485 10.8839C6.201 11.4314 5.28016 11.8006 4.28516 11.3723C3.6585 11.1023 3.15766 10.5764 2.7535 9.88061C2.281 10.4689 1.9585 11.3306 1.9585 12.2914C1.9585 15.4973 4.6985 17.9164 8.15433 17.9164Z" fill="#212121"/>
</svg>
