<svg width="18" height="22" viewBox="0 0 18 22" fill="none"
    xmlns="http://www.w3.org/2000/svg">
    <path d="M9.02713 0.0354004L8.45312 0.52715C8.45312 0.52715 6.40562 2.1984 4.37913 4.62915C2.35175 7.05903 0.25 10.265 0.25 13.625C0.25 16.0453 1.24138 18.0613 2.84787 19.4219C4.35462 20.6968 6.3715 21.3871 8.5625 21.4729C8.7095 21.4799 8.853 21.5 9 21.5C9.147 21.5 9.2905 21.4799 9.4375 21.4729C11.6285 21.3871 13.6454 20.6968 15.1521 19.4219C16.7586 18.0613 17.75 16.0444 17.75 13.625C17.75 10.6002 15.6377 7.4484 13.6209 4.92928C11.6049 2.41103 9.602 0.554275 9.602 0.554275L9.02713 0.0354004ZM8.97375 2.46878C9.42875 2.89928 10.6214 3.9799 12.255 6.0239C14.1747 8.42665 16 11.4892 16 13.625C16 15.5798 15.2414 17.0638 14.0041 18.1094C13.7031 18.3632 13.375 18.595 13.0198 18.7928C13.235 18.2765 13.375 17.7165 13.375 17.125C13.375 11.6563 10.449 8.3199 10.449 8.3199L8.8635 6.54365L8.91775 8.9219C8.91775 8.9219 8.92125 10.0358 8.78125 11.1094C8.7095 11.6458 8.61063 12.1795 8.48025 12.477C8.44263 12.5619 8.426 12.5724 8.398 12.6135C8.16151 12.511 7.9479 12.3623 7.76975 12.176C7.47575 11.875 7.27713 11.574 7.27713 11.574L6.42925 10.2615L5.773 11.6834C5.773 11.6834 4.625 14.0249 4.625 17.125C4.625 17.7165 4.765 18.2765 4.98025 18.7928C4.63117 18.5968 4.30156 18.3679 3.99588 18.1094C2.75863 17.0638 2 15.5807 2 13.625C2 11.0377 3.83575 8.0434 5.74588 5.75003C7.36638 3.8084 8.51437 2.85815 8.97287 2.46878H8.97375ZM10.4499 11.6834C11.0475 12.9828 11.625 14.7975 11.625 17.125C11.625 17.8212 11.3484 18.4889 10.8562 18.9812C10.3639 19.4735 9.69619 19.75 9 19.75C8.30381 19.75 7.63613 19.4735 7.14384 18.9812C6.65156 18.4889 6.375 17.8212 6.375 17.125C6.375 15.7303 6.64537 14.5517 6.89475 13.7073C7.28762 14.059 7.76975 14.4178 8.48025 14.4178C8.89762 14.4178 9.294 14.227 9.54688 13.9803C9.80062 13.7344 9.94325 13.4439 10.0666 13.1604C10.2644 12.6984 10.3676 12.1857 10.4499 11.6834Z" fill="#212121"/>
</svg>
