<svg width="14" height="18" viewBox="0 0 14 18" fill="none" xmlns="http://www.w3.org/2000/svg">
<path d="M7.02131 0.88501L6.57031 1.27138C6.57031 1.27138 4.96156 2.58451 3.36931 4.49438C1.77637 6.40357 0.125 8.92257 0.125 11.5626C0.125 13.4642 0.903938 15.0482 2.16619 16.1173C3.35006 17.1189 4.93475 17.6614 6.65625 17.7288C6.77175 17.7343 6.8845 17.7501 7 17.7501C7.1155 17.7501 7.22825 17.7343 7.34375 17.7288C9.06525 17.6614 10.6499 17.1189 11.8338 16.1173C13.0961 15.0482 13.875 13.4635 13.875 11.5626C13.875 9.18588 12.2154 6.70951 10.6307 4.7302C9.04669 2.75157 7.473 1.2927 7.473 1.2927L7.02131 0.88501ZM6.97937 2.79695C7.33687 3.1352 8.27394 3.98426 9.5575 5.59026C11.0659 7.47813 12.5 9.88438 12.5 11.5626C12.5 13.0984 11.9039 14.2644 10.9318 15.086C10.6953 15.2854 10.4375 15.4676 10.1584 15.6229C10.3275 15.2173 10.4375 14.7773 10.4375 14.3126C10.4375 10.0157 8.1385 7.39426 8.1385 7.39426L6.89275 5.99863L6.93538 7.86726C6.93538 7.86726 6.93813 8.74245 6.82812 9.58601C6.77175 10.0074 6.69406 10.4268 6.59163 10.6606C6.56206 10.7273 6.549 10.7355 6.527 10.7678C6.34119 10.6873 6.17335 10.5704 6.03337 10.4241C5.80237 10.1876 5.64631 9.95107 5.64631 9.95107L4.98012 8.91982L4.4645 10.037C4.4645 10.037 3.5625 11.8768 3.5625 14.3126C3.5625 14.7773 3.6725 15.2173 3.84163 15.6229C3.56735 15.4689 3.30837 15.2891 3.06819 15.086C2.09606 14.2644 1.5 13.0991 1.5 11.5626C1.5 9.52963 2.94238 7.17701 4.44319 5.37507C5.71644 3.84951 6.61844 3.10288 6.97869 2.79695H6.97937ZM8.13919 10.037C8.60875 11.0579 9.0625 12.4838 9.0625 14.3126C9.0625 14.8596 8.8452 15.3842 8.45841 15.771C8.07161 16.1578 7.54701 16.3751 7 16.3751C6.45299 16.3751 5.92839 16.1578 5.54159 15.771C5.1548 15.3842 4.9375 14.8596 4.9375 14.3126C4.9375 13.2167 5.14994 12.2906 5.34587 11.6272C5.65456 11.9036 6.03338 12.1854 6.59163 12.1854C6.91956 12.1854 7.231 12.0356 7.42969 11.8417C7.62906 11.6485 7.74113 11.4203 7.83806 11.1975C7.99344 10.8345 8.07456 10.4316 8.13919 10.037Z" fill="#8D8D8D"/>
</svg>
