<svg width="20" height="21" viewBox="0 0 20 21" fill="none" xmlns="http://www.w3.org/2000/svg">
<path fill-rule="evenodd" clip-rule="evenodd" d="M10 3.625C6.20304 3.625 3.125 6.70304 3.125 10.5C3.125 14.297 6.20304 17.375 10 17.375C13.797 17.375 16.875 14.297 16.875 10.5C16.875 6.70304 13.797 3.625 10 3.625ZM1.875 10.5C1.875 6.01269 5.51269 2.375 10 2.375C14.4873 2.375 18.125 6.01269 18.125 10.5C18.125 14.9873 14.4873 18.625 10 18.625C5.51269 18.625 1.875 14.9873 1.875 10.5Z" fill="#8D8D8D"/>
<path fill-rule="evenodd" clip-rule="evenodd" d="M9.16675 6.54175C9.51193 6.54175 9.79175 6.82157 9.79175 7.16675V10.7084H13.3334C13.6786 10.7084 13.9584 10.9882 13.9584 11.3334C13.9584 11.6786 13.6786 11.9584 13.3334 11.9584H9.16675C8.82157 11.9584 8.54175 11.6786 8.54175 11.3334V7.16675C8.54175 6.82157 8.82157 6.54175 9.16675 6.54175Z" fill="#8D8D8D"/>
</svg>
