<svg width="26" height="27" viewBox="0 0 26 27" fill="none" xmlns="http://www.w3.org/2000/svg">
<path d="M13.1083 20.5958L13 20.7042L12.8808 20.5958C7.73499 15.9267 4.33332 12.8392 4.33332 9.70833C4.33332 7.54167 5.95832 5.91667 8.12499 5.91667C9.79332 5.91667 11.4183 7 11.9925 8.47333H14.0075C14.5817 7 16.2067 5.91667 17.875 5.91667C20.0417 5.91667 21.6667 7.54167 21.6667 9.70833C21.6667 12.8392 18.265 15.9267 13.1083 20.5958ZM17.875 3.75C15.99 3.75 14.1808 4.6275 13 6.00333C11.8192 4.6275 10.01 3.75 8.12499 3.75C4.78832 3.75 2.16666 6.36083 2.16666 9.70833C2.16666 13.7925 5.84999 17.14 11.4292 22.1992L13 23.6292L14.5708 22.1992C20.15 17.14 23.8333 13.7925 23.8333 9.70833C23.8333 6.36083 21.2117 3.75 17.875 3.75Z" fill="#212121"/>
</svg>
