<svg width="22" height="21" viewBox="0 0 22 21" fill="none" xmlns="http://www.w3.org/2000/svg">
<path d="M18.5833 0.75C19.4123 0.749954 20.21 1.06669 20.8131 1.63539C21.4162 2.2041 21.7793 2.98178 21.8279 3.80933L21.8333 4V14.8333C21.8334 15.6623 21.5166 16.46 20.9479 17.0631C20.3792 17.6663 19.6015 18.0293 18.774 18.0779L18.5833 18.0833H14.5782L11.7507 19.9683C11.5513 20.1012 11.3201 20.1787 11.0808 20.193C10.8416 20.2072 10.6029 20.1578 10.389 20.0496L10.2482 19.9683L7.42282 18.0833H3.41666C2.58768 18.0834 1.79002 17.7666 1.18687 17.1979C0.583732 16.6292 0.220707 15.8516 0.172073 15.024L0.166656 14.8333V4C0.16661 3.17102 0.483342 2.37336 1.05205 1.77022C1.62075 1.16708 2.39844 0.80405 3.22599 0.755417L3.41666 0.75H18.5833ZM18.5833 2.91667H3.41666C3.15131 2.9167 2.89521 3.01412 2.69692 3.19044C2.49863 3.36676 2.37195 3.60973 2.34091 3.87325L2.33332 4V14.8333C2.33336 15.0987 2.43078 15.3548 2.6071 15.5531C2.78342 15.7514 3.02638 15.878 3.28991 15.9091L3.41666 15.9167H7.42174C7.7873 15.9166 8.14693 16.009 8.46716 16.1853L8.62424 16.2807L11 17.8645L13.3757 16.2807C13.68 16.0777 14.0307 15.9551 14.3952 15.9243L14.5782 15.9167H18.5833C18.8487 15.9166 19.1048 15.8192 19.3031 15.6429C19.5013 15.4666 19.628 15.2236 19.6591 14.9601L19.6667 14.8333V4C19.6666 3.73466 19.5692 3.47855 19.3929 3.28026C19.2166 3.08198 18.9736 2.9553 18.7101 2.92425L18.5833 2.91667ZM7.20832 8.33333C7.6393 8.33333 8.05262 8.50454 8.35737 8.80929C8.66212 9.11403 8.83332 9.52736 8.83332 9.95833C8.83332 10.3893 8.66212 10.8026 8.35737 11.1074C8.05262 11.4121 7.6393 11.5833 7.20832 11.5833C6.77735 11.5833 6.36402 11.4121 6.05927 11.1074C5.75453 10.8026 5.58332 10.3893 5.58332 9.95833C5.58332 9.52736 5.75453 9.11403 6.05927 8.80929C6.36402 8.50454 6.77735 8.33333 7.20832 8.33333ZM14.7917 8.33333C15.2226 8.33333 15.636 8.50454 15.9407 8.80929C16.2454 9.11403 16.4167 9.52736 16.4167 9.95833C16.4167 10.3893 16.2454 10.8026 15.9407 11.1074C15.636 11.4121 15.2226 11.5833 14.7917 11.5833C14.3607 11.5833 13.9474 11.4121 13.6426 11.1074C13.3379 10.8026 13.1667 10.3893 13.1667 9.95833C13.1667 9.52736 13.3379 9.11403 13.6426 8.80929C13.9474 8.50454 14.3607 8.33333 14.7917 8.33333Z" fill="#212121"/>
</svg>
