<svg width="22" height="23" viewBox="0 0 22 23" fill="none" xmlns="http://www.w3.org/2000/svg">
<path fill-rule="evenodd" clip-rule="evenodd" d="M5.43283 2.29175C4.46731 2.29175 3.54132 2.67524 2.85851 3.35788C2.17575 4.04048 1.79204 4.9663 1.79175 5.93175C1.79175 5.93168 1.79175 5.93181 1.79175 5.93175V17.0673C1.79175 17.5456 1.88596 18.0191 2.06899 18.4609C2.25203 18.9027 2.52031 19.3042 2.85851 19.6423C3.19671 19.9804 3.5982 20.2486 4.04006 20.4315C4.48192 20.6144 4.95549 20.7085 5.43372 20.7084H12.3022L12.3034 20.7084C12.49 20.7087 12.6749 20.672 12.8473 20.6004C13.0196 20.5289 13.1762 20.4239 13.3078 20.2915L13.3094 20.2899L19.7899 13.8094L19.7913 13.808C19.9236 13.6764 20.0285 13.5199 20.1001 13.3475C20.1717 13.1752 20.2085 12.9903 20.2084 12.8037V5.93283C20.2084 4.96665 19.8255 4.04067 19.143 3.3582C18.4602 2.67536 17.5341 2.29175 16.5684 2.29175H5.43283ZM1.7096 2.2087C2.69715 1.22139 4.0364 0.666748 5.43283 0.666748H16.5684C17.9651 0.666748 19.3045 1.22157 20.2921 2.20915C21.28 3.19709 21.8334 4.53669 21.8334 5.93283V12.8029C21.8334 12.8031 21.8334 12.8032 21.8334 12.8033C21.8336 13.204 21.7545 13.6008 21.6008 13.9708C21.4472 14.3406 21.2221 14.6764 20.9384 14.9589C20.9382 14.9592 20.9378 14.9595 20.9375 14.9598L14.4601 21.4373C14.4597 21.4377 14.4593 21.4381 14.4589 21.4385C14.1763 21.7224 13.8402 21.9477 13.4702 22.1013C13.0997 22.2551 12.7023 22.334 12.3011 22.3334L12.3022 21.5213V22.3334H12.3011H5.43411C4.74252 22.3336 4.05747 22.1975 3.41848 21.9329C2.77942 21.6684 2.19874 21.2805 1.7096 20.7915C1.22046 20.3025 0.832453 19.7219 0.567727 19.0829C0.303002 18.4439 0.166748 17.759 0.166748 17.0673V5.93175C0.167088 4.53532 0.722056 3.196 1.7096 2.2087Z" fill="#212121"/>
<path fill-rule="evenodd" clip-rule="evenodd" d="M16.2989 13.9539C15.9168 13.9057 15.5286 13.9456 15.1642 14.0705C14.7998 14.1953 14.4688 14.4019 14.1965 14.6743C13.9241 14.9467 13.7177 15.2778 13.5929 15.6422C13.4682 16.0067 13.4284 16.3948 13.4767 16.777L13.4768 16.7779L14.0337 21.2304C14.0893 21.6757 13.7735 22.0818 13.3283 22.1375C12.883 22.1932 12.4769 21.8774 12.4212 21.4321L11.8645 16.9806C11.8645 16.9804 11.8645 16.9802 11.8644 16.9801C11.7852 16.3523 11.8506 15.7146 12.0555 15.1159C12.2605 14.5171 12.5997 13.973 13.0473 13.5254C13.4948 13.0778 14.0387 12.7384 14.6375 12.5332C15.2362 12.3281 15.8738 12.2625 16.5017 12.3416C16.5018 12.3416 16.502 12.3416 16.5021 12.3416L20.9538 12.8984C21.3991 12.9541 21.7149 13.3602 21.6592 13.8054C21.6036 14.2507 21.1975 14.5665 20.7522 14.5108L16.2989 13.9539Z" fill="#212121"/>
</svg>
