<svg width="30" height="31" viewBox="0 0 30 31" fill="none" xmlns="http://www.w3.org/2000/svg">
<path d="M8.0363 3.51628C8.1939 3.32819 8.27146 3.0858 8.25235 2.84116C8.23324 2.59652 8.11897 2.36913 7.93407 2.20779C7.74918 2.04646 7.5084 1.96405 7.26342 1.97826C7.01845 1.99246 6.78881 2.10215 6.6238 2.28378L5.0088 4.13378C4.09303 5.18324 3.57535 6.52124 3.5463 7.91378L3.47505 11.3125C3.47251 11.4356 3.49424 11.5581 3.539 11.6728C3.58377 11.7875 3.65069 11.8923 3.73594 11.9811C3.8212 12.07 3.92312 12.1412 4.03589 12.1906C4.14866 12.2401 4.27006 12.2669 4.39318 12.2694C4.51629 12.2719 4.6387 12.2502 4.75342 12.2055C4.86814 12.1607 4.97291 12.0938 5.06177 12.0085C5.15062 11.9233 5.22181 11.8213 5.27128 11.7086C5.32074 11.5958 5.34751 11.4744 5.35005 11.3513L5.42005 7.95378C5.44011 7.00094 5.79452 6.08548 6.4213 5.36753L8.0363 3.51628Z" fill="#76C757"/>
<path fill-rule="evenodd" clip-rule="evenodd" d="M7.79619 10.125C7.88013 8.78767 8.47059 7.5326 9.44734 6.6153C10.4241 5.69799 11.7137 5.18741 13.0537 5.1875H13.7499V4.25C13.7499 3.91848 13.8816 3.60054 14.1161 3.36612C14.3505 3.1317 14.6684 3 14.9999 3C15.3315 3 15.6494 3.1317 15.8838 3.36612C16.1182 3.60054 16.2499 3.91848 16.2499 4.25V5.1875H16.9462C18.2861 5.18741 19.5758 5.69799 20.5525 6.6153C21.5293 7.5326 22.1197 8.78767 22.2037 10.125L22.4799 14.5425C22.5852 16.2268 23.1508 17.8499 24.1149 19.235C24.3141 19.5213 24.4359 19.8543 24.4683 20.2016C24.5007 20.5489 24.4426 20.8987 24.2998 21.217C24.157 21.5352 23.9342 21.811 23.6532 22.0177C23.3722 22.2243 23.0425 22.3548 22.6962 22.3962L18.4374 22.9062V24.25C18.4374 25.1617 18.0753 26.036 17.4306 26.6807C16.786 27.3253 15.9116 27.6875 14.9999 27.6875C14.0883 27.6875 13.2139 27.3253 12.5693 26.6807C11.9246 26.036 11.5624 25.1617 11.5624 24.25V22.9062L7.30369 22.395C6.95756 22.3534 6.62807 22.223 6.34724 22.0164C6.06642 21.8098 5.84379 21.5341 5.701 21.2161C5.55821 20.898 5.50011 20.5485 5.53234 20.2013C5.56457 19.8542 5.68603 19.5213 5.88494 19.235C6.84906 17.8499 7.4146 16.2268 7.51994 14.5425L7.79619 10.125ZM13.0537 7.0625C12.1907 7.0624 11.36 7.39121 10.7309 7.98201C10.1018 8.57281 9.7215 9.38116 9.66744 10.2425L9.39244 14.66C9.26537 16.6862 8.58483 18.6388 7.42494 20.305C7.41052 20.3257 7.40171 20.3498 7.39936 20.3749C7.397 20.4 7.40119 20.4253 7.41151 20.4484C7.42182 20.4714 7.43792 20.4913 7.45823 20.5063C7.47855 20.5213 7.50239 20.5307 7.52744 20.5338L12.1987 21.095C14.0599 21.3175 15.9399 21.3175 17.8012 21.095L22.4724 20.5338C22.4975 20.5307 22.5213 20.5213 22.5416 20.5063C22.562 20.4913 22.5781 20.4714 22.5884 20.4484C22.5987 20.4253 22.6029 20.4 22.6005 20.3749C22.5982 20.3498 22.5893 20.3257 22.5749 20.305C21.4154 18.6387 20.7353 16.6861 20.6087 14.66L20.3324 10.2425C20.2784 9.38116 19.8981 8.57281 19.269 7.98201C18.6398 7.39121 17.8092 7.0624 16.9462 7.0625H13.0537ZM14.9999 25.8125C14.1374 25.8125 13.4374 25.1125 13.4374 24.25V23.3125H16.5624V24.25C16.5624 25.1125 15.8624 25.8125 14.9999 25.8125Z" fill="#76C757"/>
<path d="M22.0537 2.19375C21.8664 2.35722 21.7517 2.58837 21.7348 2.83637C21.718 3.08437 21.8003 3.32892 21.9637 3.51625L23.5787 5.36625C24.2053 6.08471 24.5592 7.00064 24.5787 7.95375L24.6499 11.35C24.655 11.5986 24.7587 11.8351 24.9382 12.0072C25.1176 12.1794 25.3581 12.2733 25.6068 12.2681C25.8554 12.263 26.0918 12.1593 26.264 11.9798C26.4362 11.8004 26.53 11.5599 26.5249 11.3113L26.4537 7.91375C26.4246 6.52122 25.9069 5.18321 24.9912 4.13375L23.3762 2.28375C23.2127 2.09649 22.9815 1.98181 22.7335 1.96493C22.4855 1.94806 22.241 2.03036 22.0537 2.19375Z" fill="#76C757"/>
</svg>
