<svg width="10" height="12" viewBox="0 0 10 12" fill="none" xmlns="http://www.w3.org/2000/svg">
<path d="M2.1875 0.9375C2.63505 0.9375 3.06428 1.11529 3.38074 1.43176C3.69721 1.74823 3.875 2.17745 3.875 2.625V9.375C3.875 9.82255 3.69721 10.2518 3.38074 10.5682C3.06428 10.8847 2.63505 11.0625 2.1875 11.0625C1.73995 11.0625 1.31072 10.8847 0.994257 10.5682C0.677789 10.2518 0.5 9.82255 0.5 9.375V2.625C0.5 2.17745 0.677789 1.74823 0.994257 1.43176C1.31072 1.11529 1.73995 0.9375 2.1875 0.9375ZM7.8125 0.9375C8.26005 0.9375 8.68928 1.11529 9.00574 1.43176C9.32221 1.74823 9.5 2.17745 9.5 2.625V9.375C9.5 9.82255 9.32221 10.2518 9.00574 10.5682C8.68928 10.8847 8.26005 11.0625 7.8125 11.0625C7.36495 11.0625 6.93572 10.8847 6.61926 10.5682C6.30279 10.2518 6.125 9.82255 6.125 9.375V2.625C6.125 2.17745 6.30279 1.74823 6.61926 1.43176C6.93572 1.11529 7.36495 0.9375 7.8125 0.9375Z" fill="#76C757"/>
</svg>
