<svg width="29" height="23" viewBox="0 0 29 23" fill="none" xmlns="http://www.w3.org/2000/svg">
<path fill-rule="evenodd" clip-rule="evenodd" d="M21.823 4.5833C22.2257 4.98602 22.2257 5.63898 21.823 6.0417L16.3647 11.5L21.823 16.9583C22.2257 17.361 22.2257 18.014 21.823 18.4167C21.4202 18.8194 20.7673 18.8194 20.3645 18.4167L14.177 12.2292C13.7743 11.8265 13.7743 11.1735 14.177 10.7708L20.3645 4.5833C20.7673 4.18057 21.4202 4.18057 21.823 4.5833Z" fill="#8D8D8D"/>
<path fill-rule="evenodd" clip-rule="evenodd" d="M14.823 4.5833C15.2257 4.98602 15.2257 5.63898 14.823 6.0417L9.36466 11.5L14.823 16.9583C15.2257 17.361 15.2257 18.014 14.823 18.4167C14.4202 18.8194 13.7673 18.8194 13.3645 18.4167L7.17705 12.2292C6.77432 11.8265 6.77432 11.1735 7.17705 10.7708L13.3645 4.5833C13.7673 4.18057 14.4202 4.18057 14.823 4.5833Z" fill="#8D8D8D"/>
</svg>
