<svg width="29" height="23" viewBox="0 0 29 23" fill="none" xmlns="http://www.w3.org/2000/svg">
<path fill-rule="evenodd" clip-rule="evenodd" d="M7.17705 4.5833C6.77432 4.98602 6.77432 5.63898 7.17705 6.0417L12.6353 11.5L7.17705 16.9583C6.77432 17.361 6.77432 18.014 7.17705 18.4167C7.57977 18.8194 8.23273 18.8194 8.63545 18.4167L14.823 12.2292C15.2257 11.8265 15.2257 11.1735 14.823 10.7708L8.63545 4.5833C8.23273 4.18057 7.57977 4.18057 7.17705 4.5833Z" fill="#76C757"/>
<path fill-rule="evenodd" clip-rule="evenodd" d="M14.177 4.5833C13.7743 4.98602 13.7743 5.63898 14.177 6.0417L19.6353 11.5L14.177 16.9583C13.7743 17.361 13.7743 18.014 14.177 18.4167C14.5798 18.8194 15.2327 18.8194 15.6355 18.4167L21.823 12.2292C22.2257 11.8265 22.2257 11.1735 21.823 10.7708L15.6355 4.5833C15.2327 4.18057 14.5798 4.18057 14.177 4.5833Z" fill="#76C757"/>
</svg>
