<svg width="21" height="21" viewBox="0 0 21 21" fill="none" xmlns="http://www.w3.org/2000/svg">
<path fill-rule="evenodd" clip-rule="evenodd" d="M10.5 1.90625C5.7538 1.90625 1.90625 5.7538 1.90625 10.5C1.90625 15.2462 5.7538 19.0938 10.5 19.0938C15.2462 19.0938 19.0938 15.2462 19.0938 10.5C19.0938 5.7538 15.2462 1.90625 10.5 1.90625ZM0.34375 10.5C0.34375 4.89086 4.89086 0.34375 10.5 0.34375C16.1091 0.34375 20.6562 4.89086 20.6562 10.5C20.6562 16.1091 16.1091 20.6562 10.5 20.6562C4.89086 20.6562 0.34375 16.1091 0.34375 10.5Z" fill="#212121"/>
<path fill-rule="evenodd" clip-rule="evenodd" d="M9.45837 5.552C9.88985 5.552 10.2396 5.90178 10.2396 6.33325V10.7603H14.6667C15.0982 10.7603 15.448 11.1101 15.448 11.5416C15.448 11.9731 15.0982 12.3228 14.6667 12.3228H9.45837C9.0269 12.3228 8.67712 11.9731 8.67712 11.5416V6.33325C8.67712 5.90178 9.0269 5.552 9.45837 5.552Z" fill="#212121"/>
</svg>
