<svg width="22" height="15" viewBox="0 0 22 15" fill="none" xmlns="http://www.w3.org/2000/svg">
<path fill-rule="evenodd" clip-rule="evenodd" d="M13.2339 0.588349C10.6714 0.319192 8.08896 0.299238 5.52269 0.528766L3.80886 0.681515C3.12114 0.743194 2.47428 1.03481 1.97267 1.5093C1.47105 1.98378 1.14396 2.61346 1.04419 3.29668C0.636638 6.08409 0.636638 8.91595 1.04419 11.7033C1.14419 12.3867 1.4715 13.0164 1.97329 13.4908C2.47509 13.9653 3.1221 14.2569 3.80994 14.3185L5.52377 14.4702C8.09 14.7001 10.6725 14.6805 13.2349 14.4117L13.8936 14.3423C14.5474 14.2738 15.1622 13.9979 15.6481 13.5551C16.134 13.1123 16.4655 12.5257 16.5944 11.881L19.8953 13.6338C20.0138 13.6968 20.146 13.7294 20.2802 13.7288C20.4144 13.7282 20.5464 13.6943 20.6643 13.6303C20.7822 13.5662 20.8824 13.4739 20.956 13.3617C21.0295 13.2495 21.0742 13.1208 21.0859 12.9871L21.1129 12.6794C21.4151 9.23273 21.4151 5.76621 21.1129 2.31952L21.0859 2.01185C21.0741 1.87811 21.0293 1.74937 20.9556 1.63714C20.882 1.52492 20.7816 1.4327 20.6636 1.36874C20.5455 1.30478 20.4135 1.27107 20.2792 1.27063C20.1449 1.27018 20.0127 1.30301 19.8942 1.36618L16.5944 3.11902C16.4655 2.47435 16.134 1.88777 15.6481 1.44495C15.1622 1.00213 14.5474 0.726276 13.8936 0.657682L13.2339 0.588349ZM5.66786 2.14727C8.12922 1.92723 10.6061 1.94646 13.0638 2.20468L13.7224 2.27402C14.0443 2.30809 14.3456 2.44826 14.579 2.67244C14.8124 2.89662 14.9646 3.19207 15.0116 3.51227C15.3994 6.15668 15.3994 8.84227 15.0116 11.4878C14.9646 11.808 14.8124 12.1034 14.579 12.3276C14.3456 12.5518 14.0443 12.6919 13.7224 12.726L13.0638 12.7953C10.6061 13.0536 8.12922 13.0728 5.66786 12.8528L3.95402 12.6989C3.63012 12.67 3.32539 12.5329 3.08896 12.3096C2.85252 12.0864 2.69817 11.79 2.65077 11.4683C2.26601 8.83675 2.26601 6.16328 2.65077 3.53177C2.69776 3.20977 2.85196 2.91304 3.08845 2.68952C3.32494 2.46601 3.6299 2.32878 3.95402 2.30002L5.66786 2.14727ZM16.8067 4.84585C16.9681 6.61168 16.9681 8.38835 16.8067 10.1542L19.5659 11.6199C19.7624 8.87683 19.7624 6.1232 19.5659 3.3801L16.8067 4.84585Z" fill="#212121"/>
</svg>
