<svg width="20" height="17" viewBox="0 0 20 17" fill="none" xmlns="http://www.w3.org/2000/svg">
<path fill-rule="evenodd" clip-rule="evenodd" d="M10.3051 0.370902C10.5297 0.352208 10.755 0.396123 10.9561 0.497768C11.1571 0.599411 11.3261 0.754806 11.4442 0.946694C11.5623 1.13858 11.6249 1.35945 11.625 1.58475V15.415C11.6251 15.64 11.563 15.8607 11.4454 16.0526C11.3275 16.2449 11.1586 16.4007 10.9574 16.5028C10.7562 16.6048 10.5307 16.649 10.3059 16.6304C10.0811 16.6118 9.86586 16.5312 9.68414 16.3976C9.67266 16.3891 9.6614 16.3804 9.65038 16.3713L5.00542 12.5627L1.46875 12.5626C1.14552 12.5626 0.835525 12.4342 0.606964 12.2056C0.378404 11.9771 0.25 11.6671 0.25 11.3439V5.65635C0.25 5.33312 0.378404 5.02313 0.606964 4.79456C0.835525 4.566 1.14552 4.4376 1.46875 4.4376L5.00649 4.4376L9.65038 0.629888C9.6614 0.620851 9.67266 0.612106 9.68414 0.603661C9.86564 0.470164 10.0806 0.389595 10.3051 0.370902ZM10 2.44463V14.5566L6.03592 11.3063C6.03586 11.3062 6.03597 11.3063 6.03592 11.3063C5.74558 11.0682 5.38157 10.9378 5.00607 10.9376H1.875V6.0626H5.00483M10 15.4166C10 15.416 10 15.4155 10 15.415L10 15.4166ZM16.9032 2.11071C17.2909 1.88467 17.7884 2.01569 18.0144 2.40333C19.08 4.2309 19.75 5.88 19.75 8.5001C19.75 11.1242 19.0508 12.7879 18.0175 14.5915C17.7944 14.9809 17.2979 15.1157 16.9086 14.8926C16.5192 14.6695 16.3844 14.173 16.6075 13.7837C17.5526 12.1341 18.125 10.751 18.125 8.5001C18.125 6.2452 17.5762 4.87789 16.6106 3.22187C16.3846 2.83422 16.5156 2.33674 16.9032 2.11071ZM14.5057 4.52636C14.9055 4.32242 15.3948 4.48113 15.5987 4.88084C16.1556 5.9723 16.5 7.15888 16.5 8.5001C16.5 9.82805 16.1408 11.0391 15.6012 12.1145C15.3999 12.5156 14.9117 12.6776 14.5106 12.4763C14.1095 12.275 13.9475 11.7868 14.1488 11.3857C14.5984 10.4897 14.875 9.52739 14.875 8.5001C14.875 7.45359 14.61 6.51853 14.1513 5.61936C13.9473 5.21965 14.106 4.73029 14.5057 4.52636Z" fill="#212121"/>
</svg>
