<svg width="31" height="30" viewBox="0 0 31 30" fill="none" xmlns="http://www.w3.org/2000/svg">
<g clip-path="url(#clip0_68_360)">
<path fill-rule="evenodd" clip-rule="evenodd" d="M21.683 7.023C23.708 7.023 25.8545 8.1375 27.383 10.065C22.373 12.8415 23.1875 20.076 28.25 22.0095C27.5525 23.5695 27.2195 24.267 26.3225 25.6485C25.07 27.5745 23.3075 29.9745 21.119 29.9955C19.1765 30.0135 18.677 28.716 16.04 28.731C13.403 28.746 12.8525 30.018 10.91 30C8.72299 29.979 7.05049 27.813 5.79799 25.8855C2.29699 20.4975 1.93099 14.175 4.09099 10.815C5.62549 8.424 8.04499 7.0245 10.322 7.0245C12.6395 7.0245 14.096 8.31 16.013 8.31C17.873 8.31 19.004 7.023 21.683 7.023ZM21.095 0C21.365 1.8225 20.624 3.6075 19.6505 4.8705C18.608 6.2235 16.8125 7.272 15.0755 7.218C14.7605 5.4735 15.5735 3.678 16.5605 2.4675C17.645 1.1325 19.505 0.111 21.095 0Z" fill="black"/>
</g>
<defs>
<clipPath id="clip0_68_360">
<rect width="30" height="30" fill="white" transform="translate(0.5)"/>
</clipPath>
</defs>
</svg>
