<svg width="17" height="13" viewBox="0 0 17 13" fill="none" xmlns="http://www.w3.org/2000/svg">
<path d="M14.5563 0.603149C14.5563 0.443774 14.5031 0.337524 14.3969 0.231274C14.2906 0.125024 14.1844 0.0718994 14.025 0.0718994C13.8656 0.0718994 13.7594 0.125024 13.6531 0.231274L12.2188 1.66565C11.1563 1.1344 9.93438 0.815649 8.5 0.656274C5.84375 0.921899 3.71875 1.87815 2.23125 3.57815C0.74375 5.27815 0 6.2344 0 6.50002C0 6.76565 0.796875 7.7219 2.23125 9.4219C2.60312 9.8469 2.975 10.2188 3.45313 10.5375L2.01875 12.025C1.9125 12.1313 1.85938 12.2375 1.85938 12.3969C1.85938 12.5563 1.9125 12.6625 2.01875 12.7688C2.125 12.875 2.23125 12.9281 2.39063 12.9281C2.55 12.9281 2.65625 12.875 2.7625 12.7688L14.45 0.975024C14.5031 0.868774 14.5563 0.762524 14.5563 0.603149ZM3.825 9.36877C2.55 8.20002 1.7 7.24377 1.275 6.50002C1.75313 5.70315 2.60313 4.7469 3.825 3.63127C5.04688 2.51565 6.64063 1.82502 8.5 1.71877C9.5625 1.7719 10.5719 2.03752 11.4219 2.46252L10.5187 3.36565C9.93437 2.99377 9.29688 2.78127 8.5 2.78127C7.4375 2.78127 6.5875 3.15315 5.84375 3.84377C5.1 4.5344 4.78125 5.43752 4.78125 6.50002C4.78125 7.2969 4.99375 7.98752 5.36563 8.5719L4.25 9.74065C4.09063 9.6344 3.93125 9.47502 3.825 9.36877ZM6.1625 7.77502C5.95 7.40315 5.84375 6.97815 5.84375 6.50002C5.84375 5.75627 6.10938 5.11877 6.64063 4.64065C7.17188 4.16252 7.75625 3.84377 8.5 3.84377C8.97813 3.84377 9.40312 3.95002 9.72187 4.16252L6.1625 7.77502ZM14.7687 3.57815C14.5562 3.31252 14.2906 3.10002 14.0781 2.88752L13.2812 3.6844C14.5031 4.80002 15.3531 5.75627 15.7781 6.50002C15.3 7.2969 14.45 8.25315 13.2281 9.36877C12.0062 10.4844 10.3594 11.175 8.49998 11.2813C7.64998 11.2281 6.85311 11.0688 6.16248 10.8032L5.36561 11.6C6.32186 11.9719 7.33123 12.2375 8.49998 12.3438C11.1562 12.0781 13.2812 11.1219 14.7687 9.4219C16.2562 7.7219 17 6.76565 17 6.50002C17 6.2344 16.2031 5.27815 14.7687 3.57815Z" fill="#8D8D8D"/>
</svg>
