<svg width="19" height="19" viewBox="0 0 19 19" fill="none" xmlns="http://www.w3.org/2000/svg">
<path fill-rule="evenodd" clip-rule="evenodd" d="M0.805533 8.83854C3.22012 5.37741 6.35089 3.5625 9.48736 3.5625C13.171 3.5625 16.3441 5.96227 18.2162 8.85371L18.2171 8.85507C18.341 9.04756 18.4069 9.27164 18.4069 9.50056C18.4069 9.7291 18.3412 9.95281 18.2177 10.1451C16.3472 13.0737 13.1946 15.4375 9.48736 15.4375C5.74055 15.4375 2.64869 13.0786 0.782804 10.1584C0.656024 9.96156 0.590268 9.7316 0.593826 9.49744C0.597393 9.26269 0.670462 9.03428 0.803799 8.84104L0.805533 8.83854ZM1.78119 9.51549L1.78284 9.51805C3.50624 12.2158 6.26846 14.25 9.48736 14.25C12.6702 14.25 15.492 12.2071 17.2174 9.50514L17.2186 9.50337C17.2191 9.50253 17.2194 9.50155 17.2194 9.50056C17.2194 9.4996 17.2191 9.49867 17.2186 9.49785C15.4866 6.82348 12.6417 4.75 9.48736 4.75C6.8399 4.75 4.03764 6.28231 1.78119 9.51549Z" fill="#8D8D8D"/>
<path fill-rule="evenodd" clip-rule="evenodd" d="M9.5 7.125C8.18832 7.125 7.125 8.18832 7.125 9.5C7.125 10.8117 8.18832 11.875 9.5 11.875C10.8117 11.875 11.875 10.8117 11.875 9.5C11.875 8.18832 10.8117 7.125 9.5 7.125ZM5.9375 9.5C5.9375 7.53249 7.53249 5.9375 9.5 5.9375C11.4675 5.9375 13.0625 7.53249 13.0625 9.5C13.0625 11.4675 11.4675 13.0625 9.5 13.0625C7.53249 13.0625 5.9375 11.4675 5.9375 9.5Z" fill="#8D8D8D"/>
</svg>
