<svg width="31" height="30" viewBox="0 0 31 30" fill="none" xmlns="http://www.w3.org/2000/svg">
<g clip-path="url(#clip0_68_354)">
<path d="M10.9508 0.98673C7.95332 2.02658 5.36831 4.00024 3.57545 6.61783C1.78259 9.23541 0.876388 12.3589 0.989945 15.5296C1.1035 18.7003 2.23083 21.751 4.20635 24.2336C6.18187 26.7162 8.90145 28.4999 11.9656 29.3227C14.4498 29.9637 17.0525 29.9918 19.55 29.4047C21.8125 28.8965 23.9042 27.8095 25.6203 26.25C27.4064 24.5774 28.7029 22.4496 29.3703 20.0953C30.0955 17.5351 30.2246 14.8428 29.7477 12.225H15.7977V18.0117H23.8766C23.7151 18.9347 23.3691 19.8155 22.8593 20.6017C22.3494 21.3878 21.6862 22.0629 20.9094 22.5867C19.923 23.2395 18.8109 23.6787 17.6445 23.8758C16.4749 24.0933 15.2751 24.0933 14.1055 23.8758C12.9199 23.631 11.7984 23.1416 10.8125 22.4391C9.22848 21.3178 8.03909 19.7248 7.41407 17.8875C6.77865 16.0157 6.77865 13.9866 7.41407 12.1149C7.85897 10.8029 8.59446 9.6083 9.56563 8.62032C10.677 7.46895 12.0841 6.64594 13.6324 6.2416C15.1807 5.83725 16.8105 5.86719 18.343 6.32814C19.5402 6.69546 20.6349 7.33754 21.5398 8.20314C22.4508 7.29689 23.3602 6.38829 24.268 5.47735C24.7367 4.98751 25.2477 4.5211 25.7094 4.01954C24.3278 2.73404 22.7062 1.73369 20.9375 1.07579C17.7165 -0.093763 14.1921 -0.125194 10.9508 0.98673Z" fill="white"/>
<path d="M10.9508 0.986709C14.1919 -0.12597 17.7162 -0.0953667 20.9375 1.07343C22.7065 1.7358 24.3274 2.74096 25.707 4.03124C25.2383 4.5328 24.7438 5.00155 24.2656 5.48905C23.3563 6.39687 22.4477 7.30155 21.5398 8.20312C20.6349 7.33752 19.5402 6.69544 18.343 6.32811C16.811 5.86555 15.1813 5.83388 13.6326 6.23657C12.0838 6.63927 10.6759 7.46076 9.56329 8.61093C8.59212 9.5989 7.85663 10.7935 7.41172 12.1055L2.55313 8.34374C4.29221 4.89506 7.30332 2.25708 10.9508 0.986709Z" fill="#E33629"/>
<path d="M1.26407 12.0703C1.52502 10.776 1.95858 9.52264 2.55313 8.34375L7.41172 12.1148C6.77631 13.9866 6.77631 16.0157 7.41172 17.8875C5.79297 19.1375 4.17344 20.3938 2.55313 21.6563C1.0652 18.6945 0.61141 15.3199 1.26407 12.0703Z" fill="#F8BD00"/>
<path d="M15.7976 12.2227H29.7476C30.2246 14.8405 30.0955 17.5328 29.3703 20.093C28.7029 22.4472 27.4064 24.575 25.6203 26.2477C24.0523 25.0242 22.4773 23.8102 20.9094 22.5867C21.6867 22.0624 22.3502 21.3865 22.8601 20.5995C23.3699 19.8126 23.7157 18.9308 23.8765 18.007H15.7976C15.7953 16.0805 15.7976 14.1516 15.7976 12.2227Z" fill="#587DBD"/>
<path d="M2.55078 21.6563C4.17109 20.4063 5.79062 19.15 7.40937 17.8875C8.03564 19.7255 9.22673 21.3185 10.8125 22.4391C11.8014 23.1384 12.9254 23.6237 14.1125 23.8641C15.2822 24.0816 16.4819 24.0816 17.6516 23.8641C18.8179 23.6669 19.93 23.2278 20.9164 22.575C22.4844 23.7984 24.0594 25.0125 25.6273 26.236C23.9115 27.7962 21.8197 28.8841 19.557 29.393C17.0596 29.9801 14.4569 29.952 11.9727 29.3109C10.0079 28.7864 8.17268 27.8616 6.58203 26.5945C4.89858 25.2577 3.52352 23.5733 2.55078 21.6563Z" fill="#319F43"/>
</g>
<defs>
<clipPath id="clip0_68_354">
<rect width="30" height="30" fill="white" transform="translate(0.5)"/>
</clipPath>
</defs>
</svg>
